# Created by Open3D 
# object name: textured
# number of vertices: 44
# number of triangles: 18
v -0.00774706 0.00051129 8.37045e-05
vn 0 0 0
v -0.00611775 0.0032809 -0.00289486
vn 0 0 0
v -0.00200675 -0.0030942 8.37045e-05
vn 0 0 0
v 0.00210424 0.0073919 -0.0041096
vn 0 0 0
v -0.00336241 -0.00519835 0.00682796
vn -0.262126 -0.939865 -0.218963
v -0.0086871 -0.00998367 0.0337425
vn -0.0548415 -0.944305 -0.324469
v -0.00937638 0.0032809 8.37045e-05
vn 0 0 0
v -0.0160815 0.00858519 0.018554
vn -0.895121 0.0628915 -0.441365
v -0.0160815 -0.00068838 0.024975
vn -0.62518 -0.737702 -0.254845
v -0.00180483 -0.00892748 0.0432492
vn 0.409956 -0.890386 -0.197862
v -0.0300975 0.00090617 0.0576377
vn -0.903532 0.421841 -0.0753605
v -0.0307837 -0.0144223 0.0629071
vn -0.854333 -0.334784 -0.397537
v -0.0307837 -0.0156814 0.0552527
vn -0.275928 -0.929209 -0.245836
v -0.0143397 -0.0100167 0.0329717
vn -0.750662 -0.451021 -0.48279
v -0.0276173 0.0032809 0.0411937
vn -0.927291 0.0126747 -0.374127
v -0.0143397 -0.00465766 0.0252003
vn 0 0 0
v 0.00661987 0.00201462 0.0316566
vn 0.965254 -0.196914 0.171781
v -0.0143397 -0.0233706 0.0658596
vn -0.0760448 -0.961008 -0.26586
v -0.0143397 -0.0233706 0.0658596
vn 0.793359 -0.592262 0.140735
v -0.00380251 -0.0131631 0.0494157
vn 0.836023 -0.536731 0.113955
v -0.00231105 -0.00811155 0.0622667
vn 0.910187 -0.378674 0.167829
v -0.0102287 -0.018635 0.0704887
vn -0.261727 0.00949159 0.965095
v -0.0301323 -0.00731583 0.0649796
vn -0.261727 0.00949159 0.965095
v -0.0307837 -0.0131631 0.0705615
vn -0.492641 -0.858692 0.141255
v -0.0122842 -0.0028856 0.0697763
vn -0.261727 0.00949159 0.965095
v 0.00230236 0.00888668 0.054318
vn 0.977597 -0.0554179 0.20306
v -0.00719961 0.0115029 -0.000782598
vn 0 0 0
v -0.00200675 0.0115029 -0.00255641
vn 0 0 0
v -0.00719961 0.0126005 8.37045e-05
vn 0 0 0
v 0.00470772 0.0124677 -0.000757358
vn 0.37518 0.92636 0.0331114
v -0.00611775 0.0126005 -0.000782598
vn 0 0 0
v -0.0102287 0.0158252 0.0103612
vn 0.18731 0.981284 -0.0446919
v -0.0143397 0.0188338 0.0370827
vn -0.767783 0.588498 -0.253336
v -0.0143397 0.0183886 0.0494157
vn 0.319083 0.9307 0.178837
v -0.00136781 0.010584 0.0565932
vn 0.374892 0.882958 0.282562
v -0.0210036 0.0032809 0.0620624
vn -0.0298281 0.649306 0.759942
v -0.0143397 0.0183886 0.0494157
vn -0.746551 0.665123 -0.0165498
v -0.00200675 0.00888668 0.0588685
vn 0 0 0
v 0.00210424 0.0032809 -0.00475527
vn 0 0 0
v 0.00692685 -0.00143514 8.37045e-05
vn 0 0 0
v 0.00415974 -0.00298513 8.37045e-05
vn 0 0 0
v 0.0108823 0.00430865 0.0021392
vn 0.981377 0.118802 0.150948
v 0.0103206 0.0073919 8.37045e-05
vn 0 0 0
v 0.00833895 0.0115029 8.37045e-05
vn 0 0 0
f 6//6 5//5 10//10
f 6//6 9//9 5//5
f 14//14 15//15 8//8
f 13//13 6//6 18//18
f 10//10 18//18 6//6
f 19//19 20//20 21//21
f 15//15 14//14 12//12
f 15//15 12//12 11//11
f 20//20 17//17 21//21
f 24//24 13//13 18//18
f 22//22 25//25 23//23
f 34//34 30//30 32//32
f 33//33 8//8 15//15
f 37//37 15//15 11//11
f 36//36 35//35 34//34
f 21//21 17//17 26//26
f 26//26 17//17 42//42
f 35//35 30//30 34//34
