# Created by Open3D 
# object name: textured
# number of vertices: 248
# number of triangles: 150
v -2.817e-05 -0.0223637 0.00317518
vn 0 0 0
v 0.00426258 -0.0215906 0.00193073
vn -0.172457 -0.387142 -0.905748
v -0.00190633 -0.0212959 0.00317518
vn 0 0 0
v 0.00119776 -0.0208508 0.0019362
vn 0 0 0
v 0.00168582 -0.0282198 0.0115923
vn -0.273845 -0.961593 0.0186461
v 0.00364961 -0.0257545 0.00487288
vn -0.284359 -0.853662 -0.43635
v -0.0067637 -0.0168123 0.00317518
vn -0.591957 -0.618101 -0.517241
v -0.00412307 -0.0246302 0.0117567
vn -0.689205 -0.720191 -0.0795058
v -0.0160815 -0.0106058 0.0077722
vn -0.749372 -0.59506 -0.290422
v -0.0184171 -0.00281678 0.00270985
vn 0 0 0
v -0.0191654 -0.00123596 0.00270985
vn 0 0 0
v -0.0203913 -0.00123596 0.00356048
vn 0 0 0
v -0.0198743 -0.00246822 0.00392633
vn -0.706299 -0.515457 -0.485228
v -0.0255917 0.00366775 0.0117567
vn -0.947825 -0.296017 -0.118332
v -0.00860968 -0.0110434 0.00118312
vn -0.504448 -0.42161 -0.75351
v -0.0006804 -0.0208508 0.00255569
vn -0.172457 -0.387142 -0.905748
v -0.00125409 -0.0159471 0.000631003
vn 0 0 0
v -0.00125409 -0.0159471 0.000631003
vn -0.119401 -0.257502 -0.958872
v -0.00370595 -0.00859153 -0.000758122
vn 0 0 0
v -0.0061578 -0.0134952 0.00105326
vn 0 0 0
v -0.00125409 -0.0110434 -0.000667687
vn 0 0 0
v -0.00860966 -0.00613967 -0.000318692
vn -0.208992 -0.110697 -0.971632
v -0.0110615 -0.00859153 0.00107648
vn 0 0 0
v -0.0135134 -0.00368782 0.000742213
vn -0.310257 -0.0838203 -0.94695
v -0.0135134 -0.00123596 0.000278096
vn -0.227951 -0.110217 -0.967414
v -0.0110615 -0.00613967 0.000443819
vn 0 0 0
v -0.00860966 -0.00123596 -0.000877367
vn -0.255776 -0.0949376 -0.962063
v -0.0061578 -0.0110434 0.000301214
vn 0 0 0
v -0.0061578 -0.00613967 -0.000745371
vn -0.170376 -0.111542 -0.979046
v 0.00119776 -0.00859153 -0.00125946
vn 0.048426 -0.0785676 -0.995732
v -0.00860966 -0.00123596 -0.000877367
vn -0.170376 -0.111542 -0.979046
v -0.00370595 -0.00246189 -0.00141153
vn 0.00124557 0.00969744 -0.999952
v 0.00119776 -0.00368782 -0.00159752
vn 0 0 0
v -0.00302423 -0.0234467 0.0258736
vn -0.513871 -0.844624 0.150158
v -0.0236188 -0.00300979 0.0159831
vn -0.791894 -0.608917 -0.0460769
v -0.0243263 -0.00108804 0.0287861
vn -0.925418 -0.358086 0.124004
v -0.0180972 -0.00924647 0.0320525
vn -0.738977 -0.669002 0.0796804
v 0.00364961 -0.0233027 0.0301209
vn -0.177949 -0.933516 0.31126
v -0.00171382 -0.0207526 0.0368882
vn -0.275918 -0.892293 0.357326
v -0.00248002 -0.0184717 0.0399621
vn 0.305217 -0.667494 0.679186
v 0.00341639 -0.0230367 0.0310399
vn 0.323181 -0.793397 0.515825
v -0.0206469 -0.00123596 0.0397135
vn -0.748787 -0.4501 0.486546
v -0.00993428 -0.0171735 0.0377634
vn -0.626732 -0.686507 0.368667
v -0.0233208 0.00366775 0.037507
vn -0.963864 -0.0847564 0.252552
v -0.00576501 -0.0140179 0.04387
vn -0.425481 -0.652101 0.627479
v -0.0110615 -0.00613967 0.045736
vn -0.609177 -0.436335 0.662205
v -0.000713977 -0.0115075 0.0442268
vn 0.383954 -0.474798 0.791926
v -0.00370595 -0.0129 0.0448567
vn 0 0 0
v -0.00439176 -0.0119398 0.045038
vn 0.202638 0.0319847 0.978731
v -0.0110615 -0.00368782 0.0458946
vn 0.0500471 0.0929879 0.994409
v -0.018417 0.00366775 0.0425278
vn -0.630928 -0.149961 0.761211
v -0.0165782 0.0061196 0.0439626
vn -0.0673907 0.147756 0.986725
v 0.00119776 -0.0110434 0.0435968
vn 0.053414 -0.0853305 0.99492
v -0.0053916 0.00673257 0.0446348
vn -0.0166618 0.0281922 0.999464
v -0.0194756 0.00305478 0.00253852
vn -0.363508 0.0420448 -0.930642
v -0.0194471 0.00428071 0.00253852
vn 0 0 0
v -0.0184748 0.00979738 0.00277474
vn 0 0 0
v -0.0184171 0.00857146 0.0023743
vn -0.363508 0.0420448 -0.930642
v -0.0208689 0.00244182 0.00341909
vn 0 0 0
v -0.0230706 0.00121589 0.00562704
vn 0 0 0
v -0.0220553 0.00366775 0.00449701
vn 0 0 0
v -0.0206031 0.00366775 0.00317518
vn 0 0 0
v -0.0250101 0.00489368 0.00991777
vn -0.928689 0.362295 -0.0792439
v -0.0230989 0.00489368 0.00562704
vn 0 0 0
v -0.0208689 0.00489368 0.00346456
vn 0 0 0
v -0.0229561 0.00611961 0.00562704
vn 0 0 0
v -0.0206101 0.00611961 0.00336865
vn 0 0 0
v -0.0208689 0.00857146 0.0041621
vn -0.678274 0.435344 -0.591963
v -0.0202779 0.00857146 0.00366864
vn 0 0 0
v -0.0208689 0.00857146 0.0041621
vn 0 0 0
v -0.0217284 0.0126509 0.010684
vn -0.76137 0.641336 -0.0948856
v -0.0161642 0.0161259 0.00518111
vn -0.540038 0.717705 -0.439612
v -0.0184171 0.00366775 0.00190187
vn -0.345211 -0.082751 -0.93487
v -0.0135134 0.00366775 9.11271e-05
vn -0.345211 -0.082751 -0.93487
v -0.0135134 0.00366775 9.11271e-05
vn -0.240161 0.0205631 -0.970515
v -0.00860966 0.00121589 -0.000905311
vn -0.0816654 0.0945724 -0.992163
v -0.0135134 0.00857146 0.000458921
vn -0.363508 0.0420448 -0.930642
v -0.0135134 0.0061196 0.000275024
vn -0.170039 0.182678 -0.968357
v -0.0110615 0.00857146 -1.6906e-05
vn 0 0 0
v -0.00860966 0.00366775 -0.000933254
vn -0.202826 0.127087 -0.970933
v -0.00860966 0.0110233 2.95285e-05
vn -0.202826 0.127087 -0.970933
v -0.00370595 0.00121589 -0.00144471
vn 0 0 0
v -0.00370595 0.00366775 -0.00139807
vn 0.0140103 0.043997 -0.998933
v 0.00364961 0.00366775 -0.00122019
vn 0.0241759 0.00219442 -0.999705
v 0.00364961 -0.00123596 -0.00157453
vn 0.0184865 -0.0201571 -0.999626
v 0.00119776 0.00366775 -0.00142269
vn -0.0174933 0.0579271 -0.998168
v -0.00860966 0.0110233 2.95285e-05
vn -0.0950466 0.178989 -0.979249
v -0.00125409 0.00857146 -0.000809623
vn -0.052623 0.113991 -0.992087
v -0.0061578 0.0061196 -0.00090395
vn 0 0 0
v 0.00119776 0.0061196 -0.00108365
vn 0.110826 0.195441 -0.974433
v -0.0175715 0.0123464 0.00317518
vn 0 0 0
v -0.0135134 0.0134752 0.00166264
vn -0.170039 0.182678 -0.968357
v -0.0061578 0.0134752 0.000371034
vn -0.0991351 0.236624 -0.96653
v -0.01506 0.0151041 0.00317518
vn 0 0 0
v -0.0135134 0.0134752 0.00166264
vn 0 0 0
v -0.0163455 0.0138782 0.00317518
vn 0 0 0
v -0.0135134 0.0134752 0.00166264
vn 0 0 0
v -0.0122875 0.0172947 0.00317518
vn 0 0 0
v -0.00860966 0.0186337 0.00270725
vn -0.117633 0.329601 -0.936763
v -0.00695837 0.0214437 0.00446211
vn -0.454707 0.71544 -0.530459
v -0.00370595 0.0134752 0.000190279
vn 0.0393203 0.22493 -0.973581
v -0.00370595 0.00857146 -0.000874645
vn 0.025907 0.212148 -0.976894
v 0.00119776 0.00857146 -0.0007446
vn 0.093083 0.230497 -0.968611
v 0.00119776 0.0134752 0.000422328
vn 0.0221769 0.280785 -0.959515
v -0.00370595 0.0183789 0.00200182
vn -0.0571072 0.321934 -0.945038
v -0.00401243 0.019418 0.00264011
vn 0 0 0
v 0.00119776 0.0183789 0.00231586
vn 0 0 0
v -0.00860966 0.0201144 0.00373366
vn 0 0 0
v -0.00860966 0.0208307 0.00429214
vn 0 0 0
v -0.00278651 0.0257118 0.0117795
vn -0.341003 0.902783 -0.262107
v -0.00248002 0.0193865 0.0025885
vn 0 0 0
v 0.00270238 0.0183789 0.00274552
vn 0 0 0
v -0.00370595 0.0204864 0.00317518
vn 0 0 0
v -0.00530708 0.0220567 0.00463208
vn 0 0 0
v -0.00370595 0.0220567 0.00448712
vn 0 0 0
v 0.00119776 0.0203488 0.00352545
vn 0 0 0
v 0.00119776 0.0208307 0.00387572
vn 0 0 0
v -0.00173529 0.0232826 0.00562704
vn 0 0 0
v 0.00242369 0.0208307 0.00437333
vn 0.570834 0.70309 -0.424043
v -0.000569278 0.024857 0.00991775
vn 0.532066 0.811393 -0.241965
v -0.0231777 0.0108093 0.0276937
vn -0.832795 0.548749 0.0729868
v -0.0254556 0.00366775 0.0264678
vn -0.953748 0.291812 0.072184
v -0.0122112 0.0221493 0.024016
vn -0.674639 0.737667 0.0266324
v -0.00914869 0.0242166 0.0123696
vn -0.477029 0.875453 -0.0776264
v -0.0012541 0.0256452 0.0105307
vn 0 0 0
v -0.00186706 0.0261138 0.0142086
vn 0.334674 0.942295 -0.0085792
v -0.00940457 0.0230445 0.0350493
vn -0.431868 0.889692 0.148115
v -0.00248002 0.0260568 0.0252419
vn -0.304204 0.952366 0.0214494
v -0.00248002 0.0260568 0.0252419
vn 0.330919 0.943372 0.023258
v -0.00186706 0.0255418 0.032368
vn -0.30808 0.946305 0.0979447
v -0.000333463 0.0251238 0.0325448
vn 0.424163 0.894129 0.143593
v -0.0224933 0.00623913 0.0377329
vn -0.838715 0.451133 0.305018
v -0.0157491 0.0172479 0.036627
vn -0.721806 0.639851 0.263793
v -0.0185093 0.00768006 0.042916
vn -0.704911 0.520258 0.482111
v 0.00855333 0.00611961 0.0456959
vn 0.0498313 0.0322379 0.998237
v -0.0100413 0.019467 0.0416649
vn -0.590273 0.67036 0.449662
v -0.0110615 0.0155653 0.0430115
vn -0.131732 0.0967462 0.986553
v -0.00615781 0.0183789 0.0441518
vn -0.0293393 0.125004 0.991722
v 0.0015815 0.0190395 0.0426769
vn 0.215282 0.330869 0.918792
v -0.00427262 0.0227969 0.0405508
vn -0.301391 0.897646 0.32155
v -0.00213688 0.0219749 0.0415239
vn 0.44137 0.681803 0.583385
v 0.00283851 -0.0235563 0.00317518
vn 0 0 0
v 0.00671443 -0.0225789 0.00224048
vn -0.0733822 -0.360828 -0.929741
v 0.00161258 -0.0231446 0.00317518
vn 0 0 0
v 0.0101044 -0.0239465 0.00317518
vn 0 0 0
v 0.0110052 -0.0208508 0.00147321
vn 0.164086 -0.303814 -0.938495
v 0.0134571 -0.0208508 0.00227062
vn 0 0 0
v 0.00855334 -0.0208508 0.0013895
vn 0 0 0
v 0.0102165 -0.025104 0.00486357
vn 0.492878 -0.796542 -0.350131
v 0.00763286 -0.028485 0.0108679
vn 0.330935 -0.94334 -0.0243152
v 0.00364961 -0.0238099 0.00317518
vn 0 0 0
v 0.00364961 -0.0257545 0.00487288
vn 0 0 0
v 0.00487554 -0.0250189 0.00402403
vn 0 0 0
v 0.00610147 -0.0250189 0.00380258
vn 0 0 0
v 0.0073274 -0.0257545 0.00442298
vn 0 0 0
v 0.00855333 -0.0250427 0.00379558
vn 0 0 0
v 0.0110052 -0.0238215 0.00317518
vn 0 0 0
v 0.0205871 -0.0178877 0.00499465
vn 0.74444 -0.62508 -0.2347
v 0.0128814 -0.0229991 0.00317518
vn 0 0 0
v 0.0140966 -0.026272 0.0129826
vn 0.575043 -0.818105 0.00537073
v 0.00119776 -0.0159471 0.000102107
vn -0.117849 -0.373107 -0.920273
v 0.00610147 -0.0159471 -0.000284931
vn -0.0612896 -0.254005 -0.965259
v 0.00855334 -0.0159471 -0.000199584
vn -0.0376255 -0.21401 -0.976107
v 0.0110052 -0.0159471 -0.000114236
vn 0.214235 -0.162262 -0.963211
v 0.00119776 -0.0110434 -0.000991179
vn -0.0871325 -0.240546 -0.966719
v 0.00610147 -0.0110434 -0.0011802
vn -0.0378921 -0.179537 -0.983021
v 0.00610147 -0.00859153 -0.00135219
vn 0.0113255 -0.143582 -0.989574
v 0.0110052 -0.0110434 -0.00094031
vn 0.0711823 -0.0975468 -0.992682
v 0.0110052 -0.0159471 -0.000114236
vn 0.164086 -0.303814 -0.938495
v 0.0110052 -0.0110434 -0.00094031
vn 0 0 0
v 0.0159089 -0.0159471 0.000743122
vn 0.306834 -0.297476 -0.90408
v 0.0159089 -0.0159471 0.000743122
vn 0 0 0
v 0.0229982 -0.0110434 0.00317518
vn 0.858203 -0.390801 -0.33281
v 0.019837 -0.017173 0.00310081
vn 0.425649 -0.286737 -0.858257
v 0.0159089 -0.0134952 0.000298853
vn 0 0 0
v 0.0171348 -0.0198672 0.00312161
vn 0 0 0
v 0.0110052 -0.0110434 -0.00094031
vn 0.214235 -0.162262 -0.963211
v 0.0183608 -0.0110434 0.000695691
vn 0.214235 -0.162262 -0.963211
v 0.0159089 -0.0110434 -0.000145417
vn 0.159951 -0.0276507 -0.986738
v 0.0208126 -0.0110434 0.0015368
vn 0.425649 -0.286737 -0.858257
v 0.00119776 -0.00613967 -0.00152774
vn -0.0123511 -0.0430344 -0.998997
v 0.00610147 -0.00613967 -0.00152417
vn 0.0356521 0.0110939 -0.999303
v 0.0110052 -0.00613967 -0.00117784
vn 0.0704142 0.0320138 -0.997004
v 0.00855334 -0.00123596 -0.00119355
vn 0.0746277 -0.0283051 -0.99681
v 0.0110052 -0.00613967 -0.00117784
vn 0.179283 0.0545908 -0.982282
v 0.0159089 -0.00613967 -0.000282831
vn 0.169791 0.0135752 -0.985387
v 0.0159089 -0.00613967 -0.000282831
vn 0.279643 0.101753 -0.954697
v 0.0208126 -0.00613967 0.00144476
vn 0.330619 0.100021 -0.938449
v 0.0110052 -0.00123596 -0.000905314
vn 0.203022 0.0791302 -0.975972
v 0.0159089 -0.00123596 0.000239813
vn 0.225441 0.131126 -0.965392
v 0.0159089 -0.00123596 0.000239813
vn 0.399011 0.142177 -0.905856
v 0.0221543 -0.00675264 0.00230997
vn 0.441024 0.168479 -0.88154
v 0.0202534 0.00060293 0.00276474
vn 0.441024 0.168479 -0.88154
v 0.022448 -0.0134952 0.00317518
vn 0 0 0
v 0.0260473 -0.00828504 0.0077989
vn 0.964412 -0.188445 -0.185466
v 0.0234064 -0.00976361 0.00317518
vn 0 0 0
v 0.0218725 -0.00246189 0.00276474
vn 0 0 0
v 0.0230984 -0.00436259 0.00317518
vn 0 0 0
v 0.0264692 -0.00675264 0.00875723
vn 0.977473 0.194491 -0.081978
v 0.020563 0.000265545 0.00307257
vn 0.677039 0.482561 -0.555656
v 0.0253146 -0.00123596 0.00807889
vn 0.882973 0.469363 0.00757407
v 0.0254392 -0.00613967 0.00562704
vn 0 0 0
v 0.00610147 -0.0273518 0.0215641
vn -0.0895043 -0.97827 0.187022
v 0.00610147 -0.0269882 0.0219548
vn 0.33084 -0.895728 0.297013
v 0.022679 -0.0170242 0.0154519
vn 0.741211 -0.647046 0.178711
v 0.0121585 -0.0239365 0.0231264
vn 0.552764 -0.739333 0.384498
v 0.0210077 -0.011593 0.0304732
vn 0.670312 -0.532617 0.516721
v 0.0262532 -0.0117353 0.0123696
vn 0.951312 -0.307897 -0.014297
v 0.0247117 -0.0104304 0.0227148
vn 0.901684 -0.30351 0.307975
v 0.0246972 -0.00552671 0.0246289
vn 0.979923 -0.0113015 0.199057
v 0.0220392 -0.00065442 0.0313715
vn 0.914866 0.35111 0.199353
v 0.0236585 -0.00491374 0.0276937
vn 0.963867 0.234997 0.125442
v 0.0102644 -0.0171833 0.0355011
vn 0.454549 -0.580741 0.67537
v 0.0200126 -0.00184893 0.0365002
vn 0.817304 -0.239912 0.523886
v 0.013457 0.00121589 0.0440389
vn 0.197927 -0.130355 0.97151
v 0.013457 0.00121589 0.0440389
vn 0.501798 -0.426788 0.752363
v 0.00610147 0.00121589 -0.00124974
vn 0.149049 0.161048 -0.975627
v 0.0110052 -0.00123596 -0.000905314
vn 0.1872 0.159989 -0.969206
v 0.0110052 0.00366775 -9.58499e-05
vn 0.165296 0.177365 -0.970164
v 0.00610147 0.00366775 -0.00101769
vn 0.146323 0.194535 -0.96992
v 0.00610147 0.00857146 -3.41609e-05
vn 0.12531 0.212491 -0.969095
v 0.00610147 0.00857146 -3.41609e-05
vn 0.181263 0.193394 -0.964231
v 0.0110052 0.0061196 0.000678885
vn 0 0 0
v 0.0110052 0.00366775 -9.58499e-05
vn 0.224523 0.15871 -0.961458
v 0.0159089 0.00121589 0.000892596
vn 0 0 0
v 0.0159089 0.00366775 0.00154538
vn 0 0 0
v 0.0207029 0.00104353 0.00317518
vn 0 0 0
v 0.0208126 -0.00123596 0.00235429
vn 0 0 0
v 0.0110052 0.00857146 0.00145362
vn 0 0 0
v 0.0150358 0.0077047 0.00317518
vn 0 0 0
v 0.0125659 0.0101261 0.00317518
vn 0.641358 0.596247 -0.482855
v 0.00916516 0.0171165 0.00729016
vn 0.645396 0.690397 -0.326827
v 0.0213499 0.00469452 0.00807889
vn 0.763629 0.636448 -0.108647
v 0.00119776 0.0134752 0.000422328
vn 0.139563 0.229237 -0.963313
v 0.00610147 0.0110233 0.000757095
vn 0 0 0
v 0.00610147 0.0134752 0.00154835
vn 0 0 0
v 0.0100961 0.0125475 0.00317518
vn 0 0 0
v 0.00515424 0.0175846 0.00317518
vn 0 0 0
v 0.00364961 0.0197864 0.00402306
vn 0 0 0
v 0.00119776 0.0198668 0.00317518
vn 0 0 0
v 0.00474402 0.0238244 0.0183461
vn 0.67388 0.738547 -0.0208392
v 0.0141713 0.0114604 0.0215641
vn 0.773067 0.634324 0.000590183
v 0.0176735 0.00915285 0.0319845
vn 0.804449 0.593056 0.0338702
v 0.007895 0.019377 0.0369704
vn 0.628353 0.721773 0.290201
v 0.0154966 0.00979738 0.0375016
vn 0.795965 0.437272 0.418608
v 0.0175977 0.00029376 0.040178
vn 0.833359 0.312619 0.455832
v 0.0122311 0.00734553 0.0438164
vn 0.35199 0.30222 0.88587
v 0.0122311 0.00734553 0.0438164
vn 0.59106 0.511135 0.624011
f 8//8 9//9 7//7
f 6//6 5//5 8//8
f 7//7 6//6 8//8
f 9//9 14//14 13//13
f 13//13 15//15 7//7
f 22//22 25//25 27//27
f 7//7 9//9 13//13
f 22//22 31//31 29//29
f 8//8 5//5 34//34
f 14//14 9//9 35//35
f 35//35 37//37 36//36
f 8//8 35//35 9//9
f 8//8 37//37 35//35
f 34//34 38//38 39//39
f 36//36 37//37 42//42
f 43//43 42//42 37//37
f 36//36 42//42 44//44
f 34//34 37//37 8//8
f 43//43 37//37 34//34
f 34//34 39//39 43//43
f 46//46 43//43 45//45
f 43//43 39//39 45//45
f 42//42 43//43 46//46
f 42//42 46//46 51//51
f 54//54 50//50 49//49
f 49//49 53//53 54//54
f 63//63 71//71 68//68
f 68//68 71//71 72//72
f 24//24 73//73 74//74
f 24//24 75//75 27//27
f 58//58 77//77 55//55
f 80//80 75//75 81//81
f 83//83 84//84 32//32
f 85//85 32//32 86//86
f 87//87 88//88 76//76
f 83//83 88//88 86//86
f 92//92 93//93 78//78
f 72//72 100//100 68//68
f 102//102 101//101 88//88
f 103//103 101//101 104//104
f 99//99 105//105 87//87
f 93//93 105//105 104//104
f 100//100 72//72 110//110
f 14//14 35//35 36//36
f 71//71 63//63 121//121
f 63//63 122//122 121//121
f 71//71 121//121 123//123
f 36//36 44//44 14//14
f 72//72 71//71 124//124
f 110//110 72//72 124//124
f 124//124 71//71 123//123
f 123//123 127//127 124//124
f 110//110 124//124 128//128
f 126//126 129//129 131//131
f 122//122 132//132 121//121
f 121//121 132//132 133//133
f 42//42 51//51 44//44
f 134//134 133//133 132//132
f 123//123 121//121 133//133
f 50//50 54//54 52//52
f 135//135 54//54 53//53
f 134//134 136//136 133//133
f 137//137 52//52 54//54
f 137//137 54//54 138//138
f 54//54 135//135 138//138
f 139//139 138//138 135//135
f 133//133 127//127 123//123
f 128//128 124//124 130//130
f 127//127 130//130 124//124
f 130//130 127//127 140//140
f 127//127 133//133 136//136
f 127//127 136//136 140//140
f 149//149 160//160 150//150
f 158//158 160//160 149//149
f 16//16 161//161 2//2
f 143//143 161//161 162//162
f 18//18 165//165 162//162
f 163//163 165//165 166//166
f 167//167 168//168 162//162
f 169//169 171//171 146//146
f 177//177 178//178 164//164
f 174//174 171//171 180//180
f 30//30 181//181 166//166
f 85//85 184//184 30//30
f 182//182 181//181 85//85
f 182//182 184//184 183//183
f 179//179 168//168 186//186
f 185//185 189//189 186//186
f 187//187 189//189 190//190
f 187//187 191//191 188//188
f 192//192 191//191 193//193
f 173//173 195//195 158//158
f 201//201 199//199 200//200
f 6//6 203//203 5//5
f 205//205 160//160 158//158
f 150//150 160//160 204//204
f 5//5 203//203 34//34
f 203//203 38//38 34//34
f 41//41 204//204 206//206
f 160//160 206//206 204//204
f 160//160 205//205 206//206
f 206//206 205//205 207//207
f 195//195 208//208 158//158
f 158//158 208//208 205//205
f 208//208 209//209 205//205
f 195//195 210//210 208//208
f 201//201 211//211 212//212
f 199//199 201//201 212//212
f 205//205 209//209 207//207
f 208//208 210//210 209//209
f 213//213 40//40 41//41
f 206//206 213//213 41//41
f 213//213 206//206 207//207
f 213//213 47//47 40//40
f 47//47 213//213 216//216
f 214//214 216//216 207//207
f 213//213 207//207 216//216
f 214//214 209//209 210//210
f 209//209 214//214 207//207
f 218//218 217//217 219//219
f 220//220 90//90 221//221
f 220//220 222//222 219//219
f 218//218 224//224 190//190
f 232//232 200//200 231//231
f 200//200 232//232 233//233
f 103//103 234//234 221//221
f 119//119 232//232 231//231
f 200//200 233//233 201//201
f 120//120 232//232 119//119
f 241//241 233//233 232//232
f 233//233 242//242 201//201
f 201//201 242//242 243//243
f 233//233 241//241 242//242
f 201//201 243//243 211//211
f 120//120 241//241 232//232
f 126//126 241//241 120//120
f 131//131 241//241 126//126
f 244//244 243//243 241//241
f 242//242 241//241 243//243
f 243//243 244//244 245//245
f 135//135 53//53 215//215
f 247//247 135//135 215//215
f 245//245 248//248 246//246
f 244//244 141//141 248//248
f 245//245 244//244 248//248
f 135//135 247//247 139//139
f 243//243 245//245 211//211
f 246//246 211//211 245//245
f 131//131 244//244 241//241
f 141//141 244//244 131//131
