# Created by Open3D 
# object name: textured
# number of vertices: 248
# number of triangles: 154
v -0.034723 -0.0367317 0.0123123
vn -0.35287 -0.710273 0.609094
v -0.0319461 -0.0416117 0.00823038
vn -0.35287 -0.710273 0.609094
v -0.0280648 -0.0365374 0.00512163
vn 0.627668 -0.492676 -0.602746
v -0.0287625 -0.0405899 0.00770749
vn 0.613203 -0.787178 0.065827
v -0.0346065 -0.0338367 0.00994319
vn -0.873048 0.475423 0.108447
v -0.0308512 -0.0356086 0.00485523
vn 0 0 0
v -0.0308512 -0.0393238 0.00465971
vn 0 0 0
v -0.0345665 -0.0374662 0.007512
vn 0 0 0
v -0.0308512 -0.0356086 0.00485523
vn 0 0 0
v -0.0313157 -0.028309 0.010088
vn -0.700602 0.590331 -0.400833
v -0.027136 -0.0328221 0.00526536
vn 0 0 0
v -0.0308512 -0.0318933 0.00628567
vn 0 0 0
v -0.030308 -0.0348079 0.0171134
vn -0.35287 -0.710273 0.609094
v -0.025729 -0.0336151 0.0187611
vn 0.262167 -0.80419 0.533429
v -0.0327679 -0.032441 0.0173171
vn -0.875418 0.46551 0.13017
v -0.0289936 -0.0383966 0.0138033
vn 0 0 0
v -0.0308512 -0.0374662 0.0152743
vn 0 0 0
v -0.0275217 -0.0291829 0.0220713
vn 0 0 0
v -0.0234207 -0.0300357 0.00633888
vn 0 0 0
v -0.0187156 -0.0287645 0.00850395
vn 0.678858 -0.543512 -0.493707
v -0.00977445 -0.0226051 0.0149335
vn 0.730426 -0.62785 -0.268853
v -0.0246241 -0.0233381 0.00866462
vn -0.553615 0.571903 -0.605341
v -0.027136 -0.0300357 0.00600891
vn 0 0 0
v -0.0199395 -0.0125337 0.0145878
vn -0.602081 0.55152 -0.577342
v -0.0263612 -0.022382 0.0244305
vn -0.879881 0.464724 0.0991972
v -0.0187056 -0.00701679 0.0202298
vn -0.827221 0.55541 -0.0849987
v -0.0194562 -0.0293511 0.00808372
vn 0 0 0
v -0.0234207 -0.028178 0.00644968
vn 0 0 0
v -0.0245191 -0.0244627 0.00794432
vn 0 0 0
v -0.0234207 -0.028178 0.00644968
vn 0 0 0
v -0.0263767 -0.0249998 0.00823038
vn 0 0 0
v -0.027136 -0.0268575 0.00743702
vn 0 0 0
v -0.0234207 -0.0244627 0.00765826
vn 0 0 0
v -0.0190559 -0.0244627 0.0080479
vn 0 0 0
v -0.0215631 -0.0263204 0.00765099
vn 0 0 0
v -0.0197054 -0.0305241 0.00823038
vn 0 0 0
v -0.019543 -0.0222246 0.00854252
vn 0 0 0
v -0.0234207 -0.023312 0.00823038
vn 0 0 0
v -0.0171983 -0.0244627 0.00877753
vn 0 0 0
v -0.0234207 -0.0207475 0.00980565
vn 0 0 0
v -0.0245191 -0.0238874 0.00823038
vn 0 0 0
v -0.0159901 -0.0207475 0.00941547
vn 0 0 0
v -0.0215631 -0.0188899 0.010286
vn 0 0 0
v -0.0159901 -0.0207475 0.00941547
vn 0 0 0
v -0.0159901 -0.0226051 0.00937008
vn 0 0 0
v -0.0122749 -0.0220326 0.0115038
vn 0 0 0
v -0.0159901 -0.0170322 0.0102248
vn 0 0 0
v -0.0122749 -0.0170322 0.010824
vn -0.119932 0.188881 -0.974649
v -0.0178478 -0.0151746 0.0118697
vn -0.119932 0.188881 -0.974649
v -0.0231191 -0.0228373 0.0269097
vn -0.399413 -0.513072 0.759754
v -0.00991134 -0.0237406 0.0192253
vn 0.580065 -0.814162 0.0258087
v -0.0103635 -0.0202605 0.0313425
vn 0.426323 -0.85082 0.307173
v -0.0110026 -0.0207475 0.0119457
vn 0 0 0
v -0.0101873 -0.0188899 0.0119457
vn 0 0 0
v -0.00855959 -0.0170322 0.0123485
vn 0 0 0
v -0.00646925 -0.0170322 0.0137972
vn 0.624689 -0.659212 -0.418572
v 0.00538014 -0.00960163 0.0170714
vn 0.647311 -0.661728 -0.378293
v 0.00306811 -0.0144156 0.0249492
vn 0.683537 -0.729883 0.00693494
v -0.0122749 -0.00960163 0.012264
vn -0.398293 0.379225 -0.835195
v -0.0122749 -0.00960163 0.012264
vn -0.0541468 0.0754057 -0.995682
v -0.0122749 -0.00960163 0.012264
vn -0.377848 0.39432 -0.837701
v -0.0197054 -0.0161507 0.0113561
vn 0 0 0
v -0.0197054 -0.014293 0.0127302
vn 0 0 0
v -0.01051 -0.000226658 0.0156791
vn -0.633407 0.550613 -0.543711
v -0.00484432 -0.00960163 0.0122426
vn 0.495114 -0.259374 -0.829209
v -0.00298669 -0.0156568 0.0152458
vn 0.495114 -0.259374 -0.829209
v -0.00855959 -0.0170322 0.0123485
vn 0.227004 -0.127263 -0.965543
v -0.00484432 -0.00960163 0.0122426
vn -0.00765238 0.0107564 -0.999913
v -0.00896581 -0.0170322 0.0121471
vn 0 0 0
v -0.0122749 -0.00960163 0.012264
vn -0.00287924 0.0225362 -0.999742
v -0.000621014 -0.0137991 0.0156609
vn 0 0 0
v -0.00484432 -0.00960163 0.0122426
vn 0.3228 -0.318037 -0.891433
v 0.00123663 -0.0114593 0.0152971
vn 0 0 0
v -0.00484432 -0.00217108 0.0124101
vn 0 0 0
v -0.00484432 -0.00217108 0.0124101
vn -0.212389 0.231058 -0.949475
v -0.0122749 -0.0023852 0.0156609
vn -0.377848 0.39432 -0.837701
v 0.00258623 -0.00217108 0.0122823
vn 0.16769 -0.162494 -0.972356
v 0.00258623 -0.00960163 0.0149333
vn 0.3228 -0.318037 -0.891433
v -0.00484432 -0.00217108 0.0124101
vn -0.0171967 -0.000746834 -0.999852
v -0.0184322 -0.0238575 0.027856
vn -0.0183762 -0.674325 0.738206
v -0.020402 -0.0246531 0.0270461
vn 0 0 0
v -0.0206342 -0.0263204 0.0259121
vn 0 0 0
v -0.0167291 -0.0158778 0.0349688
vn -0.529021 -0.664221 0.528154
v -0.0196345 -0.0116915 0.0328563
vn -0.802552 -0.295456 0.518282
v -0.0106494 -0.0197358 0.0321475
vn -0.274856 -0.826739 0.490874
v 0.0018886 -0.0132873 0.0399375
vn 0.672894 -0.738387 0.0447066
v -0.00693416 -0.0175654 0.0404135
vn -0.27138 -0.893938 0.35669
v -0.00206065 -0.0155003 0.0449406
vn 0.56774 -0.782798 0.254751
v -0.0191576 -0.00913722 0.0323991
vn -0.866515 0.496811 0.0482847
v -0.0138649 -0.000699442 0.0330928
vn -0.742507 0.669338 0.0258724
v -0.016464 -0.00588635 0.0464747
vn -0.865066 0.489367 0.110366
v 0.00323621 -0.0105304 0.0323796
vn 0.829058 -0.360552 0.427394
v 0.0024707 -0.00185229 0.0367065
vn 0.710244 -0.703863 0.011402
v -0.00776842 -0.013754 0.049331
vn -0.465719 -0.756177 0.459675
v -0.0147594 -0.00925529 0.0475972
vn -0.627603 -0.563946 0.53673
v -0.00919775 0.000615381 0.0599175
vn -0.761972 -0.567961 0.311157
v -0.00561396 -0.00657087 0.0579009
vn -0.640654 -0.564151 0.520861
v -0.010431 0.000150971 0.0571439
vn -0.853157 0.512027 0.0997615
v -0.00186604 -0.00957181 0.0557594
vn 0.505309 -0.808807 0.300823
v -0.00298668 -0.0133169 0.0513399
vn 0 0 0
v 0.00565471 -0.00457023 0.0565739
vn 0.69323 -0.632445 0.345609
v -0.00616479 -0.00353262 0.0648883
vn -0.689353 -0.721409 0.0660431
v -0.00205787 -0.0053803 0.0689504
vn -0.538825 -0.841385 0.0416994
v -0.00205787 -0.00531571 0.0723189
vn 0.579854 -0.793 0.186868
v 0.00395143 -0.00185443 0.0654766
vn 0.779547 -0.606853 0.155035
v -0.0090082 -0.00124226 0.0806783
vn -0.600354 -0.798741 -0.0398393
v -0.00317087 -0.0055134 0.0846544
vn -0.525121 -0.850406 -0.0325203
v -0.00884263 -0.00260327 0.0868578
vn -0.459921 -0.887889 -0.0112024
v -0.00230291 -0.00423534 0.0890376
vn 0.636926 -0.765449 0.0917228
v -0.00482601 -0.00354923 0.0918241
vn -0.403006 -0.902129 0.154109
v 0.00154686 -5.84677e-06 0.0915996
vn 0.725467 -0.678615 0.1148
v -0.00670196 0.00377106 0.0939359
vn 0 0 0
v -0.000196629 0.0015442 0.0941953
vn 0 0 0
v -0.00741195 0.0077524 0.0230915
vn -0.716682 0.697364 0.00708213
v -0.00670196 0.00368246 0.0152771
vn 0 0 0
v -0.0105597 -0.00031344 0.0156609
vn 0 0 0
v 0.00258623 0.00525948 0.0121037
vn -0.190442 0.15044 -0.970103
v 0.00258623 -0.00217108 0.0122823
vn 0.0219248 -0.0240231 -0.999471
v -0.00484432 -0.00217108 0.0124101
vn -0.335437 0.298593 -0.89349
v -0.00484432 0.00525948 0.0148933
vn -0.335437 0.298593 -0.89349
v -0.000975219 0.0111704 0.0166965
vn -0.652438 0.626767 -0.426014
v 0.00784882 0.0148416 0.013753
vn -0.575129 0.526656 -0.625987
v 0.00072859 0.0115744 0.0151621
vn 0 0 0
v 0.00258623 0.00525948 0.0121037
vn 0.0608496 -0.0597436 -0.996357
v 0.00258623 0.00525948 0.0121037
vn -0.337547 0.306564 -0.889989
v -0.00184844 0.00971682 0.0156609
vn 0 0 0
v 0.0123103 0.0241895 0.0175186
vn -0.633467 0.755593 -0.166726
v -0.00381322 0.00424452 0.0379526
vn -0.723105 0.689968 -0.0326172
v 0.000670696 0.0146878 0.0325179
vn -0.683532 0.728118 0.0512632
v -0.000180897 0.0151579 0.0438738
vn -0.760335 0.629375 -0.160555
v -0.00969877 0.00597569 0.0474729
vn -0.717199 0.696699 -0.0153597
v -0.00551333 0.00732667 0.0623703
vn -0.759751 0.642017 0.10292
v 0.0058371 0.017986 0.0461186
vn -0.517917 0.847372 0.117147
v -0.000200229 0.0109576 0.0583866
vn -0.461183 0.884382 0.0719574
v 0.004426 0.0140052 0.0536472
vn 0.425128 0.725917 0.540658
v 0.00538445 0.00787403 0.0587251
vn 0.662146 0.652016 0.369374
v -0.00112905 0.00915357 0.0639595
vn 0.341554 0.918213 0.200563
v -0.00899694 0.00061538 0.076963
vn -0.892266 0.451126 0.0186292
v 0.00072859 0.00988197 0.0788206
vn 0.676767 0.733089 0.0675707
v -0.00649994 0.00715443 0.0788206
vn -0.791332 0.611375 0.00359048
v -0.00905291 -0.00124226 0.0843935
vn -0.95941 0.281603 -0.0152172
v -0.00888475 0.00180068 0.0918241
vn -0.91157 0.411139 0.00209328
v -0.00536463 0.00689748 0.0918241
vn -0.589418 0.805014 0.0673685
v 0.001511 0.00706028 0.089056
vn 0.906612 0.372605 0.198038
v 7.41303e-05 0.00357576 0.0936817
vn 0.936895 0.0687226 0.34279
v 0.00258623 -0.00217108 0.0122823
vn 0 0 0
v 0.0101297 -0.00248938 0.0155777
vn 0.612997 -0.496773 -0.614371
v 0.00258623 -0.00217108 0.0122823
vn 0.358384 -0.371907 -0.856298
v 0.0101297 -0.00248938 0.0155777
vn 0 0 0
v 0.0141646 -0.0024981 0.0252264
vn 0.740538 -0.666565 0.0854111
v 0.00801039 -0.0076673 0.0451785
vn 0.709641 -0.624405 -0.326386
v 0.015805 0.00249308 0.0419001
vn 0.711498 -0.702687 -0.00104156
v 0.012439 -0.0013058 0.0490245
vn 0.795 -0.472556 0.380349
v 0.0211626 0.0196377 0.00823038
vn 0 0 0
v 0.0192835 0.0219782 0.00823038
vn 0 0 0
v 0.0248779 0.0219096 0.0068436
vn 0 0 0
v 0.0268603 0.022224 0.00691068
vn 0.39572 -0.67951 -0.617796
v 0.0198833 0.0256935 0.00746407
vn 0 0 0
v 0.0203947 0.0275511 0.00746407
vn 0 0 0
v 0.0230202 0.0273186 0.00560644
vn 0 0 0
v 0.0247762 0.0273186 0.0045151
vn 0 0 0
v 0.0267355 0.0274348 0.00398731
vn 0 0 0
v 0.0248779 0.0238358 0.00557871
vn 0 0 0
v 0.0187052 0.0201206 0.00869479
vn 0 0 0
v 0.0304508 0.0275511 0.00377181
vn 0 0 0
v 0.0285932 0.0246391 0.00505918
vn 0 0 0
v 0.0323084 0.0268904 0.0045151
vn 0 0 0
v 0.0267355 0.0294087 0.003994
vn 0 0 0
v 0.0342493 0.0256113 0.00791799
vn 0.63602 -0.716144 -0.287433
v 0.0344141 0.0297746 0.00397973
vn 0.5665 -0.57802 -0.587342
v 0.0100168 0.00525948 0.0125575
vn 0.40716 -0.32653 -0.852994
v 0.0100168 0.00525948 0.0125575
vn 0.24494 -0.058031 -0.9678
v 0.0100168 0.00525948 0.0125575
vn 0 0 0
v 0.0174122 0.00685145 0.0159053
vn 0.769495 -0.500128 -0.397177
v 0.0100168 0.01269 0.011845
vn -0.112077 -0.091083 -0.989516
v 0.0100168 0.00525948 0.0125575
vn 0.0606812 -0.0952746 -0.9936
v 0.00258623 0.01269 0.0146632
vn -0.337547 0.306564 -0.889989
v 0.0166938 0.00632318 0.0156609
vn 0 0 0
v 0.0100168 0.01269 0.011845
vn 0.405095 -0.087268 -0.9101
v 0.0174473 0.00738689 0.0156609
vn 0.243791 -0.317742 -0.9163
v 0.0174473 0.01269 0.0119578
vn 0.0124455 -0.572476 -0.819827
v 0.0193049 0.0141042 0.0115375
vn 0.592691 -0.710089 -0.380119
v 0.0222389 0.0114632 0.0225207
vn 0.832389 -0.554142 0.00751297
v 0.0117429 0.0208428 0.0131493
vn -0.754371 0.564757 -0.334624
v 0.00568084 0.0169932 0.0156609
vn 0 0 0
v 0.0132292 0.0201206 0.0115898
vn 0 0 0
v 0.0165185 0.0178091 0.0111535
vn -0.365189 0.347137 -0.86379
v 0.0193049 0.0172134 0.00973604
vn -0.365189 0.347137 -0.86379
v 0.0100168 0.01269 0.011845
vn -0.365189 0.347137 -0.86379
v 0.0174473 0.014558 0.0110731
vn 0 0 0
v 0.0113716 0.0201206 0.0131493
vn 0 0 0
v 0.0137321 0.0221829 0.0119457
vn 0 0 0
v 0.0155897 0.0224938 0.010369
vn 0 0 0
v 0.0202242 0.0284268 0.00878223
vn -0.66899 0.726192 -0.158424
v 0.0174473 0.0201206 0.00915921
vn 0 0 0
v 0.0130851 0.0237668 0.0234296
vn -0.468481 0.86401 0.184425
v 0.0211626 0.0154976 0.0111293
vn 0 0 0
v 0.019963 0.0201206 0.00823038
vn 0 0 0
v 0.0319805 0.0252576 0.0216536
vn 0.803914 -0.563146 0.19128
v 0.0285932 0.0222065 0.0241094
vn 0 0 0
v 0.0285932 0.0275511 0.0246217
vn 0 0 0
v 0.0393846 0.0333734 0.00801814
vn 0.820446 -0.568361 0.0619132
v 0.0248779 0.031339 0.00449884
vn 0 0 0
v 0.0248779 0.0314117 0.0045151
vn 0 0 0
v 0.0272624 0.0335859 0.00405518
vn -0.687762 0.658698 -0.305123
v 0.0285932 0.0312664 0.00267542
vn 0 0 0
v 0.0304508 0.0312664 0.00252452
vn 0 0 0
v 0.0281912 0.0358327 0.00422217
vn 0 0 0
v 0.0285932 0.0312664 0.00267542
vn 0 0 0
v 0.0313796 0.0340529 0.00256201
vn 0 0 0
v 0.0304508 0.0376855 0.0045151
vn 0 0 0
v 0.030773 0.0387567 0.00730482
vn -0.570774 0.81457 0.103409
v 0.0360237 0.0389686 0.0125285
vn -0.365648 0.869422 0.332276
v 0.0304508 0.0342148 0.0188344
vn -0.389848 0.836977 0.38404
v 0.0230202 0.0263644 0.0255998
vn -0.31929 0.809343 0.492969
v 0.0304508 0.0339364 0.0191053
vn 0.314915 0.633858 0.706436
v 0.0258067 0.0269577 0.0251108
vn 0.360205 0.352821 0.86358
v 0.0370639 0.0331241 0.0168862
vn 0.387833 0.661107 0.642279
v 0.0343803 0.0312664 0.00326536
vn 0 0 0
v 0.0360237 0.0349817 0.00296454
vn 0 0 0
v 0.0360237 0.0349817 0.00296454
vn 0 0 0
v 0.0371519 0.0349817 0.00373982
vn 0 0 0
v 0.034166 0.0386267 0.0045151
vn 0 0 0
v 0.0323084 0.0368345 0.0033903
vn 0 0 0
v 0.0360237 0.0385661 0.0045151
vn 0 0 0
v 0.0323084 0.0386969 0.00452814
vn 0 0 0
v 0.0350949 0.0392604 0.00993161
vn 0.407119 0.738996 0.536785
v 0.0398953 0.0366326 0.00823038
vn 0.54622 0.698772 0.461911
v 0.0384762 0.0331241 0.0156404
vn 0.796398 -0.600067 0.0752903
v 0.0228461 0.0175935 0.0291288
vn 0.872812 -0.395187 0.286404
v 0.0192597 0.00897475 0.0379526
vn 0.931231 -0.259702 0.255665
v 0.0198629 0.0111158 0.0351661
vn 0.844049 0.185892 0.503016
v 0.0104812 0.0195484 0.0368969
vn 0.223031 0.917113 0.330395
v 0.0155897 0.0212331 0.030522
vn -0.153435 0.912155 0.380042
v 0.0137321 0.0206355 0.0319006
vn 0.288765 0.753729 0.590345
v 0.0160052 0.0171356 0.0384696
vn 0.533653 0.674502 0.510159
v 0.00908798 0.0186832 0.0426736
vn 0.437203 0.790873 0.428222
v 0.0258067 0.0218215 0.0264628
vn 0.493651 0.480326 0.72498
v 0.0252063 0.0201206 0.0268068
vn 0 0 0
v 0.0132246 0.0134867 0.0488727
vn 0.672094 0.517442 0.529663
v 0.0121482 0.00804593 0.0528137
vn 0.871038 -0.244144 0.426247
v 0.0118744 0.00804593 0.0530944
vn 0.75913 0.289251 0.583144
v 0.00640905 0.00189251 0.0619858
vn 0.871109 0.341562 0.352851
v 0.00515425 0.00340184 0.0695324
vn 0.977619 -0.209585 -0.0183103
v 0.00516789 0.00433066 0.0732477
vn 0.890491 0.441162 0.111364
v 0.0050943 0.00247302 0.076963
vn 0.959071 -0.282944 0.0111732
v 0.00484457 0.00340184 0.0806783
vn 0.885148 0.433527 0.169018
v 0.0047071 0.00247302 0.0843935
vn 0.811696 -0.575586 0.0992468
f 13//13 1//1 2//2
f 4//4 3//3 20//20
f 4//4 20//20 21//21
f 24//24 22//22 10//10
f 15//15 25//25 5//5
f 5//5 26//26 10//10
f 26//26 5//5 25//25
f 4//4 21//21 51//51
f 52//52 14//14 4//4
f 4//4 51//51 52//52
f 26//26 24//24 10//10
f 21//21 56//56 51//51
f 51//51 56//56 57//57
f 51//51 57//57 58//58
f 60//60 48//48 49//49
f 24//24 64//64 59//59
f 26//26 64//64 24//24
f 65//65 66//66 67//67
f 60//60 68//68 67//67
f 75//75 68//68 70//70
f 75//75 61//61 76//76
f 77//77 78//78 72//72
f 77//77 68//68 79//79
f 52//52 80//80 14//14
f 84//84 50//50 83//83
f 83//83 50//50 85//85
f 51//51 58//58 86//86
f 86//86 52//52 51//51
f 25//25 89//89 26//26
f 89//89 90//90 26//26
f 86//86 58//58 92//92
f 86//86 92//92 93//93
f 52//52 86//86 88//88
f 84//84 83//83 95//95
f 95//95 83//83 94//94
f 91//91 90//90 89//89
f 95//95 97//97 96//96
f 85//85 94//94 83//83
f 87//87 94//94 85//85
f 94//94 97//97 95//95
f 97//97 102//102 96//96
f 103//103 102//102 97//97
f 104//104 99//99 101//101
f 105//105 104//104 101//101
f 106//106 102//102 103//103
f 106//106 103//103 107//107
f 108//108 106//106 107//107
f 109//109 104//104 105//105
f 108//108 107//107 110//110
f 109//109 105//105 111//111
f 117//117 118//118 79//79
f 117//117 119//119 120//120
f 121//121 64//64 26//26
f 121//121 26//26 114//114
f 121//121 127//127 122//122
f 127//127 121//121 114//114
f 114//114 26//26 90//90
f 90//90 128//128 114//114
f 129//129 114//114 128//128
f 128//128 130//130 129//129
f 129//129 127//127 114//114
f 131//131 90//90 91//91
f 128//128 90//90 131//131
f 131//131 130//130 128//128
f 131//131 133//133 130//130
f 133//133 131//131 132//132
f 98//98 132//132 91//91
f 132//132 131//131 91//91
f 132//132 98//98 138//138
f 106//106 96//96 102//102
f 137//137 136//136 135//135
f 136//136 137//137 139//139
f 132//132 134//134 133//133
f 140//140 132//132 138//138
f 134//134 132//132 140//140
f 141//141 140//140 138//138
f 142//142 140//140 141//141
f 143//143 140//140 142//142
f 134//134 140//140 143//143
f 147//147 57//57 148//148
f 150//150 58//58 57//57
f 57//57 147//147 150//150
f 150//150 93//93 92//92
f 150//150 92//92 58//58
f 151//151 88//88 86//86
f 86//86 93//93 151//151
f 151//151 93//93 152//152
f 88//88 151//151 153//153
f 101//101 99//99 88//88
f 88//88 153//153 101//101
f 153//153 151//151 152//152
f 170//170 169//169 157//157
f 171//171 147//147 148//148
f 172//172 118//118 124//124
f 147//147 171//171 174//174
f 175//175 176//176 124//124
f 175//175 125//125 177//177
f 172//172 179//179 180//180
f 175//175 181//181 180//180
f 150//150 147//147 174//174
f 150//150 174//174 183//183
f 187//187 188//188 189//189
f 127//127 184//184 122//122
f 127//127 194//194 184//184
f 157//157 169//169 182//182
f 174//174 182//182 183//183
f 182//182 169//169 183//183
f 183//183 169//169 202//202
f 183//183 202//202 199//199
f 212//212 205//205 194//194
f 196//196 194//194 127//127
f 212//212 194//194 196//196
f 196//196 214//214 212//212
f 214//214 213//213 212//212
f 215//215 214//214 196//196
f 216//216 217//217 218//218
f 202//202 169//169 170//170
f 229//229 199//199 202//202
f 216//216 218//218 227//227
f 228//228 227//227 218//218
f 93//93 150//150 152//152
f 152//152 150//150 183//183
f 231//231 183//183 230//230
f 196//196 127//127 129//129
f 133//133 196//196 129//129
f 133//133 233//233 196//196
f 234//234 196//196 233//233
f 133//133 129//129 130//130
f 237//237 236//236 235//235
f 199//199 230//230 183//183
f 215//215 196//196 234//234
f 235//235 238//238 217//217
f 236//236 232//232 238//238
f 238//238 235//235 236//236
f 153//153 152//152 231//231
f 101//101 153//153 241//241
f 231//231 241//241 153//153
f 240//240 242//242 232//232
f 152//152 183//183 231//231
f 240//240 236//236 135//135
f 236//236 237//237 135//135
f 236//236 240//240 232//232
f 101//101 241//241 105//105
f 136//136 243//243 242//242
f 240//240 135//135 136//136
f 240//240 136//136 242//242
f 243//243 136//136 245//245
f 105//105 244//244 246//246
f 245//245 136//136 139//139
f 105//105 246//246 248//248
f 247//247 245//245 139//139
f 248//248 111//111 105//105
f 145//145 247//247 144//144
f 247//247 139//139 144//144
