# Created by Open3D 
# object name: textured
# number of vertices: 198
# number of triangles: 160
v -0.00493595 -0.0150007 0.00512869
vn -0.597788 -0.618765 -0.509685
v 0.00321312 -0.0234729 0.0120417
vn -0.529579 -0.843611 -0.088691
v -0.000813562 -0.0150007 0.00339957
vn -0.278179 -0.69482 -0.663206
v 0.00640061 -0.0223959 0.00688871
vn 0 0 0
v 0.00537002 -0.0191231 0.00441858
vn 0 0 0
v 0.00537002 -0.0191231 0.00441858
vn 0.02661 -0.390422 -0.920251
v 0.00662757 -0.02369 0.0093819
vn -0.327322 -0.799354 -0.503878
v -0.00860059 -0.0144045 0.010367
vn -0.680251 -0.723628 -0.116708
v -0.0124044 -0.00878585 0.0120063
vn -0.880492 -0.444487 -0.164815
v -0.0114658 -0.00469472 0.00688871
vn -0.852008 -0.264713 -0.451673
v -0.00493595 -0.0108783 0.00346881
vn -0.642981 -0.286063 -0.710453
v -0.00699715 -0.00675591 0.00398344
vn 0 0 0
v -0.0102621 -0.00366412 0.00582375
vn 0 0 0
v -0.00905834 -0.00263353 0.00475879
vn 0 0 0
v -0.0113461 -0.00211823 0.00688871
vn -0.908798 0.224536 -0.351666
v -0.001565 -0.0108783 0.00262504
vn -0.189878 -0.0912458 -0.977559
v -0.001565 -0.0117297 0.00276632
vn 0 0 0
v 0.00591572 -0.0150457 0.00275575
vn -0.0198715 -0.178363 -0.983764
v 0.00330882 -0.0108783 0.00205284
vn -0.0717518 -0.134288 -0.988341
v 0.00124763 -0.0123346 0.00256789
vn -0.0811711 -0.0639919 -0.994644
v 0.00949241 -0.0108783 0.00206359
vn 0.100591 -0.162576 -0.981555
v 0.00743121 -0.0108783 0.00196957
vn -0.0288364 -0.0836787 -0.996075
v 0.00330882 -0.0108783 0.00205284
vn -0.0630268 -0.0427068 -0.997098
v -0.000813562 -0.00675591 0.00213685
vn -0.0696527 -0.0294614 -0.997136
v -0.00231201 -0.00675591 0.00245159
vn -0.2465 -0.0551403 -0.967573
v -0.00465458 -0.00469472 0.00293279
vn -0.275998 -0.0902751 -0.956909
v -0.000813562 -0.00263353 0.00201505
vn 0 0 0
v -0.000813562 -0.00263353 0.00201505
vn -0.106145 -0.0139207 -0.994253
v -0.0045226 -0.000572335 0.00288129
vn -0.245125 0.0194914 -0.969296
v 0.00743121 -0.00263353 0.00143913
vn -0.0380997 -0.0278869 -0.998885
v -0.000813562 -0.00675591 0.00213685
vn -0.0781573 -0.0578748 -0.99526
v 0.00743121 -0.00263353 0.00143913
vn -0.027559 -0.0249786 -0.999308
v -0.00493595 -0.0108783 0.00346881
vn -0.241948 -0.0845128 -0.966602
v -0.00493595 -0.0150007 0.00512869
vn 0 0 0
v 0.00124763 -0.0150007 0.00311238
vn 0 0 0
v -0.000813562 -0.0137909 0.00308295
vn 0 0 0
v 0.00330882 -0.0147392 0.00276632
vn 0 0 0
v -0.00905834 -0.00263353 0.00475879
vn 0 0 0
v 0.00124763 -0.0214203 0.0192559
vn -0.48126 -0.87467 0.0577991
v 0.0089771 -0.0248114 0.0141029
vn -0.175787 -0.982733 0.0577536
v 0.00537002 -0.0235019 0.0295618
vn -0.415608 -0.903546 0.104283
v -0.00869148 -0.0144585 0.0236567
vn -0.649479 -0.760311 0.0102026
v -0.0141551 -0.00469472 0.0205442
vn -0.968454 -0.230706 -0.0941932
v -0.0143067 -0.00340648 0.0202865
vn -0.96711 0.202182 -0.154337
v -0.0131026 -0.00936274 0.0315596
vn -0.881472 -0.463625 0.089769
v -0.0147015 -0.00417942 0.0263412
vn -0.956792 -0.290742 0.00436565
v -0.0148226 -0.00340648 0.0269853
vn -0.973027 0.228183 -0.033929
v 0.0094924 -0.0216125 0.0404733
vn -0.210031 -0.894096 0.395576
v -0.000963832 -0.0177349 0.0388491
vn -0.495292 -0.69629 0.519487
v 0.00140798 -0.0148701 0.0422249
vn -0.419063 -0.528728 0.738128
v -0.00907901 -0.0140202 0.0347148
vn -0.647521 -0.677092 0.349661
v -0.0145696 -0.00314883 0.0326536
vn -0.936396 -0.262144 0.23333
v -0.0145477 -0.00263353 0.0323959
vn -0.955255 0.27335 0.112997
v -0.012309 -0.00160293 0.0388372
vn -0.750604 -0.362226 0.552618
v -0.00678428 -0.00314186 0.0432312
vn -0.576863 -0.419293 0.701015
v 0.00846181 -0.01688 0.0438782
vn -0.340361 -0.596859 0.726577
v 0.00847703 -0.0156244 0.0440047
vn -0.107312 -0.0208706 0.994006
v 0.00124763 -0.0104231 0.0433334
vn -0.10419 -0.18705 0.976809
v 0.0130995 -0.00940403 0.0446343
vn 0.00533341 -0.178406 0.983943
v -0.000813562 -0.00469472 0.0445656
vn 0 0 0
v -0.00251554 -0.00392177 0.0443731
vn -0.181481 -0.138232 0.973631
v -0.00184416 -0.00583095 0.0439902
vn 0 0 0
v 0.00562767 -5.70362e-05 0.0464397
vn -0.0808382 -0.0694722 0.994303
v -0.00493595 0.00561125 0.00350646
vn -0.655422 0.228561 -0.719849
v -0.0101458 0.000458263 0.00602468
vn 0 0 0
v -0.00649831 0.00870304 0.00591067
vn -0.739436 0.481623 -0.470397
v -0.0108737 0.00561125 0.0110111
vn -0.879841 0.4322 -0.197696
v -0.00410925 -0.000572335 0.00276632
vn 0 0 0
v -0.0023866 0.00148886 0.00239774
vn 0 0 0
v -0.000813562 -0.00263353 0.00201505
vn 0 0 0
v -0.00177976 0.00561125 0.00253104
vn -0.220999 0.125667 -0.967144
v -0.000813562 0.00148886 0.00202915
vn -0.122332 0.0366037 -0.991814
v -0.000813562 0.00148886 0.00202915
vn -0.0696825 0.00341201 -0.997563
v 0.00537002 0.00561125 0.00161063
vn -0.0802371 0.117447 -0.989832
v 0.00330882 0.00561125 0.00171835
vn -0.072647 -0.00254683 -0.997354
v 0.00743121 -0.00263353 0.00143913
vn 0.0449044 -0.0644224 -0.996912
v -0.000813562 0.00918373 0.00288177
vn -0.280659 0.265322 -0.922407
v 0.00330882 0.00561125 0.00171835
vn -0.0845503 0.152257 -0.984718
v -0.000250951 0.00918373 0.00276632
vn -0.387137 0.224567 -0.894256
v 0.00330882 0.0106567 0.00253744
vn -0.111524 0.255884 -0.960253
v 0.00949241 0.00973363 0.00212271
vn -0.0422432 0.1601 -0.986196
v 0.00949241 0.00561125 0.00153355
vn 0.0460763 0.0954262 -0.99437
v 0.00743121 0.0110766 0.00241417
vn -0.0184755 0.152254 -0.988169
v 0.00743121 0.0110766 0.00241417
vn 0 0 0
v -0.00699715 0.00148886 0.00410095
vn 0 0 0
v -0.00493595 0.00148886 0.00304124
vn 0 0 0
v -0.00493595 0.00561125 0.00350646
vn 0 0 0
v -0.00493595 0.00973363 0.00493262
vn -0.387137 0.224567 -0.894256
v -0.00493595 0.00973363 0.00493262
vn -0.375775 0.362976 -0.852667
v -0.00184389 0.0151411 0.00740401
vn -0.547914 0.771332 -0.323785
v 0.00124763 0.013856 0.0042322
vn -0.424914 0.61568 -0.663616
v -0.000813562 0.013856 0.00487073
vn -0.294176 0.376237 -0.878582
v -0.00526399 0.0132584 0.0134365
vn -0.753948 0.655302 -0.0462785
v 0.00537002 0.013856 0.00343769
vn -0.208183 0.386905 -0.898312
v 0.00743121 0.013856 0.00328172
vn 0 0 0
v 0.00100209 0.0182747 0.0159709
vn -0.416602 0.908792 -0.023215
v 0.00537002 0.0179482 0.00688871
vn -0.187258 0.964751 -0.184906
v 0.00537002 0.0179482 0.00688871
vn 0 0 0
v 0.0094924 0.0176133 0.00688871
vn 0.464524 0.877337 -0.120407
v 0.00537002 0.0188243 0.0089499
vn 0.282862 0.956675 -0.069014
v -0.0134268 0.00173013 0.0215016
vn -0.882957 0.468727 -0.0261166
v -0.00393305 0.0147554 0.0316444
vn -0.726386 0.684363 0.0633259
v 0.00846181 0.0194671 0.0223477
vn 0.458647 0.887876 -0.0363214
v 0.00665826 0.0191812 0.0341995
vn 0.112345 0.991572 0.0645245
v 0.00173734 0.017105 0.0372913
vn -0.440472 0.87791 0.187775
v 0.00588532 0.0193079 0.0326536
vn -0.205107 0.977825 0.0423067
v -0.0127581 0.00226882 0.0348436
vn -0.836023 0.531696 0.135514
v -0.00403037 0.0115455 0.0395108
vn -0.589493 0.590702 0.550971
v -0.0101087 0.00278185 0.0408718
vn -0.7254 0.46405 0.508382
v -0.00693877 0.000458263 0.0439566
vn -0.436617 0.431153 0.789603
v -0.00397245 0.00355005 0.0443443
vn -0.187972 0.133743 0.973026
v 0.00549884 0.016701 0.0402233
vn -0.344148 0.723308 0.598655
v 0.00537002 0.0117948 0.0445095
vn -0.418099 0.495194 0.761562
v 0.00743121 0.0126045 0.0440704
vn -0.0545338 0.388227 0.919949
v 0.00794651 0.0178367 0.0388696
vn 0.371088 0.845269 0.384467
v 0.00743121 0.013856 0.043509
vn 0 0 0
v 0.00846181 0.0140993 0.0431751
vn 0.330852 0.708154 0.623743
v 0.0094924 0.00973363 0.0454041
vn -0.00865264 0.192721 0.981215
v 0.0153191 -0.000572335 0.0460088
vn 0.154599 -0.00524263 0.987963
v 0.0102715 -0.0228867 0.00817609
vn 0.460547 -0.724583 -0.512714
v 0.0146454 -0.0160313 0.00420371
vn 0.497589 -0.460546 -0.735052
v 0.010523 -0.0207786 0.00574304
vn 0 0 0
v 0.0205191 -0.014517 0.0072311
vn 0.660485 -0.52138 -0.540298
v 0.00975005 -0.0246738 0.0137164
vn 0.343769 -0.939021 -0.0079575
v 0.0163193 -0.0210042 0.0109534
vn 0.670368 -0.730997 -0.127474
v 0.00871415 -0.0150007 0.00276632
vn 0.02661 -0.390422 -0.920251
v 0.0115536 -0.0145247 0.00287878
vn 0.124932 -0.248901 -0.960438
v 0.01593 -0.0109988 0.00274328
vn 0.100591 -0.162576 -0.981555
v 0.0115536 -0.0108783 0.00215761
vn 0.0451318 -0.0643084 -0.996909
v 0.0176602 -0.00881711 0.00276632
vn 0 0 0
v 0.015676 -0.00675591 0.0020769
vn 0.0449044 -0.0644224 -0.996912
v 0.015676 -0.00675591 0.0020769
vn 0.18138 -0.05388 -0.981936
v 0.015676 -0.00469472 0.00192304
vn 0.158839 -0.0258386 -0.986966
v 0.0202419 -0.00263353 0.00264398
vn 0.373845 -0.0991727 -0.922174
v 0.0197984 -0.00544273 0.00276632
vn 0.283394 -0.0779469 -0.955831
v 0.015676 -0.000572335 0.0017376
vn 0.18138 -0.05388 -0.981936
v 0.0197984 -0.00675591 0.00293369
vn 0 0 0
v 0.0115536 -0.0191231 0.00459738
vn 0.0799635 -0.372361 -0.924637
v 0.015676 -0.0150007 0.0037323
vn 0.151741 -0.346033 -0.92587
v 0.015676 -0.0150007 0.0037323
vn 0 0 0
v 0.0262359 -0.0092214 0.0130723
vn 0.851946 -0.504717 -0.139461
v 0.0176602 -0.00881711 0.00276632
vn 0 0 0
v 0.0197984 -0.0108783 0.00388779
vn 0 0 0
v 0.0254771 -0.00263353 0.00577983
vn 0.748748 -0.351443 -0.562018
v 0.0239208 -0.00469472 0.00467095
vn 0 0 0
v 0.0254771 -0.00160293 0.00556386
vn 0.501169 -0.116454 -0.857478
v 0.0285661 -0.00173605 0.0125676
vn 0.951333 -0.287311 -0.111436
v 0.0151931 -0.0225212 0.0256538
vn 0.601446 -0.798843 0.0106488
v 0.0094924 -0.0232455 0.036394
vn 0.291737 -0.954393 0.0634253
v 0.021344 -0.0151914 0.0198356
vn 0.800715 -0.599007 0.00678941
v 0.0269701 -0.00675591 0.0233783
vn 0.90025 -0.43419 0.0320757
v 0.0283975 -0.00134528 0.0187406
vn 0.978554 -0.203005 0.0349429
v 0.0266779 -0.00675591 0.036776
vn 0.884139 -0.435763 0.168547
v 0.0136125 -0.0218928 0.0377974
vn 0.434273 -0.855041 0.283392
v 0.0191336 -0.0183824 0.0360031
vn 0.766125 -0.627041 0.14097
v 0.0107807 -0.0194993 0.041978
vn 0.479701 -0.487149 0.729776
v 0.0151607 -0.0110216 0.0440367
vn 0.434825 -0.385588 0.813786
v 0.0207468 -0.0111984 0.0409681
vn 0.576962 -0.458313 0.676065
v 0.0216621 -0.00366412 0.0436668
vn 0.647514 -0.278639 0.709285
v 0.0206972 -0.00134528 0.0440286
vn 0.335126 -0.074385 0.939232
v 0.0275553 -0.00160293 0.036776
vn 0.956204 -0.162832 0.243228
v 0.0136148 0.00561125 0.00177367
vn 0.0665931 0.0360274 -0.99713
v 0.0115536 0.00561125 0.0015642
vn 0.0426252 0.0263626 -0.998743
v 0.015676 0.00148886 0.00170603
vn 0.0330315 -0.00135443 -0.999453
v 0.015676 0.00355006 0.00184458
vn 0.148658 -0.00940898 -0.988844
v 0.0197984 0.00148886 0.00248394
vn 0.148658 -0.00940898 -0.988844
v 0.0203041 0.00148886 0.00262513
vn 0 0 0
v 0.0196117 0.00734782 0.00377289
vn 0 0 0
v 0.0200512 0.00290082 0.00269573
vn 0 0 0
v 0.0115536 0.0112901 0.00270285
vn 0.0851559 0.171199 -0.98155
v 0.0155788 0.00965175 0.00276632
vn 0.0885659 0.176157 -0.98037
v 0.0194251 0.00561125 0.00288459
vn 0 0 0
v 0.0115536 0.011837 0.00276632
vn 0 0 0
v 0.0207475 -0.000572335 0.00276632
vn 0 0 0
v 0.0239208 -0.000572335 0.00421507
vn 0 0 0
v 0.0239208 0.00355006 0.00484617
vn 0 0 0
v 0.0115536 0.013856 0.00367831
vn 0 0 0
v 0.0155788 0.0117948 0.0041007
vn 0 0 0
v 0.015676 0.013856 0.00543508
vn 0 0 0
v 0.0218596 0.00767244 0.00514034
vn 0 0 0
v 0.0231572 0.00876096 0.00792172
vn 0.712052 0.589034 -0.382126
v 0.0177372 0.00973363 0.00379419
vn 0.566459 0.549204 -0.61441
v 0.0239208 0.00355006 0.00484617
vn 0.683787 0.4426 -0.580121
v 0.0136148 0.013856 0.00455669
vn 0.531896 0.744834 -0.402875
v 0.0192227 0.0130431 0.011127
vn 0.503801 0.857896 -0.100995
v 0.0270334 -0.000572335 0.00688871
vn 0.912152 0.363424 -0.189477
v 0.0284449 -0.000829984 0.0179677
vn 0.941734 0.336358 -0.000792809
v 0.024669 0.00851223 0.0142317
vn 0.753819 0.656415 -0.0296017
v 0.021252 0.0117727 0.0329113
vn 0.587621 0.809136 0.000724611
v 0.0242988 0.008369 0.0334266
vn 0.861685 0.491683 0.125485
v 0.0126639 0.0175226 0.0329113
vn 0.456627 0.883514 0.104376
v 0.0208844 0.00618308 0.0421717
vn 0.728375 0.403824 0.553531
v 0.0213866 -0.00108763 0.043717
vn 0.735775 0.189037 0.650307
v 0.0175544 0.00664184 0.0443156
vn 0.274765 0.220951 0.93578
v 0.0156613 0.00972207 0.0439902
vn 0.441322 0.609009 0.659047
v 0.0177372 0.0126789 0.0398678
vn 0.537933 0.727685 0.425563
v 0.0272215 -0.00160293 0.037265
vn 0.898632 0.178807 0.40061
v 0.026555 0.0029468 0.036776
vn 0.920516 0.342307 0.188353
f 1//1 3//3 7//7
f 7//7 2//2 1//1
f 1//1 8//8 9//9
f 1//1 10//10 11//11
f 10//10 1//1 9//9
f 22//22 18//18 19//19
f 25//25 16//16 26//26
f 28//28 25//25 29//29
f 28//28 30//30 24//24
f 16//16 31//31 19//19
f 23//23 31//31 32//32
f 22//22 20//20 32//32
f 1//1 2//2 8//8
f 33//33 25//25 16//16
f 40//40 2//2 7//7
f 2//2 40//40 39//39
f 41//41 39//39 40//40
f 10//10 9//9 43//43
f 8//8 42//42 9//9
f 45//45 43//43 9//9
f 9//9 42//42 45//45
f 43//43 45//45 46//46
f 8//8 2//2 42//42
f 2//2 39//39 42//42
f 48//48 49//49 41//41
f 49//49 48//48 50//50
f 51//51 45//45 42//42
f 45//45 52//52 46//46
f 45//45 51//51 54//54
f 52//52 45//45 54//54
f 51//51 55//55 54//54
f 41//41 42//42 39//39
f 41//41 51//51 42//42
f 49//49 51//51 41//41
f 55//55 51//51 49//49
f 50//50 55//55 49//49
f 56//56 50//50 48//48
f 57//57 59//59 58//58
f 61//61 58//58 63//63
f 58//58 59//59 63//63
f 64//64 15//15 66//66
f 67//67 66//66 15//15
f 29//29 71//71 72//72
f 71//71 74//74 72//72
f 75//75 30//30 72//72
f 28//28 73//73 32//32
f 71//71 77//77 78//78
f 80//80 81//81 78//78
f 82//82 74//74 83//83
f 79//79 71//71 88//88
f 90//90 91//91 66//66
f 77//77 89//89 92//92
f 66//66 67//67 93//93
f 90//90 66//66 93//93
f 94//94 80//80 92//92
f 93//93 96//96 90//90
f 91//91 90//90 97//97
f 96//96 97//97 90//90
f 15//15 44//44 101//101
f 101//101 67//67 15//15
f 67//67 101//101 93//93
f 101//101 44//44 47//47
f 93//93 101//101 102//102
f 104//104 103//103 100//100
f 97//97 96//96 106//106
f 105//105 106//106 96//96
f 47//47 53//53 101//101
f 101//101 53//53 107//107
f 101//101 107//107 102//102
f 102//102 107//107 108//108
f 109//109 107//107 53//53
f 107//107 109//109 108//108
f 110//110 108//108 109//109
f 113//113 108//108 110//110
f 112//112 108//108 113//113
f 93//93 102//102 96//96
f 102//102 105//105 96//96
f 108//108 105//105 102//102
f 112//112 105//105 108//108
f 106//106 105//105 112//112
f 63//63 111//111 61//61
f 111//111 63//63 118//118
f 119//119 118//118 63//63
f 118//118 114//114 111//111
f 123//123 120//120 121//121
f 125//125 124//124 120//120
f 125//125 120//120 123//123
f 21//21 128//128 127//127
f 22//22 30//30 129//129
f 76//76 131//131 129//129
f 134//134 135//135 133//133
f 136//136 135//135 132//132
f 6//6 126//126 138//138
f 127//127 139//139 138//138
f 125//125 123//123 141//141
f 123//123 121//121 144//144
f 146//146 135//135 134//134
f 144//144 141//141 123//123
f 147//147 141//141 144//144
f 125//125 148//148 124//124
f 125//125 150//150 148//148
f 150//150 125//125 141//141
f 141//141 147//147 151//151
f 151//151 150//150 141//141
f 151//151 147//147 152//152
f 153//153 151//151 152//152
f 40//40 48//48 41//41
f 124//124 154//154 149//149
f 124//124 148//148 154//154
f 148//148 155//155 154//154
f 150//150 155//155 148//148
f 153//153 150//150 151//151
f 150//150 153//153 155//155
f 155//155 158//158 154//154
f 155//155 153//153 158//158
f 154//154 158//158 156//156
f 157//157 156//156 158//158
f 157//157 158//158 159//159
f 153//153 159//159 158//158
f 159//159 153//153 161//161
f 119//119 63//63 59//59
f 59//59 160//160 119//119
f 82//82 162//162 32//32
f 163//163 164//164 32//32
f 165//165 166//166 133//133
f 170//170 171//171 82//82
f 163//163 171//171 162//162
f 181//181 183//183 182//182
f 184//184 181//181 182//182
f 181//181 184//184 185//185
f 181//181 186//186 183//183
f 181//181 188//188 186//186
f 186//186 188//188 187//187
f 185//185 188//188 181//181
f 100//100 185//185 99//99
f 184//184 99//99 185//185
f 185//185 103//103 188//188
f 188//188 103//103 189//189
f 188//188 190//190 187//187
f 188//188 189//189 190//190
f 100//100 103//103 185//185
f 196//196 117//117 195//195
f 190//190 196//196 192//192
f 196//196 190//190 189//189
f 192//192 196//196 195//195
f 152//152 161//161 153//153
f 190//190 198//198 187//187
f 187//187 198//198 197//197
f 198//198 192//192 197//197
f 197//197 192//192 193//193
f 192//192 198//198 190//190
f 104//104 191//191 103//103
f 115//115 191//191 104//104
f 191//191 189//189 103//103
f 115//115 196//196 191//191
f 196//196 115//115 117//117
f 189//189 191//191 196//196
f 194//194 119//119 160//160
f 194//194 118//118 119//119
f 118//118 194//194 114//114
