# Created by Open3D 
# object name: textured
# number of vertices: 46
# number of triangles: 13
v -0.00408063 -0.001361 0.00929474
vn 0.620866 0.783633 -0.0211087
v -0.00841668 0.00666707 0.0131105
vn 0.786419 0.554304 -0.272566
v 0.000518731 -0.000664726 0.00374258
vn 0.25284 0.911721 0.323785
v -0.00029015 0.00168411 0.0154924
vn 0.157231 0.844902 -0.511292
v -0.00813755 0.00761663 0.00491541
vn 0.783445 0.520022 0.34028
v -0.00029015 0.00205496 0.0163017
vn 0 0 0
v 0.00321331 0.00211936 0.0163017
vn 0 0 0
v -0.00029015 0.00573921 0.0192243
vn 0 0 0
v 0.00146158 0.00730567 0.019939
vn 0 0 0
v -0.00554534 0.00857059 0.0180891
vn 0 0 0
v -0.00204188 0.0064113 0.0192691
vn 0 0 0
v -0.00204188 0.00816303 0.0198475
vn 0 0 0
v -0.00554534 0.0103223 0.0178774
vn 0 0 0
v 0.00408918 0.0103148 0.0190381
vn 0 0 0
v -0.00875274 0.0122859 0.0127132
vn 0.7132 -0.691908 -0.112295
v -0.00782861 0.011386 0.00384267
vn 0.732751 -0.650113 0.201069
v -0.00083578 0.0184621 0.00383089
vn 0.679125 -0.670637 0.298388
v -0.0011677 0.0206319 0.00946298
vn 0.716206 -0.697822 -0.0096811
v -0.00029015 0.017076 0.0166613
vn 0.587049 -0.695121 -0.414947
v -0.00716919 0.012074 0.0163017
vn 0 0 0
v -0.00554534 0.012074 0.0176656
vn 0 0 0
v -0.00204188 0.0105897 0.0198051
vn 0 0 0
v -0.00229452 0.00857059 0.0198051
vn 0 0 0
v -0.00204188 0.0134547 0.018687
vn 0 0 0
v -0.00029015 0.0120665 0.0196314
vn 0 0 0
v -0.00029015 0.0155775 0.0179414
vn 0 0 0
v -0.00029015 0.0175106 0.0163017
vn 0 0 0
v 0.00321331 0.0138257 0.0185486
vn 0 0 0
v -0.00204188 0.0164466 0.017021
vn 0 0 0
v 0.00146158 -0.000897616 0.00374258
vn -0.550036 0.80655 0.216649
v 0.00967576 0.00462436 0.00403955
vn -0.687662 0.723298 0.0629364
v 0.00468923 -0.000758659 0.0114197
vn -0.687662 0.723298 0.0629364
v 0.0110066 0.00735551 0.0131855
vn -0.779267 0.622485 -0.0724895
v 0.00146158 0.00506713 0.0191796
vn 0 0 0
v 0.00496504 0.00379636 0.0172657
vn 0 0 0
v 0.00466804 0.00681886 0.0189112
vn 0 0 0
v 0.00437104 0.00681886 0.0190174
vn 0 0 0
v 0.0084685 0.0103223 0.0169351
vn 0 0 0
v 0.0084685 0.00712473 0.0167325
vn 0 0 0
v 0.0084685 0.00567887 0.0163017
vn 0 0 0
v 0.0118055 0.00857059 0.00579128
vn -0.875765 -0.119756 0.467648
v 0.0120083 0.0139278 0.00754301
vn -0.701335 -0.684479 -0.199043
v 0.00267985 0.0198007 0.00657495
vn -0.534828 -0.844388 0.0311169
v 0.00146158 0.0155775 0.0181427
vn -0.516373 -0.759521 -0.395584
v 0.00916993 0.0103223 0.0163017
vn -0.798955 -0.419008 -0.431397
v 0.00941017 0.00857059 0.0163017
vn 0 0 0
f 1//1 4//4 3//3
f 1//1 5//5 2//2
f 5//5 1//1 3//3
f 1//1 2//2 4//4
f 15//15 16//16 18//18
f 16//16 17//17 18//18
f 19//19 15//15 18//18
f 31//31 30//30 32//32
f 32//32 33//33 31//31
f 41//41 42//42 43//43
f 44//44 42//42 45//45
f 45//45 42//42 41//41
f 43//43 42//42 44//44
