# Created by Open3D 
# object name: textured
# number of vertices: 255
# number of triangles: 152
v -0.0146835 -0.00912037 0.00917433
vn -0.294267 -0.535789 -0.791415
v -0.0183667 -0.0127967 0.0130327
vn -0.568123 -0.729211 -0.381429
v -0.00636861 -0.0193863 0.0130327
vn -0.371131 -0.805082 -0.462715
v -0.00290409 -0.0196554 0.0130327
vn 0.00677336 -0.564605 -0.825333
v -0.00636861 -0.0146636 0.00958943
vn 0 0 0
v -0.00636861 -0.0146636 0.00958943
vn -0.0369277 -0.501028 -0.864643
v 0.00506431 -0.0169387 0.0115867
vn 0 0 0
v 0.00194624 -0.00963899 0.00736654
vn -0.0187892 -0.198779 -0.979864
v 0.00471785 -0.0146636 0.00968041
vn 0.00677336 -0.564605 -0.825333
v -0.00082538 -0.0146636 0.00920294
vn 0 0 0
v -0.0202267 -0.00634876 0.0111441
vn 0 0 0
v -0.0223532 -0.00471859 0.0123192
vn 0 0 0
v -0.0228134 -0.00586005 0.0130327
vn 0 0 0
v -0.0241536 -0.000805523 0.0130327
vn 0 0 0
v -0.0202267 0.000580282 0.00957208
vn 0 0 0
v -0.0202267 0.00196609 0.0093699
vn -0.384064 -0.00112641 -0.923306
v -0.0243664 0.00473771 0.0130327
vn 0 0 0
v -0.0251711 0.00404481 0.0142324
vn -0.908233 0.179209 -0.37815
v -0.00636861 -0.00357714 0.00650264
vn -0.144858 -0.148219 -0.978288
v -0.00914023 -0.0078376 0.00758975
vn -0.167593 -0.218826 -0.961264
v -0.0142979 -0.002423 0.00757495
vn -0.160963 -0.130381 -0.978311
v -0.0160693 -0.0141825 0.0125523
vn 0 0 0
v -0.0146835 -0.00912037 0.00917433
vn -0.222466 -0.213692 -0.951233
v -0.0146835 -0.00634876 0.0085029
vn 0 0 0
v -0.0197525 -0.0105062 0.0125711
vn 0 0 0
v -0.0119119 -0.00912037 0.00853249
vn 0 0 0
v -0.0139124 -0.002423 0.00748945
vn -0.222466 -0.213692 -0.951233
v -0.00484521 -0.00912037 0.00739156
vn -0.070051 -0.254565 -0.964515
v -0.003597 -0.00993285 0.00748945
vn 0 0 0
v -0.003597 -0.00357714 0.0062431
vn -0.0188225 -0.115142 -0.993171
v 0.00194624 -0.00660806 0.00679245
vn 0 0 0
v -0.00082538 -0.0100452 0.00748945
vn 0 0 0
v -0.015324 0.00196609 0.00733054
vn -0.259743 -0.037575 -0.964946
v -0.00914023 0.00196609 0.00616805
vn -0.108115 -0.0552261 -0.992603
v -0.00914023 0.00196609 0.00616805
vn -0.0608046 -0.0511969 -0.996836
v -0.0153764 0.0102712 0.00752629
vn 0 0 0
v -0.0173852 0.00889514 0.00817949
vn -0.384064 -0.00112641 -0.923306
v -0.0146835 0.00750932 0.00705345
vn -0.179338 0.0170729 -0.983639
v -0.00914023 0.0047377 0.00612296
vn 0 0 0
v -0.00914023 0.00750932 0.00607786
vn -0.0622773 0.034355 -0.997467
v 0.00194624 0.00750932 0.00570042
vn 0.0374471 0.0249438 -0.998987
v -0.003597 -0.00357714 0.0062431
vn -0.0235844 -0.0371102 -0.999033
v 0.00194624 0.00750932 0.00570042
vn 0.0175518 0.040033 -0.999044
v 0.00194624 -0.00357714 0.00621837
vn 0.0386932 -0.0466333 -0.998162
v -0.0228485 -0.014255 0.029316
vn -0.760934 -0.644066 0.0784698
v -0.0173902 -0.0173876 0.0377748
vn -0.492494 -0.783536 0.378841
v -0.0131845 -0.021177 0.0271241
vn -0.471158 -0.869751 -0.146775
v -0.00465427 -0.02208 0.0177764
vn -0.0812348 -0.980522 -0.178821
v 0.00402495 -0.020105 0.0146651
vn 0.105977 -0.946396 -0.305127
v 0.00481629 -0.0233182 0.0291127
vn 0.0426418 -0.996884 -0.0663632
v -0.00650049 -0.0232265 0.0358904
vn -0.179148 -0.961039 0.210498
v 0.00250265 -0.0219478 0.0384269
vn 0.0133558 -0.889443 0.456852
v -0.025718 -0.00912037 0.0215496
vn -0.898794 -0.406117 -0.165039
v -0.0253831 -0.00357714 0.0168437
vn -0.941835 -0.182616 -0.282131
v -0.0248836 -0.00319592 0.0151114
vn -0.963152 -0.173843 -0.205223
v -0.0280872 0.0047377 0.0234262
vn -0.982659 0.0327382 -0.18251
v -0.0277448 -0.00189724 0.0372843
vn -0.887748 -0.4142 0.200853
v -0.0282058 -0.00308318 0.0345127
vn -0.984439 -0.165267 0.0597303
v -0.0284074 0.00473771 0.0379772
vn -0.957496 0.102222 0.269725
v -0.0174551 -0.0104169 0.0470574
vn -0.610273 -0.55417 0.566094
v -0.00480958 -0.0156085 0.0476796
vn -0.222348 -0.689632 0.68918
v -0.003597 -0.0141269 0.0486863
vn 0.186467 -0.481619 0.856314
v -0.0223054 -0.00294992 0.047072
vn -0.670128 -0.436471 0.600351
v -0.0245646 0.00536319 0.0445803
vn -0.839902 0.194107 0.50684
v -0.0217626 -0.00169583 0.0477376
vn -0.716402 -0.0154919 0.697516
v -0.0229983 -0.00357714 0.0464013
vn 0 0 0
v -0.0208276 0.0158242 0.0462921
vn -0.59925 0.271376 0.753163
v -0.0154497 -0.00149843 0.0512983
vn -0.284417 -0.386958 0.877138
v -0.00221119 -0.00692976 0.0530085
vn -0.280358 -0.410073 0.867894
v -0.0078728 0.002659 0.0553213
vn -0.267561 -0.37233 0.888696
v -0.00636861 -0.0146636 0.0481341
vn 0 0 0
v 0.00118601 -0.00156094 0.0560153
vn 0.228656 -0.257647 0.938794
v -0.0125353 -0.00357714 0.0518353
vn 0 0 0
v -0.0146835 -0.00357714 0.051187
vn 0 0 0
v -0.0128693 0.00268524 0.0532211
vn -0.52557 0.125413 0.841456
v -0.0149758 0.00196609 0.0519897
vn 0 0 0
v -0.00938138 0.0033519 0.0549462
vn -0.177979 -0.171999 0.968886
v -0.00134008 0.0112281 0.0578216
vn 0.0339575 -0.00363153 0.999417
v -0.0191169 0.0158242 0.0102611
vn -0.798454 0.355718 -0.485731
v -0.0146835 0.0165171 0.0082604
vn 0 0 0
v -0.00914023 0.0130526 0.00645619
vn -0.0339465 0.0680525 -0.997104
v -0.00914023 0.0130526 0.00645619
vn -0.0514513 0.121982 -0.991198
v -0.010116 0.0185958 0.00748945
vn 0 0 0
v -0.00962811 0.0187566 0.00745357
vn -0.0696009 0.166046 -0.983659
v -0.018776 0.0130526 0.00938496
vn 0 0 0
v -0.0202267 0.00750932 0.00944823
vn 0 0 0
v -0.0146608 0.0130526 0.00748945
vn 0 0 0
v -0.0196069 0.0144384 0.0102611
vn 0 0 0
v -0.0174551 0.0158242 0.0091769
vn 0 0 0
v -0.0182989 0.01721 0.0102611
vn 0 0 0
v -0.0174551 0.0158242 0.0091769
vn 0 0 0
v -0.0160693 0.0185958 0.00950678
vn 0 0 0
v -0.0160693 0.0158242 0.00859142
vn 0 0 0
v -0.0146835 0.0185958 0.00877046
vn 0 0 0
v -0.00082538 0.0185958 0.00680357
vn -0.0696009 0.166046 -0.983659
v -0.003597 0.0203671 0.00726466
vn -0.0724161 0.21199 -0.974585
v 0.00194624 0.00750932 0.00570042
vn 0.101729 -0.0363364 -0.994148
v -0.0148212 0.022894 0.0109847
vn 0 0 0
v -0.0119119 0.0227532 0.00952525
vn -0.156106 0.335993 -0.928838
v -0.0146835 0.024139 0.0117083
vn -0.68018 0.56168 -0.471032
v -0.00914023 0.024139 0.00909558
vn 0 0 0
v -0.0146835 0.0216489 0.010108
vn 0 0 0
v -0.00738126 0.0332212 0.0164098
vn -0.446918 0.857901 -0.253516
v 0.00194624 0.0203952 0.00711585
vn 0.0449556 0.109077 -0.993016
v 0.00194624 0.0231668 0.00772715
vn 0.0270174 0.33513 -0.941784
v -0.003597 0.0269106 0.00941187
vn 0 0 0
v -0.00636861 0.0296823 0.0116587
vn 0 0 0
v -0.003597 0.0296823 0.0106343
vn -0.156106 0.335993 -0.928838
v 0.00333205 0.0296823 0.0100854
vn 0.0270174 0.33513 -0.941784
v 0.00056043 0.0316464 0.0115269
vn 0 0 0
v -0.0054085 0.0320242 0.0130327
vn 0 0 0
v -0.000825379 0.0336105 0.0130327
vn -0.208824 0.931436 -0.298027
v -0.0040227 0.0326168 0.0130327
vn 0 0 0
v -0.0232708 0.0177931 0.0185312
vn -0.861429 0.398241 -0.315189
v -0.0279863 0.0116668 0.0296624
vn -0.945916 0.324334 0.0071311
v -0.0160568 0.0277907 0.0183974
vn -0.695832 0.66588 -0.269113
v -0.0222699 0.0235456 0.0307018
vn -0.827472 0.560057 -0.0403287
v -0.0218252 0.0208083 0.0390154
vn -0.820794 0.471486 0.322489
v -0.0144975 0.0319992 0.0303553
vn -0.590817 0.804847 0.0561764
v -0.000825379 0.0336105 0.0130327
vn 0.0526965 0.799414 -0.598466
v 0.00783592 0.0363733 0.0174858
vn 0.233331 0.886172 -0.40032
v -0.000998999 0.0385983 0.0287431
vn -0.388927 0.913267 -0.12116
v -0.00117262 0.0383454 0.0250521
vn -0.0992878 0.979039 -0.177832
v 0.00696979 0.0394278 0.029316
vn 0.0801202 0.991443 0.10306
v -0.00327619 0.0366665 0.0374725
vn -0.493691 0.815746 0.301375
v -0.00221119 0.0369178 0.0379772
vn -0.100497 0.979033 0.177188
v -0.0140355 0.0272176 0.0421018
vn -0.558647 0.67319 0.484487
v 0.000213978 0.0335976 0.0468386
vn -0.446389 0.632059 0.633434
v -0.0106167 0.02071 0.0504368
vn -0.431413 0.472324 0.768631
v -0.00324059 0.0121754 0.057239
vn -0.444492 0.2546 0.85884
v 0.00895211 0.0150039 0.056018
vn 0.310526 -0.0690933 0.948051
v 0.00056043 0.0243301 0.0527483
vn -0.31929 0.455059 0.831249
v 0.00056043 0.0217496 0.0541368
vn 0.0473339 0.32254 0.945372
v 0.00194624 0.0185958 0.0556888
vn 0 0 0
v 0.00194624 0.0349345 0.0456677
vn 0.0461964 0.879658 0.473357
v 0.0110031 -0.0133253 0.0108477
vn 0.506808 -0.676747 -0.534003
v 0.00402495 -0.0199839 0.0144567
vn 0.40643 -0.828716 -0.384765
v 0.00655934 -0.00862199 0.00748945
vn 0 0 0
v 0.00748947 -0.00357714 0.00667286
vn 0.0937011 -0.0404058 -0.99478
v 0.00655934 -0.00887118 0.00754067
vn 0 0 0
v 0.0114756 -0.00557108 0.00788868
vn 0 0 0
v 0.0102611 -0.013135 0.0102009
vn 0 0 0
v 0.0142449 -0.0103633 0.0102611
vn 0 0 0
v 0.0144185 -0.0117492 0.0112913
vn 0 0 0
v 0.0130327 -0.00912037 0.00910608
vn 0 0 0
v 0.0144185 -0.00357714 0.00815257
vn 0 0 0
v 0.0158043 -0.00634876 0.00933357
vn 0 0 0
v 0.0158043 -0.00753127 0.00979733
vn 0 0 0
v 0.0130327 -0.00912037 0.00910608
vn 0 0 0
v 0.0144185 -0.00634876 0.00880995
vn 0 0 0
v 0.0156307 -0.00891708 0.0102611
vn 0 0 0
v 0.0180489 -0.00545993 0.0102611
vn 0 0 0
v 0.0137256 -0.000466415 0.00754149
vn 0 0 0
v 0.0185759 -0.00219133 0.00956975
vn 0 0 0
v 0.0206597 -0.00196902 0.0108774
vn 0.74282 -0.395305 -0.540326
v 0.0191231 -0.00357714 0.0102611
vn 0 0 0
v 0.0130327 0.00196609 0.00703748
vn 0.101729 -0.0363364 -0.994148
v 0.0139989 0.00196609 0.00726346
vn 0.121002 -0.0167658 -0.992511
v 0.0151803 0.00820221 0.00730215
vn 0.121002 -0.0167658 -0.992511
v 0.0167705 0.000580283 0.00834774
vn 0 0 0
v 0.0199617 0.00392066 0.00911622
vn 0 0 0
v 0.0185759 0.00196609 0.00868932
vn 0 0 0
v 0.0216459 0.00171781 0.0102611
vn 0 0 0
v 0.0202353 -0.00357714 0.0110849
vn 0 0 0
v 0.0205478 -0.000805523 0.0102611
vn 0 0 0
v 0.0241192 0.00196609 0.0121034
vn 0 0 0
v 0.016704 0.00750932 0.00766154
vn 0.226507 0.023405 -0.973728
v 0.0185759 0.00473771 0.00836713
vn 0 0 0
v 0.0199617 0.00473771 0.00895349
vn 0 0 0
v 0.0223625 0.00473771 0.0101737
vn 0 0 0
v 0.0222937 0.00612352 0.00996854
vn 0 0 0
v 0.0233774 0.0033519 0.0111822
vn 0 0 0
v 0.0231585 0.00889511 0.0102611
vn 0 0 0
v 0.0241192 0.00750932 0.0109861
vn 0 0 0
v 0.0222249 0.00750932 0.00976341
vn 0 0 0
v 0.0261467 0.00872188 0.0128675
vn 0.84371 -0.163141 -0.511409
v 0.0117614 -0.0203542 0.0234263
vn 0.52166 -0.814074 -0.255254
v 0.00471785 -0.0233182 0.0257314
vn 0.363402 -0.931591 0.00879034
v 0.0196889 -0.0119961 0.0171901
vn 0.734879 -0.550862 -0.395607
v 0.0226474 -0.0111991 0.026807
vn 0.822112 -0.549178 -0.150117
v 0.00263914 -0.022505 0.0373875
vn 0.380126 -0.902625 0.201922
v 0.0172784 -0.017219 0.0334577
vn 0.53663 -0.827181 0.166733
v 0.03024 0.00820221 0.0197863
vn 0.909287 -0.282893 -0.305235
v 0.024044 -0.00912037 0.0349227
vn 0.791488 -0.546729 0.273193
v 0.0301134 0.00196609 0.032434
vn 0.950712 -0.29963 0.0798065
v 0.00854276 -0.0176779 0.0437437
vn 0.42164 -0.848332 0.320239
v 0.00194624 -0.0207814 0.0407488
vn 0 0 0
v 0.00748947 -0.0172033 0.0453295
vn 0.00120717 -0.824506 0.565851
v 0.0140994 -0.0139707 0.0449063
vn 0.644878 -0.595716 0.478805
v 0.0119953 -0.0146636 0.0462921
vn 0.125869 -0.39762 0.908876
v 0.0245514 -0.000794387 0.0444074
vn 0.787283 -0.381383 0.484492
v 0.0130327 -0.00357714 0.0509986
vn 0.206164 -0.454221 0.866706
v 0.017534 -0.00149843 0.049863
vn 0.587642 -0.397878 0.704535
v 0.0199514 -0.000805523 0.0490637
vn 0.378411 -0.144931 0.914221
v 0.0231205 0.0120132 0.0488996
vn 0.430822 -0.095022 0.897421
v 0.0236536 0.00681641 0.0486766
vn 0.741998 -0.259258 0.618243
v 0.0298555 0.0144384 0.0417581
vn 0.901226 -0.21569 0.375858
v 0.00974383 0.019859 0.00748945
vn 0 0 0
v 0.0142453 0.0153066 0.00748945
vn 0 0 0
v 0.0102611 0.018337 0.0072662
vn 0.0902479 0.145604 -0.985218
v 0.00748947 0.0185958 0.00695415
vn 0.0752138 0.0748411 -0.994355
v 0.0130327 0.0130526 0.00695623
vn 0.0752138 0.0748411 -0.994355
v 0.0130327 0.010281 0.00687413
vn 0.226507 0.023405 -0.973728
v 0.0142453 0.0130526 0.00722284
vn 0.250273 0.0771023 -0.9651
v 0.0130327 0.0180782 0.00757825
vn 0 0 0
v 0.0199617 0.0130526 0.00877044
vn 0.384454 0.129083 -0.914075
v 0.0199617 0.0102809 0.00865503
vn 0 0 0
v 0.0213475 0.0102809 0.00917497
vn 0 0 0
v 0.0222811 0.0102809 0.00971803
vn 0 0 0
v 0.0236099 0.0130526 0.0106052
vn 0 0 0
v 0.0232147 0.0102809 0.0102611
vn 0 0 0
v 0.0241192 0.0102809 0.010889
vn 0 0 0
v 0.0185759 0.0185958 0.00897037
vn 0.218109 0.174567 -0.960185
v 0.0185759 0.0185958 0.00897037
vn 0 0 0
v 0.0185759 0.0185958 0.00897037
vn 0.481598 0.151534 -0.863192
v 0.0251602 0.01721 0.0124006
vn 0.481598 0.151534 -0.863192
v 0.022224 0.0130526 0.00976957
vn 0 0 0
v 0.0241192 0.0185958 0.0117686
vn 0 0 0
v 0.00748947 0.0226306 0.00786079
vn 0 0 0
v 0.00748947 0.024139 0.00823213
vn 0.0270174 0.33513 -0.941784
v 0.0102611 0.0269106 0.00962589
vn 0.157304 0.498155 -0.8527
v 0.0158043 0.024139 0.00972324
vn 0.188959 0.224324 -0.956019
v 0.0130327 0.0269106 0.0101372
vn 0.157304 0.498155 -0.8527
v 0.0152584 0.0296823 0.012167
vn 0.157304 0.498155 -0.8527
v 0.0254431 0.0209284 0.0141275
vn 0.799151 0.447761 -0.401084
v 0.0185759 0.024139 0.0104734
vn 0 0 0
v 0.0213475 0.023261 0.0117531
vn 0 0 0
v 0.0241192 0.0204894 0.0124006
vn 0 0 0
v 0.0185759 0.024139 0.0104734
vn 0 0 0
v 0.0195712 0.0279799 0.0130327
vn 0.425304 0.709981 -0.561288
v 0.0197265 0.0279115 0.0130327
vn 0 0 0
v 0.0222306 0.0252766 0.0130327
vn 0 0 0
v 0.0253644 0.0102809 0.0119609
vn 0 0 0
v 0.0265487 0.0130526 0.0130327
vn 0 0 0
v 0.0252389 0.00889511 0.0119609
vn 0 0 0
v 0.0255697 0.0185958 0.0130327
vn 0 0 0
v 0.0243546 0.0218753 0.0130327
vn 0 0 0
v 0.00471785 0.034091 0.0130327
vn 0 0 0
v 0.00887528 0.0314005 0.0116557
vn 0 0 0
v 0.0224155 0.0316944 0.0227381
vn 0.594522 0.756605 -0.272199
v 0.0272697 0.0185958 0.0152223
vn 0.909649 0.0810635 -0.40739
v 0.026546 0.0158242 0.0134373
vn 0 0 0
v 0.0255697 0.0185958 0.0130327
vn 0 0 0
v 0.0314063 0.0158242 0.0260247
vn 0.991128 -0.0447685 -0.125141
v 0.0282977 0.0250763 0.0244656
vn 0.865852 0.482126 -0.133623
v 0.0313501 0.0168636 0.0265443
vn 0.929396 0.286548 -0.232623
v 0.0317424 0.0158242 0.0352056
vn 0.987388 -0.133187 0.085589
v 0.0315184 0.01721 0.0338198
vn 0.897419 0.359756 0.25537
v 0.0241192 0.0306525 0.0365914
vn 0.694775 0.684914 0.2195
v 0.0161288 0.0370461 0.0316931
vn 0.397469 0.916136 0.0520856
v 0.0234515 0.0262425 0.0445929
vn 0.617664 0.47381 0.627691
v 0.0228878 0.01721 0.0488973
vn 0.713672 0.26455 0.648603
v 0.0123027 0.0185958 0.054398
vn 0.342637 0.460621 0.818797
v 0.00402495 0.0226603 0.0538999
vn 0.110142 0.521818 0.845917
v 0.00939157 0.0337544 0.0463575
vn 0.291024 0.750966 0.592752
f 2//2 1//1 3//3
f 6//6 9//9 4//4
f 19//19 20//20 21//21
f 27//27 20//20 23//23
f 19//19 30//30 20//20
f 28//28 30//30 8//8
f 20//20 28//28 6//6
f 19//19 21//21 34//34
f 33//33 35//35 21//21
f 33//33 38//38 34//34
f 16//16 37//37 33//33
f 40//40 41//41 34//34
f 42//42 35//35 43//43
f 44//44 30//30 43//43
f 47//47 2//2 3//3
f 2//2 47//47 45//45
f 3//3 48//48 47//47
f 3//3 49//49 48//48
f 51//51 46//46 47//47
f 45//45 47//47 46//46
f 47//47 48//48 51//51
f 48//48 50//50 51//51
f 52//52 51//51 50//50
f 2//2 53//53 54//54
f 45//45 53//53 2//2
f 55//55 56//56 18//18
f 53//53 57//57 54//54
f 53//53 45//45 57//57
f 56//56 55//55 58//58
f 56//56 58//58 59//59
f 60//60 46//46 61//61
f 52//52 61//61 51//51
f 51//51 61//61 46//46
f 45//45 46//46 60//60
f 45//45 60//60 57//57
f 63//63 57//57 60//60
f 58//58 65//65 59//59
f 59//59 65//65 64//64
f 65//65 67//67 64//64
f 63//63 60//60 68//68
f 61//61 68//68 60//60
f 69//69 68//68 61//61
f 70//70 68//68 69//69
f 67//67 65//65 75//75
f 72//72 78//78 77//77
f 40//40 38//38 82//82
f 84//84 95//95 82//82
f 96//96 41//41 82//82
f 40//40 81//81 43//43
f 96//96 99//99 108//108
f 18//18 56//56 114//114
f 114//114 79//79 18//18
f 115//115 114//114 56//56
f 79//79 114//114 100//100
f 100//100 114//114 116//116
f 116//116 114//114 117//117
f 115//115 56//56 59//59
f 115//115 59//59 118//118
f 115//115 117//117 114//114
f 115//115 118//118 117//117
f 116//116 103//103 100//100
f 116//116 117//117 119//119
f 119//119 117//117 118//118
f 103//103 116//116 119//119
f 103//103 119//119 122//122
f 112//112 103//103 122//122
f 123//123 121//121 120//120
f 121//121 123//123 124//124
f 122//122 119//119 125//125
f 124//124 123//123 126//126
f 118//118 59//59 64//64
f 118//118 64//64 67//67
f 118//118 67//67 127//127
f 75//75 130//130 67//67
f 130//130 129//129 67//67
f 131//131 133//133 78//78
f 127//127 67//67 129//129
f 129//129 128//128 127//127
f 132//132 128//128 129//129
f 130//130 132//132 129//129
f 118//118 127//127 119//119
f 125//125 119//119 127//127
f 128//128 125//125 127//127
f 44//44 41//41 139//139
f 97//97 157//157 139//139
f 158//158 41//41 159//159
f 177//177 178//178 137//137
f 177//177 137//137 136//136
f 136//136 179//179 177//177
f 50//50 48//48 49//49
f 179//179 180//180 177//177
f 182//182 178//178 177//177
f 178//178 182//182 181//181
f 177//177 180//180 182//182
f 179//179 136//136 155//155
f 183//183 179//179 155//155
f 184//184 182//182 180//180
f 179//179 183//183 180//180
f 183//183 185//185 180//180
f 183//183 155//155 176//176
f 185//185 184//184 180//180
f 61//61 52//52 188//188
f 181//181 182//182 186//186
f 182//182 189//189 186//186
f 182//182 184//184 189//189
f 191//191 189//189 184//184
f 192//192 62//62 190//190
f 62//62 192//192 72//72
f 189//189 191//191 193//193
f 192//192 194//194 72//72
f 194//194 131//131 72//72
f 191//191 196//196 193//193
f 185//185 191//191 184//184
f 185//185 197//197 191//191
f 72//72 131//131 78//78
f 104//104 200//200 43//43
f 201//201 202//202 43//43
f 203//203 204//204 167//167
f 206//206 204//204 213//213
f 215//215 216//216 206//206
f 105//105 109//109 220//220
f 223//223 221//221 224//224
f 200//200 222//222 213//213
f 176//176 241//241 183//183
f 244//244 183//183 241//241
f 230//230 240//240 225//225
f 225//225 245//245 246//246
f 225//225 240//240 245//245
f 183//183 244//244 185//185
f 247//247 185//185 244//244
f 246//246 245//245 248//248
f 249//249 248//248 245//245
f 121//121 230//230 120//120
f 121//121 124//124 250//250
f 230//230 121//121 240//240
f 121//121 250//250 240//240
f 240//240 250//250 249//249
f 245//245 240//240 249//249
f 194//194 195//195 131//131
f 254//254 255//255 135//135
f 254//254 253//253 255//255
f 253//253 251//251 255//255
f 252//252 251//251 253//253
f 247//247 197//197 185//185
f 252//252 248//248 251//251
f 251//251 248//248 249//249
f 191//191 197//197 196//196
f 135//135 124//124 126//126
f 135//135 255//255 124//124
f 255//255 250//250 124//124
f 249//249 250//250 255//255
f 249//249 255//255 251//251
