# Created by Open3D 
# object name: textured
# number of vertices: 235
# number of triangles: 156
v 0.00567152 -0.0206902 0.00240224
vn -0.468291 -0.468379 -0.749216
v 0.00635856 -0.0243713 0.00462375
vn -0.452743 -0.798209 -0.397349
v 0.00213118 -0.0216376 0.00429801
vn 0 0 0
v 0.00567152 -0.0206902 0.00240224
vn 0 0 0
v 0.00567152 -0.0206902 0.00240224
vn 0 0 0
v 0.00487935 -0.0234484 0.00433217
vn 0 0 0
v 0.00539871 -0.0278836 0.0153242
vn -0.422016 -0.906388 0.0190529
v 0.000388629 -0.0222708 0.0066924
vn -0.610801 -0.621088 -0.491092
v -0.00749793 -0.0138696 0.0102328
vn -0.743475 -0.666777 -0.0515073
v -0.0115072 -0.00357855 0.00279179
vn -0.618696 -0.462667 -0.634945
v -0.0168812 -0.00359889 0.00957764
vn -0.837297 -0.477108 -0.267026
v 0.00567152 -0.0112493 -0.000392669
vn -0.0181491 -0.0278261 -0.999448
v 0.00567152 -0.0112493 -0.000392669
vn 0.00227836 -0.124255 -0.992248
v 0.000106711 -0.00682242 -0.000388278
vn -0.118209 -0.130978 -0.984313
v -0.00336951 -0.00180838 -0.000388278
vn -0.0843589 -0.0584858 -0.994718
v 0.00567152 -0.00180838 -0.00115502
vn 0.0166775 -0.00347501 -0.999855
v 0.00567152 -0.00180838 -0.00115502
vn 0 0 0
v 0.00328293 -0.00947624 -0.000388278
vn -0.144739 -0.192583 -0.970548
v 0.00567152 -0.0159697 0.000659224
vn -0.0765353 -0.216867 -0.973196
v -0.00376938 -0.0112493 0.00181973
vn -0.194053 -0.296499 -0.935111
v 0.00095107 -0.0112493 0.000311298
vn -0.14424 -0.209084 -0.967202
v 0.00567152 -0.0159697 0.000659224
vn 0 0 0
v 0.00567152 -0.0159697 0.000659224
vn -0.0702035 -0.298499 -0.951824
v 0.00095107 -0.0136095 0.00104371
vn 0 0 0
v -0.00376938 -0.00652884 0.000322995
vn -0.194053 -0.296499 -0.935111
v -0.00376938 -0.0112493 0.00181973
vn 0 0 0
v -0.0108501 -0.00416861 0.00243562
vn 0 0 0
v -0.00848983 0.000551845 0.000735949
vn -0.226028 -0.0100577 -0.974069
v -0.0108501 -0.00180838 0.00186034
vn -0.283531 -0.115247 -0.952013
v -0.00356944 -0.00114518 -0.000388278
vn -0.160971 -0.0214384 -0.986726
v -0.00376938 -0.00652884 0.000322995
vn -0.283531 -0.115247 -0.952013
v -0.00612961 -0.00652884 0.00114337
vn 0 0 0
v -0.00848983 -0.00180838 0.000813181
vn -0.418893 -0.0296969 -0.90755
v -0.00177213 -0.00416861 -0.000388278
vn 0 0 0
v 0.000889633 -0.0245343 0.012593
vn -0.722475 -0.691232 -0.0150961
v 0.00841213 -0.0257575 0.0256825
vn -0.277092 -0.923334 0.265845
v -0.00186875 -0.0201936 0.0329233
vn -0.520015 -0.83453 0.182052
v -0.0176064 -0.00416861 0.0184935
vn -0.749867 -0.661358 -0.0174701
v -0.0183492 -0.0021818 0.03354
vn -0.902813 -0.429197 0.026796
v -0.00748921 -0.0148985 0.03421
vn -0.725585 -0.681022 0.0986681
v 0.00095107 -0.0198726 0.0373753
vn -0.487819 -0.782002 0.387951
v 0.00272124 -0.0193818 0.0377745
vn 0.259161 -0.620023 0.740545
v 0.00803175 -0.0240622 0.029718
vn 0.28887 -0.752522 0.591832
v -0.0169298 -0.0029925 0.0379761
vn -0.704908 -0.551108 0.446525
v -0.0103378 -0.00426574 0.0444299
vn -0.665354 -0.458479 0.589153
v -0.00440304 -0.011766 0.0426433
vn -0.604068 -0.640647 0.473997
v -0.000819095 -0.0128695 0.0428438
vn 0.232446 -0.515597 0.824699
v 0.00513583 -0.0119973 0.0417106
vn 0.263227 -0.509677 0.81911
v 0.0052989 -0.0124294 0.0415237
vn 0.139206 -0.177261 0.974269
v 0.0033113 -0.011585 0.0420958
vn 0 0 0
v -0.0108501 0.000551845 0.0457759
vn -0.00828805 0.00551549 0.99995
v -0.00022904 -0.00927388 0.0441686
vn 0.208616 -0.184682 0.960402
v -0.00406441 -0.00284098 0.0457521
vn 0.109126 -0.0818446 0.990653
v 0.00776876 0.00248783 0.0438849
vn 0.219245 -0.0847728 0.97198
v -0.015952 0.00173196 0.00433217
vn 0 0 0
v -0.0132103 0.00291207 0.00250513
vn -0.363074 0.0811156 -0.928223
v -0.0132103 0.00291207 0.00250513
vn 0 0 0
v -0.0148816 0.00881264 0.00433217
vn 0 0 0
v -0.0108501 0.00763252 0.00199444
vn -0.363074 0.0811156 -0.928223
v -0.014553 0.00409218 0.00341865
vn -0.418893 -0.0296969 -0.90755
v -0.0157331 0.00607066 0.00433217
vn 0 0 0
v -0.0194782 0.00409218 0.00990544
vn -0.956732 -0.264699 -0.120824
v -0.0179307 0.00291207 0.0062383
vn 0 0 0
v -0.0194975 0.0052723 0.0101957
vn -0.923065 0.36817 -0.111363
v -0.0160654 0.00291207 0.00433217
vn 0 0 0
v -0.0179307 0.00409218 0.0062934
vn 0 0 0
v -0.0148366 0.00819628 0.00433217
vn -0.665341 0.382003 -0.641402
v -0.0138104 0.0110676 0.00433217
vn 0 0 0
v -0.0145778 0.0132855 0.00709466
vn -0.737432 0.498374 -0.455871
v -0.00376938 0.00763252 -5.57825e-05
vn -0.188031 0.169003 -0.967513
v -0.00117599 0.00763252 -0.000388278
vn -0.075279 0.0688321 -0.994784
v 0.00567152 0.00763252 -0.000606411
vn -0.0317861 0.0579826 -0.997811
v 0.00567152 -0.00180838 -0.00115502
vn -0.0249997 0.0347364 -0.999084
v 0.00717282 0.00839593 -0.000388278
vn 0 0 0
v 0.00567152 0.00763252 -0.000606411
vn 0.0791773 0.0578298 -0.995182
v -0.00376938 0.00334797 -0.000388278
vn -0.224542 0.0341035 -0.973867
v -0.00848983 0.00291207 0.000658718
vn -0.346258 0.0355855 -0.937464
v -0.00848983 0.00763252 0.00103313
vn -0.22236 0.122831 -0.967196
v -0.0122179 0.0135331 0.00433217
vn 0 0 0
v -0.00848983 0.0111729 0.0017262
vn -0.259928 0.293321 -0.92
v -0.0132103 0.00988751 0.00364395
vn 0 0 0
v -0.00376938 0.012353 0.00076878
vn -0.22159 0.167795 -0.960595
v -0.00745821 0.0193111 0.00606823
vn -0.582989 0.742476 -0.329929
v -0.00966997 0.0161841 0.00417071
vn 0 0 0
v -0.0111036 0.015004 0.00433217
vn 0 0 0
v -0.00376938 0.0170734 0.00227377
vn -0.259928 0.293321 -0.92
v -0.00376938 0.0147132 0.00152128
vn -0.155634 0.359309 -0.920149
v -0.00848983 0.0170734 0.00400925
vn 0 0 0
v -0.00376938 0.012353 0.00076878
vn -0.111837 0.248581 -0.962133
v 0.00095107 0.0106215 -6.8576e-05
vn -0.146031 0.20738 -0.967299
v 0.00095107 0.012353 0.000251126
vn -0.104338 0.289567 -0.951454
v 0.00567152 0.0107562 -6.5373e-05
vn 0.1022 0.278078 -0.955106
v 0.00095107 0.0170734 0.00168774
vn -0.104338 0.289567 -0.951454
v 0.00567152 0.0170734 0.00177388
vn 0 0 0
v 0.00095107 0.0170734 0.00168774
vn 0 0 0
v -0.00309153 0.0206238 0.00433217
vn 0 0 0
v -0.00494949 0.0181466 0.00330297
vn 0 0 0
v -0.00595402 0.0193268 0.00433217
vn 0 0 0
v -0.000985371 0.0228204 0.00644997
vn -0.403455 0.878848 -0.254659
v 0.00154113 0.0215376 0.00433217
vn -0.127701 0.461066 -0.878129
v 0.00331129 0.0170734 0.00173081
vn -0.00220451 0.421763 -0.906703
v 0.00685164 0.0201253 0.00394855
vn 0 0 0
v 0.00567152 0.0170734 0.00177388
vn 0.1022 0.278078 -0.955106
v -0.00376938 0.020476 0.00433217
vn 0 0 0
v 0.00095107 0.021647 0.00433217
vn 0 0 0
v -0.00140915 0.0215433 0.00456094
vn 0 0 0
v -0.00140915 0.0217939 0.00478972
vn 0 0 0
v 0.00095107 0.0217205 0.0043956
vn 0 0 0
v 0.00567152 0.0217939 0.0048434
vn 0 0 0
v 0.00567152 0.0215294 0.00458778
vn 0 0 0
v 0.00154113 0.0251621 0.0120029
vn -0.322931 0.94138 -0.0975688
v 0.00213118 0.0227246 0.00559491
vn 0.266773 0.810701 -0.521149
v 0.00891201 0.022704 0.00903387
vn 0.432114 0.872131 -0.229488
v 0.00198367 0.025113 0.0124253
vn 0.236514 0.952223 -0.193213
v -0.0199958 0.0052723 0.0326549
vn -0.933991 0.357187 -0.00882871
v -0.0161624 0.0137909 0.012593
vn -0.738896 0.671181 -0.059571
v -0.0174141 0.011943 0.0294096
vn -0.844806 0.533011 0.0469363
v -0.0196317 0.0042397 0.0345726
vn -0.978736 -0.201575 0.0379782
v -0.00533473 0.0230098 0.0139944
vn -0.525459 0.848533 -0.0623258
v 0.00272124 0.0254348 0.0196737
vn 0.296965 0.953468 -0.0520721
v 0.00198367 0.0254235 0.0217388
vn -0.283846 0.958825 -0.0092533
v -0.00901399 0.0202607 0.0356052
vn -0.638688 0.756958 0.138177
v -0.00376938 0.0238781 0.0350151
vn -0.3531 0.930488 0.0975369
v 0.0033113 0.025273 0.0270493
vn 0.28939 0.957021 0.0190615
v 0.00213118 0.0252944 0.0291145
vn -0.0571632 0.982259 0.178607
v -0.0188518 0.00763252 0.0373753
vn -0.813636 0.472831 0.338272
v -0.0134964 0.00409218 0.0447146
vn -0.697975 -0.28614 0.656472
v -0.0132103 0.0052723 0.0453402
vn -0.630802 0.362898 0.685853
v -0.0127192 0.0142415 0.0410462
vn -0.69351 0.569775 0.440909
v 0.00803175 0.012353 0.0450454
vn 0.0993194 0.0799329 0.99184
v -0.0120302 0.00645241 0.0454084
vn -0.0236053 0.141144 0.989708
v -0.00730972 0.0145544 0.0443284
vn -0.455391 0.632784 0.626261
v -0.00612961 0.0157242 0.0437247
vn -0.0363258 0.228524 0.97286
v 0.00567152 0.0170734 0.0435745
vn 0.195399 0.379492 0.904326
v 0.00272124 0.0251997 0.0314748
vn 0.25233 0.946643 0.200493
v -0.00022904 0.0217939 0.0409917
vn -0.314805 0.814885 0.486682
v 0.00851378 0.0225729 0.0363325
vn 0.519717 0.808359 0.276495
v 0.00276344 0.0208718 0.0416132
vn 0.191837 0.853822 0.483928
v 0.0128699 -0.0254106 0.00433217
vn 0 0 0
v 0.0118583 -0.0254878 0.00433217
vn 0 0 0
v 0.00921188 -0.0227083 0.00303276
vn -0.0272293 -0.344799 -0.938281
v 0.00567152 -0.0206902 0.00240224
vn 0 0 0
v 0.010392 -0.0206902 0.00173335
vn -0.01548 -0.483671 -0.875113
v 0.0109644 -0.0254106 0.00433217
vn -0.01548 -0.483671 -0.875113
v 0.0151124 -0.0206902 0.00164985
vn 0.08016 -0.412118 -0.907598
v 0.0151124 -0.0206902 0.00164985
vn 0 0 0
v 0.0162925 -0.0249596 0.00433217
vn 0 0 0
v 0.010392 -0.028123 0.00813704
vn -0.367501 -0.90233 -0.225265
v 0.0118583 -0.0265538 0.00558084
vn 0 0 0
v 0.0129276 -0.028037 0.0082361
vn 0.336114 -0.941821 0.000338544
v 0.0137637 -0.0254878 0.00433217
vn 0 0 0
v 0.0151124 -0.0272846 0.0066924
vn 0 0 0
v 0.0192799 -0.0255413 0.00763965
vn 0.588385 -0.808569 0.0043231
v 0.010392 -0.0253137 0.00433217
vn 0 0 0
v 0.00803175 -0.0250684 0.00462375
vn 0 0 0
v 0.0151124 -0.0253806 0.00435827
vn 0 0 0
v 0.0174726 -0.0206902 0.00210851
vn 0.0700285 -0.282154 -0.95681
v 0.0238216 -0.0200671 0.00491364
vn 0.777255 -0.613059 -0.141535
v 0.010392 -0.0143502 -7.2899e-05
vn -0.0328134 -0.240012 -0.970215
v 0.0151124 -0.0112493 -0.000447997
vn 0.0158202 -0.0548044 -0.998372
v 0.0178593 -0.0112493 -9.63685e-05
vn 0 0 0
v 0.0151124 -0.00180838 -0.000559617
vn 0.0285608 -0.046218 -0.998523
v 0.0173528 -0.00652884 -0.000388278
vn 0.238928 0.0496809 -0.969766
v 0.0151124 -0.000791554 -0.000473947
vn 0.143274 0.0752782 -0.986816
v 0.0151124 -0.0159697 0.000269944
vn 0.128621 -0.149115 -0.980419
v 0.0151124 -0.0139252 -5.9167e-05
vn 0.0700285 -0.282154 -0.95681
v 0.010392 -0.0127307 -0.000388278
vn 0 0 0
v 0.0198329 -0.0159697 0.000889227
vn 0.123495 -0.258069 -0.958201
v 0.0198329 -0.0206902 0.00256717
vn 0.180109 -0.329451 -0.926835
v 0.0198329 -0.0159697 0.000889227
vn 0.34697 -0.145984 -0.926445
v 0.0245533 -0.0159697 0.0026571
vn 0.34697 -0.145984 -0.926445
v 0.0245533 -0.00888907 0.00154138
vn 0.34697 -0.145984 -0.926445
v 0.0221931 -0.0112493 0.000878716
vn 0 0 0
v 0.0221931 -0.00652884 0.000804261
vn 0.238928 0.0496809 -0.969766
v 0.0198329 -0.00180838 0.00046459
vn 0.238928 0.0496809 -0.969766
v 0.0198329 -0.00180838 0.00046459
vn 0 0 0
v 0.0245533 -0.00416861 0.00190233
vn 0 0 0
v 0.027812 -0.0123432 0.0039134
vn 0.755026 -0.451621 -0.475368
v 0.0263501 -0.0124294 0.00294703
vn 0 0 0
v 0.0307204 -0.0117481 0.00796761
vn 0.778313 -0.589153 -0.21709
v 0.0291356 -0.010573 0.00433217
vn 0 0 0
v 0.0292738 -0.00821281 0.00432763
vn 0 0 0
v 0.0293283 -0.00939292 0.00433217
vn 0 0 0
v 0.0292738 -0.00652884 0.00432308
vn 0 0 0
v 0.0289803 -0.00531604 0.00433217
vn 0 0 0
v 0.02662 -0.0029885 0.00330798
vn 0 0 0
v 0.0298501 -0.00592046 0.00553408
vn 0.755482 0.515099 -0.404871
v 0.0245533 -0.00180838 0.0022838
vn 0.559333 0.413596 -0.718391
v 0.0293828 -0.00888906 0.00433217
vn 0 0 0
v 0.0319908 -0.00520064 0.0118541
vn 0.849047 0.526318 -0.0459107
v 0.010097 -0.0286199 0.0155432
vn -0.159019 -0.980641 0.114268
v 0.010392 -0.0287105 0.0149532
vn 0.259792 -0.95509 0.142516
v 0.0157323 -0.0270331 0.0164595
vn 0.438924 -0.884685 0.157091
v 0.0120779 -0.0257503 0.02511
vn 0.508643 -0.742908 0.435167
v 0.0235131 -0.0217045 0.016324
vn 0.66723 -0.731869 0.138463
v 0.010392 -0.0254106 0.0272436
vn 0 0 0
v 0.013138 -0.0174012 0.035695
vn 0.454091 -0.630742 0.629258
v 0.0291201 -0.0134247 0.023214
vn 0.683344 -0.603899 0.410301
v 0.0281712 -0.00770895 0.030257
vn 0.6653 -0.518953 0.536715
v 0.0304697 -0.0148403 0.013183
vn 0.830219 -0.556835 0.0259097
v 0.0326023 -0.008299 0.013183
vn 0.951417 -0.284638 0.117417
v 0.0252051 0.00399935 0.0333511
vn 0.840235 0.528224 0.122409
v 0.0309662 -0.00712803 0.0220339
vn 0.940382 -0.228482 0.251947
v 0.0296022 -0.00623381 0.0275813
vn 0.921258 0.211984 0.32611
v 0.0211058 -0.00745395 0.0385024
vn 0.513145 -0.484594 0.708414
v 0.0224435 -0.00166231 0.0397208
vn 0.571711 -0.293263 0.766252
v 0.0115721 -0.00357855 0.0435187
vn 0.0523506 -0.0274383 0.998252
v 0.0122444 -0.00655898 0.0425804
vn 0.321712 -0.447892 0.834203
v 0.020196 -0.00195734 0.0410303
vn 0.242141 0.0548797 0.968688
v 0.0283696 -0.00416861 0.0302947
vn 0 0 0
v 0.0252957 -0.000524404 0.0360356
vn 0.835145 0.33145 0.438945
v 0.0132469 0.00291207 -0.000388278
vn 0.0658175 0.0561965 -0.996248
v 0.010392 0.00689059 -0.000273959
vn 0.103557 0.0973487 -0.989848
v 0.0132469 0.00291207 -0.000388278
vn 0.0573334 0.0697577 -0.995915
v 0.0151124 0.00291207 -3.62098e-05
vn 0.295978 0.112116 -0.948592
v 0.0151124 0.00763252 0.000960081
vn 0 0 0
v 0.0151124 0.00763252 0.000960081
vn 0.217092 0.205884 -0.954192
v 0.0198329 0.00291207 0.00143667
vn 0.295978 0.112116 -0.948592
v 0.0221931 -0.00180838 0.00137419
vn 0 0 0
v 0.0140636 0.0159354 0.00433217
vn 0.67694 0.56879 -0.467152
v 0.010392 0.012353 0.000904649
vn 0.432314 0.351438 -0.830419
v 0.0263873 0.00389281 0.0124737
vn 0.804459 0.586875 -0.0917824
v 0.010392 0.012353 0.000904649
vn 0.172723 0.300494 -0.938014
v 0.010392 0.012353 0.000904649
vn 0.1022 0.278078 -0.955106
v 0.010392 0.0170734 0.00279768
vn 0.138499 0.368629 -0.919201
v 0.0151124 0.0135752 0.00353331
vn 0 0 0
v 0.0138904 0.0191862 0.0130355
vn 0.73121 0.678276 -0.0726238
v 0.0165335 0.0163573 0.0305159
vn 0.755116 0.653839 0.0479125
v 0.00865704 0.0237367 0.0230258
vn 0.531928 0.846584 0.0186434
v 0.0176041 0.0131766 0.0375162
vn 0.717673 0.557309 0.417555
v 0.0165014 0.00922782 0.041561
vn 0.321109 0.0548113 0.945455
v 0.0216087 0.00291207 0.0399608
vn 0.764533 0.415614 0.492701
v 0.0156883 0.0104609 0.0416771
vn 0.630752 0.484155 0.60642
v 0.00802069 0.0180298 0.0420243
vn 0.519985 0.62327 0.584081
v 0.00693604 0.01885 0.0420958
vn 0 0 0
f 7//7 8//8 2//2
f 1//1 2//2 8//8
f 14//14 15//15 16//16
f 1//1 8//8 10//10
f 23//23 21//21 13//13
f 29//29 30//30 31//31
f 11//11 8//8 9//9
f 8//8 11//11 10//10
f 20//20 25//25 14//14
f 12//12 21//21 18//18
f 35//35 9//9 8//8
f 8//8 7//7 35//35
f 37//37 35//35 7//7
f 37//37 7//7 36//36
f 39//39 11//11 38//38
f 38//38 11//11 9//9
f 41//41 37//37 36//36
f 39//39 38//38 40//40
f 39//39 40//40 44//44
f 40//40 35//35 37//37
f 40//40 9//9 35//35
f 40//40 37//37 41//41
f 40//40 38//38 9//9
f 41//41 46//46 40//40
f 44//44 40//40 46//46
f 48//48 47//47 42//42
f 45//45 44//44 46//46
f 51//51 52//52 53//53
f 52//52 54//54 53//53
f 52//52 49//49 54//54
f 11//11 62//62 10//10
f 69//69 67//67 64//64
f 71//71 72//72 16//16
f 71//71 73//73 30//30
f 60//60 77//77 33//33
f 59//59 77//77 56//56
f 76//76 30//30 28//28
f 76//76 77//77 78//78
f 82//82 70//70 78//78
f 86//86 87//87 80//80
f 67//67 69//69 83//83
f 71//71 70//70 89//89
f 71//71 87//87 90//90
f 93//93 91//91 89//89
f 100//100 101//101 87//87
f 113//113 112//112 114//114
f 62//62 11//11 39//39
f 64//64 116//116 69//69
f 117//117 64//64 115//115
f 117//117 116//116 64//64
f 39//39 118//118 62//62
f 116//116 83//83 69//69
f 119//119 83//83 116//116
f 99//99 83//83 119//119
f 111//111 99//99 119//119
f 120//120 113//113 114//114
f 119//119 121//121 111//111
f 122//122 119//119 116//116
f 121//121 119//119 123//123
f 118//118 39//39 44//44
f 117//117 115//115 126//126
f 122//122 116//116 117//117
f 127//127 44//44 45//45
f 129//129 126//126 128//128
f 126//126 129//129 117//117
f 122//122 117//117 129//129
f 51//51 53//53 130//130
f 53//53 54//54 130//130
f 128//128 132//132 129//129
f 130//130 131//131 51//51
f 131//131 130//130 133//133
f 134//134 133//133 130//130
f 123//123 119//119 122//122
f 123//123 125//125 121//121
f 123//123 136//136 125//125
f 132//132 122//122 129//129
f 136//136 122//122 132//132
f 123//123 122//122 136//136
f 137//137 135//135 138//138
f 144//144 143//143 145//145
f 2//2 148//148 7//7
f 159//159 13//13 160//160
f 162//162 160//160 12//12
f 162//162 13//13 16//16
f 23//23 159//159 141//141
f 159//159 19//19 13//13
f 168//168 169//169 145//145
f 168//168 157//157 166//166
f 168//168 165//165 160//160
f 172//172 171//171 170//170
f 174//174 163//163 175//175
f 158//158 178//178 180//180
f 191//191 7//7 148//148
f 192//192 150//150 193//193
f 194//194 192//192 193//193
f 150//150 153//153 193//193
f 195//195 153//153 158//158
f 195//195 193//193 153//153
f 191//191 36//36 7//7
f 194//194 193//193 195//195
f 194//194 195//195 198//198
f 197//197 194//194 198//198
f 158//158 180//180 195//195
f 200//200 195//195 180//180
f 201//201 200//200 180//180
f 198//198 200//200 201//201
f 198//198 195//195 200//200
f 198//198 201//201 203//203
f 198//198 203//203 199//199
f 43//43 194//194 197//197
f 197//197 42//42 43//43
f 199//199 197//197 198//198
f 197//197 199//199 205//205
f 205//205 199//199 206//206
f 48//48 42//42 197//197
f 48//48 197//197 208//208
f 205//205 208//208 197//197
f 207//207 54//54 49//49
f 205//205 206//206 208//208
f 212//212 164//164 16//16
f 213//213 214//214 16//16
f 213//213 73//73 75//75
f 164//164 215//215 218//218
f 221//221 220//220 188//188
f 217//217 213//213 223//223
f 101//101 225//225 223//223
f 224//224 92//92 103//103
f 222//222 220//220 227//227
f 188//188 220//220 187//187
f 222//222 187//187 220//220
f 190//190 187//187 222//222
f 112//112 113//113 220//220
f 220//220 113//113 227//227
f 228//228 222//222 227//227
f 190//190 222//222 202//202
f 228//228 202//202 222//222
f 120//120 229//229 113//113
f 229//229 227//227 113//113
f 229//229 120//120 124//124
f 228//228 227//227 229//229
f 202//202 228//228 230//230
f 230//230 211//211 202//202
f 211//211 230//230 232//232
f 233//233 232//232 230//230
f 54//54 207//207 209//209
f 231//231 54//54 209//209
f 234//234 233//233 230//230
f 130//130 54//54 231//231
f 134//134 130//130 231//231
f 202//202 211//211 204//204
f 229//229 124//124 135//135
f 137//137 228//228 229//229
f 137//137 230//230 228//228
f 137//137 229//229 135//135
f 230//230 137//137 234//234
f 138//138 234//234 137//137
