# Created by Open3D 
# object name: textured
# number of vertices: 191
# number of triangles: 156
v -0.0129164 -0.0104304 0.00734407
vn -0.619072 -0.751771 -0.227135
v -0.00684677 -0.0167062 0.0149166
vn -0.530331 -0.833662 -0.154134
v -0.00337405 -0.0144925 0.00502338
vn -0.370622 -0.852388 -0.368882
v 0.00393841 -0.018595 0.0109992
vn -0.17654 -0.955564 -0.236074
v -0.0164129 -0.00688459 0.00774819
vn -0.821569 -0.548695 -0.154787
v -0.0182562 -0.00171417 0.00834206
vn -0.942423 -0.317066 -0.10634
v -0.0159097 0.000132455 0.00445587
vn -0.909016 0.140497 -0.392366
v -0.019558 -0.00195682 0.0109992
vn -0.945072 0.198326 -0.259817
v -0.0176306 0.00718867 0.0109695
vn -0.885416 0.435817 -0.161559
v -0.0075526 -0.00613537 0.00192227
vn -0.201691 -0.184009 -0.962009
v -0.00611311 -0.00990262 0.00283112
vn -0.358896 -0.39634 -0.845049
v -0.0110894 -0.00613537 0.00286577
vn -0.251595 -0.21719 -0.943148
v -0.00128477 -0.0104563 0.00235939
vn 0.03142 -0.250903 -0.967502
v -0.00337405 -0.0108834 0.00264214
vn 0 0 0
v 0.00498305 -0.0108843 0.00246222
vn 0.0924015 -0.439609 -0.893424
v -0.00337405 -0.00613537 0.00143028
vn -0.115993 -0.126586 -0.98515
v -0.00337405 -0.00613537 0.00143028
vn -0.0295408 -0.0377424 -0.998851
v 0.000804503 -0.011018 0.00240813
vn -0.0994865 -0.519247 -0.848814
v -0.0119914 -0.00311029 0.00255734
vn -0.412444 -0.0875876 -0.906763
v -0.0117312 -0.00426376 0.00264214
vn -0.396599 -0.422453 -0.815011
v -0.0075526 -0.00195682 0.00138535
vn -0.147532 -0.058349 -0.987335
v -0.0075526 -0.00195682 0.00138535
vn -0.0501888 -0.0609078 -0.996881
v -0.0117312 0.00431101 0.00232205
vn 0 0 0
v -0.0136914 0.00222173 0.00301001
vn -0.55393 -0.106509 -0.825722
v -0.0117312 0.00222173 0.00214423
vn -0.224094 -0.0116673 -0.974498
v -0.0075526 0.000132455 0.00133208
vn 0 0 0
v -0.0075526 0.00222173 0.00127882
vn -0.0687953 0.0254703 -0.997306
v 0.000804503 0.00222173 0.00099092
vn 0.00893535 0.023093 -0.999693
v -0.00337405 -0.00613537 0.00143028
vn -0.0278489 -0.0385892 -0.998867
v 0.000804503 0.00222173 0.00099092
vn 0.00923476 0.0133519 -0.999868
v 0.000804503 -0.00613537 0.0013067
vn 0.00779602 -0.0830043 -0.996519
v -0.0075526 -0.0103139 0.00339807
vn -0.431716 -0.667631 -0.606539
v -0.0117312 -0.00613537 0.00308939
vn -0.573736 -0.491042 -0.655519
v -0.0117312 -0.0103139 0.00577817
vn -0.396599 -0.422453 -0.815011
v -0.00337405 -0.0144925 0.00502338
vn -0.0994865 -0.519247 -0.848814
v 0.000804503 -0.011722 0.00264214
vn 0.0806346 -0.576777 -0.812913
v 0.00289378 -0.0144925 0.00428875
vn -0.0994865 -0.519247 -0.848814
v -0.0159097 -0.00195682 0.00454917
vn 0 0 0
v -0.0159097 -0.0040461 0.00530664
vn -0.55393 -0.106509 -0.825722
v -0.00232941 -0.019512 0.0193563
vn -0.317743 -0.946556 -0.0554151
v -0.0164413 -0.00839327 0.0235349
vn -0.720368 -0.693408 0.015981
v -0.00975638 -0.0145834 0.0277134
vn -0.615743 -0.786245 0.0517532
v -0.00238675 -0.0190763 0.031892
vn -0.36732 -0.913033 0.177333
v -0.018613 -0.00544246 0.0226208
vn -0.907547 -0.419906 -0.00610688
v -0.0201946 -0.000588266 0.0224902
vn -0.950137 -0.310384 -0.0300286
v -0.0202935 -0.000210594 0.0201398
vn -0.97648 0.212873 -0.0342444
v -0.019378 -0.000912184 0.0355483
vn -0.920936 -0.381576 0.0792227
v -0.0107502 -0.0117729 0.0403748
vn -0.599753 -0.733662 0.319432
v 0.00255804 -0.018265 0.0371152
vn -0.0908273 -0.967438 0.23625
v -0.000717074 -0.0155174 0.0414267
vn -0.330426 -0.750484 0.572357
v -0.0168328 -0.0052979 0.0388866
vn -0.77894 -0.569971 0.261506
v -0.0195222 -0.000651024 0.0346342
vn -0.984145 0.143752 0.103898
v -0.0181005 0.000915934 0.0393534
vn -0.883474 0.336846 0.325591
v -0.0162116 0.00143825 0.0426952
vn -0.666706 0.398996 0.629528
v -0.0157038 -0.00117334 0.0431698
vn -0.601234 -0.490508 0.630809
v -0.0106088 -0.00520535 0.0448907
vn -0.455268 -0.518442 0.723843
v -0.00194584 -0.0113586 0.0442067
vn -0.36178 -0.589612 0.722131
v -0.00546332 -0.00822465 0.0452609
vn 0.0383946 -0.00527275 0.999249
v 0.000804503 -0.0124032 0.0439858
vn 0.0795609 -0.179853 0.980471
v -0.0127758 0.000954315 0.0449906
vn 0.00272411 0.0316083 0.999497
v -0.00598564 0.00953419 0.0447007
vn 0.0132922 0.0748774 0.997104
v 0.0035735 0.0075241 0.0447167
vn 0.0821395 0.0789731 0.993487
v -0.0159097 0.00640028 0.00553947
vn -0.797304 0.435063 -0.418362
v -0.0120401 0.0065984 0.00264214
vn 0 0 0
v -0.0075526 0.00640028 0.0015277
vn -0.0937539 0.0893847 -0.991575
v -0.0075526 0.00640028 0.0015277
vn -0.0869239 0.0944806 -0.991725
v -0.00988391 0.0105788 0.00293832
vn -0.262938 0.173688 -0.94905
v -0.0075526 0.0113331 0.00243046
vn -0.160804 0.2024 -0.96601
v -0.00337405 0.0105788 0.00171463
vn -0.0163053 0.154822 -0.987808
v -0.00337405 0.0105788 0.00171463
vn -0.0503088 0.116562 -0.991908
v 0.000804503 0.00222173 0.00099092
vn 0.0516506 0.035967 -0.998017
v 0.000804503 0.0127482 0.00208404
vn -0.0108333 0.210481 -0.977538
v -0.00337405 0.0105788 0.00171463
vn 0 0 0
v -0.00337405 0.0144778 0.00273527
vn -0.162955 0.400635 -0.90163
v -0.00145644 0.0147574 0.00264214
vn 0 0 0
v 0.00289378 0.0105788 0.00167497
vn 0.0153869 0.160682 -0.986886
v -0.00145644 0.0147574 0.00264214
vn -0.00617251 0.219387 -0.975618
v -0.0159097 0.00640028 0.00553947
vn 0 0 0
v -0.0117312 0.00888579 0.0032345
vn -0.442194 0.548266 -0.709837
v -0.00980521 0.0169418 0.00825706
vn -0.658462 0.636482 -0.401644
v -0.0075526 0.0147574 0.00385884
vn -0.192586 0.504346 -0.841752
v -0.0075526 0.0147574 0.00385884
vn 0 0 0
v -0.00286524 0.0216285 0.0091754
vn -0.360663 0.841479 -0.402288
v -0.00128477 0.0189359 0.00492841
vn -0.138798 0.446325 -0.884042
v 0.00289378 0.0189359 0.0048603
vn 0 0 0
v -0.00225521 0.0199805 0.00603911
vn 0 0 0
v 0.00263262 0.019366 0.00528514
vn 0.33666 0.823498 -0.45663
v -0.00128477 0.0230368 0.0113255
vn 0.0432018 0.99374 -0.103029
v -0.0182056 0.00786634 0.022882
vn -0.842151 0.538735 -0.0233692
v -0.0188894 0.00585146 0.0316308
vn -0.912344 0.381698 0.148106
v -0.0113851 0.0164739 0.0339813
vn -0.733526 0.661389 0.156541
v -0.00751566 0.020826 0.0146555
vn -0.677559 0.73424 -0.0424946
v 0.000100344 0.0231145 0.0109992
vn 0 0 0
v -0.00125995 0.0233266 0.0224307
vn -0.29731 0.954658 0.0153427
v 0.00353934 0.0232535 0.015439
vn 0.258176 0.961701 -0.092068
v -0.00123514 0.0224561 0.0334687
vn -0.073591 0.991326 0.108892
v -0.00529662 0.0213448 0.0330672
vn -0.472715 0.874971 0.10472
v -0.0142373 0.00873283 0.0401628
vn -0.70762 0.540944 0.454592
v -0.00702029 0.0133059 0.0432353
vn -0.560534 0.584161 0.58699
v -0.00128477 0.0213175 0.0386756
vn -0.489434 0.754882 0.436586
v -0.00389637 0.0158217 0.0428643
vn 0.0531055 0.262879 0.963366
v 0.00453031 0.0151102 0.0425995
vn 0.0834758 0.258103 0.962504
v -0.00128477 0.0176323 0.0423384
vn -0.387898 0.649752 0.653725
v -0.00337405 0.0147574 0.0436703
vn 0 0 0
v -0.00445546 0.0163069 0.0423384
vn 0 0 0
v 0.000192481 0.0174124 0.0423384
vn 0.233847 0.723138 0.649913
v 0.00184914 0.0221711 0.0360706
vn 0.263052 0.918653 0.294754
v 0.00393841 -0.0157394 0.0055932
vn 0.404289 -0.784154 -0.470801
v 0.00393841 -0.0157394 0.0055932
vn 0 0 0
v 0.00916161 -0.0124032 0.00452172
vn 0.505949 -0.728221 -0.462287
v 0.00729698 -0.0175672 0.0115216
vn 0.462086 -0.865836 -0.191846
v 0.0124187 -0.0140309 0.0109704
vn 0.765137 -0.620816 -0.170741
v 0.00776197 -0.0103139 0.00264214
vn 0 0 0
v 0.00498305 -0.00613537 0.0014424
vn 0.108719 -0.185203 -0.976668
v 0.00498305 -0.00613537 0.0014424
vn 0.0526446 -0.0276057 -0.998232
v 0.00916161 -0.00939532 0.00264214
vn 0 0 0
v 0.00707233 -0.00613537 0.00168171
vn 0 0 0
v 0.00776197 -0.0103139 0.00264214
vn 0.105797 -0.208784 -0.972222
v 0.0108789 -0.00613537 0.00244724
vn 0.202134 -0.142452 -0.968942
v 0.0125048 -0.0040461 0.00264214
vn 0.485232 -0.301038 -0.82093
v 0.00916161 -0.00985461 0.00279607
vn 0.485232 -0.301038 -0.82093
v 0.00916161 -0.00195682 0.00163188
vn 0.0660869 -0.0208502 -0.997596
v 0.00916161 -0.00195682 0.00163188
vn 0.199338 -0.068413 -0.97754
v 0.00916161 0.000132455 0.00166264
vn 0.231726 0.0605459 -0.970895
v 0.00916161 0.00222173 0.0016934
vn 0.165673 0.0498047 -0.984922
v 0.0129969 0.000132455 0.00264214
vn 0.247427 0.0142635 -0.968802
v 0.00707233 -0.0144925 0.00522958
vn 0.0806346 -0.576777 -0.812913
v 0.0133402 -0.00822464 0.00458759
vn 0.699906 -0.575736 -0.422682
v 0.0133402 -0.0103139 0.00587037
vn 0 0 0
v 0.0171869 -0.00385572 0.00616806
vn 0.863535 -0.413415 -0.288783
v 0.0133402 -0.00613537 0.00330481
vn 0 0 0
v 0.0131575 -0.00195682 0.00264214
vn 0 0 0
v 0.0154294 -0.00195682 0.00410699
vn 0 0 0
v 0.0130882 0.00222173 0.00272277
vn 0.387373 0.0658993 -0.919565
v 0.0154294 0.000132455 0.00395621
vn 0 0 0
v 0.0154294 -0.00195682 0.00410699
vn 0 0 0
v 0.0175187 0.00222173 0.00521388
vn 0.489093 0.0642401 -0.869863
v 0.0194681 0.00378869 0.00850824
vn 0.961797 -0.00081449 -0.273762
v 0.00315494 -0.0198675 0.0251018
vn 0.296166 -0.955042 0.0134
v 0.00315494 -0.0198675 0.0251018
vn -0.0153813 -0.999746 0.0164885
v 0.00712519 -0.0186133 0.0267408
vn 0.422052 -0.904966 0.0539365
v 0.0105943 -0.0165818 0.0235349
vn 0.746921 -0.664783 -0.013118
v 0.0184665 -0.00671211 0.0332081
vn 0.856293 -0.509757 0.0831318
v 0.0218941 -0.000683104 0.0170448
vn 0.916211 -0.39739 -0.0513658
v 0.0218401 0.00475021 0.0224902
vn 0.998047 -0.0606606 -0.0148999
v 0.00432719 -0.0181514 0.0355228
vn 0.398191 -0.854698 0.333069
v 0.0108573 -0.0151362 0.0329206
vn 0.643997 -0.726832 0.238712
v 0.00393842 -0.0124922 0.0432401
vn 0.347363 -0.587359 0.730992
v 0.00933448 -0.01255 0.0406295
vn 0.517704 -0.632272 0.57638
v 0.00748584 -0.00789858 0.0442699
vn 0.0950912 -0.0288901 0.995049
v 0.0169349 -0.0053284 0.0393864
vn 0.696314 -0.536898 0.476327
v 0.0133402 -0.00300146 0.043413
vn 0.5009 -0.400601 0.767214
v 0.0147877 0.000953074 0.0433165
vn 0.182489 0.0686329 0.98081
v 0.0198438 0.00222173 0.040553
vn 0.942803 -0.266157 0.200708
v 0.0211429 0.00339755 0.0365929
vn 0.584379 -0.810012 -0.0488022
v 0.0184534 0.00378869 0.0414847
vn 0.327128 0.176796 0.928294
v 0.00498305 0.0105788 0.00177624
vn 0.0482951 0.069486 -0.996413
v 0.00498305 0.0105788 0.00177624
vn 0.0878228 0.0495801 -0.994901
v 0.00916161 0.00640028 0.00193686
vn 0.0878228 0.0495801 -0.994901
v 0.00916161 0.00640028 0.00193686
vn 0.0836216 0.0579619 -0.99481
v 0.00916161 0.00848954 0.0021838
vn 0.242145 0.0766628 -0.967207
v 0.012184 0.00640028 0.00277487
vn 0.33065 0.0776304 -0.940555
v 0.00948831 0.0111249 0.00261571
vn 0.271553 0.122783 -0.954559
v 0.00387385 0.0147574 0.00264214
vn -0.0893421 0.390932 -0.916073
v 0.00707233 0.0130422 0.00264214
vn 0 0 0
v 0.00498305 0.0168467 0.00392703
vn 0 0 0
v 0.0133402 0.00640028 0.00317305
vn 0.489093 0.0642401 -0.869863
v 0.0175187 0.00640028 0.00582239
vn 0.494269 0.0842183 -0.86522
v 0.0133402 0.0105788 0.00384209
vn 0 0 0
v 0.0181436 0.00953418 0.00786533
vn 0.8475 0.40703 -0.340691
v 0.0112509 0.0126681 0.0037536
vn 0.502718 0.433055 -0.748156
v 0.0133402 0.0105788 0.00384209
vn 0.494269 0.0842183 -0.86522
v 0.0187832 0.00431101 0.00682069
vn 0.784266 0.212616 -0.582856
v 0.00707233 0.0130422 0.00264214
vn 0 0 0
v 0.00916161 0.0147574 0.00366511
vn 0 0 0
v 0.011831 0.016088 0.00667738
vn 0.48274 0.764096 -0.427925
v 0.016727 0.0139358 0.0112604
vn 0.728155 0.678562 -0.0966655
v 0.009074 0.0208543 0.0162225
vn 0.579397 0.814404 -0.0323393
v 0.0181509 0.00535564 0.00632154
vn 0 0 0
v 0.0216186 0.00431101 0.0146555
vn 0.952881 0.294216 -0.0738508
v 0.0178393 0.0130126 0.031892
vn 0.704798 0.698487 0.123999
v 0.00813984 0.0203165 0.0318949
vn 0.490107 0.862703 0.124657
v 0.0199245 0.0103521 0.0249085
vn 0.910594 0.412278 0.0290765
v 0.0175187 0.00640028 0.0412813
vn 0.745474 0.533617 0.399401
v 0.0112133 0.0159678 0.0381249
vn 0.508293 0.696531 0.506441
v 0.0104305 0.0106937 0.0429969
vn 0.211305 0.171761 0.96221
v 0.00972494 0.0120111 0.0425999
vn 0.424731 0.603485 0.674841
v 0.0165014 0.00535564 0.0423384
vn 0 0 0
v 0.0175187 0.00640028 0.0412813
vn 0 0 0
v 0.00948964 0.0127722 0.0424023
vn 0 0 0
v 0.0207167 0.00431101 0.0381598
vn 0.922507 0.36904 0.113094
f 3//3 2//2 1//1
f 4//4 2//2 3//3
f 8//8 9//9 7//7
f 10//10 11//11 12//12
f 10//10 12//12 21//21
f 19//19 25//25 21//21
f 27//27 28//28 21//21
f 10//10 22//22 16//16
f 29//29 22//22 30//30
f 31//31 17//17 30//30
f 33//33 1//1 5//5
f 20//20 11//11 34//34
f 1//1 32//32 3//3
f 37//37 35//35 18//18
f 39//39 24//24 19//19
f 40//40 2//2 4//4
f 2//2 42//42 41//41
f 2//2 40//40 42//42
f 43//43 42//42 40//40
f 1//1 41//41 5//5
f 41//41 44//44 5//5
f 5//5 44//44 6//6
f 44//44 45//45 6//6
f 46//46 9//9 8//8
f 45//45 44//44 47//47
f 2//2 41//41 1//1
f 42//42 43//43 48//48
f 50//50 48//48 43//43
f 43//43 49//49 50//50
f 44//44 41//41 51//51
f 44//44 51//51 47//47
f 41//41 42//42 48//48
f 41//41 48//48 51//51
f 51//51 48//48 56//56
f 48//48 50//50 56//56
f 57//57 56//56 50//50
f 51//51 56//56 55//55
f 60//60 58//58 61//61
f 9//9 63//63 7//7
f 27//27 25//25 66//66
f 68//68 65//65 67//67
f 68//68 69//69 66//66
f 70//70 28//28 66//66
f 27//27 65//65 30//30
f 71//71 69//69 72//72
f 70//70 68//68 74//74
f 76//76 69//69 77//77
f 80//80 79//79 63//63
f 63//63 9//9 80//80
f 80//80 83//83 79//79
f 74//74 81//81 84//84
f 9//9 46//46 89//89
f 89//89 46//46 90//90
f 9//9 89//89 92//92
f 9//9 92//92 80//80
f 89//89 91//91 92//92
f 83//83 80//80 92//92
f 92//92 94//94 83//83
f 88//88 96//96 95//95
f 92//92 97//97 94//94
f 52//52 90//90 46//46
f 90//90 52//52 53//53
f 53//53 98//98 90//90
f 98//98 53//53 54//54
f 90//90 91//91 89//89
f 98//98 91//91 90//90
f 98//98 54//54 99//99
f 91//91 98//98 100//100
f 99//99 100//100 98//98
f 61//61 62//62 101//101
f 101//101 62//62 102//102
f 103//103 100//100 99//99
f 92//92 91//91 97//97
f 97//97 100//100 94//94
f 97//97 91//91 100//100
f 107//107 96//96 106//106
f 62//62 61//61 58//58
f 108//108 110//110 111//111
f 112//112 111//111 110//110
f 31//31 114//114 13//13
f 15//15 114//114 118//118
f 119//119 120//120 121//121
f 31//31 28//28 115//115
f 71//71 122//122 115//115
f 119//119 114//114 123//123
f 125//125 126//126 123//123
f 127//127 36//36 15//15
f 112//112 110//110 128//128
f 112//112 128//128 130//130
f 4//4 140//140 40//40
f 111//111 142//142 141//141
f 112//112 142//142 111//111
f 111//111 141//141 139//139
f 40//40 140//140 43//43
f 130//130 144//144 112//112
f 130//130 138//138 144//144
f 112//112 144//144 142//142
f 144//144 143//143 142//142
f 49//49 43//43 140//140
f 139//139 141//141 146//146
f 141//141 147//147 146//146
f 142//142 147//147 141//141
f 146//146 149//149 148//148
f 149//149 146//146 147//147
f 142//142 143//143 147//147
f 150//150 58//58 59//59
f 151//151 149//149 147//147
f 147//147 143//143 151//151
f 152//152 148//148 149//149
f 152//152 149//149 151//151
f 151//151 154//154 152//152
f 144//144 154//154 143//143
f 144//144 145//145 154//154
f 145//145 155//155 154//154
f 143//143 154//154 151//151
f 150//150 62//62 58//58
f 150//150 153//153 62//62
f 76//76 157//157 30//30
f 158//158 159//159 30//30
f 125//125 28//28 160//160
f 161//161 162//162 124//124
f 125//125 162//162 134//134
f 161//161 163//163 162//162
f 134//134 167//167 137//137
f 162//162 172//172 168//168
f 173//173 171//171 170//170
f 84//84 164//164 72//72
f 176//176 171//171 87//87
f 170//170 171//171 176//176
f 170//170 176//176 177//177
f 178//178 177//177 176//176
f 170//170 180//180 173//173
f 87//87 95//95 176//176
f 176//176 95//95 178//178
f 177//177 178//178 181//181
f 138//138 145//145 144//144
f 183//183 180//180 170//170
f 170//170 177//177 183//183
f 181//181 183//183 177//177
f 95//95 87//87 88//88
f 178//178 95//95 182//182
f 181//181 178//178 182//182
f 181//181 185//185 184//184
f 181//181 182//182 185//185
f 156//156 186//186 153//153
f 62//62 186//186 102//102
f 187//187 185//185 106//106
f 187//187 184//184 185//185
f 180//180 183//183 191//191
f 183//183 184//184 191//191
f 183//183 181//181 184//184
f 95//95 96//96 107//107
f 107//107 182//182 95//95
f 182//182 107//107 185//185
f 106//106 185//185 107//107
f 153//153 186//186 62//62
