# Created by Open3D 
# object name: textured
# number of vertices: 243
# number of triangles: 154
v -0.0163646 -0.00634912 0.0129081
vn -0.605819 -0.669304 -0.430134
v -0.00310747 -0.0124912 0.0127417
vn -0.151372 -0.891795 -0.426366
v -0.0125384 -0.0126524 0.0209694
vn -0.507621 -0.829487 -0.232965
v -0.006844 -0.00812099 0.00863034
vn -0.13357 -0.358255 -0.924019
v -0.00471404 -0.00869529 0.00863034
vn 0 0 0
v 0.000426982 -0.00847782 0.00799551
vn 0.0412679 -0.344681 -0.937812
v -0.00214353 -0.00917775 0.00863034
vn 0 0 0
v -0.00214353 -0.00555048 0.00695567
vn -0.0992758 -0.409345 -0.906963
v -0.00471404 -0.0096934 0.00946792
vn 0 0 0
v -0.00214353 -0.00993463 0.00923805
vn 0 0 0
v -0.00471404 -0.0096934 0.00946792
vn 0 0 0
v 0.005568 -0.0114114 0.0103752
vn 0.0192319 -0.934345 -0.355849
v -0.00471404 -0.0106915 0.0103055
vn 0 0 0
v -0.00214353 -0.00993463 0.00923805
vn 0 0 0
v 0.000426982 -0.0095483 0.00863034
vn 0 0 0
v 0.000426982 -0.0101199 0.00908381
vn 0 0 0
v -0.00214353 -0.0106915 0.00984575
vn 0 0 0
v -0.0188519 -0.000452508 0.00955732
vn -0.559349 -0.575151 -0.596934
v -0.0266913 0.0053742 0.0176271
vn -0.852115 -0.499734 -0.155455
v -0.0206437 0.00794471 0.00839054
vn -0.31703 -0.102312 -0.942881
v -0.0205647 0.00730208 0.00839054
vn 0 0 0
v -0.0201371 0.0184925 0.00847272
vn 0 0 0
v -0.0207673 0.0124431 0.00829452
vn 0 0 0
v -0.0262957 0.00551 0.0163419
vn -0.95145 -0.284053 -0.118561
v -0.0230477 0.00473157 0.0108351
vn 0 0 0
v -0.0201371 0.00416486 0.00863034
vn -0.329808 -0.0991958 -0.938822
v -0.0186648 0.000875803 0.0087733
vn 0 0 0
v -0.0196967 0.00316296 0.00863034
vn 0 0 0
v -0.0216872 0.0053742 0.00954977
vn 0 0 0
v -0.0227076 0.00987259 0.00959055
vn 0 0 0
v -0.0233834 0.00730208 0.0105381
vn 0 0 0
v -0.0230477 0.00858734 0.0103555
vn -0.775465 0.0746735 -0.62696
v -0.0275163 0.0124431 0.0163419
vn -0.92574 0.16891 -0.338341
v -0.0242512 0.00858734 0.0112009
vn 0 0 0
v -0.0235755 0.0111578 0.0103555
vn 0 0 0
v -0.0220303 0.0118005 0.00907027
vn 0 0 0
v -0.0124256 -0.00297997 0.00764543
vn -0.146966 -0.337674 -0.929719
v -0.0151445 -0.00312136 0.00863034
vn 0 0 0
v -0.0110407 -0.00624501 0.00863034
vn 0 0 0
v -0.012326 -0.00547982 0.00863034
vn 0 0 0
v -0.0111403 -0.00419457 0.0077189
vn 0 0 0
v -0.0149961 -0.00312136 0.00855687
vn 0 0 0
v -0.0162814 0.000832749 0.0077194
vn 0 0 0
v -0.0137108 0.00216106 0.00651744
vn -0.338075 -0.0971617 -0.93609
v -0.0151445 -0.00297997 0.00855687
vn 0 0 0
v -0.00728455 -0.00297997 0.00646744
vn 0 0 0
v -0.0192563 0.00216106 0.00863034
vn 0 0 0
v -0.018885 -0.000409454 0.00955732
vn 0 0 0
v -0.00214353 -0.00297997 0.00602009
vn -0.146966 -0.337674 -0.929719
v -0.0085698 0.00216106 0.00550776
vn 0 0 0
v -0.00471404 0.00216106 0.00509788
vn -0.0193299 -0.0268487 -0.999453
v 0.000426982 -0.000409455 0.0054556
vn 0.0748789 -0.299429 -0.951176
v -0.0149961 0.00987259 0.0061812
vn -0.304901 -0.0289031 -0.951945
v -0.0124256 0.00730208 0.00569703
vn -0.145726 -0.0972944 -0.984529
v -0.0201371 0.0124431 0.0079587
vn -0.318509 0.0183446 -0.947742
v -0.0149961 0.0150136 0.00628071
vn -0.318509 0.0183446 -0.947742
v -0.00985506 0.00987259 0.00514349
vn 0 0 0
v -0.00985506 0.0124431 0.0051188
vn -0.0769987 -0.00698459 -0.997007
v 0.000426982 0.0124431 0.00472224
vn -0.000993448 0.0245177 -0.999699
v -0.00985506 0.00730208 0.00516818
vn -0.0334467 -0.0197827 -0.999245
v -0.00471404 0.00216106 0.00509788
vn -0.0334467 -0.0197827 -0.999245
v 0.000426982 0.0124431 0.00472224
vn 0.0319293 0.015776 -0.999366
v 0.000426982 0.00216106 0.00499845
vn 0.0168734 -0.0268499 -0.999497
v -0.0212691 -0.00536251 0.0229046
vn -0.804474 -0.586986 -0.0909397
v -0.0059993 -0.0158041 0.0232125
vn -0.267803 -0.961877 -0.0554439
v 0.00171224 -0.0171621 0.0263026
vn 0.00852622 -0.994696 -0.102502
v -0.0139947 -0.0118474 0.0320862
vn -0.570223 -0.810547 0.133637
v -0.0224462 -0.00401837 0.03353
vn -0.780742 -0.590418 0.204569
v -0.00739137 -0.013983 0.0378699
vn -0.343753 -0.865468 0.364417
v -0.00182222 -0.0150801 0.0383777
vn -0.0671876 -0.920102 0.385874
v -0.0286067 0.0118005 0.0269452
vn -0.996756 -0.0784253 0.0180555
v -0.0261623 0.00601682 0.0362547
vn -0.906469 -0.37923 0.185738
v -0.0257199 0.00504325 0.0381912
vn -0.95689 -0.230044 0.17732
v -0.0272819 0.0150136 0.036906
vn -0.930787 0.111088 0.348274
v -0.0149961 -0.00555048 0.0451863
vn -0.516015 -0.702209 0.490542
v -0.00278616 -0.0071037 0.0488207
vn -0.24758 -0.668362 0.701424
v 0.00685326 -0.00707126 0.0486992
vn 0.0570545 -0.811428 0.581661
v -0.0195238 -0.000409454 0.0446175
vn -0.616135 -0.397822 0.679791
v -0.0223802 0.00858734 0.0453384
vn -0.734289 -0.0441806 0.677398
v -0.0207676 0.00987259 0.047787
vn -0.683026 -0.289354 0.670634
v -0.0203894 0.0188693 0.0476158
vn -0.644473 0.265449 0.717072
v -0.0205695 0.00730208 0.047188
vn 0 0 0
v -0.00728455 0.00169782 0.0525053
vn -0.430342 -0.443463 0.786223
v -0.00728455 0.00128681 0.0523439
vn -0.0956803 -0.439885 0.892943
v 0.00621063 -0.00707126 0.0488176
vn 0.241461 -0.355098 0.903107
v 0.000863888 0.00474687 0.0549216
vn 0.0525067 -0.270054 0.961412
v -0.00985506 0.00987259 0.0545269
vn -0.483032 -0.328147 0.811788
v -0.00781516 0.0137283 0.0547132
vn -0.464157 0.0822631 0.881924
v -0.0084849 0.006696 0.0540251
vn -0.220333 -0.0992926 0.970358
v -0.00694493 0.00744827 0.0548468
vn 0 0 0
v -0.00314613 0.0150136 0.0554393
vn 0.0473787 0.0995264 0.993906
v -0.0209726 0.0162989 0.00863034
vn 0 0 0
v -0.0201371 0.0201546 0.00880362
vn 0 0 0
v -0.0219645 0.0150136 0.0091268
vn 0 0 0
v -0.0191732 0.0237325 0.00970269
vn -0.733742 0.376348 -0.565673
v -0.0227076 0.0188693 0.0103781
vn 0 0 0
v -0.0219645 0.0150136 0.0091268
vn 0 0 0
v -0.0227076 0.0175841 0.010001
vn 0 0 0
v -0.0240192 0.0236843 0.0165727
vn -0.800364 0.489052 -0.346765
v -0.0149961 0.0175841 0.00642491
vn 0 0 0
v -0.0149961 0.0150136 0.00628071
vn -0.264868 0.152185 -0.9522
v -0.00985506 0.0175841 0.00537817
vn -0.0384907 0.0503499 -0.99799
v -0.00985506 0.0175841 0.00537817
vn -0.0678736 0.124064 -0.98995
v -0.0193384 0.021063 0.00863034
vn 0 0 0
v -0.0159492 0.0240104 0.00798373
vn -0.264868 0.152185 -0.9522
v -0.00985506 0.0227251 0.00608314
vn -0.253084 0.19451 -0.947689
v -0.00985506 0.0201546 0.00573066
vn 0 0 0
v -0.0201371 0.0227251 0.0096217
vn 0 0 0
v -0.0124256 0.0227251 0.00665321
vn -0.103014 0.190614 -0.976245
v -0.00214353 0.0227251 0.00556824
vn -0.0449722 0.219386 -0.974601
v -0.00471404 0.0252956 0.00617174
vn -0.00920052 0.108429 -0.994062
v 0.000426982 0.0124431 0.00472224
vn 0.0885815 -0.00891264 -0.996029
v -0.0171237 0.0247399 0.00863034
vn 0 0 0
v -0.0149961 0.0227251 0.00722327
vn 0 0 0
v -0.0141101 0.0278662 0.00863034
vn -0.229672 0.272796 -0.934255
v -0.0145531 0.0274614 0.00863034
vn -0.295417 0.468056 -0.832858
v -0.00985506 0.0293214 0.00800923
vn -0.25254 0.338323 -0.906511
v -0.00985506 0.031892 0.00945382
vn -0.295417 0.468056 -0.832858
v -0.0175666 0.0278662 0.0105887
vn 0 0 0
v -0.00982278 0.0347489 0.01314
vn -0.535199 0.730313 -0.424506
v -0.00985506 0.031892 0.00945382
vn 0 0 0
v -0.0149961 0.0304367 0.0107377
vn 0 0 0
v -0.00471404 0.0278662 0.00676882
vn -0.0195907 0.383404 -0.923373
v 0.000426982 0.0278662 0.00670476
vn 0.11474 0.259322 -0.958951
v 0.00299749 0.0227251 0.00574572
vn 0.0333465 0.25661 -0.96594
v 0.000426982 0.0302933 0.00766755
vn 0.0131252 0.305869 -0.951983
v -0.00471404 0.0323494 0.00863034
vn -0.0195907 0.383404 -0.923373
v 0.000426982 0.0302933 0.00766755
vn 0 0 0
v -0.0059993 0.0348693 0.0114026
vn 0 0 0
v -0.00471404 0.0330072 0.00903371
vn -0.00115601 0.740796 -0.671729
v -0.00708374 0.0376026 0.0156993
vn -0.105492 0.95029 -0.29295
v -0.0265157 0.0223042 0.0308896
vn -0.926443 0.374466 0.0384448
v -0.0228138 0.029215 0.0254981
vn -0.800731 0.598365 -0.0280793
v -0.016782 0.0343325 0.0371034
vn -0.628122 0.739576 0.241849
v -0.0168947 0.0347377 0.0214829
vn -0.57368 0.800267 -0.174539
v -0.00728455 0.0401926 0.0266239
vn -0.420426 0.892845 -0.161461
v 0.00621063 0.0373202 0.0137714
vn 0.0910148 0.896833 -0.432906
v -0.00566951 0.040074 0.0336928
vn -0.113321 0.976709 0.182205
v 0.00299749 0.0413359 0.0279091
vn -0.00238719 0.99162 -0.129168
v -0.00619379 0.0401745 0.0336928
vn -0.442678 0.878666 0.178836
v 0.00685326 0.0400221 0.0352516
vn 0.144522 0.944915 0.293682
v -0.0226447 0.0250919 0.0389683
vn -0.748562 0.477389 0.460168
v -0.00909711 0.0328137 0.0465175
vn -0.544869 0.623084 0.561145
v -0.00885995 0.0272187 0.0507163
vn -0.457711 0.324687 0.827695
v -0.0085698 0.027744 0.0505259
vn 0.118351 0.445949 0.887199
v -0.00460203 0.0203375 0.0537194
vn -0.046879 0.381355 0.923239
v -0.000215647 0.0245103 0.0513486
vn 0.338747 0.426242 0.83879
v -0.000292961 0.0175841 0.0548995
vn 0.338747 0.426242 0.83879
v -0.00664192 0.033642 0.0466553
vn 0.017908 0.857336 0.514445
v 0.00344745 0.0315742 0.0480228
vn 0.228841 0.699914 0.676574
v 0.005568 -0.00910914 0.0084742
vn 0.168962 -0.35437 -0.919714
v 0.00299749 -0.0101967 0.00901844
vn 0 0 0
v 0.00299749 -0.00970197 0.00863034
vn 0 0 0
v 0.00789185 -0.00861506 0.00855227
vn 0.0620979 -0.374862 -0.924998
v 0.0132178 -0.0080334 0.00974067
vn 0 0 0
v 0.0119943 -0.0145305 0.0189124
vn 0.0885481 -0.968438 -0.232994
v 0.01585 -0.00812099 0.010851
vn 0.490763 -0.74979 -0.443809
v 0.010709 -0.00812099 0.0087555
vn 0.206681 -0.836763 -0.507061
v 0.0081385 -0.000409455 0.00606267
vn 0.135334 -0.196665 -0.971086
v 0.005568 -0.00297997 0.0061126
vn 0.0620979 -0.374862 -0.924998
v 0.0132795 -0.000409455 0.00707988
vn 0 0 0
v 0.005568 -0.00297997 0.0061126
vn 0.168962 -0.35437 -0.919714
v 0.0132795 -0.00328785 0.00764792
vn 0.168962 -0.35437 -0.919714
v 0.005568 0.00216106 0.00527146
vn 0.0743861 -0.0160675 -0.9971
v 0.0081385 0.00216106 0.0056421
vn 0.253125 -0.131988 -0.958388
v 0.010709 -0.0054337 0.00774092
vn 0 0 0
v 0.0165884 -0.00328785 0.00863034
vn 0 0 0
v 0.010709 0.00216106 0.00601274
vn 0 0 0
v 0.0179642 0.00216106 0.00823723
vn 0 0 0
v 0.01585 -0.00616625 0.00974067
vn 0 0 0
v 0.0209911 -0.00297997 0.0112356
vn 0.765306 -0.299082 -0.569962
v 0.0209911 -0.00297997 0.0112356
vn 0 0 0
v 0.019511 0.00473157 0.00863034
vn 0 0 0
v 0.0179642 0.00216106 0.00823723
vn 0.253125 -0.131988 -0.958388
v 0.010709 0.00730208 0.00568267
vn 0.0885815 -0.00891264 -0.996029
v 0.010709 0.00987259 0.00570954
vn 0.210201 -0.0584468 -0.97591
v 0.01585 0.00730208 0.00697081
vn 0.198078 -0.0830615 -0.976661
v 0.01585 0.00730208 0.00697081
vn 0.251507 -0.0910715 -0.963561
v 0.0132795 0.0124431 0.00640026
vn 0.31027 0.0606558 -0.948711
v 0.0178531 0.00730208 0.00780057
vn 0 0 0
v 0.0189776 0.0124431 0.00846474
vn 0 0 0
v 0.0198562 0.00730208 0.00863034
vn 0 0 0
v 0.0209911 0.00730208 0.00928873
vn 0 0 0
v 0.0259471 0.00224462 0.0161272
vn 0.910295 -0.17709 -0.374169
v 0.0209911 0.0175841 0.0104316
vn 0.78311 0.0222529 -0.621485
v 0.0135944 -0.0143541 0.0202176
vn 0.489332 -0.860053 -0.144439
v 0.0221337 -0.00840677 0.0201976
vn 0.769429 -0.611847 -0.183362
v 0.00813852 -0.0158325 0.0355723
vn 0.115296 -0.959965 0.255292
v 0.00850682 -0.0162997 0.0333594
vn 0.366917 -0.886461 0.282061
v 0.0204482 -0.0100681 0.0333668
vn 0.638667 -0.721407 0.267724
v 0.0263035 -0.00185411 0.033195
vn 0.948187 -0.220022 0.2292
v 0.0283218 0.00505288 0.0250173
vn 0.999776 0.0176593 0.0116549
v 0.0261321 0.0175841 0.0184499
vn 0.961176 0.0996867 -0.257299
v 0.025418 0.0227251 0.0304796
vn 0.950192 0.0954473 0.296689
v 0.0132795 -0.00838451 0.0448815
vn 0.519858 -0.64467 0.560489
v 0.0112408 -0.00500467 0.0477307
vn 0.20663 -0.554764 0.805941
v 0.021432 0.00248237 0.0429741
vn 0.835578 -0.179933 0.51907
v 0.0211038 0.0109972 0.0419545
vn 0.842344 0.125856 0.524039
v 0.0211038 0.0109972 0.0419545
vn 0.633696 0.189548 0.75
v 0.00621063 0.00858734 0.0538176
vn 0.411527 -0.0810017 0.907791
v 0.0167511 -8.81405e-05 0.0465732
vn 0.47037 -0.154091 0.868912
v 0.0105415 0.0137283 0.0501618
vn 0.507387 0.172883 0.844198
v 0.0119943 0.00987259 0.0495813
vn 0 0 0
v 0.0142115 0.0137283 0.047188
vn 0 0 0
v 0.0142758 0.0169415 0.0462213
vn 0.633696 0.189548 0.75
v 0.005568 0.0227251 0.00592962
vn 0.141372 0.121395 -0.982485
v 0.0132795 0.0175841 0.00678516
vn 0.154005 0.0489698 -0.986856
v 0.010709 0.0150136 0.00590087
vn 0.259219 0.0721078 -0.963123
v 0.010709 0.0214398 0.006591
vn 0.178012 0.218289 -0.959511
v 0.0160809 0.0214398 0.00825034
vn 0.447428 0.159152 -0.880045
v 0.0190855 0.0175841 0.00908065
vn 0.447428 0.159152 -0.880045
v 0.0209911 0.0227251 0.0121804
vn 0 0 0
v 0.0209911 0.0227251 0.0121804
vn 0.55884 0.266368 -0.785331
v 0.005568 0.0298811 0.00786478
vn 0.11474 0.259322 -0.958951
v 0.005568 0.0278662 0.00709922
vn 0.178012 0.218289 -0.959511
v 0.010709 0.0252956 0.00737872
vn 0 0 0
v 0.0081385 0.0324517 0.00961552
vn 0 0 0
v 0.005568 0.0301589 0.00801201
vn 0 0 0
v 0.0112487 0.0292167 0.00863034
vn 0 0 0
v 0.010709 0.0278662 0.0079912
vn 0 0 0
v 0.010709 0.0330072 0.0106007
vn 0 0 0
v 0.0143589 0.025841 0.00863034
vn 0 0 0
v 0.0209911 0.0255679 0.0137714
vn 0.716969 0.586725 -0.376443
v 0.01585 0.025841 0.00937502
vn 0.571399 0.51869 -0.635975
v 0.010709 0.0330072 0.0106007
vn 0.487807 0.707139 -0.511858
v 0.0209911 0.0175841 0.0104316
vn 0.821157 0.220243 -0.526492
v 0.0164636 0.0363975 0.0275878
vn 0.626002 0.778406 -0.0469577
v 0.0222958 0.0296639 0.0256188
vn 0.845962 0.519366 -0.120858
v 0.02049 0.0304367 0.0349781
vn 0.787075 0.531171 0.31364
v 0.0261321 0.0175841 0.0184499
vn 0.886691 0.360354 -0.289695
v 0.0258783 0.0217855 0.0279091
vn 0.913192 0.403681 0.055883
v 0.0227954 0.0236891 0.0363074
vn 0.812727 0.142991 0.564826
v 0.0235616 0.0227251 0.0355059
vn 0.828087 0.359285 0.430334
v 0.0115546 0.0388647 0.0234108
vn 0.476177 0.844326 -0.2457
v 0.0119943 0.037041 0.0394765
vn 0.383632 0.776513 0.499854
v 0.016062 0.0244924 0.0434945
vn 0.726428 0.19623 0.658632
v 0.0192667 0.0218584 0.0407618
vn 0.633696 0.189548 0.75
v 0.0182732 0.0201546 0.042047
vn 0 0 0
v 0.0141877 0.0291514 0.0442555
vn 0.610085 0.482987 0.628108
v 0.00985903 0.0212948 0.0489139
vn 0.338747 0.426242 0.83879
v 0.0123849 0.0236891 0.0466051
vn 0 0 0
v 0.00588931 0.0278165 0.0485606
vn 0.118351 0.445949 0.887199
v 0.0235616 0.0252957 0.0344449
vn 0 0 0
f 2//2 3//3 1//1
f 18//18 1//1 19//19
f 32//32 24//24 33//33
f 2//2 1//1 18//18
f 49//49 4//4 37//37
f 4//4 8//8 6//6
f 53//53 44//44 26//26
f 20//20 54//54 26//26
f 53//53 55//55 56//56
f 58//58 59//59 54//54
f 61//61 60//60 62//62
f 63//63 51//51 62//62
f 1//1 3//3 64//64
f 2//2 65//65 3//3
f 2//2 66//66 65//65
f 3//3 67//67 64//64
f 64//64 67//67 68//68
f 3//3 65//65 67//67
f 65//65 69//69 67//67
f 66//66 70//70 65//65
f 65//65 70//70 69//69
f 19//19 1//1 64//64
f 24//24 71//71 33//33
f 19//19 64//64 72//72
f 68//68 72//72 64//64
f 71//71 24//24 73//73
f 74//74 71//71 73//73
f 69//69 75//75 67//67
f 76//76 75//75 69//69
f 69//69 70//70 76//76
f 68//68 75//75 78//78
f 72//72 68//68 78//78
f 74//74 73//73 79//79
f 80//80 72//72 78//78
f 74//74 79//79 81//81
f 68//68 67//67 75//75
f 78//78 75//75 76//76
f 83//83 78//78 76//76
f 84//84 85//85 86//86
f 80//80 78//78 87//87
f 83//83 87//87 78//78
f 88//88 81//81 79//79
f 84//84 86//86 89//89
f 89//89 86//86 91//91
f 33//33 95//95 32//32
f 33//33 99//99 95//95
f 58//58 53//53 103//103
f 105//105 106//106 101//101
f 109//109 110//110 103//103
f 111//111 59//59 103//103
f 58//58 102//102 62//62
f 117//117 106//106 115//115
f 117//117 116//116 118//118
f 99//99 120//120 95//95
f 125//125 110//110 126//126
f 123//123 127//127 126//126
f 99//99 33//33 132//132
f 71//71 132//132 33//33
f 132//132 71//71 74//74
f 132//132 133//133 99//99
f 132//132 134//134 133//133
f 99//99 135//135 120//120
f 133//133 135//135 99//99
f 135//135 136//136 120//120
f 137//137 131//131 139//139
f 138//138 139//139 131//131
f 135//135 133//133 134//134
f 135//135 134//134 140//140
f 136//136 135//135 140//140
f 138//138 141//141 139//139
f 74//74 142//142 132//132
f 74//74 81//81 142//142
f 132//132 142//142 134//134
f 81//81 143//143 142//142
f 143//143 134//134 142//142
f 144//144 81//81 88//88
f 144//144 143//143 81//81
f 134//134 143//143 140//140
f 141//141 138//138 149//149
f 91//91 146//146 89//89
f 52//52 159//159 6//6
f 154//154 6//6 160//160
f 162//162 163//163 151//151
f 63//63 59//59 164//164
f 112//112 175//175 164//164
f 176//176 177//177 159//159
f 174//174 165//165 178//178
f 176//176 179//179 178//178
f 171//171 185//185 184//184
f 12//12 156//156 2//2
f 2//2 156//156 66//66
f 186//186 158//158 157//157
f 157//157 187//187 186//186
f 156//156 188//188 66//66
f 188//188 70//70 66//66
f 190//190 186//186 187//187
f 186//186 190//190 189//189
f 187//187 191//191 190//190
f 187//187 157//157 171//171
f 184//184 187//187 171//171
f 184//184 191//191 187//187
f 192//192 191//191 184//184
f 193//193 192//192 184//184
f 193//193 184//184 185//185
f 194//194 191//191 192//192
f 77//77 70//70 188//188
f 195//195 196//196 189//189
f 190//190 195//195 189//189
f 77//77 76//76 70//70
f 85//85 200//200 86//86
f 200//200 85//85 201//201
f 195//195 197//197 196//196
f 200//200 201//201 202//202
f 190//190 191//191 197//197
f 190//190 197//197 195//195
f 191//191 194//194 197//197
f 198//198 197//197 194//194
f 206//206 207//207 62//62
f 208//208 207//207 179//179
f 210//210 211//211 179//179
f 213//213 211//211 210//210
f 206//206 124//124 214//214
f 206//206 215//215 209//209
f 225//225 223//223 224//224
f 131//131 137//137 130//130
f 130//130 137//137 225//225
f 223//223 227//227 228//228
f 223//223 230//230 226//226
f 193//193 194//194 192//192
f 228//228 230//230 223//223
f 230//230 228//228 231//231
f 231//231 229//229 233//233
f 229//229 231//231 228//228
f 225//225 137//137 234//234
f 139//139 234//234 137//137
f 225//225 234//234 223//223
f 227//227 223//223 234//234
f 234//234 139//139 141//141
f 228//228 227//227 229//229
f 227//227 235//235 229//229
f 234//234 141//141 227//227
f 237//237 205//205 199//199
f 229//229 239//239 233//233
f 202//202 91//91 200//200
f 147//147 148//148 240//240
f 242//242 145//145 146//146
f 236//236 198//198 232//232
f 194//194 232//232 198//198
f 141//141 149//149 235//235
f 227//227 141//141 235//235
f 229//229 235//235 239//239
f 239//239 235//235 150//150
f 235//235 149//149 150//150
f 200//200 91//91 86//86
