# Created by Open3D 
# object name: textured
# number of vertices: 190
# number of triangles: 134
v -0.0115317 -0.0238081 -0.00572069
vn -0.123417 -0.193763 -0.973255
v -0.0160193 -0.0212211 -0.00516842
vn -0.372416 -0.1744 -0.911532
v -0.0115317 -0.015196 -0.00743525
vn -0.225248 0.0328651 -0.973747
v -0.0115317 -0.015196 -0.00743525
vn -0.133964 -0.0698421 -0.988522
v 0.00150452 -0.0219779 -0.00572069
vn 0.225613 -0.336388 -0.914299
v -0.00550658 -0.0251432 -0.00572069
vn 0.139724 -0.309492 -0.940581
v 0.000518523 -0.015196 -0.00809872
vn 0.139724 -0.309492 -0.940581
v 0.000518523 -0.015196 -0.00809872
vn 0.0333258 -0.221663 -0.974554
v -0.00550658 -0.0251432 -0.00572069
vn -0.0506461 -0.199357 -0.978617
v -0.0115317 -0.015196 -0.00743525
vn -0.0517926 -0.109657 -0.992619
v -0.0162099 -0.0121835 -0.00572069
vn -0.366415 0.182564 -0.912365
v -0.0115317 0.000320777 -0.00507091
vn -0.256446 0.145597 -0.95553
v -0.0115317 -0.0031458 -0.00628177
vn -0.222033 0.124204 -0.967096
v 0.000518523 -0.0031458 -0.00904835
vn 0.0527178 -0.0298867 -0.998162
v 0.000518523 -0.015196 -0.00809872
vn 0.086673 -0.078267 -0.993158
v 0.000518523 -0.0031458 -0.00904835
vn -0.112508 0.0119991 -0.993578
v -0.023334 -0.0259552 0.00163921
vn -0.654768 -0.674744 -0.340587
v -0.0269555 -0.0263228 0.0106792
vn -0.814674 -0.579844 -0.0093204
v -0.0193775 -0.03202 0.0168734
vn -0.540567 -0.761942 0.356695
v -0.0160505 -0.0299165 -0.00102817
vn -0.464667 -0.782194 -0.415039
v -0.0115317 -0.0272462 -0.00434609
vn 0 0 0
v -0.013038 -0.032929 1.48595e-05
vn 0 0 0
v -0.0175568 -0.0272462 -0.00236076
vn 0 0 0
v -0.0163109 -0.0350645 0.00896549
vn -0.499114 -0.852137 -0.157313
v -0.00814485 -0.0349894 0.00165984
vn -0.325222 -0.869196 -0.372463
v -0.00851914 -0.0332713 -0.000540785
vn 0 0 0
v -0.00701286 -0.0338167 -0.00025123
vn 0 0 0
v -0.00217318 -0.0333971 0.000304414
vn 0 0 0
v -0.00550658 -0.034289 0.000304414
vn 0 0 0
v -0.0115317 -0.0272462 -0.00434609
vn -0.0601306 -0.549599 -0.833262
v -0.00550658 -0.0332713 -0.000806874
vn -0.0601306 -0.549599 -0.833262
v -0.00550658 -0.0272462 -0.00478088
vn 0.0999838 -0.552824 -0.827278
v 0.00420891 -0.0288321 0.000304414
vn 0.623641 -0.6189 -0.477529
v -0.00367946 -0.0337802 0.000304414
vn 0.222549 -0.865258 -0.449223
v 0.00503734 -0.0227274 -0.00339763
vn 0.508735 -0.495838 -0.7038
v 0.000518523 -0.0249905 -0.00462822
vn 0.22463 -0.545348 -0.80755
v -0.00185234 -0.0332713 0.000304414
vn 0.22463 -0.545348 -0.80755
v -0.00550658 -0.0272462 -0.00478088
vn 0 0 0
v -0.007766 -0.0384282 0.0116015
vn -0.34031 -0.93589 -0.0911019
v 0.000518523 -0.0362233 0.00969443
vn 0.491598 -0.870045 -0.036792
v -0.00780326 -0.0367801 0.0187806
vn -0.396204 -0.793334 0.462216
v -0.00550658 -0.0369615 0.0183798
vn 0.242953 -0.966181 0.0864198
v -0.00324717 -0.0314907 0.0246853
vn 0.552313 -0.673163 0.491733
v -0.0271228 -0.020468 0.00369354
vn -0.9588 -0.228607 -0.168643
v -0.0235819 -0.0212211 -0.00120671
vn -0.490649 -0.0863927 -0.867064
v -0.0247108 -0.0167023 -0.000751313
vn 0 0 0
v -0.0175568 -0.0091709 -0.00477194
vn -0.693812 0.167396 -0.700431
v -0.0277926 -0.0163258 0.00444667
vn -0.889966 0.250072 -0.381345
v -0.0293869 -0.0197149 0.00934206
vn -0.98281 0.177968 0.0491041
v -0.0238388 -0.00766463 0.00181069
vn -0.817044 0.479055 -0.32085
v -0.0273601 -0.0095615 0.0131078
vn -0.864959 0.483154 0.135677
v -0.0282109 -0.0189617 0.019886
vn -0.967485 -0.244755 0.0637713
v -0.0252576 -0.0229157 0.0225962
vn -0.683633 -0.619287 0.386174
v -0.0275014 -0.01915 0.0205127
vn -0.933678 0.2274 0.276648
v -0.0130261 0.0102026 0.0100619
vn -0.808624 0.587609 -0.0290456
v -0.0234532 -0.0116493 0.0227383
vn -0.717782 0.508255 0.475884
v -0.0114941 0.00877687 0.0166266
vn -0.731576 0.529525 0.429418
v -0.0205693 -0.0259244 -0.00102817
vn 0 0 0
v -0.0175568 -0.0212211 -0.00461616
vn -0.490649 -0.0863927 -0.867064
v -0.0235819 -0.0246026 0.000304414
vn 0 0 0
v -0.0130068 -0.0225146 -0.00572069
vn 0 0 0
v -0.0175568 -0.0272462 -0.00236076
vn 0 0 0
v -0.0235819 -0.015196 -0.00180704
vn -0.49678 -0.121467 -0.859334
v -0.0175568 -0.015196 -0.0053638
vn -0.502154 -0.15572 -0.850642
v -0.017351 -0.0121835 -0.00515709
vn 0 0 0
v -0.0175568 -0.0031458 -0.00254257
vn -0.642985 0.4147 -0.64389
v -0.0120862 -0.00013325 -0.00493064
vn -0.494349 0.232113 -0.837701
v -0.0175568 -0.0031458 -0.00254257
vn -0.490571 0.223104 -0.842357
v -0.0166214 -0.0091709 -0.00524631
vn 0 0 0
v -0.0175568 -0.0031458 -0.00254257
vn 0 0 0
v -0.0176658 -0.0270366 0.0229319
vn -0.367689 -0.652153 0.662948
v -0.00588315 -0.031765 0.0244306
vn -0.344462 -0.64093 0.68597
v -0.00420645 -0.0289408 0.0252495
vn 0.0201657 -0.133888 0.990791
v -0.00635386 -0.0190558 0.026629
vn -0.0534405 0.00638362 0.998551
v -0.0222362 -0.0178 0.024126
vn -0.154976 0.00893722 0.987878
v -0.013038 -0.0249868 0.0250783
vn -0.130022 -0.111065 0.985271
v 0.0073157 -0.0157569 0.0259114
vn 0.0733267 -0.0877306 0.993442
v 0.00973462 -0.00945332 0.0259414
vn 0.0095816 0.106535 0.994263
v -0.0147777 -0.00395336 0.0244797
vn -0.608623 0.524348 0.595514
v -0.00945307 0.00470697 0.022645
vn -0.704695 0.453494 0.545663
v -0.0137911 -0.00361508 0.0247668
vn -0.0619824 0.0800271 0.994864
v -0.0178 -0.00615835 0.0245092
vn 0 0 0
v -0.00719755 0.00524193 -0.00572069
vn -0.554682 0.396995 -0.731247
v -0.00888853 0.0028793 -0.00572069
vn -0.219876 0.185643 -0.957701
v 0.000518523 -0.0031458 -0.00904835
vn 0.0387992 0.0463142 -0.998173
v -0.00550658 0.00760456 -0.00572069
vn -0.287408 0.152054 -0.945662
v 0.000518523 0.0089044 -0.00726685
vn -0.274452 0.140634 -0.951261
v -0.00193696 0.0089044 -0.00649377
vn -0.20727 0.259042 -0.943364
v 0.000518523 0.0143277 -0.00547693
vn -0.425565 0.414681 -0.804322
v -0.0100254 0.0112281 0.000128005
vn -0.737104 0.546472 -0.39755
v -0.00522805 0.00825448 -0.00559087
vn -0.571863 0.425864 -0.701151
v -0.00550658 0.00825448 -0.00546105
vn 0 0 0
v -0.00249403 0.0179421 -0.00201954
vn -0.582414 0.582824 -0.566666
v -0.00550658 0.0149295 -0.00197877
vn -0.409559 0.379149 -0.829763
v 0.00207452 0.0149295 -0.00572069
vn -0.210324 0.282305 -0.935985
v -0.00550658 0.0149295 -0.00197877
vn -0.425565 0.414681 -0.804322
v 0.000518523 0.0209546 -0.00206031
vn -0.375676 0.428726 -0.821621
v -0.000514183 0.0264814 0.0145455
vn -0.712053 0.665371 0.224192
v 0.000596322 0.0238054 0.020598
vn -0.67791 0.544026 0.494443
v -1.95321e-05 0.0266064 0.00595295
vn -0.675623 0.693014 -0.251524
v -0.00677184 0.00513537 0.0243481
vn -0.0844138 -0.023529 0.996153
v -0.00851913 0.00589185 0.0228117
vn 0 0 0
v -0.00671116 0.00438558 0.0244048
vn 0 0 0
v -0.00321878 0.0143116 0.0242275
vn -0.685769 0.458576 0.565181
v -0.000611184 0.00137303 0.0247813
vn 0.0252861 -0.0254761 0.999356
v -0.000987753 0.00965755 0.0261653
vn -0.020314 -0.0533711 0.998368
v 0.00121306 0.0178461 0.024945
vn -0.214435 0.200102 0.956021
v 0.00732925 -0.0161594 -0.00572069
vn 0.296175 -0.243281 -0.923631
v 0.00249052 -0.0212211 -0.00572069
vn 0.283015 -0.270548 -0.920167
v 0.0125357 -0.0091209 -0.00572069
vn 0.547117 -0.371972 -0.749866
v 0.0125687 -0.0031458 -0.00726494
vn 0.186738 0.087249 -0.978528
v 0.0125687 -0.0031458 -0.00726494
vn 0.141859 -0.247225 -0.958518
v 0.0125027 -0.0091709 -0.00572069
vn 0.175313 -0.185321 -0.966913
v 0.00811488 -0.015196 -0.00572069
vn 0.297911 -0.0749954 -0.951643
v 0.0125687 -0.0031458 -0.00726494
vn -0.0280082 -0.0281665 -0.999211
v 0.0163332 -0.0031458 -0.00572069
vn 0.575245 -0.3656 -0.73173
v 0.00794142 -0.0281896 0.00707316
vn 0.768697 -0.597093 -0.229313
v 0.00552425 -0.0316667 0.0129892
vn 0.729023 -0.648998 0.217547
v 0.00445227 -0.0285478 0.0204883
vn 0.710454 -0.529334 0.463746
v 0.00654363 -0.0212211 -0.00380896
vn 0.377485 -0.377886 -0.845404
v 0.0185938 -0.0091709 -0.00093317
vn 0.755605 -0.510125 -0.410894
v 0.0125687 -0.015196 -0.00271006
vn 0 0 0
v 0.00654363 -0.0191719 -0.00476482
vn 0 0 0
v 0.0125687 -0.015196 -0.00271006
vn 0.512449 -0.379064 -0.770523
v 0.0185938 -0.0091709 -0.00093317
vn 0.575245 -0.3656 -0.73173
v 0.0174635 -0.0031458 -0.00510859
vn 0.65401 -0.344162 -0.673665
v 0.028738 -0.000745763 0.0104718
vn 0.842876 -0.536082 0.0466485
v 0.0238749 7.17338e-05 0.0209899
vn 0.702264 -0.505923 0.500866
v 0.0295091 0.00589938 0.0206237
vn 0.869224 -0.374932 0.322298
v 0.00815753 -0.0160808 0.0254987
vn 0.604387 -0.434494 0.667781
v 0.0140047 -0.00779872 0.0249396
vn 0.579489 -0.359748 0.731282
v 0.0191371 -0.00102048 0.0235493
vn 0.0615981 -0.00552726 0.998086
v 0.000518523 0.0089044 -0.00726685
vn 0.0597701 0.059612 -0.996431
v 0.0125687 0.0089044 -0.00760462
vn -0.00918695 0.0913804 -0.995774
v 0.0196856 0.0089044 -0.00572069
vn 0.254014 0.121129 -0.959586
v 0.0125687 0.0089044 -0.00760462
vn 0.143865 0.105149 -0.983995
v 0.0185938 0.0011733 -0.00572069
vn 0.266411 -0.0271592 -0.963477
v 0.0192808 0.00546535 -0.00572069
vn 0 0 0
v 0.0185938 0.0011733 -0.00572069
vn 0 0 0
v 0.0125687 0.0089044 -0.00760462
vn 0.254014 0.121129 -0.959586
v 0.00430907 0.016044 -0.00572069
vn -0.230041 0.461209 -0.856952
v 0.00654363 0.0190566 -0.0048442
vn -0.00801277 0.257938 -0.966128
v 0.0125687 0.0190676 -0.00489122
vn 0.0551787 0.457904 -0.887288
v 0.0125687 0.0190676 -0.00489122
vn 0.139049 0.25544 -0.956773
v 0.0180545 0.0135573 -0.00556512
vn 0.25256 0.250073 -0.934707
v 0.0175152 0.0135573 -0.00572069
vn 0 0 0
v 0.0246189 0.0028793 -0.00241927
vn 0 0 0
v 0.0264874 0.00438558 -0.00105743
vn 0 0 0
v 0.0246189 0.0089044 -0.00322598
vn 0 0 0
v 0.0125687 0.0209546 -0.00406176
vn 0 0 0
v 0.0246189 0.011917 -0.00276721
vn 0 0 0
v 0.0266385 0.0134233 -0.00100201
vn 0 0 0
v 0.0185938 0.0209546 -0.00263103
vn 0.133016 0.557123 -0.819708
v 0.0145027 0.0160551 -0.00572069
vn 0 0 0
v 0.0185938 0.0209546 -0.00263103
vn 0.366594 0.319816 -0.873685
v 0.020403 0.0214323 -0.00116331
vn 0.536356 0.704021 -0.465485
v 0.0246189 0.0149295 -0.00230844
vn 0.366594 0.319816 -0.873685
v 0.0276635 0.0134233 0.000445318
vn 0.787519 0.391192 -0.476218
v 0.0285878 0.00739813 0.000304414
vn 0.821357 -0.387204 -0.418862
v 0.0327446 0.011917 0.0108483
vn 0.968335 -0.249574 0.00634172
v 0.030644 0.0126887 0.00331696
vn 0 0 0
v 0.0325558 0.0134233 0.0123546
vn 0.894844 0.445705 0.0245224
v 0.0291582 0.0194673 0.00788207
vn 0.747132 0.625399 -0.225099
v 0.0231919 0.0250347 0.0131078
vn 0.614131 0.770538 0.170626
v 0.027025 0.018949 0.0191061
vn 0.67193 0.630983 0.387777
v 0.0286494 0.0104107 0.023689
vn 0.837756 -0.188564 0.512453
v 0.000518523 0.0209546 -0.00206031
vn -0.252722 0.546677 -0.798296
v 0.00353108 0.0258004 0.000304414
vn -0.252722 0.546677 -0.798296
v 0.00654363 0.0209546 -0.00396772
vn -0.252722 0.546677 -0.798296
v 0.00703618 0.0268946 0.000304414
vn 0 0 0
v 0.00951487 0.0269797 0.000304414
vn 0 0 0
v 0.00654363 0.0209546 -0.00396772
vn 0.0530536 0.570514 -0.819573
v 0.0138081 0.0264162 0.000304414
vn 0.0909945 0.564636 -0.820309
v 0.00955617 0.0271132 0.000304414
vn 0 0 0
v 0.00703618 0.0269797 0.000400763
vn -0.408572 0.78452 -0.466473
v 0.00994393 0.0285738 0.00312083
vn 0.211463 0.947191 -0.241067
v 0.00703618 0.028923 0.00515937
vn 0.0589236 0.994525 -0.0863009
v 0.0185738 0.0279889 0.0087003
vn 0.387458 0.90394 -0.181023
v 0.00654363 0.0311956 0.0123546
vn -0.437144 0.898665 0.0361324
v 0.00769024 0.0299923 0.0179284
vn 0.158671 0.986047 0.0503397
v 0.00607715 0.0252269 0.0226182
vn -0.406227 0.716682 0.566874
v 0.0155586 0.027703 0.0196386
vn 0.404894 0.8031 0.43714
v 0.00949348 0.0216872 0.0259983
vn 0.042335 -0.015479 0.998984
v 0.0249196 0.0106064 0.0251154
vn 0.0448138 -0.0613803 0.997108
v 0.0203933 0.0191881 0.0241093
vn 0.216328 0.225466 0.94993
v 0.0193871 0.019775 0.0240907
vn 0.406927 0.594594 0.693446
v 0.0216064 0.0194483 0.023103
vn 0 0 0
v 0.0281561 0.0141764 0.0229359
vn 0.688601 0.546061 0.477122
v 0.0080499 0.0272595 0.0224484
vn 0.222357 0.677444 0.701161
v 0.00955617 0.0284932 0.0213923
vn 0 0 0
f 1//1 2//2 3//3
f 5//5 6//6 7//7
f 4//4 8//8 9//9
f 1//1 10//10 9//9
f 4//4 11//11 12//12
f 13//13 14//14 3//3
f 15//15 10//10 16//16
f 25//25 24//24 20//20
f 17//17 24//24 18//18
f 24//24 17//17 20//20
f 31//31 30//30 32//32
f 33//33 34//34 35//35
f 36//36 37//37 32//32
f 34//34 33//33 40//40
f 25//25 39//39 24//24
f 39//39 41//41 24//24
f 24//24 41//41 19//19
f 18//18 24//24 19//19
f 34//34 40//40 42//42
f 40//40 43//43 42//42
f 17//17 18//18 44//44
f 48//48 50//50 47//47
f 44//44 18//18 52//52
f 18//18 19//19 53//53
f 53//53 52//52 18//18
f 54//54 51//51 49//49
f 50//50 48//48 51//51
f 49//49 51//51 48//48
f 51//51 56//56 57//57
f 45//45 63//63 59//59
f 2//2 63//63 64//64
f 47//47 50//50 66//66
f 67//67 11//11 68//68
f 19//19 41//41 71//71
f 72//72 71//71 41//41
f 71//71 53//53 19//19
f 51//51 54//54 56//56
f 74//74 76//76 73//73
f 77//77 74//74 73//73
f 74//74 77//77 78//78
f 57//57 56//56 79//79
f 57//57 79//79 80//80
f 74//74 75//75 76//76
f 74//74 81//81 75//75
f 74//74 78//78 81//81
f 13//13 84//84 16//16
f 85//85 86//86 87//87
f 66//66 50//50 90//90
f 50//50 55//55 90//90
f 90//90 91//91 66//66
f 67//67 86//86 83//83
f 91//91 90//90 93//93
f 95//95 88//88 94//94
f 89//89 96//96 97//97
f 51//51 55//55 50//50
f 55//55 51//51 57//57
f 98//98 55//55 57//57
f 57//57 99//99 98//98
f 93//93 90//90 100//100
f 55//55 100//100 90//90
f 100//100 55//55 98//98
f 101//101 81//81 105//105
f 78//78 105//105 81//81
f 105//105 106//106 101//101
f 80//80 104//104 57//57
f 57//57 104//104 99//99
f 109//109 8//8 108//108
f 85//85 112//112 113//113
f 15//15 14//14 114//114
f 108//108 14//14 113//113
f 33//33 117//117 40//40
f 40//40 117//117 118//118
f 43//43 40//40 118//118
f 118//118 119//119 43//43
f 121//121 33//33 35//35
f 120//120 5//5 108//108
f 33//33 121//121 117//117
f 108//108 110//110 124//124
f 110//110 116//116 125//125
f 127//127 118//118 117//117
f 118//118 127//127 119//119
f 121//121 127//127 117//117
f 128//128 127//127 129//129
f 119//119 130//130 43//43
f 128//128 119//119 127//127
f 119//119 128//128 130//130
f 128//128 131//131 130//130
f 85//85 133//133 111//111
f 115//115 133//133 134//134
f 136//136 137//137 111//111
f 88//88 95//95 134//134
f 136//136 142//142 143//143
f 144//144 145//145 134//134
f 135//135 140//140 145//145
f 141//141 95//95 97//97
f 145//145 155//155 157//157
f 159//159 121//121 126//126
f 121//121 159//159 127//127
f 159//159 160//160 127//127
f 158//158 156//156 163//163
f 158//158 163//163 162//162
f 127//127 160//160 129//129
f 166//166 129//129 160//160
f 163//163 164//164 165//165
f 163//163 165//165 162//162
f 167//167 168//168 169//169
f 143//143 172//172 173//173
f 100//100 175//175 93//93
f 143//143 173//173 153//153
f 156//156 178//178 163//163
f 156//156 176//176 178//178
f 175//175 100//100 179//179
f 98//98 179//179 100//100
f 176//176 177//177 180//180
f 181//181 179//179 98//98
f 180//180 178//178 176//176
f 165//165 164//164 182//182
f 178//178 182//182 164//164
f 178//178 180//180 182//182
f 178//178 164//164 163//163
f 105//105 183//183 106//106
f 132//132 184//184 105//105
f 132//132 105//105 78//78
f 99//99 104//104 181//181
f 183//183 107//107 106//106
f 105//105 184//184 183//183
f 184//184 185//185 183//183
f 166//166 128//128 129//129
f 188//188 162//162 165//165
f 186//186 188//188 165//165
f 182//182 189//189 186//186
f 99//99 181//181 98//98
f 189//189 182//182 180//180
f 186//186 165//165 182//182
