# Created by Open3D 
# object name: textured
# number of vertices: 183
# number of triangles: 187
v -0.0108485 -0.00503638 0.0100499
vn -0.664729 -0.465625 -0.584234
v -0.00523826 -0.00571901 0.00699275
vn 0.0402781 -0.761832 -0.646521
v -0.0143942 0.00696495 0.00981379
vn -0.791692 -0.115392 -0.599924
v -0.00523826 -0.00571901 0.00699275
vn 0 0 0
v -0.0024196 -0.00290035 0.00512981
vn 0 0 0
v -0.0136942 0.00122199 0.00948052
vn -0.507077 -0.0711421 -0.85896
v -0.00805692 0.00273696 0.00598972
vn -0.192372 0.0819876 -0.977891
v -0.00805692 0.00273696 0.00598972
vn -0.383417 -0.0967822 -0.918491
v -0.00805692 -0.00290035 0.00682651
vn -0.497209 -0.127393 -0.858228
v -0.00523826 -8.16949e-05 0.00555977
vn 0 0 0
v -0.0024196 0.00273696 0.00488074
vn -0.192372 0.0819876 -0.977891
v -0.00523826 -0.00290035 0.00597816
vn -0.138527 -0.432924 -0.890723
v -0.0142089 0.00837428 0.00981379
vn 0 0 0
v -0.0136942 0.00837428 0.00925803
vn -0.513685 -0.0266767 -0.857564
v -0.0145795 0.00555562 0.00981379
vn 0 0 0
v -0.014884 0.0105015 0.0121973
vn -0.781257 0.530772 -0.328508
v -0.00805692 0.00837428 0.00588127
vn -0.513685 -0.0266767 -0.857564
v -0.0024196 0.00837428 0.00535338
vn -0.160072 0.0487838 -0.985899
v -0.00523826 0.00837428 0.00561732
vn -0.0119291 0.293169 -0.955986
v -0.00523826 0.0172999 0.00981379
vn -0.399313 0.828715 -0.392149
v -0.0106363 0.0126023 0.0088906
vn 0 0 0
v -0.00805692 0.00837428 0.00588127
vn -0.130561 0.344085 -0.929817
v -0.0024196 0.0140116 0.00717583
vn 0.0400404 0.395304 -0.917677
v -0.00805692 0.0140116 0.0079674
vn -0.130561 0.344085 -0.929817
v -0.0159853 -0.00599265 0.0182698
vn -0.71018 -0.65606 -0.255401
v -0.00952214 -0.0137594 0.0302665
vn -0.482098 -0.871746 -0.0874086
v -0.000342616 -0.0114824 0.00981379
vn 0.296514 -0.713935 -0.634331
v -0.00674005 -0.0121973 0.014533
vn -0.454191 -0.81591 -0.357773
v -0.0034766 -0.0152104 0.0224978
vn -0.148624 -0.952704 -0.265077
v -0.000657937 -0.0145732 0.0182976
vn 0.242686 -0.953864 -0.176767
v -0.0139835 -0.0116034 0.0351817
vn -0.738074 -0.672599 -0.0534563
v -0.00382893 -0.015413 0.0253164
vn 0.0745036 -0.99391 -0.0811916
v -0.00418126 -0.0159287 0.0316584
vn -0.363944 -0.929923 -0.0528062
v -0.00418126 -0.0159287 0.0316584
vn 0.0347387 -0.9986 -0.0398812
v -0.0185702 0.000957582 0.0164802
vn -0.856153 -0.258722 -0.447286
v -0.020757 0.00555562 0.0210884
vn -0.986399 -0.00996329 -0.164067
v -0.0188293 0.00642844 0.0168604
vn -0.956776 0.269233 -0.109968
v -0.0139369 0.0167137 0.0189902
vn -0.683247 0.697534 -0.215915
v -0.0187974 0.0117502 0.0296121
vn -0.869276 0.491884 -0.0490862
v -0.0200421 -0.00264184 0.0281351
vn -0.888843 -0.450126 -0.0857051
v -0.0214121 0.0020323 0.0330677
vn -0.996837 -0.0787339 0.0107882
v -0.0201407 0.00696495 0.049275
vn -0.993325 0.107553 -0.0416859
v -0.00418126 -0.016354 0.0485703
vn -0.0311731 -0.999387 0.0159577
v -0.0138857 -0.0116178 0.055617
vn -0.599371 -0.797145 0.072897
v -0.0045336 -0.0163573 0.0499797
vn -0.427654 -0.903901 0.00864814
v 0.00180839 -0.0162846 0.0601973
vn 0.144025 -0.985477 0.0899576
v -0.019627 -0.00430968 0.053503
vn -0.914135 -0.39884 0.0726953
v -0.0205162 0.00678878 0.0531507
vn -0.999568 -0.00460445 0.0290333
v -0.0202405 0.00841627 0.055617
vn -0.878979 0.475896 0.0303168
v -0.0124983 -0.00751301 0.0816015
vn -0.704472 -0.70096 0.111239
v -0.0045336 -0.0155015 0.0647776
vn -0.48374 -0.865555 0.129655
v -0.00470976 -0.0144047 0.0700626
vn -0.120871 -0.986757 0.108174
v -0.00382893 -0.0133848 0.0760522
vn 0.541456 -0.831783 0.12232
v -0.00416104 -0.0119574 0.0872284
vn -0.503446 -0.862625 0.0491904
v -0.0205009 0.00555562 0.0626636
vn -0.983901 -0.131515 0.121009
v -0.0169004 0.000585795 0.0796555
vn -0.950821 -0.295439 0.0930283
v -0.020147 0.00696495 0.0633683
vn -0.883564 0.45598 0.106756
v -0.0136942 0.0185952 0.0633683
vn -0.764293 0.641942 0.0613793
v -0.017883 0.00731728 0.0753476
vn -0.939225 0.298988 0.16871
v -0.0200203 0.00837428 0.0633683
vn 0 0 0
v -0.0180737 0.00802195 0.0739383
vn -0.990911 -0.0664198 0.116978
v -0.0156397 0.0119945 0.0795473
vn -0.828248 0.557117 0.0602141
v -0.0123195 -0.00725846 0.107058
vn -0.749145 -0.65996 0.0568823
v -0.00312427 -0.0122347 0.0873269
vn 0.00309124 -0.997487 0.0707824
v -0.0049751 -0.0121115 0.105296
vn -0.496883 -0.84878 0.180777
v -0.0168145 0.00642444 0.0943842
vn -0.993681 -0.0950687 0.0596665
v -0.0165129 0.00856519 0.108682
vn -0.928907 0.340699 0.14511
v -0.0105069 -0.00527956 0.114104
vn -0.573032 -0.598148 0.560226
v -0.0024196 -0.00836759 0.115451
vn -0.366415 -0.684821 0.629889
v -0.0153193 0.000256852 0.109594
vn -0.949475 -0.240349 0.201817
v -0.0154744 0.00837428 0.112695
vn -0.944811 -0.132502 0.299624
v -0.0145723 0.0126561 0.1115
vn -0.836579 0.521025 0.169318
v -0.00847176 0.00220281 0.118825
vn -0.639537 -0.298595 0.708402
v -0.00790603 0.0020323 0.119096
vn -0.0296336 -0.10982 0.99351
v 0.001855 -0.00619593 0.117168
vn 0.173869 -0.187661 0.966723
v 0.000698745 0.00657037 0.119855
vn 0.180123 0.0547537 0.982119
v -0.0108756 0.00837428 0.118544
vn -0.623923 0.431696 0.651428
v -0.00914779 0.0167268 0.112877
vn -0.392673 0.770638 0.501921
v -0.0055608 0.0127056 0.11788
vn -0.216414 0.679383 0.701145
v -0.00664759 0.0111929 0.118837
vn 0.0223658 0.248721 0.968317
v 0.00180839 0.0168303 0.115071
vn 0.151125 0.404247 0.902079
v -0.00382893 0.0156557 0.00849481
vn 0 0 0
v -0.00171493 0.0156634 0.00849481
vn 0.00786622 0.363887 -0.93141
v -0.00805692 0.0217993 0.0246117
vn -0.288077 0.947481 -0.138896
v -0.000367047 0.0222039 0.021178
vn -0.12483 0.978487 -0.164258
v -0.0121296 0.0202121 0.0401144
vn -0.610217 0.792089 -0.0151522
v -0.00594293 0.0227962 0.0394097
vn -0.167982 0.985677 -0.0149245
v -0.00682027 0.0222393 0.0669451
vn -0.292538 0.95403 0.0651705
v 0.00321772 0.023737 0.0591403
vn -0.100392 0.993491 0.0538265
v -0.00915278 0.018675 0.0829748
vn -0.428994 0.898712 0.0910044
v 0.00298605 0.0222396 0.0755361
vn -0.257724 0.966051 0.0179893
v -0.011556 0.0173847 0.103182
vn -0.550842 0.83449 0.0141109
v -0.00488593 0.0205811 0.107058
vn -0.243006 0.96589 0.0894676
v 0.00180839 0.0186179 0.112533
vn -0.0602275 0.875684 0.479115
v 0.00180839 -0.0101422 0.00840207
vn -0.138527 -0.432924 -0.890723
v 0.00039906 -0.00853767 0.00707467
vn 0 0 0
v 0.00788232 -0.00990899 0.0118877
vn 0.450412 -0.779144 -0.435962
v 0.00321772 -0.00290035 0.00466307
vn 0.0215746 -0.236463 -0.971401
v 0.0116737 -8.16956e-05 0.0077519
vn 0.687205 -0.42494 -0.589216
v 0.00603638 -0.00658285 0.00699274
vn 0 0 0
v 0.00321772 -0.00290035 0.00466307
vn 0 0 0
v 0.00321772 -0.00290035 0.00466307
vn 0 0 0
v 0.00911154 -0.00149102 0.00615815
vn 0.233589 0.0530871 -0.970885
v 0.00321772 0.00273696 0.00456213
vn 0.187353 0.192503 -0.963245
v 0.00321772 0.00273696 0.00456213
vn 0 0 0
v 0.00885504 0.00414629 0.00594025
vn 0.187353 0.192503 -0.963245
v 0.00321772 0.00555562 0.00512544
vn 0.233589 0.0530871 -0.970885
v 0.0104203 0.000622968 0.00666736
vn 0 0 0
v 0.00995847 0.00273696 0.00633111
vn 0 0 0
v 0.0112779 -8.16956e-05 0.00737351
vn 0 0 0
v 0.0116737 -8.16956e-05 0.0077519
vn 0 0 0
v 0.0141858 0.00655355 0.0139735
vn 0.879197 0.33043 -0.343261
v 0.0116737 -8.16956e-05 0.0077519
vn 0.903007 0.0573604 -0.425779
v 0.00321772 0.00837428 0.00568874
vn 0.00786622 0.363887 -0.93141
v 0.00885504 0.00837428 0.00741479
vn 0 0 0
v 0.00885504 0.00656078 0.00660427
vn 0 0 0
v 0.00321772 0.00837428 0.00568874
vn 0.195653 0.320381 -0.926864
v 0.00321772 0.0140116 0.00845934
vn 0.200199 0.432153 -0.879298
v 0.00748263 0.0128659 0.00981379
vn 0 0 0
v 0.00990569 0.00555562 0.0067997
vn 0 0 0
v 0.00885504 0.00273696 0.00566708
vn 0 0 0
v 0.00964077 0.00948998 0.00900701
vn 0.705203 0.557126 -0.43852
v 0.00979464 -0.0127569 0.0257533
vn 0.618562 -0.779993 -0.0948227
v 0.0126588 -0.00709545 0.0158968
vn 0.805255 -0.521105 -0.282866
v 0.00321772 -0.0159281 0.0380885
vn 0.210229 -0.976703 -0.0430655
v 0.00885504 -0.0135995 0.0436377
vn 0.660528 -0.748174 -0.0627558
v 0.0169497 -0.00369252 0.0387051
vn 0.813794 -0.577627 -0.0639214
v 0.017311 -0.00135132 0.0229638
vn 0.851377 -0.505639 -0.139594
v 0.0177312 0.000340488 0.0249328
vn 0.976244 0.068834 -0.205451
v 0.00266338 0.0176879 0.0118797
vn 0.569364 0.706778 -0.419868
v 0.0166911 0.0103194 0.0272954
vn 0.897028 0.418771 -0.141323
v 0.0181289 -0.00113869 0.0306014
vn 0.886333 -0.462741 -0.0168591
v 0.0181215 -0.00149102 0.0313061
vn 0.996235 -0.0451763 -0.0739951
v 0.0190241 0.00485096 0.0395859
vn 0.977814 0.200128 -0.0618838
v 0.0109972 -0.0132458 0.057032
vn 0.512192 -0.855552 0.0754345
v 0.0166541 -0.007833 0.0542077
vn 0.837805 -0.545946 0.00507512
v 0.0188787 0.0009753 0.0415237
vn 0.932035 -0.357321 -0.0602758
v 0.0167666 0.0140116 0.0563216
vn 0.888171 0.458688 -0.0275237
v 0.0195355 -8.16956e-05 0.055617
vn 0.998682 -0.0105523 0.050222
v 0.0192996 -0.00113869 0.0552647
vn 0.927493 -0.372144 0.0355617
v 0.0194328 0.00696495 0.0591403
vn 0.974879 0.215413 0.0566372
v 0.00592226 -0.0115949 0.0843095
vn 0.347694 -0.934471 0.0766374
v 0.0139097 -0.00683767 0.0761276
vn 0.772114 -0.631711 0.0691416
v 0.0171473 2.68556e-05 0.0767569
vn 0.903796 -0.412643 0.113483
v 0.0138546 0.0169197 0.0631921
vn 0.761538 0.646224 0.0495385
v 0.0169522 0.000767128 0.0799279
vn 0.99133 -0.0960556 0.0896572
v 0.016894 0.00422791 0.0894409
vn 0.991352 0.127251 0.032073
v 0.0103964 -0.00978906 0.0959593
vn 0.511848 -0.858989 0.012264
v 0.00357005 -0.0131024 0.103535
vn 0.172536 -0.984226 0.03912
v 0.0167706 0.00123309 0.0876792
vn 0.922777 -0.385251 -0.00795418
v 0.0140833 -0.0067968 0.104261
vn 0.829509 -0.555162 0.0609097
v 0.0151304 0.0125384 0.0873269
vn 0.892879 0.448271 0.0426516
v 0.0173779 -8.16956e-05 0.0992118
vn 0.896062 -0.443893 -0.00565764
v 0.0173779 -8.16956e-05 0.0992118
vn 0.998153 -0.0188494 -0.0577513
v 0.0179343 0.00273696 0.100011
vn 0 0 0
v -0.0024196 -0.0119557 0.110027
vn -0.00527207 -0.964215 0.265068
v 0.0080561 -0.00957199 0.111666
vn 0.463606 -0.79272 0.395808
v -0.00101027 -0.00667286 0.117442
vn 0.199359 -0.713884 0.671287
v 0.017777 0.00132763 0.105648
vn 0.992821 0.0669844 0.0990964
v 0.0164595 0.000325054 0.109647
vn 0.808797 -0.498148 0.312563
v 0.0166327 0.00875674 0.109268
vn 0.951418 0.293568 0.0928559
v 0.012372 0.0156051 0.109837
vn 0.709754 0.671798 0.211984
v 0.0105671 -0.00290035 0.1158
vn 0.514223 -0.583207 0.628844
v 0.013083 0.00143647 0.115206
vn 0.325891 -0.0677639 0.942976
v 0.0137581 -0.00149102 0.114104
vn 0 0 0
v 0.0116737 -8.16956e-05 0.116065
vn 0 0 0
v 0.013083 0.00766961 0.115162
vn 0.720276 0.316721 0.617164
v 0.00955971 0.0118976 0.115806
vn 0.291753 0.221827 0.930415
v 0.00556883 0.0161256 0.114512
vn 0.441531 0.697068 0.56493
v 0.000699706 0.0169369 0.00981379
vn 0 0 0
v 0.00321772 0.0218413 0.0210884
vn 0.445181 0.885841 -0.130764
v 0.00892233 0.0196489 0.0236682
vn 0.692996 0.666384 -0.275115
v 0.000399061 0.0224462 0.0212196
vn 0 0 0
v 0.00408195 0.0226311 0.0351817
vn 0.356382 0.932788 -0.0538264
v 0.0036389 0.0228092 0.0358864
vn -0.030722 0.9986 -0.043071
v 0.0123287 0.0186134 0.0398808
vn 0.659601 0.749484 -0.056579
v 0.00744571 0.0225805 0.057731
vn 0.476212 0.879086 0.0207516
v 0.00298605 0.0229635 0.0683009
vn 0.341554 0.938851 0.0435923
v 0.0102641 0.0181318 0.0907622
vn 0.597171 0.801099 0.0403363
v 0.00392238 0.0216123 0.102125
vn -0.0629733 0.99346 0.095249
v 0.00321772 0.021804 0.100011
vn 0.462847 0.886438 0.000675031
v 0.00761377 0.0205214 0.102125
vn 0.551758 0.832493 0.0501858
v 0.00321772 0.0216293 0.105648
vn 0.389755 0.845726 0.364471
f 6//6 8//8 9//9
f 17//17 6//6 14//14
f 18//18 11//11 7//7
f 18//18 8//8 19//19
f 23//23 22//22 24//24
f 25//25 1//1 28//28
f 28//28 2//2 29//29
f 2//2 28//28 1//1
f 29//29 26//26 28//28
f 25//25 28//28 26//26
f 26//26 29//29 33//33
f 25//25 35//35 1//1
f 35//35 3//3 1//1
f 35//35 36//36 3//3
f 16//16 37//37 39//39
f 38//38 16//16 39//39
f 20//20 16//16 38//38
f 31//31 25//25 26//26
f 25//25 40//40 35//35
f 36//36 35//35 40//40
f 40//40 41//41 36//36
f 40//40 25//25 31//31
f 39//39 37//37 42//42
f 44//44 26//26 45//45
f 26//26 33//33 45//45
f 31//31 26//26 44//44
f 47//47 41//41 40//40
f 47//47 40//40 31//31
f 41//41 48//48 36//36
f 48//48 41//41 47//47
f 47//47 31//31 44//44
f 39//39 42//42 49//49
f 44//44 45//45 51//51
f 46//46 52//52 43//43
f 50//50 44//44 51//51
f 50//50 51//51 54//54
f 53//53 54//54 51//51
f 55//55 48//48 47//47
f 47//47 44//44 50//50
f 56//56 55//55 47//47
f 58//58 49//49 57//57
f 56//56 47//47 50//50
f 62//62 57//57 59//59
f 58//58 57//57 62//62
f 61//61 55//55 56//56
f 54//54 63//63 50//50
f 63//63 54//54 65//65
f 66//66 61//61 56//56
f 56//56 50//50 63//63
f 65//65 68//68 63//63
f 68//68 65//65 69//69
f 63//63 70//70 56//56
f 66//66 56//56 70//70
f 70//70 63//63 68//68
f 70//70 71//71 66//66
f 72//72 62//62 67//67
f 70//70 68//68 73//73
f 73//73 68//68 69//69
f 74//74 75//75 76//76
f 67//67 77//77 72//72
f 71//71 70//70 73//73
f 72//72 77//77 78//78
f 79//79 78//78 77//77
f 76//76 80//80 74//74
f 80//80 76//76 81//81
f 38//38 84//84 20//20
f 84//84 85//85 20//20
f 39//39 86//86 38//38
f 84//84 38//38 86//86
f 84//84 86//86 87//87
f 39//39 58//58 86//86
f 58//58 39//39 49//49
f 86//86 88//88 87//87
f 88//88 89//89 87//87
f 88//88 86//86 58//58
f 58//58 62//62 90//90
f 58//58 90//90 88//88
f 90//90 89//89 88//88
f 91//91 89//89 90//90
f 62//62 92//92 90//90
f 91//91 90//90 92//92
f 92//92 62//62 72//72
f 93//93 91//91 92//92
f 72//72 78//78 92//92
f 78//78 93//93 92//92
f 93//93 78//78 94//94
f 94//94 78//78 79//79
f 12//12 98//98 95//95
f 99//99 97//97 27//27
f 103//103 98//98 107//107
f 106//106 104//104 117//117
f 23//23 118//118 117//117
f 114//114 19//19 83//83
f 112//112 113//113 122//122
f 97//97 30//30 27//27
f 97//97 123//123 30//30
f 97//97 124//124 123//123
f 32//32 30//30 125//125
f 123//123 125//125 30//30
f 34//34 32//32 125//125
f 126//126 123//123 127//127
f 124//124 97//97 99//99
f 124//124 99//99 128//128
f 129//129 113//113 112//112
f 128//128 123//123 124//124
f 123//123 128//128 127//127
f 132//132 127//127 128//128
f 133//133 129//129 134//134
f 129//129 112//112 131//131
f 34//34 125//125 43//43
f 126//126 125//125 123//123
f 125//125 46//46 43//43
f 125//125 126//126 135//135
f 126//126 127//127 136//136
f 135//135 126//126 136//136
f 137//137 127//127 132//132
f 129//129 131//131 134//134
f 134//134 131//131 138//138
f 136//136 127//127 137//137
f 140//140 136//136 137//137
f 141//141 139//139 134//134
f 138//138 141//141 134//134
f 46//46 125//125 135//135
f 46//46 135//135 142//142
f 136//136 143//143 135//135
f 143//143 142//142 135//135
f 136//136 140//140 144//144
f 145//145 141//141 138//138
f 144//144 143//143 136//136
f 141//141 146//146 139//139
f 46//46 64//64 52//52
f 64//64 46//46 142//142
f 142//142 143//143 148//148
f 64//64 142//142 149//149
f 149//149 142//142 148//148
f 143//143 144//144 150//150
f 148//148 143//143 151//151
f 150//150 151//151 143//143
f 141//141 147//147 146//146
f 147//147 141//141 152//152
f 152//152 141//141 145//145
f 151//151 150//150 153//153
f 156//156 64//64 149//149
f 156//156 149//149 157//157
f 149//149 148//148 157//157
f 157//157 148//148 151//151
f 157//157 158//158 156//156
f 157//157 151//151 160//160
f 151//151 153//153 160//160
f 159//159 154//154 147//147
f 159//159 147//147 161//161
f 147//147 152//152 161//161
f 161//161 152//152 162//162
f 158//158 157//157 163//163
f 164//164 76//76 75//75
f 163//163 157//157 160//160
f 76//76 164//164 168//168
f 168//168 81//81 76//76
f 167//167 159//159 161//161
f 167//167 161//161 162//162
f 169//169 167//167 162//162
f 122//122 130//130 172//172
f 171//171 172//172 130//130
f 112//112 122//122 172//172
f 131//131 112//112 172//172
f 176//176 172//172 171//171
f 175//175 85//85 84//84
f 131//131 172//172 176//176
f 175//175 84//84 87//87
f 176//176 171//171 174//174
f 87//87 89//89 175//175
f 176//176 138//138 131//131
f 176//176 174//174 177//177
f 177//177 174//174 178//178
f 138//138 176//176 145//145
f 177//177 145//145 176//176
f 179//179 177//177 178//178
f 145//145 177//177 179//179
f 179//179 178//178 181//181
f 152//152 145//145 179//179
f 179//179 181//181 182//182
f 180//180 91//91 93//93
f 162//162 183//183 169//169
f 94//94 180//180 93//93
f 162//162 182//182 183//183
f 162//162 179//179 182//182
f 152//152 179//179 162//162
