# Created by Open3D 
# object name: textured
# number of vertices: 64
# number of triangles: 30
v -0.00678519 -0.00472036 0.00856791
vn -0.83633 -0.543632 0.0708322
v 0.000201747 -0.00831094 0.00968525
vn -0.195467 -0.873061 0.446718
v -0.00973159 0.0035638 0.0116679
vn -0.926451 -0.293995 0.235066
v -0.00602173 -0.000171997 0.00454537
vn -0.907957 -0.181604 -0.37767
v -0.00442394 -0.000626159 0.00360953
vn 0 0 0
v -0.00315022 -0.00418713 0.00468928
vn 0 0 0
v 0.000201747 -0.00231117 0.00332163
vn 0.108659 -0.207119 -0.972263
v 0.00131907 0.00160849 0.00231176
vn 0 0 0
v -0.00470446 0.00496046 0.00334579
vn 0 0 0
v 0.000201747 0.00607778 0.00245053
vn 0.102557 0.175591 -0.979107
v 0.00131907 -0.00471357 0.00409862
vn 0 0 0
v 0.00131907 -0.00509545 0.00433481
vn 0 0 0
v -0.00692526 0.00384313 0.00409862
vn 0 0 0
v -0.00665859 -0.000626159 0.00476086
vn 0 0 0
v -0.00761952 0.00384313 0.00456115
vn 0 0 0
v -0.00479835 -0.00396687 0.0159874
vn -0.629131 -0.607282 0.485183
v 0.00364351 -0.00689417 0.0139973
vn 0.515965 -0.833566 0.197354
v 0.00353675 -0.00644703 0.00667106
vn 0.449932 -0.822976 -0.346801
v -0.00212881 0.000972252 0.021731
vn -0.496842 -0.53031 0.686964
v -0.000636244 0.00456495 0.0225358
vn 0.171345 0.130829 0.976486
v 0.00299506 -0.00174348 0.0227438
vn 0.171345 0.130829 0.976486
v -0.00883956 0.00523979 0.0071232
vn -0.86512 0.326793 -0.380491
v -0.00345546 0.0108663 0.00483004
vn -0.483552 0.600018 -0.637303
v -0.00689781 0.0120623 0.00856791
vn -0.665866 0.736941 -0.116362
v -0.00315022 0.00958947 0.00363393
vn 0 0 0
v -0.00315022 0.00607778 0.0028811
vn 0 0 0
v -0.00660583 0.00831243 0.00479212
vn 0 0 0
v 0.00131907 0.0103397 0.00333188
vn 0.102557 0.175591 -0.979107
v 0.00131907 0.0123669 0.00409862
vn 0 0 0
v -0.00315022 0.0118241 0.00474033
vn 0 0 0
v 0.00131907 0.0127817 0.00435385
vn 0 0 0
v 0.00131907 0.0103397 0.00333188
vn 0 0 0
v 0.00243639 0.0158615 0.00856791
vn -0.296068 0.952343 0.073391
v -0.00888454 0.0071526 0.0139845
vn -0.823563 0.480528 0.301391
v -0.00467637 0.00468112 0.0207174
vn -0.551862 0.482809 0.679959
v -0.0039109 0.0118646 0.016238
vn -0.471527 0.763837 0.440698
v 0.00117969 0.0113357 0.0191825
vn -0.249922 0.780981 0.57237
v 0.0108613 -0.00324191 0.00856791
vn 0.715852 -0.694856 -0.0687833
v 0.00701779 -0.00128813 0.00386545
vn 0.108659 -0.207119 -0.972263
v 0.00925245 -0.000626159 0.00472095
vn 0 0 0
v 0.00578837 0.00384313 0.00263495
vn 0.108048 -0.0476476 -0.993003
v 0.00610104 0.00674867 0.00324973
vn 0 0 0
v 0.00765666 0.00384313 0.00336678
vn 0 0 0
v 0.00578837 -0.00418474 0.00465612
vn 0 0 0
v 0.00863774 -0.000170805 0.00452187
vn 0.68071 -0.352886 -0.641954
v 0.00952495 0.00384313 0.00409862
vn 0 0 0
v 0.0102577 0.00384313 0.00454696
vn 0 0 0
v 0.0134724 0.00300514 0.0120107
vn 0.932248 -0.356907 -0.0594275
v 0.00281513 -0.00401702 0.0211366
vn 0.489107 -0.787847 0.37426
v 0.00918641 -0.00112974 0.0188881
vn 0.656891 -0.697707 0.285831
v 0.0137313 0.00440179 0.0102439
vn 0.925529 0.378564 -0.00920918
v 0.0105832 0.00440179 0.0178864
vn 0.748524 0.399871 0.528976
v 0.00989101 0.00160849 0.0192709
vn 0 0 0
v 0.00736269 0.0039828 0.0212102
vn 0.171345 0.130829 0.976486
v 0.00446808 -0.00286081 0.0219758
vn 0 0 0
v 0.00578837 0.0118889 0.00464375
vn 0 0 0
v 0.00927371 0.00831243 0.00470386
vn 0 0 0
v 0.0109693 0.0111477 0.00996788
vn 0.785835 0.60078 -0.146721
v 0.00976571 0.00607778 0.00462541
vn 0.678596 0.45035 -0.580252
v 0.00355372 0.0123353 0.0044988
vn 0.525141 0.626446 -0.576013
v 0.00416482 0.0156699 0.00995113
vn 0.466851 0.878498 0.101445
v 0.0086923 0.0110556 0.015511
vn 0.541601 0.667942 0.510413
v 0.00208737 0.0113082 0.0191825
vn 0.381094 0.667535 0.639659
v 0.00131907 0.012862 0.0175979
vn 0 0 0
f 1//1 3//3 4//4
f 1//1 2//2 16//16
f 3//3 1//1 16//16
f 16//16 2//2 19//19
f 19//19 3//3 16//16
f 23//23 22//22 24//24
f 23//23 24//24 33//33
f 24//24 22//22 34//34
f 34//34 35//35 36//36
f 34//34 36//36 24//24
f 33//33 24//24 36//36
f 37//37 33//33 36//36
f 37//37 36//36 35//35
f 41//41 39//39 7//7
f 38//38 18//18 45//45
f 48//48 38//38 45//45
f 18//18 38//38 17//17
f 17//17 38//38 50//50
f 38//38 48//48 50//50
f 49//49 17//17 50//50
f 41//41 10//10 28//28
f 59//59 60//60 58//58
f 51//51 59//59 58//58
f 61//61 58//58 60//60
f 52//52 58//58 62//62
f 58//58 52//52 51//51
f 62//62 61//61 63//63
f 61//61 62//62 58//58
f 52//52 62//62 63//63
f 54//54 20//20 21//21
