# Created by Open3D 
# object name: textured
# number of vertices: 263
# number of triangles: 242
v -0.0138369 -0.0303364 0.0119529
vn -0.939573 -0.332879 -0.0799709
v -0.0130188 -0.0230646 0.0100467
vn -0.752427 0.275312 -0.598378
v -0.01241 -0.0315595 0.00833135
vn 0 0 0
v -0.00662163 -0.030504 0.00512871
vn 0 0 0
v -0.00662163 -0.030504 0.00512871
vn -0.246921 -0.789831 -0.561424
v -0.00505687 -0.033466 0.00860752
vn -0.00151806 -0.998412 0.0563138
v -0.0113041 -0.0329273 0.0105974
vn -0.257957 -0.959745 0.111116
v -0.0108437 -0.0262819 0.00711453
vn 0 0 0
v -0.00873267 -0.030504 0.0051193
vn 0 0 0
v -0.00662163 -0.0262819 0.00610284
vn 0 0 0
v -0.0143019 -0.0276623 0.0207163
vn -0.406407 -0.815421 0.412216
v -0.0156367 -0.0241709 0.0128296
vn -0.894784 0.170968 -0.412471
v -0.00206063 -0.0316821 0.013395
vn 0.310234 -0.878435 0.363465
v -0.00814708 -0.0311288 0.0199273
vn -0.0143465 -0.89695 0.441898
v -0.0146563 -0.0257375 0.0242266
vn -0.900323 -0.402997 0.16435
v -0.000838624 -0.0161965 0.0431625
vn 0.249909 -0.910168 0.330363
v -0.0089443 -0.022025 0.0085853
vn 0 0 0
v -0.0110554 -0.0236182 0.00860752
vn -0.223635 0.580151 -0.783206
v -0.0129548 -0.0257292 0.00836152
vn 0 0 0
v -0.00451059 -0.0220598 0.00850462
vn 0 0 0
v -0.00873267 -0.0241709 0.0073161
vn 0 0 0
v -0.00662163 -0.021909 0.00860752
vn -0.223635 0.580151 -0.783206
v -0.00219174 -0.0241709 0.00860752
vn 0 0 0
v -0.0175134 -0.0196651 0.023465
vn -0.973808 -0.225285 0.0307313
v -0.0129548 -0.0202986 0.0116088
vn -0.223635 0.580151 -0.783206
v -0.0122979 -0.0178378 0.0128296
vn 0 0 0
v -0.00873267 -0.0178378 0.0112175
vn 0.022289 0.610798 -0.791472
v -0.00873267 -0.0178378 0.0112175
vn 0 0 0
v -0.00451059 -0.0178378 0.0113364
vn 0.022289 0.610798 -0.791472
v -0.0129548 -0.0061091 0.0219906
vn -0.776151 0.334461 -0.534532
v -0.00451059 -0.00939359 0.017853
vn 0.213922 0.546872 -0.809425
v -0.00662163 -0.0104311 0.0170517
vn -0.186079 0.598722 -0.779042
v -0.0108437 -0.0117433 0.0170517
vn -0.186079 0.598722 -0.779042
v -0.0172467 -0.0128651 0.0235491
vn -0.894852 0.225643 -0.385131
v -0.0108437 -0.00939359 0.0188575
vn -0.186079 0.598722 -0.779042
v -0.00451059 -0.000949427 0.0227467
vn 0.086375 0.570462 -0.81677
v -0.0129548 -0.00939359 0.019919
vn -0.261949 0.531664 -0.805429
v -0.0129548 -0.000949427 0.025493
vn -0.261949 0.531664 -0.805429
v -0.00790134 0.00749474 0.0254958
vn -0.293278 0.0154607 -0.955902
v -0.00290512 0.00749474 0.0252614
vn 0.148422 -0.187001 -0.971083
v -0.00451059 -0.000949427 0.0227467
vn 0.0785202 0.264069 -0.961302
v -0.0129548 -0.000945251 0.0254958
vn -0.372619 0.223106 -0.900766
v -0.00790134 0.00749474 0.0254958
vn -0.382037 0.0353021 -0.923473
v -0.0129548 -0.000947339 0.0254944
vn 0 0 0
v -0.0147857 -0.0194587 0.0338078
vn -0.452082 -0.781764 0.429497
v -0.0142882 -0.0212224 0.031829
vn -0.8656 -0.431904 0.253369
v -0.0161213 -0.0146712 0.0380857
vn -0.889594 -0.4166 0.187259
v -0.0191746 0.000106095 0.0371066
vn -0.982715 0.0526118 -0.177492
v -0.0191717 -0.00728255 0.0392176
vn -0.958751 -0.283794 0.0160406
v -0.00980032 -0.0175215 0.0433691
vn -0.203437 -0.932266 0.299153
v -0.0150658 -0.0137103 0.0449931
vn -0.555714 -0.821686 0.126547
v -0.0150658 -0.0135375 0.0510647
vn -0.835832 -0.548985 0.000832318
v -0.0172654 0.00116162 0.0321907
vn -0.839686 0.181591 -0.511813
v -0.0129548 0.00749474 0.0283313
vn -0.812596 0.0994639 -0.574277
v -0.0129548 0.00749474 0.0283313
vn -0.469593 0.28117 -0.836914
v -0.00790134 0.00749474 0.0254958
vn -0.292036 -0.0193447 -0.956212
v -0.0203836 -0.000422586 0.0522476
vn -0.992941 -0.117669 0.0149211
v -0.0143831 -0.0153216 0.0624391
vn -0.363476 -0.929153 -0.0675312
v -0.00490822 -0.0171884 0.0522419
vn 0.0904198 -0.994296 -0.0565675
v -0.0175263 -0.0117026 0.066925
vn -0.951625 -0.306849 0.0159526
v -0.0143831 -0.0153216 0.0624391
vn -0.783904 -0.618864 -0.0500165
v -0.0205395 0.00749474 0.0487173
vn -0.986142 0.158572 -0.0487632
v -0.0197333 0.00201923 0.0606937
vn -0.952201 0.155246 0.263083
v -0.00714939 -0.0194758 0.0719388
vn -0.107827 -0.992212 -0.062353
v -0.0129548 -0.0177847 0.0719387
vn -0.44065 -0.896487 0.0462523
v -0.0166086 -0.0136157 0.0666612
vn -0.697379 -0.712243 -0.079827
v -0.00749673 -0.0178563 0.0825383
vn -0.24751 -0.899528 0.359983
v -0.016979 -0.0136157 0.0719387
vn -0.960842 -0.250724 0.117984
v -0.0154946 -0.0148669 0.0748414
vn -0.536826 -0.807592 0.244157
v -0.0182792 -0.00476456 0.0729943
vn -0.990318 0.138816 -0.00103262
v -0.0176544 0.016073 0.0617449
vn -0.931359 -0.0841371 0.354247
v -0.0134229 0.00439207 0.0703555
vn -0.934172 0.341119 0.104693
v -0.0119617 0.00907802 0.0708832
vn -0.991408 -0.121208 -0.049182
v -0.0181699 -0.00253271 0.0857924
vn -0.982909 -0.160054 0.090953
v -0.0143445 -0.0125602 0.0861643
vn -0.430019 -0.776749 0.460157
v -0.0156749 -0.00893058 0.0878939
vn -0.91077 -0.334137 0.24259
v -0.00338669 -0.015937 0.0858281
vn 0.212761 -0.783349 0.584035
v -0.0143461 -0.00200495 0.0983648
vn -0.793747 -0.401279 0.457101
v -0.0137724 -0.00190808 0.0992703
vn -0.434004 -0.669069 0.603314
v -0.00897373 -0.00710636 0.0969575
vn -0.229213 -0.752632 0.617257
v -0.0183643 0.00960577 0.0919936
vn -0.978368 0.14787 -0.144673
v -0.0153807 0.0171397 0.0784038
vn -0.992597 -0.117625 -0.0302548
v -0.0177745 0.00592403 0.099372
vn -0.895685 -0.199778 0.397287
v -0.0177157 0.0102655 0.0996981
vn -0.866861 0.357451 0.347535
v -0.00846879 0.00248329 0.107074
vn 0.052418 -0.7344 0.67669
v -0.0108437 0.0023875 0.106219
vn -0.735779 -0.175727 0.654025
v 0.00076701 0.00435025 0.106901
vn 0.362738 -0.261253 0.894521
v -0.0101965 0.0053837 0.107826
vn -0.101531 -0.245028 0.964185
v -0.00239955 0.00960578 0.10972
vn 0.173899 -0.00118984 0.984763
v -0.00627718 0.0412714 0.00767885
vn -0.256382 -0.401543 -0.879222
v -0.00423482 0.0371097 0.00864156
vn -0.0610825 -0.445614 -0.893139
v -0.0112644 0.0159389 0.0254958
vn -0.439647 -0.175098 -0.880938
v -0.00451059 0.0159389 0.0221252
vn -0.078793 -0.410281 -0.908549
v -0.00451059 0.0159389 0.0221252
vn -0.043809 -0.355141 -0.933785
v -0.0128523 0.0319212 0.0205783
vn -0.926678 -0.0803736 -0.367162
v -0.0132804 0.0182507 0.0270352
vn -0.885868 -0.15968 -0.435592
v -0.00992934 0.0243831 0.0202075
vn 0 0 0
v -0.00873267 0.0243831 0.0191412
vn -0.261345 -0.435142 -0.861598
v -0.00239955 0.0243831 0.0172202
vn -0.261345 -0.435142 -0.861598
v -0.0127334 0.020161 0.0254958
vn -0.533638 -0.487728 -0.690906
v -0.011126 0.0243831 0.0212738
vn -0.533638 -0.487728 -0.690906
v -0.0090853 0.0281741 0.0170517
vn -0.789077 -0.277443 -0.548071
v -0.00940626 0.0391604 0.0108726
vn -0.920722 -0.0422815 -0.387923
v -0.00781964 0.0328272 0.0128296
vn 0 0 0
v -0.00451059 0.0328272 0.0112765
vn -0.0236343 -0.578471 -0.81536
v -0.00451059 0.0328272 0.0112765
vn -0.38632 -0.533711 -0.75227
v -0.00451059 0.024687 0.0170517
vn -0.216015 -0.564971 -0.796332
v -0.00873267 0.0277431 0.0170517
vn -0.38632 -0.533711 -0.75227
v -0.00781964 0.0328272 0.0128296
vn 0 0 0
v -0.0090853 0.0281741 0.0170517
vn 0 0 0
v -0.00873267 0.0355021 0.0119237
vn -0.314183 -0.472241 -0.823576
v -0.00827616 0.033391 0.0128296
vn 0 0 0
v -0.00239955 0.0328272 0.0111312
vn -0.0555142 -0.588546 -0.806556
v -0.00212377 0.0368886 0.00860752
vn -0.244242 -0.440728 -0.863774
v -0.010186 0.0432651 0.0155743
vn -0.950506 0.295178 -0.0969993
v -0.0128011 0.0363129 0.0230978
vn -0.936945 0.344967 0.0559576
v -0.00989639 0.0359938 0.0324773
vn -0.792644 0.568825 0.219439
v -0.00873267 0.0370493 0.0325258
vn -0.459766 0.823993 0.331134
v -0.00795982 0.0433824 0.00860752
vn 0 0 0
v -0.00451059 0.0433824 0.00632795
vn 0 0 0
v -0.00554937 0.046549 0.00725662
vn -0.388192 0.885486 -0.255384
v -0.00763096 0.046549 0.0101908
vn -0.926809 0.192961 -0.322167
v -0.00804551 0.046676 0.0143609
vn -0.43092 0.841852 0.324952
v -0.00238218 0.0497745 0.0136261
vn -0.191439 0.912969 0.36033
v -0.00532723 0.0366227 0.0369321
vn -0.202975 0.885753 0.417424
v -0.0155319 0.022272 0.0318289
vn -0.96414 0.104165 -0.244096
v -0.0112644 0.0159389 0.0254958
vn -0.480298 -0.191288 -0.855992
v -0.0129548 0.00749474 0.0283313
vn -0.480298 -0.191288 -0.855992
v -0.0148469 0.026758 0.0387867
vn -0.933701 0.357842 0.0123487
v -0.0118852 0.029985 0.0444049
vn -0.826757 0.561285 0.0378509
v -0.0129548 0.0288418 0.0466063
vn -0.522693 0.843856 0.121242
v -0.00536002 0.0332768 0.0484806
vn -0.284145 0.957109 0.0566017
v -0.0172755 0.0218751 0.0605889
vn -0.953821 0.298646 0.0322003
v -0.0115396 0.0311765 0.0598003
vn -0.852009 0.521701 -0.0436833
v -0.0129548 0.0289703 0.0444952
vn 0 0 0
v -0.0114753 0.0312802 0.0608558
vn -0.470151 0.876851 -0.100449
v -0.0129168 0.0306138 0.0720367
vn -0.900328 0.433327 0.0404653
v -0.0110294 0.0329908 0.0719387
vn -0.455593 0.886414 0.0818889
v -0.00398283 0.0361379 0.0687722
vn -0.142891 0.988569 -0.048093
v -0.0154093 0.0214701 0.0892821
vn -0.929641 0.337615 0.147596
v -0.00557995 0.0339089 0.0814252
vn -0.283495 0.912827 0.293899
v -0.0125105 0.0215277 0.0946835
vn -0.762666 0.505166 0.403915
v -0.0122207 0.0283876 0.0855578
vn -0.837033 0.502451 0.216609
v -0.00926296 0.0268312 0.0912421
vn -0.343157 0.781318 0.521331
v -0.0117365 0.0287059 0.0858364
vn -0.47668 0.823904 0.306527
v -0.00239955 0.0305934 0.0888271
vn 0.166218 0.803323 0.571877
v -0.0125105 0.0215277 0.0946835
vn -0.560767 0.664174 0.494381
v -0.00863816 0.0163907 0.105977
vn -0.161046 0.772583 0.61415
v -0.0108641 0.0136913 0.106499
vn -0.75528 0.313127 0.575763
v -0.00722181 0.0132541 0.108323
vn -0.0589527 0.288181 0.955759
v -0.00277492 0.014174 0.1074
vn 0.228427 0.7271 0.647416
v -0.00109012 -0.0305542 0.00966304
vn 0.926108 -0.376789 -0.0188338
v -0.00451059 -0.0262819 0.00609213
vn 0 0 0
v -0.000288509 -0.0277576 0.00860752
vn 0 0 0
v 0.000691678 -0.0226391 0.0121087
vn 0.904693 0.149368 -0.399024
v 0.00299498 -0.0210015 0.0194266
vn 0.954686 -0.295982 0.0311358
v -0.000362582 -0.0246143 0.0259939
vn 0.370064 -0.83029 0.416739
v 0.000167457 -0.0245476 0.0245127
vn 0.867301 -0.474142 0.151585
v -0.000310287 -0.0241709 0.00969611
vn 0 0 0
v -0.00216996 -0.0220598 0.00969611
vn 0 0 0
v -0.00239955 -0.0184356 0.012083
vn 0 0 0
v -0.00451059 -0.0178378 0.0113364
vn 0 0 0
v -0.000810774 -0.0184356 0.0128296
vn 0 0 0
v 0.00319368 -0.0134425 0.0224527
vn 0.901837 0.218771 -0.372599
v -0.000288509 -0.00939359 0.0199658
vn 0.773118 0.333543 -0.53948
v -0.00292181 -0.0178378 0.012083
vn 0 0 0
v -0.00239955 -0.00996074 0.0185088
vn 0 0 0
v 0.00182253 -0.0140904 0.0444952
vn 0.887162 -0.457621 0.0593867
v -0.000288509 -0.00939359 0.0199658
vn 0.570371 0.49984 -0.651795
v 0.00525388 -0.00859069 0.0334516
vn 0.95588 -0.246635 -0.159579
v 0.00158646 -0.00306047 0.0254958
vn 0.86235 0.041936 -0.504573
v 0.00233095 -0.00517151 0.0254958
vn 0.570371 0.49984 -0.651795
v -0.000288509 -0.00939359 0.0199658
vn 0.397321 0.460141 -0.793981
v 0.00158646 -0.00306047 0.0254958
vn 0 0 0
v -0.00451059 -0.000949427 0.0227467
vn 0 0 0
v -0.00129966 0.00749474 0.0254958
vn 0.394012 0.0192184 -0.918904
v 0.000841975 -0.000949427 0.0254958
vn 0.453832 0.115102 -0.883622
v 0.000841975 -0.000949427 0.0254958
vn 0.501664 0.127233 -0.855655
v -0.00129966 0.00749474 0.0254958
vn 0.412711 -0.0891932 -0.906485
v 0.00393357 0.00749474 0.028564
vn 0.501664 0.127233 -0.855655
v 0.00393357 0.00749474 0.028564
vn 0.757626 -0.270599 -0.593952
v 0.00807197 0.0119151 0.0318289
vn 0.870162 -0.231531 -0.434985
v 0.0109164 0.0053837 0.045023
vn 0.972688 -0.19803 -0.121085
v 0.00760815 -0.00622703 0.055842
vn 0.938121 -0.345854 0.0177472
v 0.00334557 -0.0136157 0.0613835
vn 0.446195 -0.893321 -0.0537355
v 0.00448666 -0.0120493 0.0612171
vn 0.830528 -0.556712 -0.0171832
v -0.000288509 -0.0171448 0.0634946
vn 0.472394 -0.873735 -0.115892
v 0.0115348 0.00960578 0.0571615
vn 0.989885 -0.0843332 0.114083
v -0.00132272 -0.0181266 0.0756776
vn 0.289692 -0.955938 0.0475485
v -0.000288509 -0.0171448 0.0634946
vn 0.771909 -0.63568 -0.00816858
v 0.00510619 -0.0107437 0.0751439
vn 0.942871 -0.333018 0.0095963
v 0.00148695 -0.0157267 0.0803829
vn 0.536102 -0.784022 0.312896
v 0.00165474 -0.0157267 0.0797805
vn 0.847328 -0.500441 0.177744
v 0.00781332 0.0045432 0.0644196
vn 0.860281 0.00431357 0.509802
v 0.00622779 -0.00308459 0.0701646
vn 0.989781 -0.0348619 0.138269
v 0.00278843 0.00749474 0.0719387
vn 0.983995 -0.152686 0.0918706
v 0.00654243 0.00485593 0.0785245
vn 0.96591 -0.0176198 -0.258277
v 0.0032274 -0.00667225 0.0930491
vn 0.946242 0.203769 -0.251205
v 0.00843858 0.000897736 0.0877481
vn 0.98009 -0.19844 0.00672104
v 0.00305273 -0.00422268 0.0969906
vn 0.455403 -0.732505 0.506008
v 0.00831739 0.00947383 0.0987703
vn 0.982156 0.018724 0.187133
v 0.00716538 0.0034767 0.100379
vn 0.853512 -0.438164 0.28201
v 0.0040524 0.00261377 0.103689
vn 0.809802 -0.357555 0.465162
v 0.00312328 0.00168937 0.104122
vn 0.146983 -0.737918 0.65869
v -0.000288509 0.0412714 0.00629527
vn -0.171818 -0.343343 -0.92336
v 0.0022698 0.0381042 0.00860752
vn 0 0 0
v -0.000288509 0.0412714 0.00629527
vn -0.207558 -0.387051 -0.898394
v 0.00393357 0.0433824 0.00730745
vn 0 0 0
v 0.00393357 0.0349382 0.0111778
vn 0.728476 -0.361513 -0.581921
v 0.00393357 0.0454935 0.00687923
vn 0.90071 0.00345817 -0.434408
v 0.00393357 0.0150025 0.0254958
vn 0.370199 -0.285378 -0.884032
v 0.00393357 0.0159389 0.0248477
vn 0.258583 -0.538411 -0.802027
v 0.00393357 0.0243831 0.019179
vn 0.258583 -0.538411 -0.802027
v 0.00182253 0.0243831 0.018173
vn 0 0 0
v -0.000288509 0.0245145 0.0170517
vn -0.0344922 -0.581979 -0.812472
v -0.000288509 0.0328272 0.0109859
vn -0.0555142 -0.588546 -0.806556
v 0.00182253 0.0257493 0.0170517
vn 0 0 0
v 0.00393357 0.0328272 0.0125672
vn 0 0 0
v 0.00792767 0.0351562 0.0153265
vn 0.929757 -0.155222 -0.333854
v -0.000288509 0.0328272 0.0109859
vn 0 0 0
v 0.00241889 0.0370493 0.00919798
vn 0 0 0
v 0.00895595 0.0394086 0.0195586
vn 0.975605 0.21944 -0.00645341
v -0.000288509 0.0244488 0.0171094
vn 0 0 0
v 0.00393357 0.0256836 0.0181154
vn 0 0 0
v 0.00659063 0.0414812 0.0242142
vn 0.843119 0.496075 0.207508
v 0.00720083 0.0402226 0.0249898
vn 0.626985 0.689191 0.363188
v -0.000288509 0.0454935 0.00521332
vn 0 0 0
v -0.00451059 0.0454935 0.00590572
vn -0.214703 -0.300446 -0.92932
v -0.000288509 0.0454935 0.00521332
vn 0 0 0
v 0.00184477 0.0496085 0.00949521
vn 0.410101 0.900159 -0.146731
v 0.00305595 0.0476045 0.00774337
vn 0 0 0
v 0.00393357 0.0484725 0.00860752
vn 0 0 0
v -0.000288509 0.0454935 0.00521332
vn 0 0 0
v 0.00094491 0.0497156 0.00800795
vn 0 0 0
v 0.00490166 0.0481031 0.0112463
vn 0.923707 0.379304 -0.0537906
v 0.00292462 0.0486511 0.0163951
vn 0.352961 0.841271 0.409489
v 0.000828142 0.0340527 0.04233
vn 0.222602 0.883184 0.412837
v 0.00606906 0.0412983 0.0255828
vn 0 0 0
v 0.00393357 0.00749474 0.028564
vn 0.408115 -0.345361 -0.845084
v 0.0108322 0.0169944 0.0371066
vn 0.970029 -0.115733 -0.213655
v 0.0113031 0.0180499 0.0431758
vn 0.975558 0.218169 0.0262275
v 0.00699435 0.0359292 0.0318468
vn 0.896012 0.373236 0.240536
v 0.00647534 0.0358201 0.0329405
vn 0.427512 0.806252 0.40889
v 0.00618783 0.0292993 0.0475875
vn 0.494177 0.854428 0.160444
v 0.00611622 0.0300594 0.0446848
vn 0.91837 0.38532 0.09014
v 0.00520254 0.0320555 0.0666612
vn 0.907823 0.419008 -0.0170108
v 0.00943092 0.0234595 0.0665292
vn 0.969012 0.243885 0.0391794
v 0.000645381 0.0328846 0.0521477
vn 0.375589 0.925317 -0.0521641
v 0.00580959 0.0303483 0.0612561
vn 0.563369 0.821207 -0.0907457
v 0.00992556 0.0173902 0.0637515
vn 0.926969 -0.250923 0.278865
v 0.00860816 0.0188742 0.0804256
vn 0.998775 -0.0479515 -0.0122424
v 0.00505386 0.0324182 0.0687722
vn 0.459594 0.88605 -0.060735
v 0.00603229 0.0311861 0.0727304
vn 0.910488 0.41323 -0.0158791
v 0.00710606 0.0283314 0.0788922
vn 0.952774 0.270955 0.137133
v 0.00496732 0.0328272 0.0719387
vn 0 0 0
v 0.00554489 0.0316014 0.0765898
vn 0.510369 0.842855 0.170641
v 7.22887e-06 0.0348766 0.0769746
vn 0.339661 0.932462 0.123068
v 0.00723449 0.0160276 0.0978571
vn 0.949441 0.24767 0.192928
v 0.00468921 0.0251252 0.0912237
vn 0.850649 0.443659 0.28207
v 0.00458457 0.029746 0.0833748
vn 0.455298 0.784211 0.421566
v 0.00537764 0.020696 0.0961966
vn 0.369477 0.72403 0.582466
v 0.00415557 0.0127724 0.105393
vn 0.852036 0.025211 0.522875
v 0.00182253 0.0148436 0.105715
vn 0.458363 0.276402 0.844692
f 5//5 6//6 7//7
f 12//12 2//2 1//1
f 14//14 11//11 7//7
f 7//7 6//6 14//14
f 13//13 14//14 6//6
f 18//18 25//25 22//22
f 2//2 12//12 30//30
f 31//31 29//29 27//27
f 24//24 12//12 1//1
f 24//24 1//1 15//15
f 30//30 12//12 34//34
f 12//12 24//24 34//34
f 32//32 33//33 35//35
f 36//36 37//37 38//38
f 39//39 40//40 41//41
f 42//42 43//43 41//41
f 15//15 46//46 24//24
f 47//47 24//24 46//46
f 45//45 11//11 14//14
f 34//34 24//24 48//48
f 49//49 48//48 24//24
f 49//49 24//24 47//47
f 50//50 14//14 16//16
f 14//14 50//50 45//45
f 50//50 51//51 45//45
f 49//49 47//47 52//52
f 53//53 34//34 48//48
f 34//34 53//53 30//30
f 54//54 30//30 53//53
f 42//42 55//55 56//56
f 49//49 57//57 48//48
f 51//51 50//50 58//58
f 59//59 50//50 16//16
f 50//50 59//59 58//58
f 62//62 48//48 57//57
f 52//52 60//60 49//49
f 60//60 57//57 49//49
f 63//63 62//62 57//57
f 64//64 65//65 58//58
f 58//58 59//59 64//64
f 60//60 52//52 61//61
f 66//66 58//58 65//65
f 65//65 64//64 67//67
f 60//60 70//70 57//57
f 63//63 57//57 70//70
f 63//63 72//72 71//71
f 73//73 71//71 72//72
f 74//74 70//70 60//60
f 60//60 68//68 74//74
f 70//70 72//72 63//63
f 69//69 65//65 67//67
f 67//67 75//75 69//69
f 77//77 80//80 67//67
f 80//80 79//79 75//75
f 80//80 75//75 67//67
f 81//81 70//70 74//74
f 74//74 68//68 76//76
f 72//72 70//70 81//81
f 73//73 72//72 81//81
f 81//81 82//82 73//73
f 76//76 83//83 74//74
f 83//83 84//84 81//81
f 81//81 74//74 83//83
f 78//78 83//83 76//76
f 85//85 80//80 77//77
f 83//83 78//78 86//86
f 85//85 79//79 80//80
f 88//88 87//87 89//89
f 39//39 92//92 93//93
f 94//94 40//40 56//56
f 98//98 99//99 93//93
f 100//100 101//101 93//93
f 106//106 107//107 108//108
f 90//90 114//114 111//111
f 103//103 95//95 115//115
f 96//96 95//95 102//102
f 95//95 103//103 102//102
f 115//115 95//95 116//116
f 116//116 117//117 115//115
f 115//115 122//122 103//103
f 123//123 124//124 121//121
f 125//125 123//123 118//118
f 126//126 96//96 54//54
f 54//54 53//53 126//126
f 127//127 43//43 128//128
f 126//126 95//95 96//96
f 126//126 53//53 48//48
f 62//62 126//126 48//48
f 62//62 129//129 126//126
f 116//116 95//95 126//126
f 126//126 129//129 116//116
f 117//117 116//116 129//129
f 130//130 117//117 129//129
f 118//118 131//131 132//132
f 118//118 132//132 125//125
f 133//133 129//129 62//62
f 63//63 133//133 62//62
f 63//63 71//71 133//133
f 130//130 129//129 133//133
f 134//134 130//130 133//133
f 132//132 131//131 136//136
f 137//137 134//134 133//133
f 73//73 82//82 71//71
f 82//82 133//133 71//71
f 136//136 139//139 132//132
f 82//82 140//140 133//133
f 137//137 133//133 140//140
f 139//139 136//136 138//138
f 140//140 82//82 81//81
f 140//140 143//143 137//137
f 138//138 141//141 139//139
f 141//141 138//138 145//145
f 140//140 142//142 143//143
f 144//144 141//141 145//145
f 146//146 141//141 144//144
f 140//140 81//81 84//84
f 83//83 149//149 84//84
f 140//140 84//84 149//149
f 149//149 83//83 86//86
f 150//150 88//88 89//89
f 142//142 140//140 149//149
f 147//147 148//148 144//144
f 146//146 144//144 148//148
f 152//152 155//155 156//156
f 152//152 156//156 158//158
f 157//157 14//14 13//13
f 164//164 156//156 155//155
f 165//165 164//164 155//155
f 156//156 164//164 170//170
f 171//171 164//164 165//165
f 36//36 172//172 169//169
f 173//173 31//31 41//41
f 176//176 177//177 41//41
f 156//156 168//168 158//158
f 157//157 16//16 14//14
f 170//170 168//168 156//156
f 170//170 164//164 171//171
f 178//178 179//179 180//180
f 182//182 170//170 171//171
f 171//171 181//181 182//182
f 168//168 170//170 184//184
f 183//183 170//170 182//182
f 185//185 59//59 16//16
f 185//185 187//187 59//59
f 183//183 184//184 170//170
f 168//168 184//184 186//186
f 184//184 183//183 188//188
f 189//189 64//64 59//59
f 189//189 59//59 187//187
f 190//190 186//186 191//191
f 189//189 187//187 192//192
f 193//193 190//190 191//191
f 191//191 186//186 184//184
f 184//184 188//188 195//195
f 188//188 194//194 195//195
f 195//195 191//191 184//184
f 195//195 196//196 197//197
f 195//195 194//194 196//196
f 67//67 64//64 189//189
f 67//67 189//189 77//77
f 192//192 77//77 189//189
f 191//191 195//195 197//197
f 199//199 193//193 191//191
f 191//191 197//197 199//199
f 200//200 77//77 192//192
f 193//193 199//199 202//202
f 198//198 193//193 203//203
f 203//203 193//193 202//202
f 201//201 202//202 199//199
f 204//204 85//85 77//77
f 204//204 77//77 200//200
f 202//202 201//201 203//203
f 205//205 114//114 91//91
f 114//114 90//90 207//207
f 176//176 40//40 93//93
f 211//211 179//179 93//93
f 213//213 212//212 93//93
f 182//182 181//181 209//209
f 215//215 107//107 105//105
f 215//215 113//113 216//216
f 219//219 209//209 210//210
f 219//219 210//210 222//222
f 219//219 182//182 209//209
f 205//205 90//90 228//228
f 235//235 222//222 210//210
f 226//226 230//230 236//236
f 124//124 230//230 121//121
f 236//236 230//230 124//124
f 125//125 237//237 124//124
f 124//124 123//123 125//125
f 124//124 237//237 236//236
f 235//235 225//225 222//222
f 226//226 236//236 237//237
f 211//211 239//239 40//40
f 240//240 182//182 219//219
f 240//240 219//219 241//241
f 240//240 183//183 182//182
f 241//241 219//219 222//222
f 241//241 222//222 242//242
f 222//222 225//225 242//242
f 243//243 226//226 237//237
f 241//241 242//242 245//245
f 244//244 243//243 237//237
f 183//183 240//240 241//241
f 188//188 183//183 241//241
f 247//247 188//188 241//241
f 247//247 241//241 246//246
f 244//244 237//237 248//248
f 241//241 245//245 246//246
f 237//237 125//125 132//132
f 132//132 248//248 237//237
f 249//249 244//244 248//248
f 194//194 188//188 250//250
f 250//250 196//196 194//194
f 250//250 188//188 247//247
f 196//196 250//250 251//251
f 250//250 247//247 251//251
f 248//248 252//252 249//249
f 247//247 246//246 253//253
f 248//248 132//132 139//139
f 253//253 254//254 247//247
f 139//139 257//257 248//248
f 252//252 248//248 257//257
f 257//257 139//139 141//141
f 256//256 252//252 257//257
f 197//197 196//196 251//251
f 251//251 199//199 197//197
f 201//201 199//199 251//251
f 201//201 251//251 258//258
f 251//251 247//247 254//254
f 251//251 254//254 258//258
f 257//257 260//260 256//256
f 146//146 257//257 141//141
f 261//261 260//260 146//146
f 257//257 146//146 260//260
f 258//258 254//254 259//259
f 87//87 263//263 89//89
f 150//150 89//89 263//263
f 203//203 201//201 262//262
f 258//258 262//262 201//201
f 148//148 151//151 146//146
f 146//146 151//151 261//261
