# Created by Open3D 
# object name: textured
# number of vertices: 246
# number of triangles: 180
v -0.0154653 -0.0123795 0.00935826
vn -0.652847 -0.682295 -0.329035
v -0.0105742 -0.0122705 0.00499543
vn -0.405405 -0.73995 -0.536769
v -0.00690376 -0.0126582 0.00467641
vn -0.144049 -0.882748 -0.44722
v -0.00873898 -0.0113391 0.003984
vn 0 0 0
v -0.00506855 -0.00950387 0.00305199
vn 0 0 0
v -0.00323333 -0.0125084 0.00471049
vn 0 0 0
v -0.00690376 -0.0126582 0.00467641
vn -0.110012 -0.403792 -0.908212
v -0.0102424 -0.015604 0.0115664
vn -0.190585 -0.969027 -0.157049
v -0.00323333 -0.0136777 0.00568784
vn 0.221906 -0.915295 -0.336145
v -0.00369213 -0.0145315 0.00724157
vn 0.0448394 -0.983376 -0.175958
v -0.00506854 -0.0165681 0.0130287
vn 0.22295 -0.968299 -0.112655
v -0.00438034 -0.01609 0.0244988
vn 0.0646165 -0.995658 -0.067011
v -0.017915 -0.00542844 0.00568784
vn -0.825426 -0.418893 -0.378419
v -0.0214538 0.00338176 0.00715959
vn -0.917422 -0.300232 -0.261147
v -0.0160798 -0.000327799 0.00315232
vn -0.372928 -0.181635 -0.909909
v -0.0191206 0.00242502 0.00450517
vn 0 0 0
v -0.0169974 0.00334262 0.00302981
vn -0.57076 -0.0945042 -0.815661
v -0.0202381 -0.00863079 0.0166991
vn -0.935324 -0.343246 -0.0857446
v -0.0231948 0.00471904 0.0125699
vn -0.969192 -0.236229 -0.069736
v -0.0120588 -0.0113391 0.00499543
vn 0 0 0
v -0.0142446 -0.00583343 0.00349919
vn -0.372928 -0.181635 -0.909909
v -0.0105742 -0.00766865 0.00290265
vn -0.118634 -0.163433 -0.979396
v -0.0124094 -0.00950387 0.00416194
vn 0 0 0
v -0.017915 -0.00471333 0.00536395
vn -0.426945 -0.285541 -0.858012
v -0.0124094 -0.00399822 0.0026061
vn 0 0 0
v -0.0124094 -0.00766865 0.00346175
vn 0 0 0
v -0.00915039 -0.00369124 0.00206647
vn -0.118634 -0.163433 -0.979396
v -0.00208766 -0.00444396 0.00201741
vn 0 0 0
v -0.00323333 -0.00399822 0.00193008
vn 0 0 0
v -0.0105742 -0.00766865 0.00290265
vn -0.110012 -0.403792 -0.908212
v -0.00690376 -0.00766865 0.00245805
vn -0.114561 -0.303979 -0.945766
v -0.00690376 -0.00766865 0.00245805
vn 0 0 0
v -0.00323333 -0.00627917 0.00222821
vn 0.0138047 -0.285054 -0.958412
v -0.00174289 -0.00399822 0.00199493
vn 0.053118 -0.0752772 -0.995747
v -0.0112418 -0.000327799 0.00194221
vn -0.0801294 -0.0373761 -0.996083
v -0.0112418 -0.00124656 0.00201741
vn 0 0 0
v -0.011973 0.00334262 0.00186732
vn 0 0 0
v -0.0105742 0.00334262 0.00171724
vn -0.00278711 0.00273455 -0.999992
v -0.017915 -0.000327799 0.00390448
vn -0.407642 -0.247381 -0.878994
v -0.0142446 -0.00216301 0.00268885
vn -0.308989 -0.170461 -0.935665
v -0.0140264 0.00517784 0.00212886
vn -0.201064 -0.0685655 -0.977175
v -0.00323333 0.00334262 0.00169678
vn 0.00893659 -0.00407731 -0.999952
v -0.0105742 -0.000327799 0.001867
vn -0.00278481 -0.0407678 -0.999165
v -0.00854941 -0.00399822 0.00201741
vn 0 0 0
v -0.00690376 -0.00399822 0.00193337
vn -0.0205845 -0.0219224 -0.999548
v -0.00690376 -0.00399822 0.00193337
vn 0.0119187 -0.0381629 -0.9992
v -0.00323333 0.00334262 0.00169678
vn 0.0274145 0.0148629 -0.999514
v -0.0167389 -0.0125927 0.0179954
vn -0.63684 -0.770319 0.0322918
v -0.00920593 -0.016023 0.0223259
vn -0.287116 -0.957626 0.0227481
v -0.00460974 -0.0159779 0.0226636
vn 0.183977 -0.982882 0.00977885
v -0.00415094 -0.0162594 0.0267928
vn 0.178466 -0.983564 0.0274046
v -0.00438034 -0.0163212 0.0300044
vn -0.108134 -0.984066 0.141145
v -0.021007 -0.00447729 0.0334892
vn -0.939145 -0.324814 0.111816
v -0.0230758 0.00586604 0.0212871
vn -0.981397 -0.191255 0.0167677
v -0.0228565 0.00586604 0.0325278
vn -0.969491 -0.183394 0.162649
v -0.0117694 -0.014361 0.0357888
vn -0.352381 -0.924173 0.14742
v -0.01696 -0.0105096 0.0382955
vn -0.776632 -0.596358 0.202979
v -0.00506854 -0.0152535 0.0364276
vn 0.169317 -0.93318 0.317028
v -0.014327 -0.0113391 0.0405569
vn -0.44624 -0.507678 0.736976
v -0.00506854 -0.0133435 0.0407724
vn -0.125413 -0.864014 0.487598
v -0.00506854 -0.0114237 0.0422438
vn 0.160769 -0.775256 0.610845
v -0.00690376 -0.0136887 0.0405569
vn 0 0 0
v -0.0189966 0.000131003 0.0404317
vn -0.784942 -0.219466 0.579396
v -0.0215855 0.00517784 0.0375533
vn -0.913161 -0.365243 0.180926
v -0.0199915 0.00104861 0.0394383
vn -0.793613 0.0486845 0.606472
v -0.0167926 0.00884826 0.0429981
vn -0.798034 0.144068 0.585137
v -0.0104191 -0.00753244 0.0442273
vn -0.341214 -0.447008 0.826896
v -0.013327 -0.00216301 0.0434087
vn -0.529382 -0.183204 0.828367
v -0.0151622 0.00471904 0.0435271
vn -0.50644 -0.149672 0.849186
v -0.013327 -0.00216301 0.0434087
vn -0.285833 -0.113637 0.951518
v -0.00759196 -0.00718556 0.0445316
vn -0.0658414 0.00669296 0.997808
v 6.44395e-05 -0.00675104 0.0443231
vn 0.0243058 0.0684931 0.997355
v -0.0142446 0.00517784 0.0440097
vn 0.00826864 -0.0416222 0.999099
v -0.0210998 0.00517784 0.00568784
vn -0.57076 -0.0945042 -0.815661
v -0.017915 0.00701305 0.00324664
vn -0.457354 0.0107001 -0.88922
v -0.0211411 0.00701305 0.00568784
vn 0 0 0
v -0.0207967 0.00884828 0.00568784
vn 0 0 0
v -0.017915 0.0106835 0.00375681
vn -0.310909 0.130847 -0.94139
v -0.017915 0.00701305 0.00324664
vn 0 0 0
v -0.0210188 0.0106835 0.00668693
vn -0.95563 0.210844 -0.20571
v -0.0180635 0.0127137 0.00472232
vn -0.567921 0.619634 -0.541775
v -0.0216717 0.00563664 0.00660544
vn -0.967729 0.191516 -0.163772
v -0.0231948 0.00471904 0.0125699
vn -0.976042 0.195065 -0.0963936
v -0.0219079 0.0133688 0.0170432
vn -0.950813 0.305187 -0.0530595
v -0.0206965 0.0143539 0.00935826
vn -0.695139 0.663703 -0.276187
v -0.0184829 0.0182399 0.0230937
vn -0.672581 0.740019 -0.00261282
v -0.0118869 0.00871632 0.00201741
vn -0.0955332 0.0820569 -0.992038
v -0.0105742 0.00701305 0.00175011
vn 0.000867631 0.0319432 -0.999489
v -0.0139834 0.00884828 0.00231994
vn 0 0 0
v -0.0104692 0.00884828 0.0018918
vn -0.0377716 0.0722296 -0.996673
v -0.0142446 0.0106835 0.0025446
vn -0.185459 0.142251 -0.972301
v -0.00852898 0.0109656 0.00198344
vn -0.00341569 0.0352078 -0.999374
v -0.00690376 0.0106835 0.00188151
vn 0.00708684 0.028697 -0.999563
v -0.00323333 0.0111407 0.00197151
vn 0.0251605 0.0601363 -0.997873
v -0.00690376 0.0112477 0.00194946
vn 0 0 0
v -0.0105742 0.0187973 0.00501807
vn -0.445858 0.759157 -0.474228
v -0.0142446 0.0125187 0.00298476
vn 0 0 0
v -0.017915 0.0106835 0.00375681
vn 0 0 0
v -0.0124094 0.0143539 0.00307949
vn -0.07536 0.29972 -0.951046
v -0.0105742 0.0143539 0.00273406
vn -0.097878 0.148672 -0.984031
v -0.0124094 0.0143539 0.00307949
vn 0 0 0
v -0.0105742 0.0180243 0.00434831
vn 0 0 0
v -0.00690376 0.0130829 0.00224267
vn -0.07536 0.29972 -0.951046
v -0.00323333 0.0129759 0.00223754
vn 0 0 0
v -0.00873898 0.0184108 0.00440901
vn 0 0 0
v -0.00690376 0.0180243 0.00379995
vn -0.07536 0.29972 -0.951046
v -0.00690376 0.0180243 0.00379995
vn -0.0296462 0.614015 -0.788737
v -0.00323333 0.0180243 0.00366199
vn 0.0508176 0.311361 -0.948932
v -0.00323333 0.0143539 0.00245767
vn 0.0671126 0.221555 -0.972836
v -0.00323333 0.0180243 0.00366199
vn -0.0296462 0.614015 -0.788737
v -0.00690376 0.0204494 0.00568784
vn -0.0296462 0.614015 -0.788737
v -0.00323333 0.0194402 0.00467491
vn 0 0 0
v -0.0142832 0.020343 0.0111816
vn -0.442004 0.885208 -0.145049
v -0.00598615 0.0231596 0.0125699
vn -0.237801 0.970308 -0.0441856
v -0.00415094 0.0222043 0.00811301
vn -0.271285 0.895616 -0.352528
v -0.00139812 0.0211797 0.0062778
vn 0.224329 0.742439 -0.631238
v -0.00460974 0.0230243 0.0102759
vn 0.0730987 0.986826 -0.144328
v -0.0230758 0.00586604 0.0212871
vn -0.991059 0.133295 -0.00591078
v -0.0223508 0.0120635 0.0324131
vn -0.941743 0.328559 0.0719027
v -0.0229355 0.00598074 0.0318969
vn -0.993825 0.0900245 0.0648643
v -0.0114002 0.0220819 0.0335601
vn -0.288912 0.957276 0.0123781
v -0.0012302 0.0235778 0.0203695
vn -0.116431 0.992936 0.0228341
v -0.0220854 0.00598075 0.0363022
vn -0.859484 0.138594 0.492016
v -0.0193249 0.0158211 0.0372966
vn -0.774099 0.5122 0.37205
v -0.0142446 0.0153584 0.0442273
vn -0.67823 0.507915 0.531062
v -0.00969413 0.0192523 0.0421132
vn -0.410294 0.794517 0.447663
v -0.0148597 0.0201798 0.0364276
vn -0.495527 0.835468 0.237585
v -0.00506854 0.022708 0.0368864
vn -0.175039 0.969766 0.170045
v -0.00291899 0.0236487 0.0316102
vn 0.0856249 0.988729 0.122817
v -0.00506854 0.022126 0.0387217
vn 0.0671594 0.918425 0.389853
v -0.00506854 0.018934 0.0430875
vn 0.09001 0.766295 0.636152
v -0.0162438 0.00976588 0.0435261
vn 0 0 0
v -0.0130976 0.0132286 0.0450367
vn -0.0143396 0.0556461 0.998348
v 0.00227231 0.0119736 0.0448164
vn 0.0542772 -0.0674184 0.996247
v -0.00357743 0.0168773 0.0443909
vn -0.00146274 0.239974 0.970778
v -0.00690376 0.0197463 0.0423921
vn -0.12062 0.469519 0.874644
v -0.00139812 -0.011732 0.00435138
vn 0 0 0
v -0.00323333 -0.0113391 0.00373315
vn 0.0138047 -0.285054 -0.958412
v 0.00485085 -0.0113391 0.00542172
vn 0.12194 -0.405268 -0.906029
v 0.000437092 -0.00950387 0.00347287
vn 0 0 0
v 0.00264397 -0.0118704 0.00532873
vn 0.354806 -0.754478 -0.552155
v 0.00726965 -0.0130691 0.0109641
vn 0.348899 -0.914248 -0.20596
v 0.0114484 -0.0104159 0.00935826
vn 0.631374 -0.713895 -0.302855
v 0.000437092 -0.00766865 0.00269434
vn 0.0138047 -0.285054 -0.958412
v 0.000437092 -0.00766865 0.00269434
vn 0.107488 -0.124126 -0.986427
v 0.00410752 -0.00766865 0.00322952
vn 0 0 0
v 0.00227231 -0.00950387 0.00374046
vn 0.177165 -0.274013 -0.945267
v 0.00594273 -0.00399822 0.00283241
vn 0.107488 -0.124126 -0.986427
v 0.00410752 -0.00583343 0.00285898
vn 0.12194 -0.405268 -0.906029
v 0.0109574 -0.00574613 0.00503779
vn 0.578327 -0.438714 -0.687799
v 0.00777794 -0.00766865 0.00417387
vn 0.12194 -0.405268 -0.906029
v 0.00410752 -0.00399822 0.00248845
vn 0.177165 -0.274013 -0.945267
v 0.00777794 -0.00399822 0.00317637
vn 0.177165 -0.274013 -0.945267
v 0.00777794 -0.00583343 0.00367512
vn 0 0 0
v 0.0114484 -0.00548421 0.0050945
vn 0 0 0
v 0.00961317 -0.00583343 0.00433751
vn 0 0 0
v 0.000437092 -0.00399822 0.00210215
vn 0.0441827 -0.0330458 -0.998477
v -0.00323333 0.00334262 0.00169678
vn 0.0441827 -0.0330458 -0.998477
v 0.00410752 -0.000327799 0.00214309
vn 0.0958931 -0.0496962 -0.99415
v 0.00410752 -0.000327799 0.00214309
vn 0 0 0
v 0.00410752 -0.000327799 0.00214309
vn 0.180162 -0.100123 -0.978528
v 0.00410752 0.00334262 0.00205722
vn 0.0490281 -0.0233606 -0.998524
v 0.00777794 -0.000327799 0.00269288
vn 0 0 0
v 0.00961317 -0.000327799 0.00324902
vn 0.196277 -0.0818573 -0.977126
v 0.0114484 -0.00216301 0.00415316
vn 0 0 0
v 0.00410752 0.00334262 0.00205722
vn 0.0792905 0.0244303 -0.996552
v 0.00777794 0.00334262 0.00257289
vn 0.173901 -0.0376357 -0.984044
v 0.00777794 0.00334262 0.00257289
vn 0.294596 0.0657984 -0.953354
v 0.0128645 -0.000327799 0.0047465
vn 0.281324 -0.159431 -0.946276
v 0.0114484 0.00334262 0.0037071
vn 0.286743 -0.0937545 -0.953409
v 0.013786 -0.00216301 0.00568784
vn 0 0 0
v 0.0128109 0.00334262 0.00469747
vn 0 0 0
v 0.0145495 -0.00622957 0.00902471
vn 0.810842 -0.310443 -0.496146
v 0.0160871 -0.00475216 0.0127993
vn 0.930788 -0.351027 -0.102052
v 0.015472 0.00242502 0.00789932
vn 0.966841 -0.0582593 -0.248644
v 0.0167237 0.00150741 0.0111935
vn 0.950087 0.249505 -0.187304
v 0.0133195 0.00517784 0.00528413
vn 0.896203 0.174525 -0.407874
v 0.00640153 -0.0139693 0.0173873
vn 0.29097 -0.956368 -0.0264042
v 0.0135539 -0.010343 0.0244988
vn 0.722654 -0.691039 -0.0153717
v 0.00823692 -0.0136728 0.032529
vn 0.305214 -0.947744 0.0928729
v 0.0170195 -0.00357952 0.0256458
vn 0.980326 -0.196832 -0.0147532
v 0.0167353 0.00146338 0.0199618
vn 0.996251 0.074602 0.0438097
v 0.0162591 0.00609545 0.0166991
vn 0.995059 0.0992729 0.00123281
v 0.0165427 0.00242502 0.0180755
vn 0.99646 0.0826835 0.0151756
v 0.0164435 0.00380143 0.0199107
vn 0 0 0
v 0.0166024 0.00242502 0.0203695
vn 0.993318 0.113846 -0.0189325
v 0.0121833 -0.0103816 0.0361118
vn 0.721019 -0.653568 0.230175
v 0.0156147 0.011653 0.02404
vn 0.96462 0.259158 -0.0484339
v 0.016954 0.00150741 0.0332988
vn 0.987139 0.129053 0.0943488
v 0.00823674 -0.0112923 0.0389087
vn 0.20629 -0.840746 0.500589
v 0.00472787 -0.0076314 0.0435229
vn 0.180322 -0.699165 0.691847
v 0.0117028 -0.00380429 0.0416409
vn 0.747828 -0.311708 0.586167
v 0.0121941 -0.00170421 0.0415647
vn 0.356219 0.0647552 0.932156
v 0.00641266 0.00540724 0.04328
vn 0.130615 -0.018207 0.991266
v 0.0119958 0.00701305 0.0409715
vn 0.391656 -0.0402446 0.919231
v 0.0159082 -0.00443826 0.0359385
vn 0.950758 -0.22922 0.20861
v 0.0151069 0.00150741 0.0387041
vn 0.972564 0.0234029 0.231457
v 0.0152876 0.0102339 0.0355741
vn 0.934533 0.28646 0.211159
v 0.0141893 0.00150741 0.0397165
vn 0.909573 0.0791724 0.407933
v 0.0134909 0.00976588 0.0394177
vn 0.879529 0.193553 0.434703
v 0.00121145 -0.00783339 0.0442273
vn 0 0 0
v -0.000480514 -0.00950386 0.0432691
vn 0 0 0
v 0.00555546 -0.00456554 0.044237
vn 0.190289 0.0775565 0.97866
v -0.000279289 0.0106835 0.00205554
vn 0.0654321 0.0484028 -0.996682
v 0.00594273 0.00701305 0.00242533
vn 0.0843213 0.0219849 -0.996196
v 0.00410752 0.00701305 0.00213705
vn 0.0490299 0.0217182 -0.998561
v 0.00410752 0.00884828 0.00229619
vn 0 0 0
v 0.00410752 0.0106835 0.00245533
vn 0.0895242 0.164359 -0.98233
v 0.00961317 0.00701305 0.00339332
vn 0.324371 0.0946655 -0.941181
v 0.00777794 0.00884828 0.00293048
vn 0.379703 0.149459 -0.912955
v 0.00961317 0.0106835 0.00399421
vn 0.379703 0.149459 -0.912955
v 0.0124657 0.00701305 0.00488043
vn 0 0 0
v 0.000437092 0.0143539 0.00265423
vn 0.0508176 0.311361 -0.948932
v 0.00227231 0.0143539 0.00290219
vn 0.0964183 0.189157 -0.977202
v 0.00410752 0.0125187 0.00280274
vn 0 0 0
v 0.000437092 0.0161891 0.0032758
vn 0.151931 0.340807 -0.927776
v 0.00227231 0.0180243 0.00425047
vn 0.152717 0.472957 -0.867749
v 0.00410752 0.0161891 0.00387686
vn 0 0 0
v 0.00777794 0.0143539 0.004072
vn 0 0 0
v 0.0131408 0.0114354 0.00756908
vn 0.915841 0.292614 -0.274978
v 0.00777794 0.0143539 0.004072
vn 0.429473 0.54541 -0.719778
v 0.00961317 0.0136913 0.00487992
vn 0 0 0
v 0.0114484 0.0106835 0.00484107
vn 0 0 0
v 0.00851581 0.0184753 0.00763523
vn 0.510608 0.633654 -0.581173
v 0.0130138 0.0161891 0.0121111
vn 0.854012 0.495168 -0.159601
v -0.00139812 0.0207605 0.00568784
vn 0.149751 0.609746 -0.778322
v 0.000437092 0.0180243 0.00389737
vn 0.149751 0.609746 -0.778322
v 0.00364871 0.0222824 0.00984174
vn 0.219905 0.945128 -0.241608
v -0.00123106 0.0235983 0.0206137
vn 0.0360758 0.998834 -0.0320905
v 0.00310531 0.0234924 0.0221953
vn 0.186583 0.981773 -0.0361896
v 0.00841048 0.0207681 0.0124517
vn 0.530329 0.842305 -0.0963025
v 0.0161814 0.00747185 0.0196813
vn 0 0 0
v 0.012662 0.0184706 0.0279025
vn 0.794831 0.604838 0.0491359
v 0.00703757 0.0224094 0.0327572
vn 0.361229 0.931357 0.0456856
v 0.012366 0.00793066 0.0406108
vn 0 0 0
v 0.00998847 0.0111423 0.0428017
vn 0 0 0
v 0.0102389 0.0166445 0.0409697
vn 0.807198 0.508031 0.300559
v 0.00640153 0.0171067 0.0431449
vn 0.236842 0.740098 0.629413
v 0.0151188 0.00701305 0.0372161
vn 0 0 0
v 0.0141127 0.00884826 0.0387217
vn 0 0 0
v 0.0152622 0.00701305 0.0368864
vn 0 0 0
v 0.0119662 0.00884826 0.040991
vn 0 0 0
v 0.00869847 0.0205501 0.037121
vn 0.58978 0.740707 0.321735
v 0.00445162 0.0214191 0.038747
vn 0.133532 0.892028 0.431804
v 0.00881797 0.0134363 0.043666
vn 0.26981 -0.0740933 0.960059
v 0.00525453 0.0166479 0.0436765
vn 0.105003 0.171882 0.979505
f 2//2 8//8 1//1
f 8//8 3//3 10//10
f 8//8 2//2 3//3
f 10//10 12//12 8//8
f 1//1 18//18 13//13
f 13//13 18//18 14//14
f 14//14 18//18 19//19
f 7//7 30//30 31//31
f 22//22 27//27 31//31
f 24//24 39//39 40//40
f 21//21 39//39 15//15
f 40//40 41//41 35//35
f 38//38 42//42 43//43
f 35//35 42//42 45//45
f 34//34 46//46 47//47
f 2//2 1//1 13//13
f 8//8 49//49 48//48
f 1//1 8//8 48//48
f 8//8 12//12 49//49
f 12//12 52//52 49//49
f 1//1 48//48 18//18
f 18//18 54//54 19//19
f 18//18 48//48 53//53
f 53//53 54//54 18//18
f 49//49 56//56 48//48
f 49//49 52//52 56//56
f 48//48 56//56 57//57
f 59//59 57//57 56//56
f 60//60 59//59 56//56
f 60//60 56//56 52//52
f 53//53 48//48 57//57
f 53//53 55//55 54//54
f 53//53 57//57 63//63
f 59//59 63//63 57//57
f 55//55 53//53 63//63
f 63//63 64//64 55//55
f 67//67 68//68 59//59
f 63//63 59//59 68//68
f 69//69 63//63 68//68
f 59//59 60//60 67//67
f 70//70 71//71 73//73
f 72//72 73//73 71//71
f 17//17 74//74 75//75
f 83//83 84//84 82//82
f 80//80 82//82 84//84
f 80//80 85//85 81//81
f 84//84 85//85 80//80
f 84//84 86//86 85//85
f 88//88 87//87 90//90
f 78//78 91//91 75//75
f 38//38 90//90 47//47
f 88//88 93//93 47//47
f 94//94 42//42 92//92
f 90//90 91//91 100//100
f 103//103 99//99 106//106
f 96//96 81//81 85//85
f 107//107 111//111 110//110
f 85//85 113//113 96//96
f 85//85 86//86 113//113
f 113//113 115//115 96//96
f 113//113 114//114 115//115
f 118//118 84//84 83//83
f 84//84 118//118 119//119
f 84//84 119//119 86//86
f 113//113 121//121 114//114
f 121//121 122//122 114//114
f 113//113 86//86 121//121
f 118//118 120//120 119//119
f 120//120 123//123 119//119
f 86//86 119//119 124//124
f 65//65 66//66 123//123
f 124//124 123//123 66//66
f 119//119 123//123 124//124
f 124//124 66//66 125//125
f 124//124 125//125 126//126
f 127//127 121//121 86//86
f 86//86 124//124 127//127
f 122//122 121//121 128//128
f 121//121 127//127 128//128
f 127//127 124//124 126//126
f 127//127 126//126 128//128
f 73//73 134//134 133//133
f 134//134 135//135 133//133
f 133//133 135//135 136//136
f 141//141 142//142 9//9
f 9//9 142//142 11//11
f 142//142 141//141 143//143
f 33//33 144//144 138//138
f 34//34 148//148 145//145
f 149//149 151//151 139//139
f 152//152 153//153 147//147
f 158//158 159//159 157//157
f 161//161 42//42 162//162
f 164//164 159//159 167//167
f 169//169 161//161 170//170
f 150//150 143//143 141//141
f 150//150 173//173 143//143
f 174//174 143//143 173//173
f 173//173 150//150 175//175
f 173//173 175//175 174//174
f 178//178 50//50 11//11
f 142//142 178//178 11//11
f 179//179 178//178 142//142
f 142//142 143//143 179//179
f 50//50 178//178 51//51
f 178//178 180//180 51//51
f 178//178 179//179 180//180
f 143//143 174//174 179//179
f 174//174 181//181 179//179
f 175//175 182//182 181//181
f 175//175 181//181 174//174
f 184//184 176//176 183//183
f 186//186 188//188 189//189
f 51//51 180//180 58//58
f 179//179 187//187 180//180
f 58//58 190//190 61//61
f 191//191 61//61 190//190
f 180//180 190//190 58//58
f 180//180 187//187 190//190
f 193//193 195//195 194//194
f 181//181 196//196 179//179
f 179//179 196//196 187//187
f 181//181 182//182 196//196
f 182//182 197//197 196//196
f 192//192 187//187 196//196
f 192//192 196//196 197//197
f 199//199 189//189 198//198
f 194//194 72//72 203//203
f 72//72 194//194 73//73
f 203//203 193//193 194//194
f 94//94 204//204 47//47
f 204//204 205//205 47//47
f 166//166 42//42 206//206
f 166//166 205//205 167//167
f 168//168 209//209 170//170
f 210//210 211//211 209//209
f 109//109 214//214 94//94
f 204//204 214//214 208//208
f 109//109 108//108 213//213
f 216//216 217//217 214//214
f 221//221 224//224 220//220
f 220//220 176//176 177//177
f 220//220 188//188 176//176
f 224//224 225//225 220//220
f 220//220 225//225 188//188
f 224//224 221//221 116//116
f 227//227 226//226 217//217
f 228//228 224//224 116//116
f 117//117 228//228 116//116
f 230//230 228//228 117//117
f 228//228 231//231 224//224
f 225//225 224//224 231//231
f 188//188 183//183 176//176
f 225//225 233//233 188//188
f 117//117 229//229 230//230
f 230//230 231//231 228//228
f 231//231 233//233 225//225
f 231//231 230//230 234//234
f 129//129 230//230 229//229
f 231//231 234//234 233//233
f 188//188 198//198 189//189
f 188//188 233//233 198//198
f 198//198 200//200 199//199
f 198//198 237//237 200//200
f 233//233 237//237 198//198
f 129//129 234//234 230//230
f 233//233 234//234 243//243
f 129//129 130//130 244//244
f 129//129 244//244 234//234
f 131//131 238//238 244//244
f 131//131 244//244 130//130
f 233//233 243//243 237//237
f 244//244 243//243 234//234
f 244//244 238//238 243//243
f 238//238 237//237 243//243
f 73//73 194//194 134//134
f 194//194 245//245 134//134
f 195//195 245//245 194//194
f 246//246 135//135 134//134
f 134//134 245//245 246//246
