# Created by Open3D 
# object name: textured
# number of vertices: 188
# number of triangles: 124
v -0.00968211 -0.0189273 0.00740419
vn -0.336243 -0.887439 -0.315265
v -0.0182585 -0.0139509 0.00790846
vn -0.639656 -0.707181 -0.301223
v -0.00664568 -0.0182141 0.00646269
vn 0 0 0
v -0.00968213 -0.0169505 0.00599843
vn 0 0 0
v -0.00864816 -0.0191535 0.00740419
vn 0 0 0
v -0.00482381 -0.0169505 0.00562647
vn 0 0 0
v -0.0266861 0.00146659 0.0072442
vn 0 0 0
v -0.0266458 0.000252016 0.00740419
vn 0 0 0
v -0.0253141 -0.00389389 0.00773073
vn -0.730401 -0.520247 -0.442559
v -0.0169695 -0.00723397 0.00346459
vn 0 0 0
v -0.0193987 -0.00966313 0.00557894
vn 0 0 0
v -0.0121113 -0.00723397 0.00237049
vn -0.126414 -0.100035 -0.986921
v -0.00725296 -0.00851718 0.00223309
vn 0 0 0
v -0.0126347 -0.00864248 0.00286689
vn 0 0 0
v -0.0121113 -0.0169505 0.00647569
vn 0 0 0
v -0.015755 -0.0144389 0.00637862
vn 0 0 0
v -0.0121113 -0.0120923 0.00382988
vn 0 0 0
v -0.00725296 -0.0103734 0.00272469
vn 0.00637719 -0.239938 -0.970767
v -0.0195964 -0.0012432 0.00338564
vn 0 0 0
v -0.0178068 -2.863e-05 0.0025459
vn -0.416444 -0.176136 -0.891936
v -0.0201895 0.00248261 0.00316247
vn -0.416444 -0.176136 -0.891936
v -0.0169695 0.00491176 0.0021888
vn -0.155342 -0.0421915 -0.986959
v -0.0218278 -0.00723397 0.00580485
vn 0 0 0
v -0.0234194 -0.00359025 0.0058697
vn -0.416444 -0.176136 -0.891936
v -0.0218278 5.3465e-05 0.00405713
vn 0 0 0
v -0.0266055 5.34654e-05 0.00740419
vn 0 0 0
v -0.0218278 0.00248261 0.00377904
vn 0 0 0
v -0.00968213 -0.00723397 0.00214539
vn -0.019672 -0.146534 -0.98901
v -0.00725296 0.00248261 0.000763309
vn -0.0203964 -0.0246965 -0.999487
v -0.0169695 -0.00237568 0.00250033
vn -0.155342 -0.0421915 -0.986959
v -0.0126347 -0.00723397 0.00245819
vn 0 0 0
v -0.0169695 -0.00237568 0.00250033
vn -0.126414 -0.100035 -0.986921
v -0.00725296 0.00248261 0.000763309
vn -0.029425 0.0271581 -0.999198
v -0.0109454 -0.0213582 0.0155942
vn -0.340292 -0.937812 -0.0686281
v -0.0192568 -0.0169096 0.0204062
vn -0.522029 -0.821884 0.228021
v -0.00224285 -0.0217566 0.0127995
vn -0.0629628 -0.996554 -0.0539898
v -0.00579115 -0.0201273 0.0250155
vn -0.219933 -0.892143 0.394602
v -0.0277466 -0.00413919 0.0120337
vn -0.775195 -0.538151 -0.330857
v -0.0256766 -0.0109017 0.0189116
vn -0.800215 -0.596534 -0.0616671
v -0.0305811 -0.00176839 0.0183354
vn -0.879911 -0.47429 -0.0283727
v -0.0274416 -0.000553821 0.0088349
vn -0.859384 -0.0193485 -0.510965
v -0.0298037 0.00582269 0.0125661
vn -0.918783 0.0598184 -0.390204
v -0.0307587 -0.000553821 0.0183354
vn -0.990679 -0.0968708 -0.0957668
v -0.0269287 -0.0057604 0.0292665
vn -0.730734 -0.550981 0.403049
v -0.0310602 0.00126804 0.0244082
vn -0.895729 -0.375899 0.237424
v -0.029868 0.00217897 0.0296295
vn -0.956233 -0.105505 0.272923
v -0.0259542 -0.00237568 0.00740419
vn 0 0 0
v -0.0266458 5.34654e-05 0.00744827
vn 0 0 0
v -0.00907484 -0.0139078 0.0342504
vn -0.0816113 -0.767158 0.636245
v -0.0261157 0.00306179 0.0360744
vn -0.642753 -0.342232 0.68538
v -0.0169695 -0.00949356 0.0364033
vn -0.431725 -0.664491 0.609972
v -0.00452017 -0.00854651 0.0391421
vn -0.0312412 -0.613575 0.789018
v -0.0152214 -0.00165384 0.0409913
vn -0.386687 -0.372536 0.843617
v -0.0199664 0.0073409 0.0409975
vn -0.488015 -0.258023 0.833825
v -0.0108967 -0.00237568 0.0423337
vn -0.0359344 -0.21754 0.97539
v -0.00452017 -0.00742612 0.0399931
vn 0.0426989 -0.375215 0.925954
v -0.0169695 0.00977005 0.0430099
vn -0.0615503 0.0743415 0.995332
v -0.000768815 0.00431487 0.0440926
vn -0.0408253 -0.0444037 0.998179
v -0.0271371 0.00491176 0.00740419
vn 0 0 0
v -0.0237757 0.0121992 0.00610788
vn -0.762396 0.236363 -0.602399
v -0.0180172 0.0073409 0.0025459
vn 0 0 0
v -0.0169695 0.0073409 0.00227107
vn -0.11649 0.0743894 -0.990402
v -0.0164506 0.0109003 0.00266672
vn -0.374256 0.252963 -0.892156
v -0.0266861 0.00822308 0.00724466
vn 0 0 0
v -0.0218278 0.0073409 0.0039132
vn 0 0 0
v -0.0218278 0.0073409 0.0039132
vn -0.374256 0.252963 -0.892156
v -0.0218278 0.00977005 0.00436239
vn 0 0 0
v -0.0237757 0.0121992 0.00610788
vn -0.374256 0.252963 -0.892156
v -0.0169695 0.00847115 0.00240848
vn 0 0 0
v -0.0121113 0.0121992 0.00206456
vn -0.11649 0.0743894 -0.990402
v -0.00725296 0.0121992 0.00164003
vn -0.0367092 0.0898036 -0.995283
v -0.0121113 0.0121992 0.00206456
vn -0.0867005 0.0895258 -0.992204
v -0.0121113 0.0137114 0.00242556
vn -0.152624 0.285356 -0.946191
v -0.0195072 0.0173029 0.00590405
vn -0.615823 0.542894 -0.570989
v -0.0220448 0.0175483 0.0072525
vn 0 0 0
v -0.0169695 0.0170575 0.00455561
vn -0.215697 0.281942 -0.934871
v -0.0145675 0.022934 0.00740419
vn -0.463056 0.706194 -0.535602
v -0.0145404 0.0219233 0.00660606
vn 0 0 0
v -0.0169695 0.0170575 0.00455561
vn 0 0 0
v -0.00725296 0.0139221 0.00209296
vn 0 0 0
v -0.0121113 0.0170575 0.00343471
vn -0.152624 0.285356 -0.946191
v -0.00725296 0.0163513 0.00277532
vn -0.0143985 0.387601 -0.921715
v -0.0121113 0.0170575 0.00343471
vn -0.0580726 0.47488 -0.878132
v -0.0121113 0.022934 0.0066126
vn -0.0580726 0.47488 -0.878132
v -0.00482381 0.0219158 0.00558007
vn -0.0255025 0.462181 -0.886419
v -0.00725296 0.0219158 0.00537326
vn 0 0 0
v -0.00725296 0.0231992 0.00638873
vn 0 0 0
v -0.0285333 0.0136523 0.0131734
vn -0.828999 0.472043 -0.299895
v -0.0218278 0.0228994 0.0136355
vn -0.636974 0.728438 -0.252273
v -0.0316811 0.010136 0.0231936
vn -0.984546 0.174488 -0.0149252
v -0.0266861 0.0194866 0.0295372
vn -0.805493 0.580073 0.121232
v -0.0214092 0.0241295 0.0292665
vn -0.47868 0.865235 0.149108
v -0.012524 0.0274615 0.0132609
vn -0.416794 0.901405 -0.117272
v -0.00968213 0.0242174 0.00740419
vn 0.0798312 0.875764 -0.476092
v -0.0121113 0.0281489 0.0146916
vn 0.0532585 0.978119 -0.201112
v -0.0121113 0.0286499 0.0268373
vn 0.0267738 0.983908 0.176656
v -0.0121113 0.0279713 0.0292665
vn -0.378341 0.915659 0.135743
v -0.00512746 0.0259449 0.0338211
vn 0.0951155 0.92253 0.374019
v -0.0299091 0.0109846 0.0312448
vn -0.906835 0.168774 0.38622
v -0.0257359 0.0109846 0.0367821
vn -0.664324 0.313185 0.678667
v -0.0267869 0.00491176 0.0366411
vn 0 0 0
v -0.021515 0.0190513 0.0352468
vn -0.458802 0.542671 0.703569
v -0.0121113 0.0243449 0.0354343
vn -0.338819 0.635969 0.693358
v -0.0159827 0.0119504 0.0421926
vn -0.360602 0.487625 0.795103
v -0.011504 0.0159497 0.0411132
vn -0.0682495 0.347412 0.935225
v -0.00452018 0.0139234 0.0423756
vn -0.0256747 0.225697 0.973859
v -0.00907482 0.0186568 0.0402485
vn -0.285117 0.525973 0.801287
v -0.0102894 0.0226362 0.0374288
vn -0.0963848 0.708955 0.698636
v -0.00390077 0.0227833 0.0375224
vn 0.290101 0.606127 0.740575
v 3.4475e-05 -0.0169505 0.00647436
vn 0 0 0
v -0.00239467 -0.0120923 0.00339406
vn 0.0968035 -0.298865 -0.949373
v -0.00408876 -0.0194529 0.00740419
vn 0 0 0
v 0.00246362 -0.0171699 0.00740419
vn 0 0 0
v 0.00367819 -0.0162259 0.00731057
vn 0 0 0
v 3.44738e-05 -0.0184182 0.00740419
vn 0 0 0
v -0.00178738 -0.0203289 0.00905527
vn 0.517635 -0.650864 -0.555365
v -0.00239467 -0.00894914 0.00240458
vn 0.0574478 -0.258558 -0.964286
v 3.29551e-05 -0.00837742 0.0025459
vn 0 0 0
v -0.00239467 -0.0120923 0.00339406
vn 0 0 0
v 0.00489276 -0.0120923 0.00536061
vn 0 0 0
v 0.00246362 -0.0120923 0.00425657
vn 0.166964 -0.29606 -0.940463
v 0.00489276 -0.00723345 0.00326957
vn 0 0 0
v 0.00700662 -0.0102704 0.0054637
vn 0.592996 -0.58785 -0.550261
v 0.00246362 -0.0120923 0.00425657
vn 0 0 0
v 0.00547676 -0.0150114 0.00740419
vn 0 0 0
v 0.00732191 -0.00723397 0.00399297
vn 0 0 0
v 0.0121802 -0.00237568 0.00625153
vn 0.915021 -0.229107 -0.332034
v -0.00239467 -0.00723397 0.00198064
vn 0.00561908 -0.121544 -0.99257
v -0.00725296 0.00248261 0.000763309
vn 0.0337125 -0.107628 -0.993619
v 0.00246362 -0.00237568 0.00161923
vn 0.0337125 -0.107628 -0.993619
v 3.4475e-05 -0.00723293 0.00226327
vn 0 0 0
v 0.00246362 5.3465e-05 0.00143784
vn 0.0703063 0.00423032 -0.997516
v 0.00246362 -0.00237568 0.00161923
vn 0.0898539 0.00424455 -0.995946
v 0.004993 0.00248261 0.00186813
vn 0.239813 0.0421819 -0.969902
v 0.00732191 -0.00131765 0.00266961
vn 0.466352 0.100437 -0.878879
v 0.0121802 5.3465e-05 0.00594399
vn 0 0 0
v 0.0121802 0.00491176 0.00595942
vn 0.466352 0.100437 -0.878879
v -0.00239467 -0.0193797 0.00757657
vn 0 0 0
v 0.00233772 -0.0206341 0.0132578
vn 0.556885 -0.798462 -0.228776
v -0.00239467 -0.0191983 0.00740419
vn 0 0 0
v 3.44738e-05 -0.0205545 0.00983333
vn 0 0 0
v 0.00958157 -0.0133805 0.011591
vn 0.777177 -0.567953 -0.270971
v 0.00670568 -0.0171776 0.021443
vn 0.670046 -0.709552 0.218118
v -0.00178738 -0.0193691 0.0250155
vn 0.324019 -0.83659 0.441734
v 0.0139453 -0.00723397 0.0171208
vn 0.910469 -0.413493 -0.00828677
v 0.0115906 -0.00687691 0.028522
vn 0.719327 -0.479856 0.502302
v 0.0162248 0.00131818 0.0188667
vn 0.987269 -0.123998 -0.0996197
v 0.0148835 5.34652e-05 0.0282031
vn 0.861268 -0.198606 0.467732
v 0.0164156 0.0103773 0.023939
vn 0.975449 -0.0193901 0.21937
v 0.00431619 -0.0127783 0.0310222
vn 0.47854 -0.671332 0.565961
v -0.00209231 -0.00882355 0.0387915
vn 0.479551 -0.579713 0.65876
v 0.000884793 -0.00101078 0.0423726
vn 0.681235 -0.295748 0.669666
v 0.000945404 -0.00146773 0.0421555
vn 0.0402624 -0.340823 0.939265
v 7.09259e-05 1.29585e-05 0.0438414
vn 0 0 0
v -0.00239467 0.0121992 0.00170618
vn 0.0135596 0.089856 -0.995862
v -0.00239467 0.0121992 0.00170618
vn 0.0838134 0.0546437 -0.994982
v 0.00489276 0.00650503 0.00200732
vn 0.0838134 0.0546437 -0.994982
v 0.00246362 0.0073409 0.00146875
vn 0.0703063 0.00423032 -0.997516
v 0.00246362 0.00977005 0.00188077
vn 0.23955 0.150837 -0.959095
v 0.00732191 0.00566915 0.0025459
vn 0 0 0
v 0.00334372 0.0121992 0.00248262
vn 0.23955 0.150837 -0.959095
v 0.00703697 0.0073409 0.002641
vn 0.23955 0.150837 -0.959095
v 0.0054795 0.0121992 0.0032246
vn 0 0 0
v 0.00767677 0.019005 0.00833517
vn 0.580181 0.602401 -0.548181
v 0.00489276 0.0146284 0.00394528
vn 0.536869 0.402307 -0.741566
v -0.00239467 0.015349 0.0025459
vn 0 0 0
v -0.00239467 0.0162033 0.0028466
vn 0 0 0
v -0.00239467 0.0162033 0.0028466
vn 0.0265933 0.440659 -0.897281
v 3.4475e-05 0.0126919 0.00212604
vn 0 0 0
v 0.00246362 0.0170575 0.00398724
vn 0 0 0
v 0.00246362 0.0170575 0.00398724
vn 0 0 0
v -0.00239467 0.0228619 0.00659553
vn 0.296086 0.732176 -0.613393
v 0.0161851 0.0103773 0.0183354
vn 0.973922 -0.00902855 -0.226703
v -0.00239467 0.0228619 0.00659553
vn 0 0 0
v 0.0144102 0.0110997 0.0123806
vn 0.832996 0.466238 -0.297893
v 0.00935416 0.0220662 0.0167313
vn 0.694035 0.692583 -0.19658
v 0.00999867 0.0219158 0.0256762
vn 0.752647 0.631507 0.186338
v 0.0161188 0.0115919 0.0207645
vn 0.861146 0.508338 0.00453949
v 0.0138139 0.0119488 0.030405
vn 0.770585 0.463865 0.437068
v 0.000225854 0.0268946 0.0139903
vn 0.286823 0.877311 -0.384783
v 0.000276817 0.0281352 0.0210681
vn 0.258567 0.965489 0.031215
v 0.00261459 0.0257283 0.0292605
vn 0.452494 0.777683 0.436415
v 0.0122258 0.0107343 0.0331559
vn 0.783755 -0.120545 0.609259
v 0.00809524 0.0103773 0.0376409
vn 0.548639 0.309924 0.776494
v 0.00503434 0.0163761 0.0374093
vn 0.54434 0.511886 0.66458
v -0.00421653 0.0139234 0.0423565
vn 0.260644 0.399892 0.878721
v 0.0044892 0.00673362 0.0411964
vn 0.757237 -0.261533 0.598492
v 0.00436769 0.00612633 0.0414122
vn 0 0 0
f 21//21 20//20 24//24
f 22//22 29//29 30//30
f 12//12 32//32 33//33
f 2//2 34//34 35//35
f 34//34 2//2 1//1
f 34//34 1//1 36//36
f 34//34 37//37 35//35
f 38//38 39//39 40//40
f 42//42 41//41 43//43
f 40//40 39//39 45//45
f 39//39 44//44 45//45
f 9//9 2//2 38//38
f 35//35 39//39 2//2
f 38//38 2//2 39//39
f 39//39 35//35 44//44
f 45//45 44//44 50//50
f 44//44 35//35 51//51
f 37//37 51//51 35//35
f 49//49 51//51 37//37
f 51//51 50//50 44//44
f 52//52 51//51 49//49
f 51//51 52//52 53//53
f 53//53 50//50 51//51
f 53//53 54//54 50//50
f 58//58 57//57 55//55
f 68//68 63//63 66//66
f 62//62 70//70 33//33
f 71//71 29//29 72//72
f 81//81 73//73 76//76
f 81//81 82//82 73//73
f 84//84 85//85 83//83
f 60//60 41//41 42//42
f 88//88 60//60 42//42
f 42//42 43//43 90//90
f 42//42 90//90 88//88
f 43//43 46//46 90//90
f 90//90 91//91 88//88
f 91//91 89//89 88//88
f 88//88 74//74 60//60
f 88//88 89//89 74//74
f 89//89 77//77 74//74
f 89//89 93//93 77//77
f 89//89 91//91 92//92
f 93//93 89//89 92//92
f 93//93 92//92 97//97
f 90//90 46//46 99//99
f 46//46 100//100 99//99
f 91//91 90//90 99//99
f 100//100 91//91 99//99
f 91//91 100//100 102//102
f 102//102 92//92 91//91
f 92//92 102//102 103//103
f 57//57 106//106 105//105
f 100//100 104//104 102//102
f 103//103 102//102 104//104
f 104//104 107//107 103//103
f 92//92 103//103 97//97
f 96//96 108//108 98//98
f 109//109 98//98 108//108
f 28//28 117//117 18//18
f 111//111 18//18 117//117
f 111//111 117//117 121//121
f 28//28 29//29 128//128
f 129//129 130//130 128//128
f 133//133 29//29 134//134
f 137//137 135//135 134//134
f 143//143 139//139 142//142
f 34//34 36//36 37//37
f 143//143 144//144 139//139
f 139//139 116//116 123//123
f 142//142 139//139 123//123
f 142//142 123//123 127//127
f 145//145 143//143 142//142
f 143//143 145//145 146//146
f 127//127 145//145 142//142
f 145//145 127//127 147//147
f 147//147 148//148 145//145
f 148//148 146//146 145//145
f 147//147 149//149 148//148
f 49//49 37//37 52//52
f 151//151 144//144 150//150
f 143//143 150//150 144//144
f 150//150 143//143 146//146
f 152//152 151//151 146//146
f 150//150 146//146 151//151
f 152//152 146//146 148//148
f 56//56 153//153 55//55
f 58//58 55//55 153//153
f 71//71 155//155 33//33
f 156//156 157//157 33//33
f 132//132 29//29 158//158
f 159//159 161//161 162//162
f 82//82 85//85 168//168
f 172//172 164//164 165//165
f 176//176 175//175 164//164
f 127//127 173//173 147//147
f 164//164 175//175 165//165
f 149//149 147//147 173//173
f 177//177 178//178 175//175
f 175//175 176//176 177//177
f 178//178 177//177 179//179
f 180//180 172//172 94//94
f 95//95 180//180 94//94
f 180//180 95//95 181//181
f 180//180 164//164 172//172
f 164//164 180//180 176//176
f 96//96 181//181 95//95
f 98//98 181//181 96//96
f 181//181 98//98 182//182
f 180//180 181//181 176//176
f 176//176 181//181 177//177
f 182//182 177//177 181//181
f 185//185 184//184 179//179
f 185//185 179//179 177//177
f 58//58 106//106 57//57
f 148//148 183//183 152//152
f 187//187 152//152 183//183
f 185//185 186//186 184//184
f 186//186 109//109 108//108
f 185//185 109//109 186//186
f 149//149 183//183 148//148
f 182//182 109//109 185//185
f 182//182 98//98 109//109
f 185//185 177//177 182//182
