# Created by Open3D 
# object name: textured
# number of vertices: 184
# number of triangles: 148
v -0.0123533 -0.01956 0.00890833
vn -0.462786 -0.849149 -0.254509
v -0.0102103 -0.0171621 0.00376766
vn -0.370417 -0.727512 -0.57751
v -0.00324572 -0.0198035 0.00380232
vn -0.314312 -0.834681 -0.452233
v 0.00050446 -0.0251136 0.0109967
vn -0.228838 -0.945064 -0.233425
v -0.016987 -0.0139996 0.00617506
vn -0.651195 -0.54685 -0.526213
v -0.0187937 -0.0150498 0.0121945
vn -0.734797 -0.671976 -0.0923164
v -0.0196772 -0.00751882 0.00545833
vn -0.785412 -0.381691 -0.487278
v -0.0187822 -0.0085903 0.00474161
vn 0 0 0
v -0.0196772 -0.00537587 0.00517026
vn 0 0 0
v -0.0198044 -0.00343381 0.0055776
vn -0.847102 0.328484 -0.417753
v -0.0230729 -0.00662178 0.0131964
vn -0.91952 -0.373077 -0.12368
v -0.0230979 -0.00673101 0.0153394
vn -0.962491 0.222677 -0.155005
v -0.00592441 -0.0141827 0.00157483
vn -0.0502974 -0.0939966 -0.994301
v -0.0102103 -0.0150191 0.00286962
vn 0 0 0
v -0.0016385 -0.0149453 0.0014238
vn 0.0185142 -0.23173 -0.972604
v -0.00592441 -0.0163256 0.00216229
vn 0 0 0
v -0.0102103 -0.00644734 0.00112594
vn -0.200588 -0.112815 -0.973158
v -0.0116113 -0.0105399 0.00188915
vn -0.200588 -0.112815 -0.973158
v -0.0137543 -0.0085903 0.00210484
vn -0.236313 -0.0649945 -0.969501
v -0.0102103 -0.00430439 0.00098892
vn -0.114475 -0.0243302 -0.993128
v -0.0142419 -0.00216143 0.00194653
vn -0.252439 -0.0429523 -0.966659
v -0.0098184 -0.0128762 0.00188915
vn 0 0 0
v -0.0102103 -0.0085903 0.00126296
vn -0.0502974 -0.0939966 -0.994301
v -0.0016385 -0.0128762 0.000958452
vn -0.0184427 -0.0938165 -0.995419
v -0.00592441 -0.0128762 0.00126052
vn -0.0701694 -0.0620549 -0.995603
v -0.0016385 -0.00430439 0.00042418
vn -0.0303112 0.0191812 -0.999356
v -0.0016385 -0.00430439 0.00042418
vn -0.0160176 0.0167051 -0.999732
v -0.0102103 -0.0085903 0.00126296
vn -0.0656076 -0.063672 -0.995812
v -0.0144962 -0.0128762 0.0034462
vn 0 0 0
v -0.0016385 -0.0214481 0.00416336
vn 0 0 0
v -0.00378146 -0.0171621 0.0021823
vn 0 0 0
v -0.00592441 -0.0163256 0.00216229
vn 0 0 0
v -0.0016385 -0.0170513 0.00189916
vn 0.0236435 -0.219744 -0.975271
v -0.0166392 -0.0107332 0.0040939
vn 0 0 0
v -0.0166392 -0.00430439 0.00305045
vn 0 0 0
v -0.00779949 -0.0233421 0.0203722
vn -0.475069 -0.879941 0.0035999
v -0.00270998 -0.0254498 0.0201043
vn -0.153423 -0.986865 0.0505869
v 0.00050446 -0.0236932 0.0387068
vn -0.163624 -0.972973 0.162941
v -0.0217566 -0.0108175 0.0219794
vn -0.907513 -0.418755 0.0326373
v -0.0222749 -0.000782196 0.0212773
vn -0.910342 0.413782 0.00783973
v -0.0187033 -0.0149382 0.0297476
vn -0.721754 -0.683823 0.107042
v -0.0233434 -0.00537587 0.0265332
vn -0.969244 0.237086 0.0660001
v -0.0234189 -0.00430439 0.0276046
vn -0.956709 -0.286827 0.0493765
v -0.0123533 -0.0199103 0.0340335
vn -0.576131 -0.803503 0.149853
v -0.00676323 -0.0219008 0.0383194
vn -0.352705 -0.85829 0.372744
v -0.021787 -0.00543081 0.0367349
vn -0.938254 0.0140902 0.34566
v -0.0219392 -0.00644735 0.0361765
vn -0.901772 -0.400576 0.162318
v -0.0190749 -0.00953134 0.0405503
vn -0.694314 -0.514375 0.503335
v -0.0202551 -0.00468214 0.0411372
vn -0.661825 -0.246758 0.707882
v -0.0172101 -0.000861862 0.0429971
vn -0.596971 0.155395 0.787069
v -0.0124541 -0.0162583 0.0404594
vn -0.548917 -0.612967 0.568296
v -0.0114782 -0.00937675 0.0449357
vn -0.429829 -0.401914 0.808524
v -0.00401833 -0.0157725 0.0447483
vn -0.340346 -0.564267 0.752175
v 0.0010402 -0.0203691 0.042876
vn -0.267903 -0.676334 0.686149
v -0.00646015 -0.0107332 0.0457886
vn 0.0261022 0.0336623 0.999092
v -0.0187822 -0.00323291 0.0431304
vn -0.191754 0.0561291 0.979837
v -0.00116198 -0.017013 0.0444359
vn 0.13555 -0.0979987 0.985912
v -0.00806737 -1.847e-05 0.0450432
vn 0.0229353 0.139946 0.989893
v 0.00586186 -0.0128762 0.0438814
vn 0.0931147 0.0356711 0.995016
v -0.019833 0.00426745 0.0126039
vn -0.829115 0.542104 -0.136718
v -0.0140317 -0.00216143 0.00188915
vn 0 0 0
v -0.0119768 -1.847e-05 0.00149998
vn 0 0 0
v -0.0102103 -0.00430439 0.00098892
vn 0 0 0
v -0.0102103 -1.847e-05 0.00111081
vn -0.0586208 0.102306 -0.993024
v -0.0106073 0.0044233 0.0018528
vn -0.110906 0.154098 -0.981811
v -0.0102103 -1.847e-05 0.00111081
vn -0.0657145 0.0283667 -0.997435
v -0.00592441 0.00426745 0.00129936
vn -0.0545159 0.113874 -0.991998
v -0.00592441 0.00426745 0.00129936
vn -0.0354885 0.114193 -0.992825
v -0.0016385 -0.00430439 0.00042418
vn 0.00340614 0.00136797 -0.999993
v -0.0016385 0.00426745 0.00120416
vn -0.0220121 0.132143 -0.990986
v -0.00592441 0.00711109 0.00204158
vn -0.0214873 0.25249 -0.967361
v -0.0016385 0.0056288 0.00154666
vn -0.00779656 0.112284 -0.993646
v -0.0166392 -1.847e-05 0.00342392
vn 0 0 0
v -0.0123532 0.0064104 0.00318674
vn -0.550951 0.443893 -0.706691
v -0.0144962 -1.847e-05 0.00209554
vn 0 0 0
v -0.0144962 0.00426745 0.00314684
vn 0 0 0
v -0.013478 0.00967198 0.00611229
vn -0.677321 0.583882 -0.447569
v -0.0102103 0.00855336 0.00322665
vn 0 0 0
v -0.00806736 0.0106963 0.00410235
vn 0 0 0
v -0.00592441 0.0128393 0.00497806
vn -0.383065 0.696107 -0.607204
v -0.00807422 0.0155002 0.0109079
vn -0.626688 0.767888 -0.132704
v -0.0016385 0.00777175 0.0021342
vn 0.0232202 0.498405 -0.866633
v -0.00592441 0.00855336 0.00249885
vn 0 0 0
v -0.00324572 0.0131851 0.00520436
vn 0.0614248 0.534271 -0.843078
v -0.00378146 0.0106963 0.00366551
vn 0 0 0
v -0.00485294 0.0141253 0.00617506
vn 0.146609 0.915817 -0.373879
v 0.0037189 0.0126474 0.00591645
vn 0.362836 0.844922 -0.39301
v -0.00538867 0.0163982 0.0115325
vn 0.146009 0.935279 -0.322388
v -0.0131783 0.0131185 0.0276046
vn -0.651484 0.758656 -0.00298193
v -0.0203325 -1.847e-05 0.0404624
vn -0.826694 0.441389 0.348931
v -0.0191746 0.00518705 0.0318906
vn -0.842429 0.533387 0.0762369
v -0.00485294 0.016758 0.0136754
vn -0.358481 0.93307 0.0295341
v 0.00187005 0.0159928 0.0138151
vn 0.370867 0.910954 -0.180611
v -0.0043172 0.0169796 0.0158184
vn 0.176227 0.983366 -0.0439903
v -0.00378146 0.0169613 0.0318905
vn 0.0221164 0.996636 0.0789209
v -0.0128008 0.0122814 0.0345692
vn -0.635819 0.708104 0.307121
v -0.00873538 0.0121226 0.0391439
vn -0.532066 0.640294 0.554012
v -0.0166392 -1.847e-05 0.0432856
vn 0 0 0
v -0.0166392 -0.00216143 0.0437189
vn 0 0 0
v -0.0139605 0.00105301 0.0436456
vn -0.179265 0.253833 0.950491
v -0.0109665 0.00594899 0.0426952
vn -0.500802 0.529952 0.68436
v -0.00871333 0.00844717 0.0419103
vn -0.159534 0.383906 0.909486
v -0.00259479 0.0087213 0.042869
vn -0.00170088 0.140939 0.990017
v -0.0102103 0.00677838 0.0427675
vn 0 0 0
v -0.00378146 0.0163496 0.0361765
vn -0.382696 0.917842 0.105399
v 0.00333154 0.0102766 0.0421751
vn -0.0254143 0.486454 0.873336
v 0.0014049 0.0169311 0.0308191
vn 0.237538 0.971375 0.00266345
v 0.0014817 0.0150548 0.0385009
vn 0.442272 0.834906 0.327609
v 0.00157594 -0.0224449 0.00531825
vn 0.352206 -0.822162 -0.447213
v 0.00157594 -0.0224449 0.00531825
vn 0 0 0
v 0.00707451 -0.0211312 0.00723351
vn 0.585937 -0.744007 -0.321139
v 0.0111141 -0.0193051 0.010461
vn 0.771707 -0.635453 -0.0258464
v 0.00264742 -0.0128762 0.00101242
vn 0.0596564 -0.231357 -0.971038
v 0.00264742 -0.0167346 0.00193171
vn 0.0470562 -0.227329 -0.972681
v 0.00693334 -0.0137455 0.00166458
vn 0.1569 -0.196033 -0.967963
v 0.00264742 -0.0128762 0.00101242
vn 0.0172942 -0.0598445 -0.998058
v 0.0095087 -0.0128762 0.00213154
vn 0.225795 -0.152043 -0.962237
v 0.00693334 -0.0085903 0.000849997
vn 0.104363 -0.0532358 -0.993113
v 0.00693334 -0.0085903 0.000849997
vn 0 0 0
v 0.00693334 -0.00644734 0.000805522
vn 0 0 0
v 0.0114928 -0.0085903 0.00180316
vn 0.204628 0.00458623 -0.978829
v 0.0117662 -0.0085903 0.00188915
vn 0 0 0
v 0.00693334 -0.00430439 0.000761047
vn 0.0928258 0.0768021 -0.992716
v 0.0113664 -0.00238409 0.00180583
vn 0.23053 0.0833648 -0.969488
v 0.00050446 -0.0193051 0.00311138
vn 0 0 0
v 0.00050446 -0.0214481 0.00431241
vn 0 0 0
v 0.00264742 -0.0171621 0.0020594
vn 0 0 0
v 0.0112193 -0.0112882 0.00237393
vn 0.598949 -0.542858 -0.588698
v 0.00479038 -0.0193051 0.00368645
vn 0 0 0
v 0.00693334 -0.0158885 0.0024003
vn 0 0 0
v 0.016006 -0.0059116 0.00475363
vn 0.811448 -0.444801 -0.379083
v 0.0187108 -0.0085903 0.0136754
vn 0.875612 -0.435224 -0.209483
v 0.0155052 -0.00644734 0.00414138
vn 0.593411 0.0254531 -0.804497
v 0.0123599 -0.00430439 0.00188915
vn 0.593411 0.0254531 -0.804497
v 0.0117896 -0.00430439 0.00172251
vn 0 0 0
v 0.0195568 -0.00203845 0.0129732
vn 0.984668 -0.147796 -0.09266
v 0.00050446 -0.0255227 0.0201043
vn 0.346879 -0.936844 -0.0446943
v 0.00693334 -0.0230173 0.0281404
vn 0.485652 -0.873729 0.0272004
v 0.0107044 -0.0190097 0.0332574
vn 0.78673 -0.606419 0.115374
v 0.0188898 -0.00733458 0.0273368
vn 0.88304 -0.467405 0.0421065
v 0.000833563 -0.0236421 0.0387068
vn 0.306309 -0.932885 0.189473
v 0.00524606 -0.0216407 0.0389898
vn 0.620057 -0.654956 0.431929
v 0.00182087 -0.023591 0.0383194
vn 0 0 0
v 0.00157594 -0.0194563 0.0433605
vn 0.334828 -0.699875 0.630925
v 0.0178396 -0.00698308 0.0359086
vn 0.799489 -0.427307 0.422168
v 0.00479038 -0.0171621 0.0437951
vn 0.665937 -0.450453 0.59466
v 0.0112193 -0.00537587 0.0430174
vn 0.22973 -0.0301863 0.972786
v 0.0169656 -0.00296504 0.0395525
vn 0.914637 -0.143727 0.377866
v 0.0135435 -0.00368799 0.0423689
vn 0.667859 -0.381825 0.638885
v 0.00691463 0.00426745 0.00188915
vn 0.14457 0.383348 -0.912219
v 0.00693334 -1.847e-05 0.00109263
vn 0.0600086 0.107192 -0.992426
v 0.00264742 0.00426745 0.00135919
vn -0.00779656 0.112284 -0.993646
v 0.00264742 0.00524617 0.00162417
vn 0.0497333 0.181465 -0.982139
v 0.00693334 -1.847e-05 0.00109263
vn 0.0391521 0.077076 -0.996256
v 0.00693334 0.00211753 0.00149089
vn 0.264635 0.194526 -0.944525
v 0.00907632 0.00426745 0.00253409
vn 0.264635 0.194526 -0.944525
v 0.0112193 -0.000909124 0.00188915
vn 0.19736 0.075618 -0.97741
v 0.0109433 -1.847e-05 0.00196001
vn 0 0 0
v 0.00264742 0.00855336 0.00269854
vn 0.0962114 0.56555 -0.819083
v 0.0155052 -1.847e-05 0.00434478
vn 0.593411 0.0254531 -0.804497
v 0.0175082 -0.00216143 0.00617506
vn 0.829634 0.395722 -0.393842
v 0.0133623 0.00212449 0.00376023
vn 0.483023 0.436512 -0.759043
v 0.00264742 0.00855336 0.00269854
vn 0.0232202 0.498405 -0.866633
v 0.00693334 0.00855336 0.00369321
vn 0.14457 0.383348 -0.912219
v 0.00693334 0.00855336 0.00369321
vn 0 0 0
v 0.00264742 0.0128393 0.00565784
vn 0.0962114 0.56555 -0.819083
v 0.00264742 0.00855336 0.00269854
vn 0 0 0
v 0.0122993 0.00749981 0.00617506
vn 0.639827 0.587116 -0.495899
v 0.0138832 0.00834768 0.0118003
vn 0.645268 0.754296 -0.121105
v 0.0165067 -0.00108995 0.00525992
vn 0 0 0
v 0.0155052 -0.00430439 0.00372605
vn 0 0 0
v 0.017519 0.00432223 0.0120093
vn 0.880847 0.463809 -0.094818
v 0.00532441 0.014403 0.0183632
vn 0.400768 0.913215 -0.0736381
v 0.00693334 0.014576 0.0286761
vn 0.596669 0.801153 0.0462575
v 0.0169806 0.00482351 0.0314121
vn 0.786738 0.61306 0.0721118
v 0.019911 -0.00191548 0.0154854
vn 0.947148 0.300213 -0.11306
v 0.0196133 -0.00100261 0.0268877
vn 0.93191 0.35859 0.0543682
v 0.0197365 -0.00216143 0.0279592
vn 0.988411 -0.118052 0.0954284
v 0.011648 0.00941433 0.0361765
vn 0.624705 0.700828 0.344358
v 0.00629395 0.00480319 0.0443767
vn -0.00131015 0.0213194 0.999772
v 0.0166463 0.00051727 0.039771
vn 0.787605 0.490629 0.372776
v 0.0151507 -0.00108995 0.0418285
vn 0.313721 -0.0244719 0.9492
v 0.0107782 0.00399958 0.0434048
vn 0.259326 -0.0277003 0.965393
v 0.00750403 0.00747669 0.0427044
vn 0.55796 0.629294 0.540989
f 4//4 1//1 2//2
f 4//4 2//2 3//3
f 5//5 6//6 7//7
f 17//17 18//18 19//19
f 20//20 19//19 21//21
f 24//24 25//25 26//26
f 13//13 23//23 26//26
f 20//20 27//27 28//28
f 5//5 2//2 1//1
f 1//1 6//6 5//5
f 7//7 2//2 5//5
f 4//4 36//36 1//1
f 4//4 37//37 36//36
f 7//7 6//6 11//11
f 6//6 39//39 11//11
f 41//41 39//39 6//6
f 12//12 42//42 40//40
f 11//11 39//39 43//43
f 1//1 36//36 6//6
f 36//36 41//41 6//6
f 36//36 44//44 41//41
f 44//44 36//36 45//45
f 37//37 38//38 36//36
f 36//36 38//38 45//45
f 43//43 39//39 47//47
f 39//39 41//41 47//47
f 47//47 41//41 48//48
f 47//47 48//48 49//49
f 44//44 45//45 51//51
f 44//44 51//51 41//41
f 51//51 48//48 41//41
f 52//52 48//48 51//51
f 51//51 45//45 53//53
f 54//54 53//53 45//45
f 53//53 52//52 51//51
f 48//48 52//52 49//49
f 55//55 58//58 56//56
f 55//55 59//59 58//58
f 12//12 60//60 10//10
f 65//65 67//67 64//64
f 68//68 27//27 64//64
f 20//20 66//66 26//26
f 69//69 67//67 70//70
f 68//68 71//71 70//70
f 74//74 10//10 77//77
f 60//60 77//77 10//10
f 74//74 77//77 80//80
f 60//60 81//81 77//77
f 80//80 77//77 81//81
f 86//86 88//88 87//87
f 60//60 12//12 40//40
f 60//60 40//40 89//89
f 40//40 42//42 90//90
f 90//90 91//91 40//40
f 89//89 40//40 91//91
f 81//81 60//60 89//89
f 94//94 93//93 88//88
f 89//89 92//92 81//81
f 46//46 90//90 42//42
f 46//46 50//50 90//90
f 91//91 96//96 89//89
f 96//96 91//91 90//90
f 58//58 100//100 56//56
f 90//90 50//50 101//101
f 58//58 102//102 100//100
f 58//58 103//103 102//102
f 90//90 97//97 96//96
f 101//101 97//97 90//90
f 102//102 103//103 106//106
f 92//92 89//89 105//105
f 96//96 105//105 89//89
f 94//94 95//95 107//107
f 96//96 97//97 105//105
f 107//107 95//95 108//108
f 113//113 114//114 15//15
f 24//24 114//114 33//33
f 113//113 115//115 114//114
f 24//24 27//27 116//116
f 69//69 118//118 116//116
f 115//115 118//118 117//117
f 121//121 118//118 124//124
f 109//109 128//128 111//111
f 131//131 111//111 128//128
f 132//132 112//112 111//111
f 132//132 111//111 131//131
f 136//136 132//132 131//131
f 111//111 137//137 109//109
f 138//138 137//137 111//111
f 112//112 138//138 111//111
f 37//37 4//4 38//38
f 138//138 112//112 139//139
f 140//140 139//139 112//112
f 132//132 140//140 112//112
f 136//136 140//140 132//132
f 138//138 141//141 137//137
f 138//138 142//142 141//141
f 139//139 142//142 138//138
f 54//54 45//45 38//38
f 141//141 142//142 144//144
f 146//146 144//144 142//142
f 139//139 145//145 142//142
f 146//146 142//142 145//145
f 145//145 149//149 146//146
f 149//149 145//145 148//148
f 145//145 139//139 140//140
f 57//57 59//59 55//55
f 72//72 152//152 26//26
f 153//153 151//151 26//26
f 123//123 27//27 154//154
f 123//123 151//151 157//157
f 133//133 134//134 160//160
f 124//124 155//155 156//156
f 150//150 153//153 164//164
f 82//82 84//84 163//163
f 159//159 84//84 166//166
f 168//168 162//162 87//87
f 161//161 162//162 168//168
f 168//168 87//87 169//169
f 168//168 169//169 161//161
f 161//161 169//169 172//172
f 88//88 93//93 87//87
f 173//173 174//174 169//169
f 174//174 175//175 169//169
f 161//161 172//172 176//176
f 172//172 177//177 176//176
f 136//136 178//178 140//140
f 177//177 172//172 175//175
f 169//169 175//175 172//172
f 93//93 94//94 173//173
f 87//87 93//93 169//169
f 169//169 93//93 173//173
f 94//94 107//107 173//173
f 107//107 174//174 173//173
f 174//174 179//179 175//175
f 108//108 179//179 174//174
f 103//103 58//58 59//59
f 59//59 180//180 103//103
f 147//147 180//180 59//59
f 182//182 183//183 147//147
f 183//183 180//180 147//147
f 106//106 103//103 180//180
f 175//175 179//179 181//181
f 184//184 179//179 108//108
f 181//181 179//179 184//184
f 140//140 178//178 145//145
f 177//177 175//175 181//181
f 178//178 148//148 145//145
f 174//174 107//107 108//108
