# Created by Open3D 
# object name: textured
# number of vertices: 168
# number of triangles: 138
v -0.00687454 -0.0176736 0.00892156
vn -0.415097 -0.753165 -0.510331
v -0.00106755 -0.0217563 0.0136914
vn 0.0468185 -0.878649 -0.475167
v -0.00687454 -0.0176736 0.00892156
vn -0.0796859 -0.803147 -0.590428
v 0.00157199 -0.0176736 0.00909201
vn 0.369016 -0.655223 -0.659174
v -0.0172912 -0.00668017 0.00816611
vn -0.814291 -0.188663 -0.548942
v -0.0195443 0.00344269 0.00994092
vn -0.853618 -0.100378 -0.511136
v -0.00941857 -0.000780571 0.00302511
vn -0.214118 -0.0570804 -0.975139
v -0.00265128 -0.000780571 0.00201819
vn -0.015912 0.0159844 -0.999746
v -0.00265128 -0.00474255 0.00256315
vn -0.0914849 -0.21611 -0.972074
v -0.0126435 -0.0092271 0.00608683
vn -0.265604 -0.321254 -0.908983
v -0.0110978 -0.0129089 0.00708797
vn 0 0 0
v -0.0156968 -0.0138279 0.0104219
vn -0.594489 -0.687134 -0.417647
v -0.0103465 -0.0129089 0.00678642
vn 0 0 0
v -0.00687454 -0.0141444 0.00640267
vn -0.172703 -0.544138 -0.821029
v -0.000539645 -0.0134504 0.00580555
vn 0 0 0
v -0.00265128 -0.0155913 0.00687569
vn -0.13642 -0.644257 -0.752544
v -0.0110978 -0.00711547 0.00476492
vn 0 0 0
v -0.00898617 -0.0092271 0.00479875
vn 0 0 0
v -0.00959514 -0.0134504 0.00678642
vn -0.222595 -0.374962 -0.89992
v -0.00581872 -0.0092271 0.00409264
vn -0.175883 -0.286372 -0.941837
v -0.00687454 -0.0162561 0.00785399
vn 0 0 0
v -0.00898617 -0.0176736 0.00980678
vn -0.13642 -0.644257 -0.752544
v -0.0155809 -0.00624488 0.00662115
vn -0.457451 -0.109852 -0.882423
v -0.0153211 -0.0083565 0.00711579
vn 0 0 0
v -0.0110978 -0.00500384 0.00414259
vn -0.217976 -0.249976 -0.943397
v -0.0161217 -0.000780571 0.00622122
vn -0.443062 -0.083705 -0.892575
v -0.0110978 -0.00500384 0.00414259
vn -0.29804 -0.166903 -0.939849
v -0.0169222 -0.000780571 0.00678642
vn 0 0 0
v -0.0179523 -0.00500384 0.00808377
vn 0 0 0
v -0.0195443 -0.00289221 0.00924931
vn 0 0 0
v -0.0157214 0.00133106 0.00610529
vn 0 0 0
v -0.000144415 -0.00276156 0.00256315
vn 0.107061 -0.135481 -0.984979
v -0.00265128 -0.00474255 0.00256315
vn -0.174363 -0.196266 -0.964924
v -0.0211067 -0.0160033 0.026589
vn -0.774019 -0.617965 0.13789
v -0.00938079 -0.0235235 0.0195937
vn -0.429433 -0.872308 -0.233806
v -0.0218662 -0.0137467 0.0198521
vn -0.80025 -0.534188 -0.272476
v -0.0144625 -0.0216132 0.025921
vn -0.511395 -0.858742 -0.0322089
v -0.00779609 -0.0233079 0.0180206
vn -0.126294 -0.93443 -0.333001
v -0.00238732 -0.0250282 0.0230196
vn 0.0481607 -0.985778 -0.161003
v -0.00687454 -0.024639 0.0215678
vn 0 0 0
v -0.00898618 -0.0240925 0.0283404
vn -0.150097 -0.926267 0.345688
v -0.00899084 -0.0189587 0.0389888
vn -0.326257 -0.826954 0.457934
v 0.000263165 -0.0245856 0.0282987
vn 0.177306 -0.973623 0.143596
v -0.02555 -0.00605965 0.0194562
vn -0.899472 -0.184571 -0.396085
v -0.0249789 0.00304853 0.0190944
vn -0.928251 0.0257187 -0.371064
v -0.0262378 -0.00399829 0.0272332
vn -0.987745 -0.130645 0.0853876
v -0.0243374 -0.00813227 0.0324577
vn -0.92001 -0.324522 0.219697
v -0.0171226 -0.0165493 0.0356894
vn -0.517194 -0.697607 0.495837
v -1.17374e-05 -0.0211961 0.0358645
vn 0.0968707 -0.778403 0.620246
v -0.0084606 -0.0145066 0.0429339
vn -0.0630513 -0.761441 0.64516
v -0.00317919 -0.009755 0.0458296
vn 0.187118 -0.616934 0.764447
v -0.0201418 -0.0113387 0.0384609
vn -0.690374 -0.34977 0.633281
v -0.0226883 -0.00078057 0.0370018
vn -0.843881 -0.074634 0.531314
v -0.0159386 -0.00130848 0.0433512
vn -0.610193 -0.125669 0.782222
v -0.00898618 -0.0092271 0.0463335
vn -0.47887 -0.423534 0.768962
v -0.00661059 -0.0102829 0.0457979
vn -0.0170651 -0.257274 0.966188
v -0.0132094 -0.000780571 0.0453613
vn -0.237231 0.0615317 0.969503
v -0.0136868 -0.000780571 0.0450785
vn -0.489296 0.337834 0.804026
v -0.00798739 -0.00582924 0.0469595
vn 0.0128485 -0.0311331 0.999433
v -0.00341729 0.00898573 0.0453564
vn 0.0335178 0.169277 0.984998
v 0.00473944 0.000275244 0.0460721
vn 0.18383 0.0426797 0.982031
v -0.0157331 0.00519948 0.00686775
vn -0.655785 0.465278 -0.594527
v -0.0228487 0.00304853 0.0143432
vn -0.776326 0.419435 -0.470524
v -0.00265128 0.00762449 0.00257054
vn -0.0325683 0.104124 -0.994031
v -0.0160784 0.00344269 0.00658716
vn 0 0 0
v -0.0110978 0.00344269 0.00354504
vn -0.418892 0.104218 -0.902035
v -0.0132095 0.00695628 0.00566239
vn -0.392404 0.290151 -0.87283
v -0.0110978 0.00344269 0.00354504
vn 0 0 0
v -0.0195443 0.00133106 0.00952921
vn 0 0 0
v -0.00773934 -0.000780571 0.00256315
vn -0.111936 0.0686335 -0.991342
v -0.00687454 0.00766596 0.00305028
vn -0.205416 0.221054 -0.953383
v -0.00893112 0.0118668 0.0058928
vn -0.557019 0.563575 -0.610011
v -0.0172736 0.0138083 0.0153043
vn -0.626183 0.592957 -0.506257
v -0.00687454 0.0155762 0.00836556
vn -0.348366 0.805721 -0.479014
v -0.0109877 0.00977758 0.00566239
vn 0 0 0
v -0.00476291 0.0118892 0.00460378
vn -0.0076961 0.418693 -0.908095
v -0.00898617 0.00977758 0.00475125
vn 0 0 0
v -0.00687454 0.00766596 0.00305028
vn 0 0 0
v -0.00476291 0.0148311 0.00678642
vn 0 0 0
v -0.000539645 0.00977758 0.00358137
vn 0.131146 0.130818 -0.982694
v -0.00687454 0.0130972 0.00587527
vn 0 0 0
v 0.00157199 0.0176894 0.0110723
vn 0.160506 0.923653 -0.347997
v -0.00397105 0.0207434 0.0162888
vn -0.166224 0.916563 -0.363707
v -0.0221621 0.0120646 0.0221417
vn -0.808658 0.580334 -0.0963567
v -0.0261039 0.00379861 0.0226236
vn -0.891808 0.414727 -0.180774
v -0.0252708 0.0026922 0.0313623
vn -0.988675 0.0572761 0.138715
v -0.0245123 0.00625059 0.0298965
vn -0.830872 0.486545 0.270048
v -0.0147067 0.0193733 0.0227556
vn -0.482047 0.855518 -0.188995
v -0.0158702 0.0165373 0.0342376
vn -0.689796 0.668514 0.277975
v -0.0111799 0.0202574 0.031466
vn -0.337362 0.852626 0.399017
v -0.00344314 0.0235322 0.0268469
vn -0.0582052 0.995917 -0.0690026
v -0.0222448 0.000803152 0.0372189
vn -0.70935 0.292543 0.641281
v -0.0189483 0.0101756 0.0365898
vn -0.67134 0.371467 0.641338
v -0.021656 -0.000780571 0.0383287
vn 0 0 0
v -0.0130652 0.0131991 0.0392445
vn -0.390624 0.516535 0.761974
v -0.00259958 0.0108334 0.0447674
vn -0.347171 0.420767 0.83811
v -0.00300106 0.0159042 0.0411285
vn -0.303994 0.697909 0.648468
v -0.00169664 0.0209707 0.0353259
vn -0.153858 0.896636 0.415177
v 0.0100185 -0.0176382 0.0152329
vn 0.597843 -0.615256 -0.513853
v 0.00236245 -0.000780571 0.00256315
vn 0.128044 0.0903512 -0.987644
v 0.00214969 -0.0144145 0.00678642
vn 0 0 0
v -0.000539645 -0.0092271 0.00392272
vn -0.0306566 -0.303184 -0.952439
v 0.00157199 -0.0092271 0.00410563
vn 0.365425 -0.338585 -0.867079
v 0.00483903 -0.01264 0.00678642
vn 0 0 0
v 0.00739416 -0.0092271 0.00655934
vn 0.365425 -0.338585 -0.867079
v 0.00157199 -0.0176736 0.00909201
vn 0 0 0
v 0.0100185 -0.0071809 0.00758038
vn 0.653689 -0.423793 -0.626969
v 0.00899306 -0.0071809 0.00678642
vn 0 0 0
v 0.00407885 -0.000780571 0.0030869
vn 0.273086 0.0356059 -0.961331
v 0.00579525 -0.00500384 0.00423636
vn 0 0 0
v 0.00368362 -0.00711547 0.00417099
vn 0.365425 -0.338585 -0.867079
v 0.0100295 -0.00289221 0.00639459
vn 0 0 0
v 0.00579525 -0.000780571 0.00361066
vn 0 0 0
v 0.010521 -0.000780571 0.0064031
vn 0 0 0
v 0.0100185 0.00133106 0.00598953
vn 0.441788 -0.00957364 -0.897068
v 0.0142418 -0.00289221 0.0103847
vn 0 0 0
v 0.0110236 -0.000780571 0.00678642
vn 0 0 0
v 0.0192912 -0.00605965 0.0194562
vn 0.932803 -0.0362257 -0.358561
v 0.0110236 -0.000780571 0.00678642
vn 0.715483 0.14533 -0.683347
v 0.00555369 -0.0217438 0.016798
vn 0.398327 -0.879374 -0.260838
v 0.0142653 -0.0139626 0.0173446
vn 0.777599 -0.467679 -0.420256
v 0.00849619 -0.022047 0.0292225
vn 0.399794 -0.899142 0.17807
v 0.0145002 -0.0179909 0.0279027
vn 0.771628 -0.635572 -0.0252743
v 0.0195179 -0.00658756 0.020512
vn 0.871396 -0.418826 -0.255447
v 0.0203899 0.00133106 0.0215678
vn 0.950852 0.037578 -0.307358
v 0.0192105 -0.00764338 0.0324596
vn 0.832131 -0.43297 0.346546
v 0.020153 -0.00605965 0.0310702
vn 0.989588 -0.0344301 0.139754
v 0.0201531 0.00416324 0.0305649
vn 0.902471 0.281048 0.326431
v 0.0111861 -0.0168017 0.0363518
vn 0.476253 -0.583095 0.658167
v 0.00421153 -0.0093689 0.0442329
vn 0.369631 -0.490152 0.789382
v 0.0121301 -0.00433515 0.0420263
vn 0.599827 -0.368662 0.710138
v 0.00658711 -0.00724015 0.0439909
vn 0.23868 -0.197103 0.950885
v 0.0140905 -0.00500384 0.0404364
vn 0 0 0
v 0.0162526 -0.00433515 0.0383354
vn 0.799602 0.00188882 0.600527
v 0.0110743 0.00177391 0.0432493
vn 0.396321 0.0513739 0.916674
v 0.0142769 0.00344269 0.0406032
vn 0.724368 0.289816 0.625538
v 0.018465 -0.00330969 0.0363493
vn 0 0 0
v -0.000539645 0.00762449 0.00274123
vn 0.0407475 0.433511 -0.900226
v 0.00579525 0.00555433 0.00386459
vn 0.441788 -0.00957364 -0.897068
v 0.00579525 0.00555433 0.00386459
vn 0.131146 0.130818 -0.982694
v 0.0110443 0.00344269 0.00678642
vn 0 0 0
v 0.0105314 0.00344269 0.00637285
vn 0 0 0
v 0.00579525 0.00766596 0.00417866
vn 0 0 0
v 0.0100185 0.00551747 0.00637285
vn 0 0 0
v 0.0100045 0.00762911 0.00678642
vn 0 0 0
v 0.0153788 0.00766596 0.0131213
vn 0.845047 0.271808 -0.460451
v 0.00157199 0.0134661 0.00564988
vn 0.0407475 0.433511 -0.900226
v 0.00579525 0.0124452 0.00640373
vn 0 0 0
v 0.00157199 0.00977758 0.00371633
vn 0 0 0
v -0.00265128 0.013623 0.00551493
vn 0 0 0
v 0.00157199 0.015043 0.00678642
vn 0.451595 0.591453 -0.668016
v 0.0085316 0.00977758 0.00678642
vn 0 0 0
v 0.0125755 0.0120277 0.0126152
vn 0.61086 0.487097 -0.624168
v 0.009392 0.0180464 0.0175566
vn 0.492267 0.780339 -0.385674
v 0.0150827 0.0153777 0.0247084
vn 0.776934 0.609885 -0.156252
v 0.0190771 0.00819791 0.0236795
vn 0.908199 0.381587 -0.17195
v 0.0133173 0.0172973 0.0289398
vn 0.657674 0.703346 0.269759
v 0.00594461 0.0217187 0.0237597
vn 0.437029 0.888742 -0.138357
v 0.00368362 0.0223364 0.0281839
vn 0.184075 0.97703 -0.107374
v 0.0113321 0.0145393 0.0352886
vn 0.600583 0.550349 0.580013
v 0.00579525 0.00872177 0.0434387
vn 0.25001 0.258396 0.933127
v 0.00855111 0.00613606 0.0430859
vn 0.47959 0.393169 0.784481
v 0.00163359 0.0153944 0.0409426
vn 0.443358 0.594807 0.670551
v 0.00135929 0.012945 0.0432206
vn 0.203839 0.262801 0.943072
v 0.0026278 0.0131039 0.0426842
vn 0 0 0
v 0.00579525 0.00766596 0.0439264
vn 0 0 0
v 0.00708372 0.00882942 0.0426842
vn 0 0 0
v 0.0026278 0.0217165 0.0331818
vn 0.451653 0.78717 0.419968
f 3//3 4//4 2//2
f 7//7 8//8 9//9
f 20//20 14//14 19//19
f 16//16 22//22 14//14
f 27//27 23//23 26//26
f 27//27 33//33 20//20
f 20//20 10//10 25//25
f 7//7 33//33 25//25
f 1//1 35//35 12//12
f 37//37 36//36 12//12
f 37//37 12//12 35//35
f 2//2 38//38 3//3
f 34//34 36//36 37//37
f 41//41 38//38 39//39
f 37//37 35//35 42//42
f 43//43 41//41 39//39
f 44//44 5//5 36//36
f 5//5 44//44 45//45
f 5//5 45//45 6//6
f 36//36 46//46 44//44
f 34//34 47//47 36//36
f 47//47 46//46 36//36
f 45//45 44//44 46//46
f 12//12 36//36 5//5
f 37//37 48//48 34//34
f 48//48 37//37 42//42
f 49//49 41//41 43//43
f 50//50 41//41 49//49
f 51//51 50//50 49//49
f 48//48 52//52 34//34
f 52//52 47//47 34//34
f 53//53 47//47 52//52
f 53//53 46//46 47//47
f 52//52 54//54 53//53
f 48//48 42//42 55//55
f 52//52 48//48 55//55
f 54//54 52//52 55//55
f 59//59 57//57 56//56
f 60//60 57//57 59//59
f 60//60 59//59 61//61
f 64//64 8//8 7//7
f 66//66 7//7 26//26
f 66//66 67//67 71//71
f 64//64 70//70 71//71
f 72//72 62//62 73//73
f 74//74 72//72 73//73
f 76//76 64//64 71//71
f 83//83 82//82 74//74
f 73//73 62//62 63//63
f 73//73 63//63 84//84
f 46//46 86//86 45//45
f 85//85 84//84 63//63
f 84//84 88//88 73//73
f 87//87 84//84 85//85
f 89//89 84//84 87//87
f 89//89 88//88 84//84
f 73//73 88//88 74//74
f 83//83 74//74 88//88
f 91//91 83//83 88//88
f 91//91 88//88 90//90
f 86//86 46//46 53//53
f 93//93 87//87 92//92
f 93//93 89//89 87//87
f 92//92 58//58 93//93
f 58//58 96//96 95//95
f 95//95 93//93 58//58
f 93//93 95//95 89//89
f 95//95 96//96 97//97
f 89//89 90//90 88//88
f 90//90 98//98 91//91
f 89//89 95//95 90//90
f 97//97 90//90 95//95
f 97//97 98//98 90//90
f 32//32 8//8 100//100
f 4//4 107//107 99//99
f 111//111 105//105 103//103
f 102//102 20//20 9//9
f 120//120 2//2 4//4
f 4//4 99//99 120//120
f 39//39 38//38 2//2
f 39//39 2//2 120//120
f 39//39 120//120 43//43
f 43//43 120//120 122//122
f 123//123 122//122 120//120
f 120//120 99//99 123//123
f 123//123 99//99 121//121
f 99//99 107//107 121//121
f 121//121 107//107 124//124
f 118//118 119//119 125//125
f 121//121 124//124 123//123
f 123//123 124//124 126//126
f 125//125 127//127 118//118
f 127//127 125//125 128//128
f 43//43 122//122 49//49
f 123//123 129//129 122//122
f 129//129 49//49 122//122
f 51//51 49//49 129//129
f 130//130 51//51 129//129
f 129//129 131//131 130//130
f 126//126 129//129 123//123
f 131//131 129//129 126//126
f 56//56 132//132 59//59
f 59//59 132//132 61//61
f 109//109 8//8 64//64
f 80//80 140//140 100//100
f 115//115 109//109 139//139
f 76//76 147//147 138//138
f 151//151 153//153 119//119
f 146//146 119//119 153//153
f 151//151 154//154 153//153
f 155//155 153//153 154//154
f 119//119 146//146 125//125
f 125//125 146//146 156//156
f 156//156 128//128 125//125
f 155//155 156//156 146//146
f 155//155 146//146 153//153
f 128//128 156//156 155//155
f 158//158 154//154 151//151
f 82//82 83//83 91//91
f 159//159 82//82 91//91
f 155//155 154//154 158//158
f 158//158 157//157 155//155
f 162//162 134//134 136//136
f 136//136 160//160 162//162
f 163//163 162//162 160//160
f 127//127 128//128 134//134
f 128//128 136//136 134//134
f 136//136 128//128 160//160
f 155//155 157//157 128//128
f 128//128 157//157 160//160
f 159//159 91//91 98//98
f 160//160 168//168 163//163
f 157//157 158//158 168//168
f 160//160 157//157 168//168
f 60//60 61//61 161//161
f 161//161 61//61 135//135
f 61//61 132//132 135//135
f 164//164 60//60 161//161
