# Created by Open3D 
# object name: textured
# number of vertices: 80
# number of triangles: 48
v -0.0041576 -0.00416822 0.00612509
vn -0.051264 -0.950134 -0.307599
v 0.00444284 -0.00401294 0.00689696
vn 0.0513466 -0.920692 -0.386897
v -0.00172052 -0.002906 0.00325121
vn 0 0 0
v 0.00156587 -0.002906 0.00314005
vn 0 0 0
v -0.00835753 0.00521761 0.00695093
vn -0.991195 0.123885 -0.0467438
v -0.0050069 -0.00128128 0.00388919
vn -0.890191 -0.295655 -0.346623
v -0.0033083 0.000343442 0.00209182
vn 0 0 0
v -0.0040193 0.00196817 0.00234513
vn 0 0 0
v -0.0033083 0.00278053 0.00207898
vn 0 0 0
v -5.88521e-05 0.000343442 0.00153812
vn 0 0 0
v -0.00615229 0.000343442 0.00370148
vn 0 0 0
v -0.00655774 0.0028643 0.00368211
vn 0 0 0
v 0.00156587 0.0011558 0.00170615
vn 0 0 0
v -0.00493302 -0.00549702 0.0130436
vn -0.288543 -0.955847 -0.0556817
v -0.00655774 -0.00401103 0.0102004
vn -0.949575 -0.304984 -0.0727474
v 0.00192596 -0.00673629 0.0130436
vn -0.125915 -0.977405 -0.169779
v -0.0094951 -0.00209364 0.0530524
vn -0.952869 -0.30301 -0.0150147
v -5.88521e-05 -0.00788016 0.0345712
vn -0.212929 -0.977064 0.00281976
v -0.00719959 -0.00529109 0.0502702
vn -0.39402 -0.918684 -0.0277123
v -0.00977088 0.00193324 0.0437289
vn -0.99889 0.0404518 -0.024149
v -0.00655774 -0.00595551 0.0459443
vn -0.822156 -0.568421 -0.0309223
v -0.00723357 -0.00534107 0.0529715
vn 0 0 0
v -0.00674024 -0.00615545 0.0605668
vn -0.304399 -0.951933 0.0341269
v -0.00807002 -0.00453072 0.0621915
vn -0.948041 -0.311485 0.0647677
v -0.0093018 0.00196817 0.075416
vn -0.984714 0.160571 0.0674961
v -0.00936976 -0.002906 0.0686904
vn -0.629961 -0.769639 0.103945
v -0.00544718 -0.00533039 0.0745123
vn -0.127985 -0.986632 0.10088
v 0.00196245 -0.00615545 0.0719398
vn -0.0712557 -0.99108 0.112621
v -0.00412066 -0.00248114 0.0795135
vn 0.0692312 -0.874586 0.479903
v -0.00609343 0.00237435 0.0806987
vn -0.817896 0.329935 0.47137
v -0.00385921 0.00397312 0.0816882
vn 0 0 0
v -0.00414961 0.000343442 0.0819332
vn 0 0 0
v -0.0033083 0.00684233 0.00233867
vn 0 0 0
v 0.000347328 0.00521761 0.00157447
vn 0 0 0
v -0.00453747 0.00829072 0.00370148
vn 0 0 0
v -0.00303606 0.00991546 0.00370148
vn 0 0 0
v -0.00168358 0.00869407 0.00286751
vn 0 0 0
v -0.00141134 0.0100918 0.00339635
vn 0 0 0
v -0.00639165 0.0100918 0.0101295
vn -0.925045 0.379721 -0.0101647
v 0.0015278 0.00951298 0.00373288
vn 0.186297 0.862181 -0.471103
v -0.00168358 0.0129846 0.00881656
vn -0.0153145 0.999669 -0.0206713
v -0.0033083 0.0124335 0.0134498
vn 0 0 0
v -0.00563259 0.0106772 0.0129876
vn -0.345955 0.937905 0.0254626
v -0.00168358 0.0117298 0.0278692
vn 0.0783988 0.996118 0.040036
v -0.00764296 0.00836101 0.0593482
vn -0.935064 0.354314 0.0107707
v -0.00555489 0.0102289 0.0577235
vn -0.197967 0.978933 0.0499985
v 0.00184664 0.0107202 0.0575243
vn 0.164907 0.985332 0.0438967
v -0.0062582 0.00684233 0.0772855
vn -0.863814 0.46531 0.193164
v -0.00172944 0.00965632 0.0735415
vn -0.00581633 0.984035 0.177881
v -0.00467241 0.00684233 0.0787634
vn -0.343045 0.89395 0.288398
v 0.00156587 0.00684233 0.0766911
vn 0.444905 0.846917 0.291188
v 0.0049827 -0.00128128 0.00370148
vn 0 0 0
v 0.00481532 0.000632439 0.00285151
vn 0 0 0
v 0.00156587 0.000343442 0.00176983
vn 0 0 0
v 0.00481532 0.00408866 0.0026367
vn 0 0 0
v 0.00319059 0.00521761 0.00196777
vn 0 0 0
v 0.0069681 0.000315686 0.00526488
vn 0.937023 -0.177194 -0.300981
v 0.00346027 -0.00426851 0.00532621
vn 0 0 0
v 0.00517541 -0.00508947 0.0118251
vn 0.913319 -0.40721 0.00531751
v 0.00895852 0.00521761 0.00857567
vn 0.999211 -0.0393198 0.00559858
v 0.00345071 -0.0063615 0.0313218
vn 0.83069 -0.55631 0.0217526
v 0.00653165 -0.00138058 0.0410509
vn 0.957082 -0.287716 0.034835
v 0.00701428 0.00540121 0.0310171
vn 0.973912 0.218222 0.0622448
v 0.00372928 -0.00529533 0.0617853
vn 0.900933 -0.427336 0.0755267
v 0.00557538 0.00196817 0.0699089
vn 0.993806 0.017369 0.109766
v 0.00125883 -0.00408037 0.0763974
vn 0.882109 -0.321158 0.344588
v 0.00305379 0.00427258 0.0765592
vn 0.920705 0.139959 0.364299
v -5.88521e-05 0.00440525 0.0803817
vn 0.760405 -0.175509 0.625285
v 0.00620733 0.00620916 0.00370148
vn 0 0 0
v -5.88521e-05 0.0100918 0.00309121
vn 0 0 0
v 0.00319059 0.00846707 0.0029415
vn 0 0 0
v 0.00462349 0.00846707 0.00370148
vn 0 0 0
v 0.00319059 0.0101442 0.00370148
vn 0 0 0
v 0.00645881 0.0101145 0.00686973
vn 0.900701 0.414885 -0.128872
v 0.00484438 0.0115182 0.00871427
vn 0.301033 0.953481 0.0158904
v 0.00505395 0.00937646 0.0223858
vn 0.391232 0.91612 0.0875282
v 0.00542713 0.00897918 0.0223858
vn 0.856221 0.510389 0.0799261
v 0.00507726 0.00889013 0.0351805
vn 0.387176 0.922006 8.18591e-05
v 0.00527945 0.0086702 0.0378207
vn 0.929331 0.363992 0.0620778
v 0.00359419 0.00966449 0.0572197
vn 0.920532 0.381189 0.0855339
f 15//15 5//5 6//6
f 1//1 16//16 14//14
f 18//18 14//14 16//16
f 14//14 18//18 19//19
f 15//15 17//17 20//20
f 15//15 20//20 5//5
f 15//15 21//21 17//17
f 19//19 18//18 23//23
f 20//20 17//17 25//25
f 27//27 23//23 18//18
f 18//18 28//28 27//27
f 17//17 24//24 25//25
f 23//23 27//27 26//26
f 28//28 29//29 27//27
f 41//41 43//43 44//44
f 39//39 5//5 45//45
f 46//46 44//44 43//43
f 20//20 45//45 5//5
f 44//44 46//46 47//47
f 20//20 25//25 45//45
f 46//46 49//49 47//47
f 25//25 48//48 45//45
f 46//46 50//50 49//49
f 25//25 30//30 48//48
f 49//49 50//50 51//51
f 1//1 2//2 16//16
f 60//60 59//59 57//57
f 62//62 59//59 60//60
f 60//60 63//63 62//62
f 62//62 61//61 59//59
f 61//61 62//62 64//64
f 65//65 64//64 62//62
f 62//62 63//63 65//65
f 64//64 65//65 66//66
f 67//67 66//66 65//65
f 68//68 66//66 67//67
f 74//74 60//60 57//57
f 41//41 75//75 40//40
f 74//74 77//77 60//60
f 60//60 77//77 63//63
f 41//41 44//44 75//75
f 75//75 44//44 76//76
f 76//76 44//44 78//78
f 44//44 47//47 78//78
f 79//79 80//80 63//63
f 63//63 80//80 65//65
f 67//67 65//65 80//80
f 49//49 51//51 47//47
