# Created by Open3D 
# object name: textured
# number of vertices: 126
# number of triangles: 96
v -0.00520722 -0.00418575 0.00514693
vn -0.58006 -0.571543 -0.580404
v 0.00181545 -0.00886752 0.00516137
vn -0.345567 -0.706653 -0.617434
v 0.00415634 -0.00652664 0.00327438
vn 0 0 0
v -0.000525441 -0.00652664 0.00426963
vn 0 0 0
v -0.009889 0.00283692 0.00583941
vn -0.802933 -0.3497 -0.482709
v -0.00520722 -0.00184486 0.00407626
vn 0 0 0
v -0.00754811 0.00283692 0.00445121
vn 0 0 0
v -0.00125026 -0.00184486 0.00276811
vn -0.127366 -0.185278 -0.974397
v -0.00125026 -0.00249318 0.00295028
vn 0 0 0
v 0.00415634 -0.00373505 0.00242081
vn -0.127366 -0.185278 -0.974397
v 0.00883812 -0.00184486 0.00193454
vn 0.180109 -0.240927 -0.953685
v -0.000525441 0.00517781 0.00177516
vn -0.242568 -0.0033092 -0.970129
v -0.00520722 0.00385633 0.00295028
vn -0.242568 -0.0033092 -0.970129
v -0.000525441 0.00283692 0.00178314
vn -0.161789 -0.132771 -0.977853
v 0.00415634 -0.00373505 0.00242081
vn 0 0 0
v 0.00649723 -0.00576475 0.00295028
vn 0 0 0
v -0.00170014 -0.012306 0.0110643
vn -0.395962 -0.867456 -0.301222
v -0.00994767 -0.00593574 0.0122924
vn -0.819006 -0.528201 -0.224128
v -0.00591977 -0.0102911 0.0175507
vn -0.582357 -0.750359 0.312765
v 0.00708245 -0.0132254 0.00861449
vn -0.168054 -0.955099 -0.244017
v 0.00412219 -0.012776 0.0188707
vn -0.298231 -0.907219 0.296668
v -0.0129538 0.0022517 0.0133689
vn -0.936836 -0.328005 -0.121451
v -0.0131439 0.0022517 0.0140695
vn -0.9462 0.323315 0.0131579
v -0.0042637 -0.00252617 0.0318004
vn -0.646259 -0.733048 0.212107
v 0.0042342 -0.00971527 0.0263054
vn 0.39025 -0.883688 0.258458
v 0.00257135 -0.00759272 0.0301414
vn -0.492385 -0.867503 0.0706821
v -0.0109836 0.000214654 0.0213646
vn -0.779658 -0.570905 0.257295
v -0.0107645 0.00195909 0.0220607
vn -0.90288 0.324624 0.281828
v 0.00415634 -0.00730052 0.0485977
vn -0.146381 -0.975716 0.162943
v -0.00645661 0.0022517 0.0439158
vn -0.724806 -0.675552 0.135221
v -0.00609337 0.000770803 0.0503552
vn -0.829647 -0.543352 0.128273
v -0.00646466 0.00195909 0.0445011
vn -0.985282 0.170502 0.0122023
v -0.00049514 -0.00621782 0.0509023
vn -0.571143 -0.813737 0.107832
v -0.00599071 0.00423723 0.0509386
vn -0.839612 0.533537 0.101934
v -0.00141256 -0.00203268 0.0573686
vn -0.656166 -0.593189 0.466447
v 0.00357112 -0.0028698 0.0593207
vn -0.218904 -0.825439 0.520319
v -0.00144854 0.0022517 0.0603319
vn -0.698376 -0.411104 0.585888
v 0.0028296 0.00237434 0.0619577
vn 0 0 0
v 0.00708245 -0.000356633 0.0607916
vn 0 0 0
v -0.00286633 0.0075187 0.0023559
vn -0.0937577 0.175997 -0.979915
v -0.00520722 0.00385633 0.00295028
vn 0 0 0
v -0.00521548 0.00755878 0.00295028
vn 0 0 0
v -0.009889 0.00517781 0.00592588
vn -0.815574 0.334854 -0.471923
v -0.009889 0.00517781 0.00592588
vn 0 0 0
v -0.0103248 0.0106447 0.0105582
vn -0.840337 0.514436 -0.170852
v -0.00308745 0.0122005 0.00374916
vn -0.589217 0.651898 -0.477339
v -0.00520722 0.00759887 0.00295028
vn 0 0 0
v 0.00649723 0.0075187 0.00146
vn -0.0551912 0.132843 -0.989599
v 0.00415634 0.00283692 0.00123684
vn 0.0363544 0.0294373 -0.998905
v -0.00180644 0.0098596 0.00275817
vn 0 0 0
v 0.00181545 0.0122582 0.00263196
vn 0 0 0
v 0.00415634 0.0129248 0.00265495
vn -0.0937577 0.175997 -0.979915
v 0.00196023 0.0180032 0.00881505
vn -0.247645 0.932179 -0.264036
v 0.00415634 0.0149036 0.00412714
vn 0 0 0
v -0.000525441 0.0124313 0.00295028
vn 0 0 0
v -0.000525441 0.0124313 0.00295028
vn 0 0 0
v -0.00793491 0.012538 0.0201948
vn -0.75438 0.567386 0.330126
v -0.00695009 0.0150372 0.0125785
vn -0.573118 0.812294 -0.108235
v -0.000605358 0.0182042 0.0158251
vn -0.247362 0.940401 0.233361
v 0.00415634 0.0138993 0.0287001
vn -0.0463766 0.979266 0.197197
v -0.00600478 0.00568464 0.0295779
vn -0.857401 0.478791 0.188741
v -0.00167475 0.0126815 0.0271966
vn -0.513853 0.823149 0.241623
v -0.0018414 0.0110083 0.0432458
vn -0.712533 0.694827 0.0975314
v 0.00303105 0.012726 0.04494
vn -0.31144 0.944418 0.10526
v -0.00381056 0.00402919 0.0574164
vn -0.674812 0.603888 0.424203
v 0.00415634 0.0128488 0.0450863
vn 0.26522 0.954307 0.137681
v -0.000636214 0.00883803 0.0556203
vn -0.631207 0.725942 0.273104
v 0.00240067 0.00874522 0.0582058
vn 0.349727 0.86479 0.360319
v 0.00137653 0.00528507 0.0611665
vn -0.562468 0.588288 0.580988
v 0.00765352 0.00516567 0.060132
vn 0.62843 0.68503 0.368524
v 0.013343 -0.0111023 0.00763206
vn 0.735157 -0.658337 -0.161669
v 0.0135199 -0.00652664 0.00410087
vn 0.690804 -0.458293 -0.559248
v 0.00649723 -0.0112084 0.00590043
vn 0 0 0
v 0.00766767 -0.0120409 0.00668991
vn 0 0 0
v 0.00415634 -0.00652664 0.00327438
vn 0 0 0
v 0.00883812 -0.00886752 0.00444719
vn 0 0 0
v 0.00883812 -0.00605986 0.00299936
vn 0.180109 -0.240927 -0.953685
v 0.0188636 -0.00121739 0.0063508
vn 0.865628 -0.440238 -0.238494
v 0.00883812 -0.00184486 0.00193454
vn 0 0 0
v 0.011228 -0.0020099 0.00242758
vn 0.180109 -0.240927 -0.953685
v 0.00883812 0.00283692 0.00140723
vn 0.0363544 0.0294373 -0.998905
v 0.00883812 0.00283692 0.00140723
vn 0.202523 0.041907 -0.97838
v 0.0135199 0.00283692 0.00237635
vn 0.202523 0.041907 -0.97838
v 0.0135199 -0.00451584 0.00352557
vn 0 0 0
v 0.0136179 -0.00435079 0.00352557
vn 0 0 0
v 0.0182017 -0.00184486 0.00532762
vn 0.533382 -0.0380751 -0.845017
v 0.01511 0.00283692 0.00295028
vn 0 0 0
v 0.0182017 0.00517781 0.00501119
vn 0.533382 -0.0380751 -0.845017
v 0.0143149 0.00283692 0.00266332
vn 0.533382 -0.0380751 -0.845017
v 0.00415634 -0.0139167 0.0158251
vn 0.252674 -0.94797 0.19367
v 0.0119711 -0.0118477 0.0157567
vn 0.424292 -0.861203 0.279831
v 0.020686 -0.000586524 0.015526
vn 0.927393 -0.368904 0.0620678
v 0.0180017 -0.00652664 0.0169956
vn 0.757908 -0.603892 0.246759
v 0.0215053 0.00459259 0.0117286
vn 0.946768 -0.273853 -0.169219
v 0.0106183 -0.00566177 0.0296999
vn 0.513286 -0.826785 0.230138
v 0.0144852 -0.00149217 0.0296336
vn 0.852415 -0.476383 0.215519
v 0.0172476 0.00342214 0.0252341
vn 0.920914 -0.32488 0.215337
v 0.00939323 -0.00557818 0.0472809
vn 0.623484 -0.773201 0.11588
v 0.00415634 -0.00658417 0.0512312
vn 0.390166 -0.905453 0.167108
v 0.0135988 0.00211607 0.0499126
vn 0.873165 -0.458436 0.165588
v 0.00961788 -0.00266868 0.0550539
vn 0.749679 -0.598263 0.282953
v 0.0100918 0.00283692 0.0587808
vn 0.791949 -0.387555 0.471824
v 0.0135751 0.00283692 0.0500571
vn 0.918172 0.32065 0.23269
v 0.0137096 0.00049603 0.0497681
vn 0 0 0
v 0.00532678 -0.00109673 0.0611581
vn 0.47407 -0.712839 0.516835
v 0.011179 0.0075187 0.00209232
vn 0.202523 0.041907 -0.97838
v 0.00883812 0.0098596 0.00211937
vn 0 0 0
v 0.00964761 0.0123962 0.00287662
vn 0 0 0
v 0.0119885 0.010826 0.00295028
vn 0 0 0
v 0.013897 0.00848511 0.00290669
vn 0 0 0
v 0.00883812 0.0129834 0.00295028
vn 0 0 0
v 0.0182017 0.0075187 0.00521094
vn 0.682844 0.512457 -0.520684
v 0.0131582 0.0166991 0.00763206
vn 0.598771 0.754137 -0.269723
v 0.011179 0.0145414 0.00483145
vn 0.289332 0.64849 -0.704093
v 0.00649723 0.0152658 0.00438292
vn 0 0 0
v 0.00883812 0.0168823 0.00581555
vn 0 0 0
v 0.00430112 0.0186569 0.00975736
vn -0.009204 0.999956 0.00196723
v 0.0208091 0.00693348 0.00997295
vn 0.83486 0.542008 -0.0961009
v 0.0207431 0.00517781 0.0167502
vn 0.872923 0.393898 0.287837
v 0.0159917 0.0146727 0.018166
vn 0.779765 0.578157 0.240209
v 0.0113999 0.0180519 0.015828
vn 0.190767 0.956277 0.221683
v 0.00415634 0.0141649 0.0280953
vn 0.0956342 0.967449 0.234299
v 0.0162413 0.00522575 0.0261625
vn 0.858376 0.446286 0.253023
v 0.0101746 0.012276 0.0295699
vn 0.547187 0.806978 0.2222
v 0.0134677 0.0076012 0.0439158
vn 0.800543 0.573389 0.174228
v 0.00883812 0.0116082 0.0450863
vn 0.489785 0.834357 0.252902
f 8//8 14//14 10//10
f 1//1 17//17 18//18
f 17//17 19//19 18//18
f 2//2 20//20 17//17
f 1//1 2//2 17//17
f 17//17 21//21 19//19
f 17//17 20//20 21//21
f 1//1 18//18 5//5
f 18//18 22//22 5//5
f 21//21 24//24 19//19
f 21//21 26//26 24//24
f 18//18 19//19 27//27
f 19//19 24//24 27//27
f 27//27 22//22 18//18
f 27//27 24//24 30//30
f 24//24 31//31 30//30
f 26//26 29//29 33//33
f 24//24 26//26 33//33
f 33//33 31//31 24//24
f 31//31 33//33 35//35
f 29//29 36//36 33//33
f 33//33 36//36 35//35
f 31//31 35//35 37//37
f 35//35 36//36 37//37
f 45//45 46//46 43//43
f 12//12 14//14 13//13
f 48//48 40//40 52//52
f 53//53 46//46 45//45
f 23//23 45//45 43//43
f 45//45 23//23 28//28
f 28//28 57//57 45//45
f 53//53 45//45 58//58
f 45//45 57//57 58//58
f 53//53 58//58 59//59
f 60//60 53//53 59//59
f 28//28 61//61 57//57
f 57//57 61//61 62//62
f 58//58 57//57 59//59
f 57//57 62//62 59//59
f 59//59 62//62 60//60
f 62//62 61//61 63//63
f 64//64 60//60 62//62
f 63//63 64//64 62//62
f 61//61 32//32 34//34
f 34//34 63//63 61//61
f 65//65 67//67 34//34
f 63//63 34//34 67//67
f 63//63 67//67 64//64
f 69//69 67//67 65//65
f 78//78 71//71 72//72
f 11//11 80//80 77//77
f 88//88 86//86 89//89
f 91//91 90//90 71//71
f 78//78 92//92 71//71
f 71//71 93//93 91//91
f 71//71 92//92 93//93
f 78//78 94//94 92//92
f 90//90 91//91 25//25
f 91//91 95//95 25//25
f 93//93 95//95 91//91
f 93//93 96//96 95//95
f 93//93 92//92 96//96
f 92//92 97//97 96//96
f 25//25 95//95 99//99
f 95//95 98//98 99//99
f 96//96 97//97 100//100
f 95//95 96//96 98//98
f 96//96 101//101 98//98
f 100//100 101//101 96//96
f 101//101 99//99 98//98
f 100//100 102//102 101//101
f 105//105 99//99 101//101
f 102//102 105//105 101//101
f 49//49 48//48 81//81
f 82//82 106//106 83//83
f 113//113 112//112 114//114
f 113//113 118//118 112//112
f 118//118 120//120 119//119
f 114//114 117//117 113//113
f 113//113 117//117 121//121
f 122//122 121//121 117//117
f 118//118 113//113 120//120
f 113//113 121//121 120//120
f 123//123 119//119 120//120
f 121//121 122//122 124//124
f 121//121 124//124 120//120
f 124//124 123//123 120//120
f 123//123 125//125 103//103
f 124//124 126//126 125//125
f 123//123 124//124 125//125
f 124//124 122//122 66//66
f 124//124 66//66 126//126
f 68//68 70//70 126//126
f 126//126 66//66 68//68
f 70//70 125//125 126//126
f 70//70 103//103 125//125
