# Created by Open3D 
# object name: textured
# number of vertices: 212
# number of triangles: 170
v -0.00169618 -0.0121759 0.00478785
vn 0 0 0
v -0.00356572 -0.0122327 0.00527668
vn 0 0 0
v -0.00356572 -0.0122327 0.00527668
vn 0 0 0
v 0.00391242 -0.0139 0.00527668
vn 0 0 0
v 0.00391242 -0.0121759 0.00409831
vn -0.0258777 -0.293462 -0.95562
v 0.000173351 -0.0121759 0.00433514
vn -0.0596588 -0.33057 -0.941894
v 0.00765149 -0.0126611 0.00491187
vn 0 0 0
v -0.00781073 -0.00900059 0.00527668
vn -0.52906 -0.526846 -0.665228
v -0.0083585 -0.0132662 0.00995053
vn -0.565987 -0.741663 -0.359993
v 0.00391242 -0.0139 0.00527668
vn -0.145637 -0.766708 -0.625259
v -0.00216357 -0.0156859 0.00888187
vn -0.228272 -0.819788 -0.525204
v -0.00356572 -0.0169615 0.0146244
vn -0.390238 -0.919134 -0.0539159
v -0.0104917 -0.0123991 0.0158451
vn -0.716552 -0.695772 -0.0495354
v 0.00297766 -0.0171484 0.0127548
vn -0.0286592 -0.976078 -0.215522
v -0.00917434 -0.000958692 0.00379067
vn -0.45676 -0.199018 -0.867042
v -0.0110439 -0.00314189 0.00527668
vn -0.45676 -0.199018 -0.867042
v -0.0119057 -0.000958692 0.00527668
vn 0 0 0
v -0.0120381 0.00278038 0.00458959
vn -0.384666 -0.0846138 -0.919169
v -0.0117542 -0.00890422 0.0101614
vn -0.893712 -0.359949 -0.267798
v -0.0130323 0.00278038 0.00527668
vn -0.839377 -0.285241 -0.462693
v -0.0165717 0.00464991 0.0127548
vn -0.957485 -0.264699 -0.114702
v -0.00781073 -0.00843683 0.00503275
vn -0.308718 -0.249071 -0.917963
v -0.00548941 -0.0108701 0.00527668
vn 0 0 0
v -0.00356572 -0.00843683 0.00360512
vn -0.308718 -0.249071 -0.917963
v -0.00169618 -0.00843683 0.00329876
vn 0 0 0
v -0.00730479 -0.00469776 0.00366404
vn 0 0 0
v -0.00730479 -0.00469776 0.00366404
vn -0.376095 -0.192836 -0.906293
v -0.00543526 -0.00469776 0.00321933
vn -0.285054 -0.228361 -0.930911
v -0.00356572 -0.00656729 0.00318987
vn 0 0 0
v 0.00204289 -0.00843683 0.00290445
vn -0.0596588 -0.33057 -0.941894
v 0.00391242 -0.0130379 0.0046875
vn 0 0 0
v 0.000173351 -0.00563253 0.0025118
vn -0.0320696 -0.0561219 -0.997909
v 0.00391242 -0.00656729 0.00254
vn -0.00280017 -0.267701 -0.963498
v -0.00730479 -0.000958692 0.00296774
vn -0.227706 -0.178266 -0.957273
v -0.00356572 -0.000958692 0.00229354
vn -0.0585216 -0.0681513 -0.995957
v -0.0110439 0.00278038 0.00390249
vn 0 0 0
v -0.00730479 0.000910844 0.00278083
vn -0.262041 -0.0436579 -0.964069
v -0.00543526 0.00278038 0.0023217
vn -0.157295 -0.0507474 -0.986247
v -0.00356572 -0.000958692 0.00229354
vn -0.0191043 -0.0618837 -0.997901
v -0.00356572 0.00278038 0.00204948
vn -0.0317103 -0.0363982 -0.998834
v 0.00391242 0.00278038 0.0019185
vn 0.0256791 -0.0263828 -0.999322
v 0.00391242 -0.00469776 0.0022635
vn 0.0338008 -0.066278 -0.997229
v 0.00391242 0.00278038 0.0019185
vn 0.0472486 -0.0117829 -0.998814
v -0.0133858 -0.00803013 0.0237967
vn -0.948585 -0.315098 -0.0300088
v 0.00110812 -0.0173569 0.0211677
vn -0.0417448 -0.998662 -0.0305235
v 0.00297766 -0.0171484 0.0127548
vn 0.217063 -0.968312 -0.123511
v 0.000991274 -0.0173798 0.0223362
vn 0.22654 -0.974 0.00175662
v -0.00309834 -0.0174286 0.0316838
vn -0.335265 -0.937782 0.090346
v -0.0110725 -0.0122082 0.0335497
vn -0.668033 -0.729346 0.147605
v 0.00157551 -0.0175183 0.0267764
vn -0.0218016 -0.999761 -0.0017446
v 0.0142029 -0.0143231 0.0133882
vn 0.317292 -0.947284 -0.0444897
v -0.0160632 0.00558468 0.0211677
vn -0.98177 -0.188766 0.0222688
v -0.015947 0.00324776 0.0284122
vn -0.980724 -0.193243 0.0289452
v -0.00356572 -0.0146776 0.0389283
vn -0.350953 -0.735819 0.57914
v 0.00198983 -0.0173414 0.033086
vn 0.17736 -0.983774 0.0270593
v 0.00297766 -0.0170217 0.0351892
vn -0.00916933 -0.919027 0.394088
v -0.00776334 -0.00642679 0.042318
vn -0.58534 -0.544574 0.600679
v -0.00239726 -0.0100534 0.0432137
vn -0.23405 -0.628376 0.741865
v 0.00776834 -0.0110074 0.0433382
vn -0.00844826 -0.757818 0.652411
v -0.013529 -0.00779794 0.0326186
vn -0.951782 -0.260722 0.161666
v -0.0145909 0.00278038 0.0363192
vn -0.951662 -0.182072 0.247363
v -0.0116371 -0.00423038 0.039489
vn -0.751794 -0.422757 0.506046
v -0.0129134 0.00228189 0.0389283
vn -0.863906 -0.0235304 0.503103
v -0.0115042 -0.00329561 0.039863
vn -0.700211 -0.0576605 0.711603
v -0.00849831 -0.00329561 0.0428208
vn -0.639679 0.0296635 0.76807
v -0.00939531 0.00913368 0.0408909
vn -0.254008 0.138762 0.957197
v -0.00146249 -0.00913792 0.0437411
vn -0.0917791 -0.102621 0.990477
v -0.00730479 -0.00329561 0.0434982
vn -0.180675 0.0745377 0.980714
v 0.00858627 -0.00995527 0.0439599
vn -0.0407837 -0.241924 0.969438
v 0.0112737 -0.00446407 0.0454432
vn -0.0491833 0.0221948 0.998543
v -0.000761414 0.000768641 0.0443947
vn -0.123774 0.089524 0.988264
v -0.00637002 0.0127971 0.0414133
vn -0.124073 0.147144 0.981303
v -0.0110439 0.00838898 0.00418922
vn 0 0 0
v -0.0121441 0.00651945 0.004553
vn 0 0 0
v -0.0126699 0.00838898 0.00527668
vn 0 0 0
v -0.0110439 0.00651945 0.00382932
vn -0.384666 -0.0846138 -0.919169
v -0.00994149 0.0127749 0.00513994
vn -0.520636 0.504264 -0.688953
v -0.0141708 0.00418253 0.00685809
vn -0.834806 0.157336 -0.527583
v -0.014235 0.0110455 0.00900633
vn -0.803211 0.518182 -0.293838
v -0.0165358 0.00488788 0.0132222
vn -0.984437 0.147608 -0.0953665
v -0.0153209 0.0121281 0.0174286
vn -0.919947 0.391823 0.013127
v -0.00730479 0.0177367 0.00801907
vn -0.504812 0.792466 -0.34229
v -0.00730479 0.00464991 0.00257701
vn 0 0 0
v -0.00730479 0.00838898 0.0027753
vn -0.273265 0.132986 -0.952702
v -0.00356572 0.00651945 0.00199947
vn -0.111977 -0.0070127 -0.993686
v -0.00356572 0.00651945 0.00199947
vn -0.0316786 0.0632711 -0.997493
v -0.00730479 0.0102585 0.00299049
vn 0 0 0
v -0.00543526 0.0102585 0.00262984
vn 0 0 0
v -0.00543526 0.00651945 0.00227978
vn 0 0 0
v -0.00356572 0.0121281 0.00266106
vn -0.185945 0.417207 -0.889586
v -0.00356572 0.0121281 0.00266106
vn -0.0804985 0.116767 -0.989892
v 0.00204289 0.0102585 0.00198443
vn -0.0804985 0.116767 -0.989892
v 0.000173351 0.0121281 0.00227575
vn -0.029889 0.178406 -0.983503
v 0.00391242 0.00278038 0.0019185
vn 0.076872 -0.034719 -0.996436
v -0.00730479 0.0148724 0.0047297
vn -0.269954 0.341181 -0.9004
v -0.00356572 0.0139976 0.00305293
vn -0.340246 0.271397 -0.90032
v -0.00356572 0.0177052 0.00527668
vn -0.185945 0.417207 -0.889586
v 0.00204289 0.0139976 0.00254162
vn 0.0278782 0.341733 -0.939384
v 0.000173351 0.0139976 0.00257045
vn 0 0 0
v 0.00578196 0.0139976 0.00265259
vn 0.0278782 0.341733 -0.939384
v 0.00391242 0.0102585 0.00198782
vn 0.0851128 0.00923567 -0.996329
v -0.00347978 0.0177367 0.00527668
vn 0 0 0
v 0.000173351 0.0183038 0.00478237
vn -0.0887566 0.374598 -0.922929
v 0.00578196 0.0177367 0.00401281
vn -0.0557224 0.365822 -0.929015
v 0.00391242 0.0177367 0.00391631
vn 0 0 0
v 0.00391242 0.019593 0.00527668
vn -0.0956416 0.845271 -0.525709
v 0.00391242 0.0191289 0.00493659
vn 0 0 0
v -0.00725592 0.0191536 0.0143779
vn -0.361777 0.932183 -0.0123291
v 0.00297766 0.0224903 0.0127548
vn -0.18392 0.966499 -0.179034
v -0.0158468 0.0076879 0.0282661
vn -0.99125 0.0704211 0.11164
v -0.0160175 0.00464991 0.0237384
vn -0.983382 -0.131424 0.125252
v -0.0120804 0.0163109 0.0225115
vn -0.679885 0.733215 0.012348
v 0.00578196 0.0227493 0.0216351
vn -0.176683 0.983502 0.0388243
v -0.00356572 0.0200487 0.0312165
vn -0.331504 0.938502 0.0965375
v -0.0141858 0.00934198 0.0357536
vn -0.856 0.396974 0.331174
v -0.0108703 0.0152218 0.0342133
vn -0.640969 0.723566 0.256148
v -0.00961631 0.00838898 0.040984
vn -0.66634 0.228436 0.709795
v -0.00504525 0.0157793 0.0406907
vn -0.56832 0.572029 0.591435
v -0.00408512 0.0181915 0.0380804
vn -0.365366 0.86872 0.334414
v -0.00137242 0.0170534 0.041107
vn -0.0599922 0.228323 0.971735
v 0.00484719 0.0205409 0.0375679
vn -0.179401 0.957522 0.22576
v 0.00297766 0.0188298 0.0400442
vn 0.126755 0.807699 0.575809
v 0.0101515 -0.0121759 0.00527668
vn 0.173548 -0.415916 -0.89269
v 0.00391242 -0.0139 0.00527668
vn 0.231129 -0.805813 -0.545202
v 0.0103134 -0.0145938 0.00901575
vn 0.33516 -0.82606 -0.453093
v 0.0151296 -0.00860325 0.00527668
vn 0.554596 -0.605707 -0.570564
v 0.0185259 -0.0113733 0.0125211
vn 0.744816 -0.625114 -0.233412
v 0.00765149 -0.00843683 0.00304857
vn 0.0930401 -0.217238 -0.971674
v 0.00765149 -0.00843683 0.00304857
vn 0.173548 -0.415916 -0.89269
v 0.0113906 -0.00843683 0.00377549
vn 0 0 0
v 0.0113906 -0.00843683 0.00377549
vn 0.183642 -0.271996 -0.944613
v 0.00578196 -0.00843683 0.00293253
vn 0 0 0
v 0.00765149 -0.00469776 0.00246752
vn 0.0679042 -0.0392384 -0.99692
v 0.00952105 -0.00469776 0.00274687
vn 0 0 0
v 0.0113906 -0.00282823 0.00282596
vn 0.113587 -0.0964546 -0.988835
v 0.0132601 -0.00847843 0.00450929
vn 0 0 0
v 0.0166088 -0.00656729 0.00527668
vn 0 0 0
v 0.0113906 -0.00469776 0.00302622
vn 0.100895 -0.105965 -0.989238
v 0.0151296 -0.00469776 0.0040399
vn 0.327665 -0.125893 -0.936369
v 0.0113906 -0.000958692 0.0026257
vn 0.076872 -0.034719 -0.996436
v 0.0113906 -0.000958692 0.0026257
vn 0.100895 -0.105965 -0.989238
v 0.0113906 0.00278038 0.0024801
vn 0.0747464 -0.0613769 -0.995312
v 0.0151296 -0.000958692 0.00339317
vn 0.366266 -0.101318 -0.924978
v 0.0151296 -0.00282823 0.00371653
vn 0 0 0
v 0.0188687 -0.00208792 0.00499744
vn 0.345815 -0.11443 -0.931299
v 0.0151296 0.000910844 0.00328584
vn 0.278932 -0.0658144 -0.958053
v 0.0113906 0.00278038 0.0024801
vn 0.129942 0.00993862 -0.991472
v 0.0151296 0.00278038 0.0031785
vn 0.324879 0.0418734 -0.944828
v 0.0188687 0.00278038 0.00446419
vn 0.349472 -0.0399718 -0.936094
v 0.0191812 -0.00245807 0.00527668
vn 0.755841 -0.346478 -0.555569
v 0.0199483 -0.000958692 0.00527668
vn 0 0 0
v 0.0224106 -0.00421905 0.0107684
vn 0.882484 -0.372952 -0.286581
v 0.0214708 0.00278038 0.00680448
vn 0.868875 -0.150438 -0.47162
v 0.0231561 0.0020793 0.0109481
vn 0.948459 0.230479 -0.217497
v 0.0233971 0.00137823 0.01182
vn 0.988995 -0.126147 -0.0773077
v 0.0125925 -0.0155271 0.0354874
vn 0.22282 -0.973372 0.0538281
v 0.0167332 -0.0138501 0.0351892
vn 0.582241 -0.805083 0.113295
v 0.0198443 -0.0109758 0.0250529
vn 0.746171 -0.665424 -0.0209704
v 0.0229443 -0.00536563 0.0256877
vn 0.949687 -0.311023 -0.0368645
v 0.0228169 0.00496752 0.0168509
vn 0.983962 0.178159 -0.00885718
v 0.0237014 0.000443459 0.032385
vn 0.995182 -0.0911144 0.036196
v 0.0211992 0.0131745 0.0167276
vn 0.963737 0.261155 -0.0548579
v 0.0236918 0.000209767 0.0328523
vn 0.983717 0.171425 0.0539923
v 0.0123625 -0.0132531 0.0403544
vn 0.2516 -0.826896 0.502931
v 0.0109917 -0.0100602 0.0437099
vn 0.194235 -0.669793 0.716694
v 0.0189053 -0.00819782 0.0433057
vn 0.531414 -0.682995 0.501115
v 0.0225758 -0.00648542 0.0389283
vn 0.894263 -0.429506 0.125773
v 0.0217389 0.0102585 0.0351892
vn 0.9632 0.225737 0.145905
v 0.0216927 -0.00271138 0.0414829
vn 0.925691 -0.0381488 0.376351
v 0.0212989 -0.00125514 0.0415266
vn 0.839929 0.18107 0.511598
v 0.0192053 0.0119769 0.0394515
vn 0.781023 0.383933 0.492543
v 0.0178397 -0.00657443 0.0446742
vn 0.149726 0.107673 0.982847
v 0.0123254 0.00114454 0.0456115
vn -0.0131932 0.158316 0.9873
v 0.0191024 -0.0014346 0.0439187
vn 0.253471 0.108407 0.961249
v 0.0144692 0.014719 0.0423272
vn 0.058772 0.231945 0.970952
v 0.0214336 -0.00469776 0.0426674
vn 0 0 0
v 0.00858627 0.0102585 0.00238709
vn 0.100237 -0.000302379 -0.994964
v 0.0132601 0.00651945 0.00293068
vn 0.13706 -0.00243944 -0.99056
v 0.0113906 0.00651945 0.00251715
vn 0.0748839 0.0098806 -0.997143
v 0.0113906 0.00838898 0.00266743
vn 0 0 0
v 0.0151296 0.00651945 0.00334421
vn 0.324879 0.0418734 -0.944828
v 0.0188687 0.00464991 0.00470301
vn 0 0 0
v 0.0151296 0.00932374 0.00374089
vn 0 0 0
v 0.0183805 0.00906794 0.00527668
vn 0 0 0
v 0.0189988 0.00719841 0.00519297
vn 0 0 0
v 0.00765149 0.0139976 0.00279238
vn 0 0 0
v 0.0113906 0.0130628 0.00331125
vn 0 0 0
v 0.00765149 0.0158671 0.00345085
vn 0 0 0
v 0.0113906 0.0158671 0.00421308
vn 0 0 0
v 0.0153516 0.0132181 0.00474884
vn 0 0 0
v 0.0178924 0.0102585 0.00527668
vn 0 0 0
v 0.0118404 0.0178663 0.00519511
vn 0 0 0
v 0.0137099 0.0164884 0.00527668
vn 0 0 0
v 0.0183805 0.0102585 0.005686
vn 0.715624 0.379889 -0.586146
v 0.0185759 0.0149323 0.00861977
vn 0.867587 0.361724 -0.341246
v 0.00974595 0.0187667 0.00527668
vn 0.383404 0.681208 -0.623664
v 0.0151296 0.0196117 0.00995053
vn 0.460147 0.781655 -0.421047
v 0.0183431 0.0174078 0.0133949
vn 0.755848 0.648348 -0.0913153
v 0.0203339 0.00278038 0.00527668
vn 0.878505 0.251698 -0.40605
v 0.00765149 0.0186371 0.00469299
vn 0 0 0
v 0.0113906 0.0182552 0.00527668
vn 0 0 0
v 0.00391242 0.019593 0.00527668
vn 0.113406 0.800649 -0.588303
v 0.00578196 0.0220756 0.00901575
vn 0.112586 0.985798 -0.124609
v 0.0144739 0.0210149 0.01824
vn 0.449353 0.893348 -0.00340581
v 0.0227688 0.00481774 0.0186101
vn 0 0 0
v 0.0228651 0.0051173 0.0150918
vn 0 0 0
v 0.0204022 0.0158671 0.0277111
vn 0.793874 0.603545 0.0741487
v 0.00578196 0.0215881 0.0355577
vn 0.0789435 0.94427 0.319567
v 0.0104558 0.0222231 0.0316839
vn 0.210464 0.974845 0.0733673
v 0.0165812 0.0176294 0.0371136
vn 0.551644 0.796239 0.248381
v 0.0141948 0.0158671 0.0417307
vn 0.38566 0.646661 0.6581
v 0.00952102 0.0177367 0.0412359
vn -0.0298782 0.29624 0.954646
f 10//10 11//11 8//8
f 8//8 11//11 9//9
f 9//9 12//12 13//13
f 12//12 9//9 11//11
f 10//10 14//14 11//11
f 19//19 21//21 20//20
f 22//22 28//28 24//24
f 6//6 30//30 5//5
f 27//27 16//16 15//15
f 27//27 34//34 28//28
f 37//37 38//38 35//35
f 40//40 41//41 35//35
f 39//39 41//41 32//32
f 42//42 32//32 43//43
f 19//19 8//8 9//9
f 19//19 20//20 8//8
f 19//19 9//9 13//13
f 11//11 14//14 12//12
f 45//45 12//12 14//14
f 12//12 48//48 49//49
f 49//49 13//13 12//12
f 45//45 50//50 12//12
f 12//12 50//50 48//48
f 13//13 44//44 19//19
f 19//19 44//44 21//21
f 21//21 44//44 52//52
f 52//52 44//44 53//53
f 49//49 44//44 13//13
f 49//49 48//48 54//54
f 51//51 55//55 47//47
f 56//56 48//48 50//50
f 58//58 57//57 54//54
f 48//48 56//56 54//54
f 54//54 56//56 59//59
f 54//54 59//59 58//58
f 49//49 60//60 44//44
f 44//44 60//60 53//53
f 60//60 61//61 53//53
f 60//60 49//49 62//62
f 60//60 62//62 61//61
f 64//64 65//65 63//63
f 49//49 54//54 62//62
f 62//62 54//54 57//57
f 67//67 69//69 70//70
f 67//67 70//70 71//71
f 67//67 71//71 68//68
f 68//68 71//71 66//66
f 79//79 77//77 78//78
f 78//78 80//80 79//79
f 80//80 81//81 79//79
f 77//77 79//79 82//82
f 18//18 76//76 37//37
f 84//84 85//85 37//37
f 40//40 38//38 86//86
f 91//91 92//92 86//86
f 93//93 41//41 86//86
f 40//40 85//85 43//43
f 95//95 96//96 84//84
f 90//90 95//95 97//97
f 103//103 104//104 93//93
f 82//82 106//106 77//77
f 82//82 108//108 109//109
f 109//109 106//106 82//82
f 81//81 80//80 110//110
f 79//79 81//81 112//112
f 82//82 79//79 112//112
f 80//80 111//111 110//110
f 112//112 108//108 82//82
f 109//109 108//108 113//113
f 108//108 112//112 114//114
f 114//114 113//113 108//108
f 63//63 110//110 111//111
f 110//110 63//63 115//115
f 81//81 110//110 115//115
f 112//112 81//81 115//115
f 112//112 115//115 116//116
f 115//115 63//63 117//117
f 115//115 117//117 118//118
f 65//65 117//117 63//63
f 115//115 118//118 116//116
f 112//112 116//116 114//114
f 118//118 119//119 116//116
f 114//114 116//116 119//119
f 114//114 119//119 121//121
f 119//119 118//118 121//121
f 71//71 72//72 66//66
f 124//124 125//125 46//46
f 125//125 51//51 46//46
f 126//126 125//125 124//124
f 127//127 125//125 126//126
f 125//125 127//127 51//51
f 33//33 128//128 5//5
f 131//131 123//123 129//129
f 131//131 128//128 135//135
f 42//42 41//41 133//133
f 94//94 140//140 133//133
f 138//138 42//42 141//141
f 135//135 41//41 142//142
f 146//146 145//145 139//139
f 145//145 143//143 149//149
f 126//126 150//150 152//152
f 126//126 152//152 127//127
f 150//150 153//153 152//152
f 155//155 152//152 153//153
f 51//51 47//47 46//46
f 127//127 158//158 51//51
f 51//51 158//158 157//157
f 51//51 157//157 156//156
f 159//159 127//127 152//152
f 127//127 159//159 158//158
f 152//152 155//155 159//159
f 162//162 163//163 160//160
f 154//154 160//160 163//163
f 155//155 161//161 159//159
f 156//156 55//55 51//51
f 164//164 55//55 156//156
f 157//157 164//164 156//156
f 157//157 166//166 164//164
f 158//158 167//167 157//157
f 159//159 167//167 158//158
f 167//167 166//166 157//157
f 167//167 169//169 166//166
f 159//159 161//161 167//167
f 161//161 169//169 167//167
f 168//168 171//171 170//170
f 170//170 163//163 168//168
f 164//164 166//166 165//165
f 173//173 72//72 70//70
f 72//72 71//71 70//70
f 174//174 173//173 70//70
f 172//172 174//174 70//70
f 175//175 173//173 174//174
f 101//101 177//177 43//43
f 177//177 178//178 43//43
f 147//147 41//41 179//179
f 147//147 178//178 146//146
f 148//148 181//181 149//149
f 98//98 104//104 100//100
f 197//197 195//195 194//194
f 195//195 197//197 198//198
f 194//194 154//154 199//199
f 195//195 154//154 194//194
f 195//195 162//162 154//154
f 195//195 198//198 162//162
f 196//196 202//202 203//203
f 203//203 197//197 196//196
f 106//106 109//109 113//113
f 197//197 203//203 204//204
f 194//194 196//196 197//197
f 154//154 162//162 160//160
f 198//198 207//207 162//162
f 203//203 208//208 209//209
f 209//209 204//204 203//203
f 197//197 204//204 198//198
f 198//198 204//204 207//207
f 170//170 171//171 211//211
f 211//211 171//171 210//210
f 168//168 163//163 162//162
f 207//207 168//168 162//162
f 171//171 168//168 207//207
f 207//207 210//210 171//171
f 114//114 121//121 113//113
f 204//204 210//210 207//207
f 209//209 210//210 204//204
f 208//208 122//122 211//211
f 208//208 210//210 209//209
f 208//208 211//211 210//210
f 173//173 120//120 72//72
f 173//173 175//175 120//120
f 175//175 212//212 120//120
