# Created by Open3D 
# object name: textured
# number of vertices: 67
# number of triangles: 43
v -0.00171584 -0.000596946 -0.000152929
vn 0 0 0
v -0.00253218 0.00394292 -0.00121656
vn 0 0 0
v -0.00682734 0.00104531 -0.000152929
vn 0 0 0
v -0.00781201 0.00394292 -0.000152929
vn 0 0 0
v -0.00467976 0.00249411 -0.000684745
vn 0 0 0
v -0.00467976 -0.00640997 0.00838664
vn -0.0909283 -0.995701 -0.0176601
v -0.000303917 -0.00493285 0.00367996
vn 0.203548 -0.972185 -0.115866
v -0.0111225 -0.00186293 0.00628981
vn -0.63148 -0.77539 0.00185473
v -0.0111225 -0.00176395 0.00620674
vn -0.897873 -0.434646 -0.0700567
v -0.00926437 0.00554787 0.0015651
vn -0.914995 0.121137 -0.384851
v -0.0131033 0.00179534 0.00951117
vn -0.995263 0.0965358 -0.0115351
v -0.00682734 -0.000352234 0.000349317
vn 0 0 0
v -0.000384605 -0.0046474 0.00321769
vn 0 0 0
v -0.0111225 0.00179534 0.00311698
vn 0 0 0
v -0.00724638 -0.00495545 0.0331345
vn -0.509964 -0.860196 -0.000557625
v -0.0103854 -0.00165526 0.0535366
vn -0.725072 -0.688673 -0.000161024
v -0.000384605 -0.00718929 0.0734017
vn -0.0235285 -0.999465 0.022704
v -0.00935965 -0.00315133 0.0567579
vn -0.961498 -0.273717 0.0244898
v -0.0116112 0.00879539 0.066422
vn -0.972184 0.234129 0.00644046
v -0.0081235 -0.00503426 0.0653482
vn -0.423808 -0.905016 0.0364976
v -0.0108301 -0.0016091 0.0669589
vn -0.996555 -0.0764636 -0.0321136
v -0.0111225 -0.000900902 0.0642744
vn 0 0 0
v -0.00965785 -0.000775876 0.0967912
vn -0.400126 -0.905283 0.142698
v -0.000396464 -0.00493125 0.0980671
vn -0.200147 -0.967519 0.154427
v -0.011339 0.00584553 0.0967602
vn -0.945522 0.315468 0.0804274
v -0.00682734 0.00501671 0.108249
vn -0.60805 0.738231 0.292045
v -0.000384605 -0.000352234 0.109478
vn -0.423646 -0.84051 0.337737
v 0.000657646 0.00179534 0.109242
vn 0 0 0
v -0.00360597 0.00501671 0.108642
vn 0 0 0
v -0.00657285 0.00769545 -5.7768e-05
vn 0 0 0
v -0.00580936 0.00823808 -0.000152929
vn 0 0 0
v -0.00253218 0.00939489 -0.000152929
vn 0 0 0
v -0.00909677 0.0105683 0.00527226
vn -0.920923 0.38107 -0.0817686
v -0.00458418 0.0125332 0.00325783
vn 0.102208 0.991572 -0.0796197
v -0.00663617 0.0125332 0.00414223
vn 0 0 0
v -0.000891471 0.00881648 -0.000152929
vn 0 0 0
v 0.00056453 0.0132918 0.0193152
vn 0.388278 0.921427 -0.0145885
v -0.00818978 0.0116817 0.0180482
vn -0.901801 0.43173 0.0190709
v -0.00711599 0.0125332 0.0190687
vn -0.0980044 0.995145 -0.00906914
v -0.00797497 0.0116433 0.0339834
vn -0.795999 0.604912 -0.0215976
v -0.0111225 0.0091272 0.0170277
vn 0 0 0
v -0.00579047 0.01267 0.0312989
vn -0.177165 0.984158 0.00673351
v -0.00459909 0.0116607 0.102461
vn -0.0685557 0.995772 0.0611368
v -6.22962e-05 0.0133863 0.0794417
vn 0.229132 0.972249 0.0472228
v -0.00724949 0.0124541 0.0885696
vn -0.700935 0.709188 0.0757748
v -0.00145839 0.00823808 0.108341
vn 0.555353 0.81368 0.17178
v 0.0025901 0.00394292 -0.000152929
vn 0 0 0
v 0.000274373 0.000118762 -0.000152929
vn 0 0 0
v 0.00498999 -0.0046474 0.0105849
vn 0.265681 -0.96383 -0.0211234
v 0.00176297 -0.000352234 0.000490256
vn 0 0 0
v 0.00351377 -0.0046474 0.00790049
vn 0.889756 -0.455623 -0.0272257
v 0.00638187 0.00179534 0.00357249
vn 0.937036 -0.334959 -0.0988205
v 0.00605813 0.0060905 0.00295049
vn 0 0 0
v 0.00850517 0.00501671 0.0116587
vn 0.997848 0.0525323 -0.0392269
v 0.00720677 0.0015859 0.0242758
vn 0.992687 -0.120694 -0.00221954
v 0.00558346 -0.0046474 0.0750123
vn 0.387003 -0.921843 0.0208375
v 0.00675632 -0.00200697 0.0794417
vn 0.973979 -0.221621 0.0474299
v 0.00683989 0.00637799 0.0827366
vn 0.998738 0.044818 0.0226858
v 0.00176297 -0.0040728 0.100656
vn 0.94223 -0.272159 0.195276
v 0.00361086 0.00501671 0.104408
vn 0.969225 -0.176382 0.171732
v 0.00150954 0.00741349 -0.000152929
vn 0 0 0
v 0.00176297 0.00823808 0.000206059
vn 0 0 0
v 0.00365712 0.0102169 0.00405122
vn 0.505734 0.859784 -0.0707392
v 0.00605813 0.0098632 0.00614169
vn 0.98432 0.176175 -0.00874595
v 0.00176297 0.00823808 0.000206059
vn 0 0 0
v 0.00605813 0.00823808 0.0271385
vn 0.683581 0.729825 -0.00855845
v 0.00605813 0.00887287 0.0812124
vn 0.621336 0.782812 0.0338618
f 9//9 11//11 10//10
f 15//15 8//8 6//6
f 17//17 15//15 6//6
f 9//9 18//18 11//11
f 16//16 8//8 15//15
f 11//11 18//18 19//19
f 16//16 15//15 20//20
f 18//18 21//21 19//19
f 15//15 17//17 20//20
f 20//20 17//17 23//23
f 17//17 24//24 23//23
f 19//19 21//21 25//25
f 24//24 27//27 23//23
f 11//11 33//33 10//10
f 33//33 11//11 38//38
f 39//39 37//37 34//34
f 38//38 11//11 40//40
f 37//37 39//39 42//42
f 40//40 11//11 19//19
f 40//40 19//19 45//45
f 42//42 43//43 44//44
f 25//25 45//45 19//19
f 45//45 25//25 26//26
f 7//7 49//49 6//6
f 52//52 55//55 51//51
f 52//52 54//54 55//55
f 17//17 6//6 49//49
f 56//56 17//17 49//49
f 51//51 55//55 57//57
f 55//55 58//58 57//57
f 56//56 24//24 17//17
f 60//60 59//59 57//57
f 57//57 58//58 60//60
f 64//64 54//54 52//52
f 63//63 34//34 37//37
f 63//63 37//37 66//66
f 64//64 55//55 54//54
f 66//66 37//37 67//67
f 44//44 37//37 42//42
f 37//37 44//44 67//67
f 55//55 64//64 58//58
f 43//43 46//46 44//44
f 44//44 46//46 67//67
